<svg xmlns="http://www.w3.org/2000/svg" width="34" height="34" viewBox="0 0 34 34">
  <g id="history-2979247" transform="translate(-6.63 -1.894)">
    <path id="Path_25748" data-name="Path 25748" d="M38.074,21V8.645A4.32,4.32,0,0,0,33.759,4.33H32.724V5.845h1.035a2.8,2.8,0,0,1,2.8,2.8v2.29H8.145V8.645a2.8,2.8,0,0,1,2.8-2.8h2.712V7.114h-.7a.758.758,0,0,0,0,1.515h2.916a.758.758,0,0,0,0-1.515h-.7V2.652a.758.758,0,1,0-1.515,0V4.33H10.944A4.319,4.319,0,0,0,6.63,8.645V29.024a4.32,4.32,0,0,0,4.315,4.315H25.739A8.723,8.723,0,1,0,38.075,21ZM10.945,31.823a2.8,2.8,0,0,1-2.8-2.8V12.451H36.559v7.371a8.725,8.725,0,0,0-12,12ZM32,34.475a7.222,7.222,0,1,1,5.1-2.115A7.222,7.222,0,0,1,32,34.475ZM31.047,2.652V7.115h.7a.758.758,0,1,1,0,1.515H28.832a.758.758,0,1,1,0-1.515h.7V5.846H16.85V4.33H29.532V2.652a.758.758,0,1,1,1.515,0ZM35.7,29.122a.225.225,0,0,1,.043.316l-.644.848h0a.225.225,0,0,1-.316.043L31.326,27.7a.226.226,0,0,1-.089-.179V21.4a.226.226,0,0,1,.225-.225h1.065a.226.226,0,0,1,.225.225v5.479Z" fill="#707070"/>
  </g>
</svg>
