<svg xmlns="http://www.w3.org/2000/svg" width="47.19" height="39.335" viewBox="0 0 47.19 39.335">
  <g id="Add_Record_Payment" data-name="Add Record Payment" transform="translate(-8.496 -11.351)">
    <g id="Component_28_6" data-name="Component 28 – 6" transform="translate(33.686 28.686)">
      <circle id="Ellipse_24" data-name="Ellipse 24" cx="11" cy="11" r="11" fill="#c461f5"/>
      <g id="Group_19696" data-name="Group 19696" transform="translate(6.069 6.069)">
        <line id="Line_43" data-name="Line 43" x2="10" transform="translate(-0.069 4.931)" fill="none" stroke="#fff" stroke-linecap="round" stroke-width="2"/>
        <line id="Line_44" data-name="Line 44" x2="9.71" transform="translate(4.855) rotate(90)" fill="none" stroke="#fff" stroke-linecap="round" stroke-width="2"/>
      </g>
    </g>
    <g id="Add_Record" data-name="Add Record" transform="translate(8.496 11.351)">
      <path id="Path_15352" data-name="Path 15352" d="M242.928,81.813a3.19,3.19,0,0,0,3.247-2.478,2.93,2.93,0,0,0-2.243-3.217c-.916-.335-1.758-.7-2.034-.82a.439.439,0,0,1-.145-.4.674.674,0,0,1,.538-.535,2.434,2.434,0,0,1,1.994.463h0a1.026,1.026,0,1,0,1.32-1.571h0a4.47,4.47,0,0,0-3.895-.846,2.732,2.732,0,0,0-1.978,2.207,2.478,2.478,0,0,0,1.1,2.452,1.023,1.023,0,0,0,.143.079c.044.02,1.082.487,2.252.916.242.09,1.024.421.934.93a1.185,1.185,0,0,1-1.232.786,2.534,2.534,0,0,1-1.862-.778,1.027,1.027,0,1,0-1.522,1.379,4.556,4.556,0,0,0,3.377,1.439Z" transform="translate(-225.114 -67.782)" fill="#c461f5"/>
      <path id="Path_15353" data-name="Path 15353" d="M155.037,18.475A9.236,9.236,0,0,0,160.53,2.053h.366a5.818,5.818,0,0,1,5.816,5.821v8.471l-.985-.985a1.027,1.027,0,1,0-1.452,1.452l2.747,2.747a1.027,1.027,0,0,0,1.452,0l2.747-2.747a1.027,1.027,0,1,0-1.452-1.452l-.985.985V7.874A7.874,7.874,0,0,0,160.9,0h-6.058a9.239,9.239,0,1,0,.207,18.477Zm-.309-16.422a7.186,7.186,0,1,1-7.186,7.186,7.186,7.186,0,0,1,7.186-7.186Z" transform="translate(-137.56 0)" fill="#c461f5"/>
      <path id="Path_15354" data-name="Path 15354" d="M34.873,313.039a3.089,3.089,0,0,0-1.693-1.818,2.963,2.963,0,0,0-2.447.055l-5.967,2.851a3.046,3.046,0,0,0-2.447-2.6l-2.717-.487a6.682,6.682,0,0,1-2.662-1.121,8.647,8.647,0,0,0-7.993-1.029l-2.051.769-.093-.264a.992.992,0,0,0-1.28-.613l-3.754,1.4a1.026,1.026,0,0,0-.659.967V323.37a1.013,1.013,0,0,0,1,1.027H6.434a.974.974,0,0,0,.34-.062l3.754-1.4a1.024,1.024,0,0,0,.657-.954l8.529,1.207a4.867,4.867,0,0,0,3-.538l10.716-5.772a3.164,3.164,0,0,0,1.446-3.845ZM6.256,322.352H3.1V311.878l2.158-.811L8.9,321.358Zm26.242-7.3-10.716,5.775a2.927,2.927,0,0,1-1.8.324l-9.5-1.353-2.9-8.213,2.057-.76a6.691,6.691,0,0,1,6.186.8,8.642,8.642,0,0,0,3.438,1.437l2.717.487a1.029,1.029,0,0,1,.719,1.17,1,1,0,0,1-1.066.844l-6.348-1.15a.982.982,0,0,0-1.009.306,1.05,1.05,0,0,0-.184,1.065,1,1,0,0,0,.846.644l6.348,1.15a2.933,2.933,0,0,0,2.493-.721l7.8-3.732a1.029,1.029,0,0,1,1.4.485,1.086,1.086,0,0,1-.472,1.436Z" transform="translate(-1.11 -290.413)" fill="#c461f5"/>
    </g>
  </g>
</svg>
