<svg xmlns="http://www.w3.org/2000/svg" width="43.624" height="43.976" viewBox="0 0 43.624 43.976">
  <g id="Add_Task" data-name="Add Task" transform="translate(-10.71 -9.71)">
    <g id="task-icon" transform="translate(10.71 9.71)">
      <g id="Group_19775" data-name="Group 19775" transform="translate(0 0)">
        <path id="Path_15471" data-name="Path 15471" d="M8.89,17.2,5.8,20.292,4.59,19.078a.944.944,0,1,0-1.335,1.335L5.141,22.29a.938.938,0,0,0,1.335,0l3.747-3.747a.944.944,0,0,0-1.335-1.335Z" transform="translate(0.757 13.076)" fill="#49b9ad"/>
        <path id="Path_15472" data-name="Path 15472" d="M8.89,12.224,5.8,15.313,4.59,14.1a.944.944,0,1,0-1.335,1.335L5.141,17.31a.938.938,0,0,0,1.335,0l3.747-3.747a.944.944,0,0,0-1.335-1.335Z" transform="translate(0.757 8.678)" fill="#49b9ad"/>
        <path id="Path_15473" data-name="Path 15473" d="M8.9,13.83h7.5a.938.938,0,0,0,0-1.876H8.9a.938.938,0,0,0,0,1.876Z" transform="translate(5.158 8.678)" fill="#49b9ad"/>
        <path id="Path_15474" data-name="Path 15474" d="M8.89,7.249,5.8,10.334,4.59,9.12a.944.944,0,1,0-1.335,1.335l1.886,1.875a.938.938,0,0,0,1.335,0l3.742-3.747A.944.944,0,1,0,8.883,7.249Z" transform="translate(0.757 4.278)" fill="#49b9ad"/>
        <path id="Path_15475" data-name="Path 15475" d="M8.9,8.846h15a.938.938,0,0,0,0-1.876H8.9a.938.938,0,1,0,0,1.876Z" transform="translate(5.158 4.278)" fill="#49b9ad"/>
        <path id="Path_15476" data-name="Path 15476" d="M8.9,10.838h15a.938.938,0,0,0,0-1.876H8.9a.938.938,0,0,0,0,1.876Z" transform="translate(5.158 6.037)" fill="#49b9ad"/>
        <path id="Path_15477" data-name="Path 15477" d="M34.756,23.691V8.387a3.641,3.641,0,0,0-3.641-3.641H27.248V3.4A2.418,2.418,0,0,0,24.853,1H10.9A2.418,2.418,0,0,0,8.5,3.4V4.742H4.629A3.641,3.641,0,0,0,1,8.384V38.625a3.641,3.641,0,0,0,3.641,3.641h28.24A9.268,9.268,0,0,0,38.5,40.383a9.378,9.378,0,0,0-3.747-16.692ZM10.372,3.4A.536.536,0,0,1,10.9,2.87H24.856a.536.536,0,0,1,.526.526V6.1a.536.536,0,0,1-.526.526H10.9a.536.536,0,0,1-.527-.526ZM4.633,40.381a1.761,1.761,0,0,1-1.764-1.764V8.384A1.761,1.761,0,0,1,4.634,6.621H8.572A2.376,2.376,0,0,0,10.9,8.5H24.857a2.376,2.376,0,0,0,2.326-1.876h3.939a1.767,1.767,0,0,1,1.764,1.765V23.5a9.378,9.378,0,0,0-5.627,16.88Zm28.247,0a7.5,7.5,0,1,1,7.5-7.5,7.5,7.5,0,0,1-7.5,7.5Z" transform="translate(-1 -1)" fill="#49b9ad"/>
        <path id="Path_15478" data-name="Path 15478" d="M19.3,19.736V16.374a.938.938,0,1,0-1.876,0v3.752a.938.938,0,0,0,.274.664l1.878,1.869a.944.944,0,0,0,1.335-1.335Z" transform="translate(13.516 11.756)" fill="#49b9ad"/>
        <path id="Path_15479" data-name="Path 15479" d="M16.407,13.942H8.9a.938.938,0,0,0,0,1.876h7.5a.938.938,0,0,0,0-1.876Z" transform="translate(5.158 10.437)" fill="#49b9ad"/>
        <path id="Path_15480" data-name="Path 15480" d="M14.531,18.921H8.9a.938.938,0,1,0,0,1.876h5.627a.938.938,0,0,0,0-1.876Z" transform="translate(5.158 14.836)" fill="#49b9ad"/>
        <path id="Path_15481" data-name="Path 15481" d="M14.531,16.929H8.9a.938.938,0,1,0,0,1.876h5.627a.938.938,0,0,0,0-1.876Z" transform="translate(5.158 13.076)" fill="#49b9ad"/>
      </g>
    </g>
    <g id="Component_28_7" data-name="Component 28 – 7" transform="translate(32.333 31.686)">
      <circle id="Ellipse_24" data-name="Ellipse 24" cx="11" cy="11" r="11" transform="translate(0 0)" fill="#49b9ad"/>
      <g id="Group_19696" data-name="Group 19696" transform="translate(6.069 6.069)">
        <line id="Line_43" data-name="Line 43" x2="10" transform="translate(-0.069 4.931)" fill="none" stroke="#fff" stroke-linecap="round" stroke-width="2"/>
        <line id="Line_44" data-name="Line 44" x2="9.71" transform="translate(4.855) rotate(90)" fill="none" stroke="#fff" stroke-linecap="round" stroke-width="2"/>
      </g>
    </g>
  </g>
</svg>
