<svg xmlns="http://www.w3.org/2000/svg" width="41.731" height="40.549" viewBox="0 0 41.731 40.549">
  <g id="Add_Invoice" data-name="Add Invoice" transform="translate(-11.778 -11.137)">
    <g id="Current" transform="translate(11.778 11.137)">
      <g id="Group_19720" data-name="Group 19720" transform="translate(0 0)">
        <path id="Path_15336" data-name="Path 15336" d="M34.394,10.8a.536.536,0,0,0-.977.305v3.016a.536.536,0,1,0,1.073,0v-1.3l1.061,1.537a.58.58,0,0,0,.649.235.59.59,0,0,0,.406-.584l-.027-2.92a.536.536,0,0,0-.536-.531h-.005a.536.536,0,0,0-.531.541l.013,1.323Z" transform="translate(-28.161 -7.672)" fill="#006d77"/>
        <path id="Path_15337" data-name="Path 15337" d="M27.034,14.117V11.1a.536.536,0,1,0-1.073,0v3.022a.536.536,0,1,0,1.073,0Z" transform="translate(-22.745 -7.672)" fill="#006d77"/>
        <path id="Path_15338" data-name="Path 15338" d="M77.293,10.559a.536.536,0,0,0-.536.536v3.022a.536.536,0,1,0,1.073,0V11.1A.536.536,0,0,0,77.293,10.559Z" transform="translate(-59.654 -7.672)" fill="#006d77"/>
        <path id="Path_15339" data-name="Path 15339" d="M101.252,11.683a.536.536,0,1,0,0-1.073H99.99a.536.536,0,0,0-.536.536V14.14a.536.536,0,0,0,.536.536h1.262a.536.536,0,1,0,0-1.073h-.725V13.18h.632a.536.536,0,0,0,0-1.073h-.632v-.424h.725Z" transform="translate(-76.146 -7.709)" fill="#006d77"/>
        <path id="Path_15340" data-name="Path 15340" d="M85.888,11.632a.969.969,0,0,1,.544.166.537.537,0,0,0,.6-.889,2.047,2.047,0,1,0-1.145,3.745,1.726,1.726,0,0,0,1.363-.618.536.536,0,1,0-.822-.689.664.664,0,0,1-.068.071.687.687,0,0,1-.472.164.977.977,0,1,1,0-1.948Z" transform="translate(-64.801 -7.672)" fill="#006d77"/>
        <path id="Path_15341" data-name="Path 15341" d="M48.411,14.653h0a.607.607,0,0,0,.569-.414l.986-2.97a.536.536,0,1,0-1.018-.338L48.4,12.592l-.581-1.674a.537.537,0,0,0-1.014.352l1.035,2.98a.6.6,0,0,0,.57.4Z" transform="translate(-37.871 -7.672)" fill="#006d77"/>
        <path id="Path_15342" data-name="Path 15342" d="M62.692,12.606a2.047,2.047,0,1,0-2.047,2.047,2.047,2.047,0,0,0,2.047-2.047Zm-3.022,0a.977.977,0,1,1,.977.977.977.977,0,0,1-.977-.977Z" transform="translate(-46.459 -7.672)" fill="#006d77"/>
        <path id="Path_15343" data-name="Path 15343" d="M80.463,34.208a.536.536,0,0,0,.536.536h6.453a.536.536,0,1,0,0-1.073H81a.536.536,0,0,0-.536.536Z" transform="translate(-62.347 -24.467)" fill="#006d77"/>
        <path id="Path_15344" data-name="Path 15344" d="M97.281,42.342H94.525a.536.536,0,0,0,0,1.073h2.756a.536.536,0,0,0,0-1.073Z" transform="translate(-72.175 -30.767)" fill="#006d77"/>
        <path id="Path_15345" data-name="Path 15345" d="M81.851,114.919c-.16,0-.26-.113-.5-.475a1.5,1.5,0,0,0-2.789,0c-.239.362-.34.475-.5.475s-.26-.113-.5-.475a1.5,1.5,0,0,0-2.789,0c-.239.362-.34.475-.5.475a.536.536,0,1,0,0,1.073,1.683,1.683,0,0,0,1.395-.956c.239-.362.34-.475.5-.475s.26.113.5.475a1.5,1.5,0,0,0,2.789,0c.239-.362.34-.475.5-.475s.26.113.5.475a1.683,1.683,0,0,0,1.395.956.536.536,0,1,0,0-1.073Z" transform="translate(-57.461 -82.464)" fill="#006d77"/>
        <path id="Path_15346" data-name="Path 15346" d="M42.52,27.181a.536.536,0,0,0-.536.536v6.6a1.233,1.233,0,0,1-1.233,1.232H16.508a1.234,1.234,0,0,1-1.232-1.232V2.305a1.233,1.233,0,0,1,1.232-1.232H20.25A.536.536,0,0,0,20.25,0H16.508A2.308,2.308,0,0,0,14.2,2.305v32.01a2.308,2.308,0,0,0,2.308,2.305H40.75a2.308,2.308,0,0,0,2.305-2.305v-6.6a.536.536,0,0,0-.536-.536Z" transform="translate(-14.2 0)" fill="#006d77"/>
        <path id="Path_15347" data-name="Path 15347" d="M61.1,0H42.744a.536.536,0,0,0,0,1.073H61.1a1.233,1.233,0,0,1,1.232,1.232V25.573a.536.536,0,0,0,1.073,0V2.305A2.308,2.308,0,0,0,61.1,0Z" transform="translate(-34.55 0)" fill="#006d77"/>
        <path id="Path_15348" data-name="Path 15348" d="M28.755,54.563V65.7a1.262,1.262,0,0,0,1.26,1.26h5.279a.536.536,0,0,0,0-1.073H30.015a.187.187,0,0,1-.187-.187V62.926H43.382v2.965H37.439a.536.536,0,1,0,0,1.073H48.393a1.262,1.262,0,0,0,1.263-1.26V54.563A1.262,1.262,0,0,0,48.393,53.3H30.015a1.262,1.262,0,0,0-1.26,1.26Zm1.26-.187H43.381V57.34H29.828V54.562a.187.187,0,0,1,.187-.186Zm-.187,7.478v-3.44H43.382v3.44Zm18.753,0H44.455v-3.44h4.125Zm-.187,4.037H44.455V62.927h4.125v2.778a.187.187,0,0,1-.187.186Zm.187-11.329V57.34H44.455V54.375h3.938a.187.187,0,0,1,.187.187Z" transform="translate(-24.775 -38.731)" fill="#006d77"/>
      </g>
    </g>
    <g id="Component_28_5" data-name="Component 28 – 5" transform="translate(31.51 29.686)">
      <circle id="Ellipse_24" data-name="Ellipse 24" cx="11" cy="11" r="11" fill="#006d77"/>
      <g id="Group_19696" data-name="Group 19696" transform="translate(6.069 6.069)">
        <line id="Line_43" data-name="Line 43" x2="10" transform="translate(-0.069 4.931)" fill="none" stroke="#fff" stroke-linecap="round" stroke-width="2"/>
        <line id="Line_44" data-name="Line 44" x2="9.71" transform="translate(4.855) rotate(90)" fill="none" stroke="#fff" stroke-linecap="round" stroke-width="2"/>
      </g>
    </g>
  </g>
</svg>
