<svg xmlns="http://www.w3.org/2000/svg" width="24" height="21" viewBox="0 0 24 21">
  <g id="settings-1837227" transform="translate(-3 -1.5)">
    <path id="Path_17697" data-name="Path 17697" d="M24.75,1.5H5.25A2.25,2.25,0,0,0,3,3.75V15a2.25,2.25,0,0,0,2.25,2.25h7.5a.75.75,0,1,0,0-1.5H5.25A.75.75,0,0,1,4.5,15V3.75A.75.75,0,0,1,5.25,3h19.5a.75.75,0,0,1,.75.75v6a.75.75,0,1,0,1.5,0v-6A2.25,2.25,0,0,0,24.75,1.5Z" fill="#09a191"/>
    <path id="Path_17698" data-name="Path 17698" d="M23.25,10.5A.75.75,0,0,0,24,9.75v-3A.75.75,0,0,0,23.25,6a.75.75,0,0,1-.75-.75.75.75,0,0,0-.75-.75H8.25a.75.75,0,0,0-.75.75A.75.75,0,0,1,6.75,6,.75.75,0,0,0,6,6.75V12a.75.75,0,0,0,.75.75.75.75,0,0,1,.75.75.75.75,0,0,0,.75.75h4.5a.75.75,0,1,0,0-1.5H8.872A2.25,2.25,0,0,0,7.5,11.378V7.372A2.25,2.25,0,0,0,8.872,6H21.127A2.25,2.25,0,0,0,22.5,7.372V9.75a.75.75,0,0,0,.75.75Z" fill="#09a191"/>
    <path id="Path_17699" data-name="Path 17699" d="M26.25,15.75h-.817a4.5,4.5,0,0,0-.75-1.853l.578-.578h0A.75.75,0,0,0,24.2,12.262l-.578.578a4.5,4.5,0,0,0-1.852-.75v-.84a.75.75,0,1,0-1.5,0v.817a4.5,4.5,0,0,0-1.853.75l-.578-.578h0A.75.75,0,1,0,16.77,13.3l.578.578h0a4.5,4.5,0,0,0-.75,1.853H15.75a.75.75,0,1,0,0,1.5h.817a4.5,4.5,0,0,0,.75,1.852l-.578.578h0A.75.75,0,0,0,17.8,20.715l.578-.578a4.5,4.5,0,0,0,1.852.75v.862a.75.75,0,1,0,1.5,0v-.817a4.5,4.5,0,0,0,1.853-.75l.578.578h0A.75.75,0,1,0,25.23,19.7l-.578-.578h0a4.5,4.5,0,0,0,.75-1.853h.847a.75.75,0,1,0,0-1.5ZM21,19.5a3,3,0,1,1,2.121-.879A3,3,0,0,1,21,19.5Z" fill="#09a191"/>
  </g>
</svg>
