<svg xmlns="http://www.w3.org/2000/svg" width="30" height="19.121" viewBox="0 0 30 19.121">
  <g id="Group_21542" data-name="Group 21542" transform="translate(0 -5.44)">
    <g id="Group_21539" data-name="Group 21539">
      <g id="Group_21538" data-name="Group 21538">
        <path id="Path_18057" data-name="Path 18057" d="M29.809,14.416C29.541,14.05,23.156,5.44,15,5.44S.458,14.05.19,14.416a.99.99,0,0,0,0,1.167C.458,15.95,6.844,24.56,15,24.56s14.541-8.61,14.809-8.977A.989.989,0,0,0,29.809,14.416ZM15,22.582C8.992,22.582,3.789,16.868,2.249,15,3.787,13.129,8.98,7.417,15,7.417S26.21,13.131,27.751,15C26.213,16.871,21.02,22.582,15,22.582Z" fill="#bc8321"/>
      </g>
    </g>
    <g id="Group_21541" data-name="Group 21541">
      <g id="Group_21540" data-name="Group 21540">
        <path id="Path_18058" data-name="Path 18058" d="M15,9.066A5.934,5.934,0,1,0,20.934,15,5.934,5.934,0,0,0,15,9.066Zm0,9.89A3.956,3.956,0,1,1,18.956,15,3.956,3.956,0,0,1,15,18.956Z" fill="#bc8321"/>
      </g>
    </g>
  </g>
</svg>
