<svg xmlns="http://www.w3.org/2000/svg" xmlns:xlink="http://www.w3.org/1999/xlink" width="49.716" height="60" viewBox="0 0 49.716 60">
  <defs>
    <filter id="Ellipse_410" x="24.006" y="20.96" width="11.43" height="11.755" filterUnits="userSpaceOnUse">
      <feOffset dy="0.338" input="SourceAlpha"/>
      <feGaussianBlur stdDeviation="0.338" result="blur"/>
      <feFlood flood-opacity="0.161"/>
      <feComposite operator="in" in2="blur"/>
      <feComposite in="SourceGraphic"/>
    </filter>
    <filter id="Ellipse_410-2" x="24.006" y="35.96" width="11.43" height="11.755" filterUnits="userSpaceOnUse">
      <feOffset dy="0.338" input="SourceAlpha"/>
      <feGaussianBlur stdDeviation="0.338" result="blur-2"/>
      <feFlood flood-opacity="0.161"/>
      <feComposite operator="in" in2="blur-2"/>
      <feComposite in="SourceGraphic"/>
    </filter>
  </defs>
  <g id="Custom-1" transform="translate(-14.574 -1.514)">
    <path id="Path_26226" data-name="Path 26226" d="M62.524,14.7,51.1,3.281a5.973,5.973,0,0,0-4.227-1.767H20.568a5.991,5.991,0,0,0-5.994,5.994V55.521a5.991,5.991,0,0,0,5.994,5.994H58.3a5.991,5.991,0,0,0,5.994-5.994V18.927A6.558,6.558,0,0,0,62.524,14.7ZM58.3,58.3H20.568a2.693,2.693,0,0,1-2.713-2.713V7.571a2.693,2.693,0,0,1,2.713-2.713H46.625V15.584a3.662,3.662,0,0,0,3.659,3.659H61.009V55.584A2.733,2.733,0,0,1,58.3,58.3Z" fill="#ffbd7f"/>
    <g id="Group_23537" data-name="Group 23537" transform="translate(1100.052 644.602)">
      <rect id="Rectangle_2733" data-name="Rectangle 2733" width="19.129" height="6.485" rx="3" transform="translate(-1070.185 -619.83)" fill="rgba(255,161,73,0.2)"/>
      <g transform="matrix(1, 0, 0, 1, -1085.48, -643.09)" filter="url(#Ellipse_410)">
        <ellipse id="Ellipse_410-3" data-name="Ellipse 410" cx="4.701" cy="4.863" rx="4.701" ry="4.863" transform="translate(25.02 21.64)" fill="#ffa149"/>
      </g>
    </g>
    <g id="Group_23537-2" data-name="Group 23537" transform="translate(1100.052 659.602)">
      <rect id="Rectangle_2733-2" data-name="Rectangle 2733" width="19.129" height="6.485" rx="3" transform="translate(-1070.185 -619.83)" fill="rgba(255,161,73,0.2)"/>
      <g transform="matrix(1, 0, 0, 1, -1085.48, -658.09)" filter="url(#Ellipse_410-2)">
        <ellipse id="Ellipse_410-4" data-name="Ellipse 410" cx="4.701" cy="4.863" rx="4.701" ry="4.863" transform="translate(25.02 36.64)" fill="#ffa149"/>
      </g>
    </g>
  </g>
</svg>
