<svg xmlns="http://www.w3.org/2000/svg" width="20" height="20" viewBox="0 0 20 20">
  <path id="arrows-rotate-solid" d="M34.667,16a1.333,1.333,0,0,0-1.333,1.333V20.42a9.04,9.04,0,0,0-15.934,2.5,1.334,1.334,0,0,0,2.538.82A6.371,6.371,0,0,1,31.183,22h-1.85a1.333,1.333,0,0,0,0,2.667h5.333A1.333,1.333,0,0,0,36,23.333v-6A1.332,1.332,0,0,0,34.667,16Zm-.925,11.4a1.333,1.333,0,0,0-1.679.858A6.372,6.372,0,0,1,20.817,30h1.85a1.333,1.333,0,1,0,0-2.667H17.333A1.333,1.333,0,0,0,16,28.667v6a1.333,1.333,0,0,0,2.667,0V31.58a9.009,9.009,0,0,0,15.9-2.5A1.265,1.265,0,0,0,33.742,27.4Z" transform="translate(-16 -16)" fill="#ffa149"/>
</svg>
