<svg id="Group_2" data-name="Group 2" xmlns="http://www.w3.org/2000/svg" width="45.586" height="60" viewBox="0 0 45.586 60">
  <g id="Group_24185" data-name="Group 24185" transform="translate(0.293)">
    <path id="Path_1" data-name="Path 1" d="M44.707,170.057a.879.879,0,0,0-.879.879v7.07a1.466,1.466,0,0,1-1.465,1.465H3.223a1.466,1.466,0,0,1-1.465-1.465V138.2A.879.879,0,0,0,0,138.2v39.806a3.226,3.226,0,0,0,3.223,3.223h39.14a3.226,3.226,0,0,0,3.223-3.223v-7.07a.879.879,0,0,0-.879-.879Z" transform="translate(-0.293 -121.229)" fill="#016972"/>
    <path id="Path_2" data-name="Path 2" d="M42.363,0H37.914a.879.879,0,0,0,0,1.758h4.449a1.466,1.466,0,0,1,1.465,1.465V8.145H1.758V3.223A1.466,1.466,0,0,1,3.223,1.758h30.6a.879.879,0,1,0,0-1.758H3.223A3.226,3.226,0,0,0,0,3.223v9.465a.879.879,0,0,0,1.758,0V9.9h42.07V45.554a.879.879,0,1,0,1.758,0V3.223A3.226,3.226,0,0,0,42.363,0" transform="translate(-0.293)" fill="#016972"/>
    <path id="Path_3" data-name="Path 3" d="M239.738,115.9A6.738,6.738,0,1,0,233,109.158a6.738,6.738,0,0,0,6.738,6.742m0-11.719a4.98,4.98,0,1,1-4.98,4.98,4.98,4.98,0,0,1,4.98-4.98" transform="translate(-205.988 -90.418)" fill="#016972"/>
    <path id="Path_4" data-name="Path 4" d="M239.738,246.974A6.738,6.738,0,1,0,233,240.236a6.738,6.738,0,0,0,6.738,6.738m0-11.719a4.98,4.98,0,1,1-4.98,4.98,4.98,4.98,0,0,1,4.98-4.98" transform="translate(-205.988 -206.134)" fill="#016972"/>
    <path id="Path_5" data-name="Path 5" d="M239.738,378.051A6.738,6.738,0,1,0,233,371.313a6.738,6.738,0,0,0,6.738,6.738m0-11.719a4.98,4.98,0,1,1-4.98,4.98,4.98,4.98,0,0,1,4.98-4.98" transform="translate(-205.988 -321.85)" fill="#016972"/>
    <path id="Path_6" data-name="Path 6" d="M50.11,135.534H64.172a.879.879,0,0,0,0-1.758H50.11a.879.879,0,1,0,0,1.758" transform="translate(-43.755 -118.099)" fill="#016972"/>
    <path id="Path_7" data-name="Path 7" d="M50.11,172.822h7.031a.879.879,0,1,0,0-1.758H50.11a.879.879,0,0,0,0,1.758" transform="translate(-43.755 -151.017)" fill="#016972"/>
    <path id="Path_8" data-name="Path 8" d="M50.11,266.347H64.172a.879.879,0,1,0,0-1.758H50.11a.879.879,0,1,0,0,1.758" transform="translate(-43.755 -233.582)" fill="#016972"/>
    <path id="Path_9" data-name="Path 9" d="M50.11,303.635h7.031a.879.879,0,1,0,0-1.758H50.11a.879.879,0,0,0,0,1.758" transform="translate(-43.755 -266.501)" fill="#016972"/>
    <path id="Path_10" data-name="Path 10" d="M50.11,397.159H64.172a.879.879,0,1,0,0-1.758H50.11a.879.879,0,0,0,0,1.758" transform="translate(-43.755 -349.065)" fill="#016972"/>
    <path id="Path_11" data-name="Path 11" d="M50.11,434.447h7.031a.879.879,0,1,0,0-1.758H50.11a.879.879,0,0,0,0,1.758" transform="translate(-43.755 -381.983)" fill="#016972"/>
    <path id="Path_12" data-name="Path 12" d="M276.541,140.119a.692.692,0,1,1,.717-.692.7.7,0,0,1-.717.692m-.133-6.05h.208a.515.515,0,0,1,.515.532l-.1,3.045a.515.515,0,1,1-1.03,0l-.107-3.045a.515.515,0,0,1,.515-.533" transform="translate(-243.779 -118.358)" fill="#016972"/>
    <path id="Path_13" data-name="Path 13" d="M293.541,140.193a.692.692,0,1,1,.717-.692.7.7,0,0,1-.717.692m-.133-6.05h.208a.515.515,0,0,1,.515.532l-.1,3.045a.515.515,0,1,1-1.03,0l-.107-3.045a.515.515,0,0,1,.515-.533" transform="translate(-258.787 -118.423)" fill="#016972"/>
    <path id="Path_14" data-name="Path 14" d="M276.541,271.2a.692.692,0,1,1,.717-.692.7.7,0,0,1-.717.692m-.133-6.05h.208a.515.515,0,0,1,.515.532l-.1,3.045a.515.515,0,1,1-1.03,0l-.107-3.045a.515.515,0,0,1,.515-.533" transform="translate(-243.779 -234.074)" fill="#016972"/>
    <path id="Path_15" data-name="Path 15" d="M293.541,271.27a.692.692,0,1,1,.717-.692.7.7,0,0,1-.717.692m-.133-6.05h.208a.515.515,0,0,1,.515.532l-.1,3.045a.515.515,0,1,1-1.03,0l-.107-3.045a.515.515,0,0,1,.515-.533" transform="translate(-258.787 -234.14)" fill="#016972"/>
    <path id="Path_16" data-name="Path 16" d="M276.541,402.273a.692.692,0,1,1,.717-.692.7.7,0,0,1-.717.692m-.133-6.05h.208a.515.515,0,0,1,.515.532l-.1,3.045a.515.515,0,1,1-1.03,0l-.107-3.045a.515.515,0,0,1,.515-.533" transform="translate(-243.779 -349.791)" fill="#016972"/>
    <path id="Path_17" data-name="Path 17" d="M293.541,402.347a.692.692,0,1,1,.717-.692.7.7,0,0,1-.717.692m-.133-6.05h.208a.515.515,0,0,1,.515.532l-.1,3.045a.515.515,0,1,1-1.03,0l-.107-3.045a.515.515,0,0,1,.515-.533" transform="translate(-258.787 -349.856)" fill="#016972"/>
  </g>
</svg>
