<svg xmlns="http://www.w3.org/2000/svg" width="20" height="20" viewBox="0 0 20 20">
  <g id="Group_20258" data-name="Group 20258" transform="translate(-0.323 -0.323)">
    <g id="Group_20257" data-name="Group 20257">
      <path id="Path_15459" data-name="Path 15459" d="M20,2.581V4.516H4.516V2.581a.647.647,0,0,1,.645-.645h1.29V2.9a.323.323,0,0,0,.323.323h.645A.323.323,0,0,0,7.742,2.9V1.935h1.29V2.9a.323.323,0,0,0,.323.323H10a.323.323,0,0,0,.323-.323V1.935h3.871V2.9a.323.323,0,0,0,.323.323h.645a.323.323,0,0,0,.323-.323V1.935h1.29V2.9a.323.323,0,0,0,.323.323h.645a.323.323,0,0,0,.323-.323V1.935h1.29A.647.647,0,0,1,20,2.581Z" fill="#ffa149"/>
      <path id="Path_15460" data-name="Path 15460" d="M19.355,1.613h-.968V1.29a.968.968,0,0,0-1.935,0v.323h-.645V1.29a.968.968,0,0,0-1.935,0v.323H10.645V1.29a.968.968,0,0,0-1.935,0v.323H8.065V1.29a.968.968,0,1,0-1.935,0v.323H5.161a.968.968,0,0,0-.968.968V8.71H2.9v1.935h.645v1.023h.645V10.645h1.29v1.023h.645V10.645h.645V8.71H4.839V2.581a.323.323,0,0,1,.323-.323h.968V2.9a.645.645,0,0,0,.645.645h.645A.645.645,0,0,0,8.065,2.9V2.258H8.71V2.9a.645.645,0,0,0,.645.645H10a.645.645,0,0,0,.645-.645V2.258h3.226V2.9a.645.645,0,0,0,.645.645h.645a.645.645,0,0,0,.645-.645V2.258h.645V2.9a.645.645,0,0,0,.645.645h.645a.645.645,0,0,0,.645-.645V2.258h.968a.323.323,0,0,1,.323.323V14.194a.323.323,0,0,1-.323.323H8.92v.645H19.355a.968.968,0,0,0,.968-.968V2.581A.968.968,0,0,0,19.355,1.613ZM6.129,9.355V10H3.548V9.355ZM6.774,2.9V1.29a.323.323,0,1,1,.645,0V2.9Zm2.581,0V1.29a.323.323,0,0,1,.645,0V2.9Zm5.161,0V1.29a.323.323,0,0,1,.645,0V2.9Zm2.581,0V1.29a.323.323,0,0,1,.645,0V2.9Z" fill="#252422"/>
      <g id="Group_20254" data-name="Group 20254">
        <path id="Path_15461" data-name="Path 15461" d="M18.387,13.871h-10v-.645h9.355v-7.1H6.774V8.044H6.129V5.484H18.387Z" fill="#252422"/>
      </g>
      <path id="Path_15462" data-name="Path 15462" d="M12.258,9.355A.645.645,0,1,1,12.9,8.71h.645a1.29,1.29,0,0,0-.968-1.245V6.774h-.645v.691A1.288,1.288,0,0,0,12.258,10a.645.645,0,1,1-.645.645h-.645a1.29,1.29,0,0,0,.968,1.245v.691h.645V11.89a1.288,1.288,0,0,0-.323-2.535Z"/>
      <path id="Path_15463" data-name="Path 15463" d="M4.839,11.29a4.516,4.516,0,1,0,4.516,4.516A4.516,4.516,0,0,0,4.839,11.29Zm0,7.419a2.9,2.9,0,1,1,2.9-2.9A2.9,2.9,0,0,1,4.839,18.71Z" fill="#ffa149"/>
      <g id="Group_20255" data-name="Group 20255">
        <path id="Path_15464" data-name="Path 15464" d="M4.839,19.032a3.226,3.226,0,1,1,3.226-3.226A3.226,3.226,0,0,1,4.839,19.032Zm0-5.806a2.581,2.581,0,1,0,2.581,2.581A2.581,2.581,0,0,0,4.839,13.226Z" fill="#252422"/>
      </g>
      <g id="Group_20256" data-name="Group 20256">
        <path id="Path_15465" data-name="Path 15465" d="M4.422,16.68l-.456-.456.551-.551v-1.8h.645V15.94Z" fill="#252422"/>
      </g>
    </g>
  </g>
</svg>
