<svg xmlns="http://www.w3.org/2000/svg" width="23.122" height="19.614" viewBox="0 0 23.122 19.614">
  <g id="Group_23125" data-name="Group 23125" transform="translate(0 -38.84)">
    <g id="Group_23105" data-name="Group 23105" transform="translate(17.996 49.429)">
      <g id="Group_23104" data-name="Group 23104">
        <path id="Path_26141" data-name="Path 26141" d="M400.282,273.32h-1.788a4.651,4.651,0,0,1,.282,1.6v6.758a1.993,1.993,0,0,1-.115.668h2.956a2,2,0,0,0,2-2v-3.684A3.342,3.342,0,0,0,400.282,273.32Z" transform="translate(-398.494 -273.32)" fill="#27ae60"/>
      </g>
    </g>
    <g id="Group_23107" data-name="Group 23107" transform="translate(0 49.429)">
      <g id="Group_23106" data-name="Group 23106">
        <path id="Path_26142" data-name="Path 26142" d="M4.844,274.92a4.651,4.651,0,0,1,.282-1.6H3.338A3.342,3.342,0,0,0,0,276.659v3.684a2,2,0,0,0,2,2H4.959a1.993,1.993,0,0,1-.115-.668Z" transform="translate(0 -273.321)" fill="#27ae60"/>
      </g>
    </g>
    <g id="Group_23109" data-name="Group 23109" transform="translate(6.179 47.69)">
      <g id="Group_23108" data-name="Group 23108">
        <path id="Path_26143" data-name="Path 26143" d="M144.255,234.815h-4.088a3.342,3.342,0,0,0-3.338,3.338v6.758a.668.668,0,0,0,.668.668h9.429a.668.668,0,0,0,.668-.668v-6.758A3.342,3.342,0,0,0,144.255,234.815Z" transform="translate(-136.829 -234.815)" fill="#27ae60"/>
      </g>
    </g>
    <g id="Group_23111" data-name="Group 23111" transform="translate(7.547 38.84)">
      <g id="Group_23110" data-name="Group 23110" transform="translate(0 0)">
        <path id="Path_26144" data-name="Path 26144" d="M171.128,38.84a4.013,4.013,0,1,0,4.014,4.014A4.019,4.019,0,0,0,171.128,38.84Z" transform="translate(-167.114 -38.84)" fill="#27ae60"/>
      </g>
    </g>
    <g id="Group_23113" data-name="Group 23113" transform="translate(1.51 42.581)">
      <g id="Group_23112" data-name="Group 23112" transform="translate(0 0)">
        <path id="Path_26145" data-name="Path 26145" d="M36.445,121.689a3,3,0,1,0,3,3A3.005,3.005,0,0,0,36.445,121.689Z" transform="translate(-33.443 -121.689)" fill="#27ae60"/>
      </g>
    </g>
    <g id="Group_23115" data-name="Group 23115" transform="translate(15.608 42.581)">
      <g id="Group_23114" data-name="Group 23114" transform="translate(0 0)">
        <path id="Path_26146" data-name="Path 26146" d="M348.609,121.689a3,3,0,1,0,3,3A3.005,3.005,0,0,0,348.609,121.689Z" transform="translate(-345.607 -121.689)" fill="#27ae60"/>
      </g>
    </g>
  </g>
</svg>
