<svg xmlns="http://www.w3.org/2000/svg" width="20" height="20" viewBox="0 0 20 20">
  <g id="Group_20300" data-name="Group 20300" transform="translate(0 -0.001)">
    <path id="Path_15494" data-name="Path 15494" d="M19.453,101.652H.625a.8.8,0,0,0-.625.7v1.251a.586.586,0,0,0,.586.586H19.414a.586.586,0,0,0,.586-.586v-1.251a.819.819,0,0,0-.547-.7Z" transform="translate(0 -84.192)" fill="#252422"/>
    <path id="Path_15495" data-name="Path 15495" d="M19.638,3.951,10.224.045a.586.586,0,0,0-.449,0L.361,3.951A.586.586,0,0,0,0,4.492V5.664a.586.586,0,0,0,.586.586H19.414A.586.586,0,0,0,20,5.664V4.492a.586.586,0,0,0-.361-.541Zm-6.123.541H6.484a.586.586,0,1,1,0-1.172h7.031a.586.586,0,1,1,0,1.172Z" fill="#252422"/>
    <path id="Path_15496" data-name="Path 15496" d="M6.481,85.865v1.172h4.492V85.865a.586.586,0,0,0-.586-.586H7.067A.586.586,0,0,0,6.481,85.865Z" transform="translate(-5.368 -70.63)" fill="#252422"/>
    <path id="Path_15497" data-name="Path 15497" d="M11.029,43.208h2.93v6.055h-2.93Z" transform="translate(-9.135 -35.786)" fill="#252422"/>
    <path id="Path_15498" data-name="Path 15498" d="M88.349,43.208h2.93v6.055h-2.93Z" transform="translate(-73.173 -35.786)" fill="#252422"/>
    <path id="Path_15499" data-name="Path 15499" d="M83.8,85.865v1.172h4.492V85.865a.586.586,0,0,0-.586-.586h-3.32a.586.586,0,0,0-.586.586Z" transform="translate(-69.407 -70.63)" fill="#252422"/>
    <path id="Path_15500" data-name="Path 15500" d="M49.741,53.225a.586.586,0,0,1-.586-.586.586.586,0,1,0-1.172,0A1.761,1.761,0,0,0,49.155,54.3v.3a.586.586,0,1,0,1.172,0v-.3a1.758,1.758,0,0,0-.586-3.415.586.586,0,1,1,.586-.586.586.586,0,1,0,1.172,0,1.761,1.761,0,0,0-1.172-1.657v-.3a.586.586,0,1,0-1.172,0v.3a1.758,1.758,0,0,0,.586,3.415.586.586,0,1,1,0,1.172Z" transform="translate(-39.742 -39.553)" fill="#252422"/>
  </g>
</svg>
