<svg xmlns="http://www.w3.org/2000/svg" width="18" height="18" viewBox="0 0 18 18">
  <g id="phone-volume-solid" transform="translate(0 0)">
    <path id="Path_11641" data-name="Path 11641" d="M5.319,6.138a.872.872,0,0,0,.868-.527L7.376,2.644A.874.874,0,0,0,7.038,1.61L4.665.13A.842.842,0,0,0,3.618.25a12.392,12.392,0,0,0,0,17.5.837.837,0,0,0,1.044.12l2.373-1.484a.848.848,0,0,0,.337-1.03L6.187,12.392a.84.84,0,0,0-.868-.527l-1.874.186a9.486,9.486,0,0,1,0-6.1Z" fill="#9a9a9a"/>
    <path id="Path_11642" data-name="Path 11642" d="M10.005,6.395A.846.846,0,0,0,8.933,7.7a1.658,1.658,0,0,1,0,2.594A.844.844,0,0,0,10,11.6a3.352,3.352,0,0,0,0-5.21Z" fill="#9a9a9a" opacity="0.7"/>
    <path id="Path_11643" data-name="Path 11643" d="M12.132,3.765a.844.844,0,0,0-1.072,1.3,4.99,4.99,0,0,1,0,7.8.846.846,0,0,0,1.072,1.308,6.62,6.62,0,0,0,2.493-5.2A6.724,6.724,0,0,0,12.132,3.765Z" fill="#9a9a9a" opacity="0.7"/>
    <path id="Path_11644" data-name="Path 11644" d="M14.287,1.167a.844.844,0,0,0-1.072,1.3,8.4,8.4,0,0,1,0,13.025A.846.846,0,0,0,14.287,16.8a10.089,10.089,0,0,0,0-15.637Z" fill="#9a9a9a" opacity="0.7"/>
  </g>
</svg>
