<svg id="Group_21126" data-name="Group 21126" xmlns="http://www.w3.org/2000/svg" width="32" height="31.503" viewBox="0 0 32 31.503">
  <g id="Group_21119" data-name="Group 21119" transform="translate(0)">
    <g id="Group_21118" data-name="Group 21118">
      <path id="Path_17943" data-name="Path 17943" d="M31.889,25.134l-1.859-5.41A13.519,13.519,0,1,0,4.367,13.608a9.85,9.85,0,0,0-2.99,12.1L.1,29.437a1.756,1.756,0,0,0,2.235,2.235l3.726-1.28a9.892,9.892,0,0,0,4.212.951h.015A9.836,9.836,0,0,0,18.238,27.3a13.56,13.56,0,0,0,5.586-1.367l5.41,1.859a2.09,2.09,0,0,0,2.655-2.656Zm-21.6,4.3h-.013a7.967,7.967,0,0,1-3.7-.919.953.953,0,0,0-.755-.059L2,29.772l1.313-3.821A.953.953,0,0,0,3.25,25.2a7.943,7.943,0,0,1,1.295-9.208A13.57,13.57,0,0,0,15.857,27.151a7.922,7.922,0,0,1-5.572,2.286Zm19.759-3.494a.173.173,0,0,1-.191.044L24.061,24a.952.952,0,0,0-.755.059A11.635,11.635,0,0,1,17.9,25.4h-.018a11.609,11.609,0,1,1,10.272-6.191.953.953,0,0,0-.059.755l1.99,5.791a.173.173,0,0,1-.044.191Z" transform="translate(-0.002 -0.266)" fill="#09a191"/>
    </g>
  </g>
  <g id="Group_21121" data-name="Group 21121" transform="translate(11.255 8.47)">
    <g id="Group_21120" data-name="Group 21120">
      <path id="Path_17944" data-name="Path 17944" d="M24.262,9.266H12.913a.952.952,0,1,0,0,1.9H24.262a.952.952,0,0,0,0-1.9Z" transform="translate(-11.961 -9.266)" fill="#09a191"/>
    </g>
  </g>
  <g id="Group_21123" data-name="Group 21123" transform="translate(11.255 12.387)">
    <g id="Group_21122" data-name="Group 21122">
      <path id="Path_17945" data-name="Path 17945" d="M24.262,13.428H12.913a.952.952,0,1,0,0,1.9H24.262a.952.952,0,0,0,0-1.9Z" transform="translate(-11.961 -13.428)" fill="#09a191"/>
    </g>
  </g>
  <g id="Group_21125" data-name="Group 21125" transform="translate(11.255 16.305)">
    <g id="Group_21124" data-name="Group 21124">
      <path id="Path_17946" data-name="Path 17946" d="M19.893,17.59h-6.98a.952.952,0,1,0,0,1.9h6.98a.952.952,0,0,0,0-1.9Z" transform="translate(-11.961 -17.59)" fill="#09a191"/>
    </g>
  </g>
</svg>
