<svg xmlns="http://www.w3.org/2000/svg" width="16.181" height="24" viewBox="0 0 16.181 24">
  <path id="Path_17679" data-name="Path 17679" d="M14.026,4.014a2.8,2.8,0,1,0-3.589,2.665V18.7a4.493,4.493,0,0,0,4.49,4.49h4.2A2.8,2.8,0,1,0,20.9,19.747,2.817,2.817,0,0,0,19.124,21.6h-4.2A2.9,2.9,0,0,1,12.022,18.7v-4.65h7.1A2.8,2.8,0,1,0,20.9,10.607a2.817,2.817,0,0,0-1.773,1.853H12.017V6.683a2.8,2.8,0,0,0,2.009-2.669Zm7.763,17.167a1.208,1.208,0,1,1-.858.354A1.217,1.217,0,0,1,21.789,21.181Zm0-9.135a1.208,1.208,0,1,1-.858.354,1.217,1.217,0,0,1,.858-.354ZM10.008,4.014a1.208,1.208,0,1,1,.354.858,1.217,1.217,0,0,1-.354-.858Z" transform="translate(-8.428 -1.193)" fill="#c461f5"/>
</svg>
