<svg xmlns="http://www.w3.org/2000/svg" width="60" height="43.448" viewBox="0 0 60 43.448">
  <g id="programming-3441201" transform="translate(-11.379 -11.379)">
    <path id="Path_17928" data-name="Path 17928" d="M17.586,41.379a1.034,1.034,0,1,1-1.034-1.034,1.034,1.034,0,0,1,1.034,1.034" fill="#5c5c5c"/>
    <path id="Path_17929" data-name="Path 17929" d="M21.724,41.379a1.034,1.034,0,1,1-1.034-1.034,1.034,1.034,0,0,1,1.034,1.034" fill="#5c5c5c"/>
    <path id="Path_17936" data-name="Path 17936" d="M21.724,41.379a1.034,1.034,0,1,1-1.034-1.034,1.034,1.034,0,0,1,1.034,1.034" transform="translate(4.138)" fill="#5c5c5c"/>
    <path id="Path_17930" data-name="Path 17930" d="M66.8,46.551H15.962a4.593,4.593,0,0,1-4.583-4.583V15.961a4.593,4.593,0,0,1,4.583-4.583H66.8a4.593,4.593,0,0,1,4.583,4.583V41.969A4.593,4.593,0,0,1,66.8,46.551Zm-50.835-33.1a2.513,2.513,0,0,0-2.514,2.514V41.969a2.513,2.513,0,0,0,2.514,2.514H66.8a2.513,2.513,0,0,0,2.514-2.514V15.962A2.513,2.513,0,0,0,66.8,13.448Z" fill="#5c5c5c"/>
    <path id="Path_17931" data-name="Path 17931" d="M51.724,54.827H31.034a1.034,1.034,0,1,1,0-2.069H51.724a1.034,1.034,0,0,1,0,2.069Z" fill="#5c5c5c"/>
    <path id="Path_17932" data-name="Path 17932" d="M45.517,54.827H37.241a1.035,1.035,0,0,1-1.034-1.034V45.517a1.035,1.035,0,0,1,1.034-1.034h8.276a1.034,1.034,0,0,1,1.034,1.035v8.276a1.034,1.034,0,0,1-1.035,1.034Zm-7.241-2.069h6.207V46.551H38.276Z" fill="#5c5c5c"/>
    <g id="Group_20995" data-name="Group 20995" transform="translate(28.81 7.016)">
      <g id="Group_20995-2" data-name="Group 20995" transform="translate(0 13.832)">
        <path id="Path_17939" data-name="Path 17939" d="M21.938,13.832H3.19A3.194,3.194,0,0,0,0,17.022v7.264a3.194,3.194,0,0,0,3.19,3.19H21.938a3.194,3.194,0,0,0,3.19-3.19V17.022a3.194,3.194,0,0,0-3.19-3.19Zm1.718,10.454A1.72,1.72,0,0,1,21.938,26H3.19a1.72,1.72,0,0,1-1.718-1.718V17.022A1.72,1.72,0,0,1,3.19,15.3H21.938a1.72,1.72,0,0,1,1.718,1.718Z" transform="translate(0 -13.832)" fill="#5c5c5c"/>
        <path id="Path_17940" data-name="Path 17940" d="M24.431,27.368H26.79l.547,1.449H28.91l-2.666-7.064H24.994L22.3,28.816h1.575Zm1.185-3.111.618,1.639H24.992Z" transform="translate(-13.045 -18.465)" fill="#5c5c5c"/>
        <path id="Path_17941" data-name="Path 17941" d="M38.647,23.877,37.258,21.75H35.5l2.411,3.693L37.9,28.817l1.472,0,.008-3.376,2.4-3.694H40.031Z" transform="translate(-20.763 -18.463)" fill="#5c5c5c"/>
        <path id="Path_17942" data-name="Path 17942" d="M16.581,24.069a2.333,2.333,0,0,0-2.346-2.315H11.941v7.067h1.472V26.387l.822,0A2.333,2.333,0,0,0,16.581,24.069Zm-3.165-.843h.819a.843.843,0,1,1,0,1.685l-.815,0C13.419,24.6,13.416,23.554,13.415,23.226Z" transform="translate(-6.984 -18.465)" fill="#5c5c5c"/>
      </g>
    </g>
  </g>
</svg>
