<svg id="call-icon" xmlns="http://www.w3.org/2000/svg" width="34" height="33.189" viewBox="0 0 34 33.189">
  <g id="Group_19931" data-name="Group 19931">
    <path id="Path_15295" data-name="Path 15295" d="M32.266,15.128a14.924,14.924,0,0,0-29.826,0A3.51,3.51,0,0,0,.349,18.335v3.938A3.511,3.511,0,0,0,3.856,25.78a2.271,2.271,0,0,0,2.271-2.269V17.1A2.265,2.265,0,0,0,4.08,14.85a13.3,13.3,0,0,1,26.545,0A2.264,2.264,0,0,0,28.576,17.1V23.51a2.264,2.264,0,0,0,2.075,2.249V27.38a3.314,3.314,0,0,1-3.308,3.308H24.889a2.436,2.436,0,0,0-2.314-1.647H20.048a2.426,2.426,0,0,0-1.03.226,2.461,2.461,0,0,0,1.03,4.7h2.527a2.471,2.471,0,0,0,2.315-1.648h2.45a4.942,4.942,0,0,0,4.934-4.934V25.47a3.51,3.51,0,0,0,2.075-3.2V18.334a3.51,3.51,0,0,0-2.082-3.206ZM4.5,17.1V23.51a.643.643,0,0,1-.645.643,1.883,1.883,0,0,1-1.88-1.88V18.335a1.883,1.883,0,0,1,1.88-1.88A.643.643,0,0,1,4.5,17.1ZM23.394,31.678a.838.838,0,0,1-.817.661H20.05a.834.834,0,0,1-.346-1.593.808.808,0,0,1,.346-.075h2.527a.838.838,0,0,1,.817,1.007Zm9.334-9.406a1.883,1.883,0,0,1-1.88,1.88.643.643,0,0,1-.645-.643V17.1a.643.643,0,0,1,.643-.643,1.883,1.883,0,0,1,1.88,1.88Z" transform="translate(-0.349 -0.773)" fill="#05afb2"/>
    <path id="Path_15296" data-name="Path 15296" d="M22.618,22.553a3.45,3.45,0,0,0,3.446-3.446V12.084a3.451,3.451,0,0,0-3.446-3.446H12.085a3.45,3.45,0,0,0-3.446,3.446v7.023a3.45,3.45,0,0,0,3.446,3.446h.065v1.82a1.689,1.689,0,0,0,1.687,1.694,1.654,1.654,0,0,0,1.193-.5l3.027-3.011Zm-5.472-1.39L13.87,24.421a.041.041,0,0,1-.054.013.054.054,0,0,1-.037-.061V21.739a.813.813,0,0,0-.813-.813h-.88a1.822,1.822,0,0,1-1.82-1.82V12.084a1.821,1.821,0,0,1,1.82-1.82H22.619a1.824,1.824,0,0,1,1.82,1.82v7.023a1.822,1.822,0,0,1-1.82,1.82h-4.9a.813.813,0,0,0-.574.236Z" transform="translate(-0.349 -0.773)" fill="#05afb2"/>
    <path id="Path_15297" data-name="Path 15297" d="M13.4,14.525a1.2,1.2,0,1,0,1.2,1.2,1.2,1.2,0,0,0-1.2-1.2Z" transform="translate(-0.349 -0.773)" fill="#05afb2"/>
    <path id="Path_15298" data-name="Path 15298" d="M17.352,14.525a1.2,1.2,0,1,0,1.2,1.2,1.2,1.2,0,0,0-1.2-1.2Z" transform="translate(-0.349 -0.773)" fill="#05afb2"/>
    <path id="Path_15299" data-name="Path 15299" d="M21.3,14.525a1.2,1.2,0,1,0,1.2,1.2,1.2,1.2,0,0,0-1.2-1.2Z" transform="translate(-0.349 -0.773)" fill="#05afb2"/>
  </g>
</svg>
