<svg xmlns="http://www.w3.org/2000/svg" width="60.731" height="53.589" viewBox="0 0 60.731 53.589">
  <g id="Group_11767" data-name="Group 11767" transform="translate(0 -30.11)">
    <g id="Group_11766" data-name="Group 11766" transform="translate(0 30.11)">
      <g id="Group_11765" data-name="Group 11765">
        <path id="Path_16597" data-name="Path 16597" d="M228.175,191.141H199.945a.89.89,0,1,0,0,1.779h28.231a.89.89,0,0,0,0-1.779Z" transform="translate(-175.444 -172.04)" fill="#ddd"/>
        <path id="Path_16598" data-name="Path 16598" d="M228.175,248.474H199.945a.89.89,0,1,0,0,1.779h28.231a.89.89,0,0,0,0-1.779Z" transform="translate(-175.444 -222.572)" fill="#ddd"/>
        <path id="Path_16599" data-name="Path 16599" d="M228.175,305.807H199.945a.89.89,0,1,0,0,1.779h28.231a.89.89,0,0,0,0-1.779Z" transform="translate(-175.444 -273.105)" fill="#ddd"/>
        <path id="Path_16600" data-name="Path 16600" d="M178.167,125.549H144.284a5.18,5.18,0,0,0-5.174,5.174v21.306a5.18,5.18,0,0,0,5.174,5.174h23.748a.82.82,0,0,1,.647.314l7.669,9.709a1.529,1.529,0,0,0,1.205.591,1.575,1.575,0,0,0,.518-.088,1.53,1.53,0,0,0,1.04-1.462v-9.152a5.2,5.2,0,0,0,4.229-5.086V130.723a5.18,5.18,0,0,0-5.174-5.174Zm3.4,26.48a3.407,3.407,0,0,1-3.351,3.394.89.89,0,0,0-.878.89V165.6l-7.256-9.187a2.589,2.589,0,0,0-2.044-.99H144.284a3.4,3.4,0,0,1-3.4-3.4V130.723a3.4,3.4,0,0,1,3.4-3.4h33.882a3.4,3.4,0,0,1,3.4,3.4Z" transform="translate(-122.609 -114.228)" fill="#ddd"/>
        <path id="Path_16601" data-name="Path 16601" d="M13.106,56.141a2.372,2.372,0,0,0-1.534.882L5.461,64.759V57.005a.89.89,0,0,0-.878-.89,2.85,2.85,0,0,1-2.8-2.839V34.73a2.844,2.844,0,0,1,2.84-2.84h29.5a2.844,2.844,0,0,1,2.84,2.84v3.432a.89.89,0,1,0,1.779,0V34.73a4.625,4.625,0,0,0-4.62-4.62H4.62A4.625,4.625,0,0,0,0,34.73V53.277A4.641,4.641,0,0,0,3.682,57.8v7.872a1.445,1.445,0,0,0,.983,1.382,1.489,1.489,0,0,0,.489.084,1.445,1.445,0,0,0,1.139-.559l6.676-8.452a.6.6,0,0,1,.388-.223.89.89,0,1,0-.25-1.762Z" transform="translate(0 -30.11)" fill="#ddd"/>
      </g>
    </g>
  </g>
</svg>
