<svg xmlns="http://www.w3.org/2000/svg" width="14.134" height="16.081" viewBox="0 0 14.134 16.081">
  <g id="Group_23553" data-name="Group 23553" transform="translate(-7.08 -6.106)">
    <path id="Path_26119" data-name="Path 26119" d="M320,195a4.24,4.24,0,1,0,4.24,4.24A4.245,4.245,0,0,0,320,195Z" transform="translate(-305.857 -188.894)" fill="#09a191" opacity="0.5"/>
    <path id="Path_26120" data-name="Path 26120" d="M238.281,496.242a6.045,6.045,0,0,0-4.333-1.828h-1.884a6.045,6.045,0,0,0-4.333,1.828,6.179,6.179,0,0,0-1.791,4.36.471.471,0,0,0,.471.471H239.6a.471.471,0,0,0,.471-.471A6.179,6.179,0,0,0,238.281,496.242Z" transform="translate(-218.859 -478.885)" fill="#09a191" opacity="0.5"/>
  </g>
</svg>
