<svg id="Group_20076" data-name="Group 20076" xmlns="http://www.w3.org/2000/svg" width="26.953" height="30" viewBox="0 0 26.953 30">
  <path id="Path_15377" data-name="Path 15377" d="M25.311,3.149H19.146a4.044,4.044,0,0,0-7.887,0H5.1A3.368,3.368,0,0,0,1.727,6.508V26.641A3.368,3.368,0,0,0,5.1,30h17.33a.879.879,0,0,0,.62-.256l5.375-5.353a.879.879,0,0,0,.259-.623V6.508a3.368,3.368,0,0,0-3.369-3.359ZM15.2,1.758a2.27,2.27,0,1,1-2.283,2.27A2.27,2.27,0,0,1,15.2,1.758ZM3.484,26.641V6.508A1.608,1.608,0,0,1,5.1,4.907H11.26a4.044,4.044,0,0,0,7.887,0h6.163a1.608,1.608,0,0,1,1.611,1.6V22.889h-4.5a.879.879,0,0,0-.879.879v4.475H5.1a1.608,1.608,0,0,1-1.611-1.6Zm22.188-1.994L23.3,27.005V24.647Z" transform="translate(-1.727 0)" fill="#0f6ec1"/>
  <path id="Path_15378" data-name="Path 15378" d="M7.982,12.877H23.69a.879.879,0,1,0,0-1.758H7.982a.879.879,0,0,0,0,1.758Z" transform="translate(-2.359 -1.308)" fill="#0f6ec1"/>
  <path id="Path_15379" data-name="Path 15379" d="M7.982,16.861h13.95a.879.879,0,1,0,0-1.758H7.982a.879.879,0,0,0,0,1.758Z" transform="translate(-2.359 -1.777)" fill="#0f6ec1"/>
  <path id="Path_15380" data-name="Path 15380" d="M7.982,20.846H23.69a.879.879,0,1,0,0-1.758H7.982a.879.879,0,0,0,0,1.758Z" transform="translate(-2.359 -2.246)" fill="#0f6ec1"/>
  <path id="Path_15381" data-name="Path 15381" d="M18.416,23.072H7.982a.879.879,0,0,0,0,1.758H18.416a.879.879,0,1,0,0-1.758Z" transform="translate(-2.359 -2.714)" fill="#0f6ec1"/>
</svg>
