<svg id="Group_20173" data-name="Group 20173" xmlns="http://www.w3.org/2000/svg" width="30" height="28.124" viewBox="0 0 30 28.124">
  <path id="Path_15410" data-name="Path 15410" d="M34,24.249l5.625,4.217a.939.939,0,0,0,1.125-1.5l-5.207-3.942V15.058a.937.937,0,1,0-1.875,0v8.434a.969.969,0,0,0,.333.754Z" transform="translate(-19.139 -8.964)" fill="#252422"/>
  <path id="Path_15411" data-name="Path 15411" d="M15.934,2.172A14.061,14.061,0,0,0,2.069,13.89l-.356-.53A.94.94,0,0,0,.157,14.414l1.876,2.805a.938.938,0,0,0,.684.417h.1a.935.935,0,0,0,.661-.277l2.341-2.344a.938.938,0,1,0-1.326-1.326l-.581.586A12.186,12.186,0,1,1,15.934,28.42a11.535,11.535,0,0,1-9.548-4.762.938.938,0,1,0-1.528,1.088,13.391,13.391,0,0,0,11.075,5.549,14.061,14.061,0,0,0,0-28.122Z" transform="translate(0.005 -2.172)" fill="#252422"/>
</svg>
