<svg xmlns="http://www.w3.org/2000/svg" width="20" height="17.466" viewBox="0 0 20 17.466">
  <g id="comment-3143919" transform="translate(-192.079 -137.197)">
    <path id="Path_17943" data-name="Path 17943" d="M196.052,154.663a1.055,1.055,0,0,1-.445-.1.769.769,0,0,1-.411-.719l-.034-2.5h-.445a2.638,2.638,0,0,1-2.637-2.637v-8.87a2.638,2.638,0,0,1,2.637-2.637h14.726a2.638,2.638,0,0,1,2.637,2.637v8.836a2.638,2.638,0,0,1-2.637,2.637h-7.157l-5.856,3.219a.516.516,0,0,1-.377.137Zm6.027-11.575a1.164,1.164,0,1,0,1.164,1.164A1.177,1.177,0,0,0,202.079,143.088Zm4.658,0a1.164,1.164,0,1,0,1.164,1.164A1.155,1.155,0,0,0,206.737,143.088Zm-9.315,0a1.164,1.164,0,1,0,1.164,1.164A1.2,1.2,0,0,0,197.422,143.088Z" fill="#d4d4d4"/>
  </g>
</svg>
