<svg id="Group_4" data-name="Group 4" xmlns="http://www.w3.org/2000/svg" width="45.586" height="60" viewBox="0 0 45.586 60">
  <g id="Group_24186" data-name="Group 24186">
    <path id="Path_18" data-name="Path 18" d="M44.707,170.057a.879.879,0,0,0-.879.879v7.07a1.466,1.466,0,0,1-1.465,1.465H3.223a1.466,1.466,0,0,1-1.465-1.465V138.2A.879.879,0,0,0,0,138.2v39.806a3.226,3.226,0,0,0,3.223,3.223h39.14a3.226,3.226,0,0,0,3.223-3.223v-7.07a.879.879,0,0,0-.879-.879Z" transform="translate(0 -121.229)" fill="#00772c"/>
    <path id="Path_19" data-name="Path 19" d="M42.363,0H37.914a.879.879,0,0,0,0,1.758h4.449a1.466,1.466,0,0,1,1.465,1.465V8.145H1.758V3.223A1.466,1.466,0,0,1,3.223,1.758h30.6a.879.879,0,1,0,0-1.758H3.223A3.226,3.226,0,0,0,0,3.223v9.465a.879.879,0,0,0,1.758,0V9.9h42.07V45.554a.879.879,0,1,0,1.758,0V3.223A3.226,3.226,0,0,0,42.363,0" fill="#00772c"/>
    <path id="Path_20" data-name="Path 20" d="M239.738,115.9A6.738,6.738,0,1,0,233,109.158a6.738,6.738,0,0,0,6.738,6.742m0-11.719a4.98,4.98,0,1,1-4.98,4.98,4.98,4.98,0,0,1,4.98-4.98" transform="translate(-205.695 -90.418)" fill="#00772c"/>
    <path id="Path_21" data-name="Path 21" d="M239.738,246.974A6.738,6.738,0,1,0,233,240.236a6.738,6.738,0,0,0,6.738,6.738m0-11.719a4.98,4.98,0,1,1-4.98,4.98,4.98,4.98,0,0,1,4.98-4.98" transform="translate(-205.695 -206.134)" fill="#00772c"/>
    <path id="Path_22" data-name="Path 22" d="M239.738,378.051A6.738,6.738,0,1,0,233,371.313a6.738,6.738,0,0,0,6.738,6.738m0-11.719a4.98,4.98,0,1,1-4.98,4.98,4.98,4.98,0,0,1,4.98-4.98" transform="translate(-205.695 -321.85)" fill="#00772c"/>
    <path id="Path_23" data-name="Path 23" d="M50.11,135.534H64.172a.879.879,0,0,0,0-1.758H50.11a.879.879,0,1,0,0,1.758" transform="translate(-43.462 -118.099)" fill="#00772c"/>
    <path id="Path_24" data-name="Path 24" d="M50.11,172.822h7.031a.879.879,0,1,0,0-1.758H50.11a.879.879,0,0,0,0,1.758" transform="translate(-43.462 -151.017)" fill="#00772c"/>
    <path id="Path_25" data-name="Path 25" d="M50.11,266.347H64.172a.879.879,0,1,0,0-1.758H50.11a.879.879,0,1,0,0,1.758" transform="translate(-43.462 -233.582)" fill="#00772c"/>
    <path id="Path_26" data-name="Path 26" d="M50.11,303.635h7.031a.879.879,0,1,0,0-1.758H50.11a.879.879,0,0,0,0,1.758" transform="translate(-43.462 -266.501)" fill="#00772c"/>
    <path id="Path_27" data-name="Path 27" d="M50.11,397.159H64.172a.879.879,0,1,0,0-1.758H50.11a.879.879,0,0,0,0,1.758" transform="translate(-43.462 -349.065)" fill="#00772c"/>
    <path id="Path_28" data-name="Path 28" d="M50.11,434.447h7.031a.879.879,0,1,0,0-1.758H50.11a.879.879,0,0,0,0,1.758" transform="translate(-43.462 -381.983)" fill="#00772c"/>
    <path id="Path_29" data-name="Path 29" d="M263.886,141.355l2.481,1.333a.878.878,0,0,0,1.153-.3l2.209-3.411a.879.879,0,1,0-1.475-.956l-1.769,2.732-1.768-.949a.879.879,0,0,0-.832,1.549Z" transform="translate(-232.553 -121.495)" fill="#00772c"/>
    <path id="Path_30" data-name="Path 30" d="M263.886,272.355l2.481,1.333a.878.878,0,0,0,1.153-.3l2.209-3.411a.879.879,0,1,0-1.475-.956l-1.769,2.732-1.768-.949a.879.879,0,0,0-.832,1.549Z" transform="translate(-232.553 -237.144)" fill="#00772c"/>
    <path id="Path_31" data-name="Path 31" d="M263.886,403.355l2.481,1.333a.878.878,0,0,0,1.153-.3l2.209-3.411a.879.879,0,1,0-1.475-.956l-1.769,2.732-1.768-.949a.879.879,0,1,0-.832,1.549Z" transform="translate(-232.553 -352.792)" fill="#00772c"/>
  </g>
</svg>
