<svg xmlns="http://www.w3.org/2000/svg" width="20.441" height="24" viewBox="0 0 20.441 24">
  <path id="company-3845232" d="M19.31,6.138a.827.827,0,1,1,.242.585A.828.828,0,0,1,19.31,6.138Zm-2.758.828a.827.827,0,1,0-.585-.242A.828.828,0,0,0,16.552,6.966Zm-3.586,0a.827.827,0,1,0-.585-.242A.828.828,0,0,0,12.966,6.966Zm7.172,3.65a.827.827,0,1,0-.585-.242A.828.828,0,0,0,20.138,10.616Zm-3.586,0a.827.827,0,1,0-.585-.242A.828.828,0,0,0,16.552,10.616ZM12.966,8.961a.828.828,0,1,0,.585.243A.827.827,0,0,0,12.966,8.961Zm7.172,5.305a.827.827,0,1,0-.585-.242A.828.828,0,0,0,20.138,14.266Zm-3.586,0a.827.827,0,1,0-.585-.242A.828.828,0,0,0,16.552,14.266Zm-3.586-1.655a.827.827,0,1,0,.585.242A.828.828,0,0,0,12.966,12.611Zm7.172,5.306h0a.828.828,0,1,0-.585-.243.827.827,0,0,0,.585.243Zm-3.586,0h0a.828.828,0,1,0-.585-.243.827.827,0,0,0,.585.243Zm-3.586-1.655h0a.827.827,0,1,0,.585.242.828.828,0,0,0-.585-.242Zm13.807,8.152a.827.827,0,0,1-.828.828H7.159a.828.828,0,1,1,0-1.655H8.483V2.069a.827.827,0,0,1,.828-.828H23.794a.827.827,0,0,1,.828.828V23.586h1.324a.827.827,0,0,1,.828.828Zm-16.634-.828h4.253V20.613a.828.828,0,0,1,.828-.828h2.666a.828.828,0,0,1,.828.828v2.974h4.253V2.9H10.139Zm6.92-2.146H16.047v2.146h1.011Z" transform="translate(-6.332 -1.241)" fill="#27ae60"/>
</svg>
