<svg xmlns="http://www.w3.org/2000/svg" width="20" height="20" viewBox="0 0 20 20">
  <g id="Group_20311" data-name="Group 20311" transform="translate(0.011 0.013)">
    <g id="Group_20310" data-name="Group 20310" transform="translate(0.001)">
      <path id="Path_17569" data-name="Path 17569" d="M18.155,4.233A1.763,1.763,0,0,0,15.741,1.82,9.987,9.987,0,0,0,1.822,15.74a1.763,1.763,0,0,0,2.414,2.414A9.987,9.987,0,0,0,18.155,4.233Zm-1.1-1.309a.587.587,0,1,1-.831,0,.587.587,0,0,1,.831,0ZM2.925,17.051a.587.587,0,1,1,.831,0,.587.587,0,0,1-.831,0Zm13.3-.831A8.822,8.822,0,0,1,4.993,17.25,1.762,1.762,0,0,0,2.726,14.98,8.816,8.816,0,0,1,14.98,2.725a1.763,1.763,0,0,0,2.27,2.268A8.822,8.822,0,0,1,16.221,16.22Z" transform="translate(-0.001)" fill="#219ebc"/>
      <path id="Path_17570" data-name="Path 17570" d="M101.044,93.962l.772-1.287-1.9-1.9-1.287.772A5.254,5.254,0,0,0,98,91.288l-.365-1.456H94.958l-.365,1.456a5.26,5.26,0,0,0-.631.262l-1.283-.768-1.9,1.9.772,1.287a5.26,5.26,0,0,0-.262.631l-1.456.365v2.681l1.456.365a5.266,5.266,0,0,0,.262.631l-.772,1.287,1.9,1.9,1.287-.772a5.26,5.26,0,0,0,.631.262l.365,1.456h2.681l.365-1.456a5.268,5.268,0,0,0,.631-.262l1.287.772,1.9-1.9-.772-1.287a5.255,5.255,0,0,0,.262-.631l1.456-.365V94.958l-1.456-.365a5.25,5.25,0,0,0-.269-.631Zm.542,2.758-1.225.307a4.88,4.88,0,0,1-.5,1.329l-.174.3.65,1.083-.6.6-1.083-.65a4.879,4.879,0,0,1-1.3.585l-.335.089-.307,1.225h-.842l-.307-1.225a4.879,4.879,0,0,1-1.329-.5l-.3-.174-1.083.65-.6-.6.65-1.083a4.879,4.879,0,0,1-.585-1.3l-.089-.335-1.225-.307v-.843l1.225-.307a4.88,4.88,0,0,1,.5-1.329l.174-.3-.65-1.083.6-.6,1.083.65a4.88,4.88,0,0,1,1.3-.585l.335-.089.3-1.223h.845l.307,1.225a4.88,4.88,0,0,1,1.329.5l.3.174,1.083-.65.6.6-.65,1.083a4.879,4.879,0,0,1,.585,1.3l.089.335,1.225.307Z" transform="translate(-86.311 -86.311)" fill="#219ebc"/>
      <path id="Path_17571" data-name="Path 17571" d="M182.656,179.717a2.938,2.938,0,1,0,2.938,2.938,2.938,2.938,0,0,0-2.938-2.938Zm0,4.7a1.763,1.763,0,1,1,1.763-1.763,1.763,1.763,0,0,1-1.763,1.763Z" transform="translate(-172.669 -172.668)" fill="#219ebc"/>
    </g>
  </g>
</svg>
