<svg id="Credit_Card" xmlns="http://www.w3.org/2000/svg" width="20" height="18.751" viewBox="0 0 20 18.751">
  <g id="Group_20417" data-name="Group 20417" transform="translate(3.125 3.125)">
    <path id="Path_17623" data-name="Path 17623" d="M25.784,20.692H16.722a.781.781,0,1,1,0-1.563h9.062a.781.781,0,1,1,0,1.563Z" transform="translate(-15.941 -19.129)" fill="#ffa149"/>
  </g>
  <g id="Group_20418" data-name="Group 20418" transform="translate(3.125 7.813)">
    <circle id="Ellipse_424" data-name="Ellipse 424" cx="0.797" cy="0.797" r="0.797" transform="translate(0.063 -0.042)" fill="#252422"/>
  </g>
  <g id="Group_20419" data-name="Group 20419" transform="translate(15.313 14.063)">
    <circle id="Ellipse_425" data-name="Ellipse 425" cx="0.797" cy="0.797" r="0.797" transform="translate(0.03 0.084)" fill="#252422"/>
  </g>
  <g id="Group_20420" data-name="Group 20420">
    <path id="Path_17624" data-name="Path 17624" d="M12.969,15.689H3.906A3.911,3.911,0,0,1,0,11.782V7.094A3.911,3.911,0,0,1,3.906,3.188h9.064a3.911,3.911,0,0,1,3.906,3.906v4.689a3.911,3.911,0,0,1-3.906,3.906ZM3.906,4.751A2.346,2.346,0,0,0,1.563,7.094v4.689a2.346,2.346,0,0,0,2.343,2.344h9.064a2.346,2.346,0,0,0,2.344-2.344V7.094a2.346,2.346,0,0,0-2.344-2.343Z" transform="translate(0 -3.188)" fill="#252422"/>
  </g>
  <g id="Group_20421" data-name="Group 20421" transform="translate(3.125 8.729)">
    <path id="Path_17625" data-name="Path 17625" d="M28.91,57.734H19.846a3.911,3.911,0,0,1-3.906-3.906.781.781,0,1,1,1.563,0,2.346,2.346,0,0,0,2.343,2.343h9.063a2.346,2.346,0,0,0,2.344-2.344V49.14a2.366,2.366,0,0,0-.05-.486.781.781,0,1,1,1.529-.322,3.931,3.931,0,0,1,.084.807v4.688a3.911,3.911,0,0,1-3.906,3.907Z" transform="translate(-15.941 -47.712)" fill="#252422"/>
  </g>
</svg>
