<svg xmlns="http://www.w3.org/2000/svg" width="20.5" height="25.031" viewBox="0 0 20.5 25.031">
  <g id="Credit_Note_Icon" data-name="Credit Note Icon" transform="translate(-45.06 -24.497)">
    <path id="Path_189" data-name="Path 189" d="M383.968,446.73a1.517,1.517,0,0,1-1.509,1.51" transform="translate(-318.908 -399.212)" fill="none" stroke="#ffa149" stroke-linecap="round" stroke-linejoin="round" stroke-miterlimit="2.613" stroke-width="1"/>
    <line id="Line_18" data-name="Line 18" x1="16.481" transform="translate(47.07 49.028)" fill="none" stroke="#ffa149" stroke-linecap="round" stroke-linejoin="round" stroke-miterlimit="2.613" stroke-width="1"/>
    <path id="Path_190" data-name="Path 190" d="M47.07,448.241a1.516,1.516,0,0,1-1.51-1.51" transform="translate(0 -399.213)" fill="none" stroke="#ffa149" stroke-linecap="round" stroke-linejoin="round" stroke-miterlimit="2.613" stroke-width="1"/>
    <path id="Path_191" data-name="Path 191" d="M45.561,47.518V31.042L52.1,25H63.552" transform="translate(-0.001 0)" fill="none" stroke="#ffa149" stroke-linecap="round" stroke-linejoin="round" stroke-miterlimit="2.613" stroke-width="1"/>
    <path id="Path_192" data-name="Path 192" d="M382.459,25a1.515,1.515,0,0,1,1.509,1.509" transform="translate(-318.908 0)" fill="none" stroke="#ffa149" stroke-linecap="round" stroke-linejoin="round" stroke-miterlimit="2.613" stroke-width="1"/>
    <line id="Line_19" data-name="Line 19" y2="9.992" transform="translate(65.06 26.506)" fill="none" stroke="#ffa149" stroke-linecap="round" stroke-linejoin="round" stroke-miterlimit="2.613" stroke-width="1"/>
    <line id="Line_29" data-name="Line 29" y2="13.001" transform="translate(65.06 34.497)" fill="none" stroke="#ffa149" stroke-linecap="round" stroke-linejoin="round" stroke-miterlimit="2.613" stroke-width="1"/>
    <line id="Line_20" data-name="Line 20" y2="5.574" transform="translate(52.395 24.997)" fill="none" stroke="#ffa149" stroke-linecap="round" stroke-linejoin="round" stroke-miterlimit="2.613" stroke-width="1"/>
    <path id="Path_193" data-name="Path 193" d="M159.241,129.369a.812.812,0,0,1-.807.808" transform="translate(-106.846 -98.798)" fill="none" stroke="#ffa149" stroke-linecap="round" stroke-linejoin="round" stroke-miterlimit="2.613" stroke-width="1"/>
    <line id="Line_21" data-name="Line 21" x1="6.028" transform="translate(45.56 31.378)" fill="none" stroke="#ffa149" stroke-linecap="round" stroke-linejoin="round" stroke-miterlimit="2.613" stroke-width="1"/>
    <line id="Line_26" data-name="Line 26" x2="14.489" transform="translate(47.944 35.473)" fill="none" stroke="#ffa149" stroke-linecap="round" stroke-linejoin="round" stroke-miterlimit="2.613" stroke-width="1"/>
    <line id="Line_27" data-name="Line 27" x2="9.964" transform="translate(47.944 40.496)" fill="none" stroke="#ffa149" stroke-linecap="round" stroke-linejoin="round" stroke-miterlimit="2.613" stroke-width="1"/>
    <line id="Line_28" data-name="Line 28" x2="10.676" transform="translate(47.944 45.52)" fill="none" stroke="#ffa149" stroke-linecap="round" stroke-linejoin="round" stroke-miterlimit="2.613" stroke-width="1"/>
    <path id="Dollar" d="M3.019,3.328l-1.54-.451A.421.421,0,0,1,1.6,2.053h.945a.87.87,0,0,1,.488.15.222.222,0,0,0,.278-.029l.5-.485a.231.231,0,0,0-.026-.349A2.016,2.016,0,0,0,2.545.913V.228A.229.229,0,0,0,2.317,0H1.861a.229.229,0,0,0-.228.228V.913H1.6A1.562,1.562,0,0,0,.043,2.618,1.632,1.632,0,0,0,1.238,4L2.7,4.423a.421.421,0,0,1-.118.824H1.636a.87.87,0,0,1-.488-.15.222.222,0,0,0-.278.029l-.5.485A.231.231,0,0,0,.4,5.96a2.016,2.016,0,0,0,1.233.428v.684a.229.229,0,0,0,.228.228h.456a.229.229,0,0,0,.228-.228V6.385A1.611,1.611,0,0,0,4.053,5.348a1.566,1.566,0,0,0-1.034-2.02Z" transform="translate(56.009 26.506)" fill="#ffa149"/>
  </g>
</svg>
