<svg xmlns="http://www.w3.org/2000/svg" width="19.788" height="23.109" viewBox="0 0 19.788 23.109">
  <g id="Group_24454" data-name="Group 24454" transform="translate(13148.14 21709.346)">
    <path id="Union_54" data-name="Union 54" d="M0,22.109V19.673H16.144v2.436Zm0-9.492V0H9.664l6.48,6.615v6Z" transform="translate(-13146.317 -21708.846)" fill="none" stroke="#05afb2" stroke-width="1"/>
    <path id="Path_26572" data-name="Path 26572" d="M8.155,318.439H27.943v7.055H8.155Z" transform="translate(-13156.295 -22014.668)" fill="#05afb2"/>
    <path id="Union_55" data-name="Union 55" d="M.482,2.811A1.594,1.594,0,0,1,0,1.634H0A1.594,1.594,0,0,1,1.672,0,1.435,1.435,0,0,1,2.983.769l-.573.29A.854.854,0,0,0,1.672.6a1.03,1.03,0,0,0,0,2.058.844.844,0,0,0,.738-.449l.573.279a1.446,1.446,0,0,1-1.311.769H1.594A1.594,1.594,0,0,1,.482,2.811Zm2.691-.054.365-.508a1.382,1.382,0,0,0,1,.424c.367,0,.546-.17.546-.349,0-.555-1.806-.172-1.806-1.353,0-.522.442-.955,1.189-.955h0a1.737,1.737,0,0,1,1.22.441l-.38.484A1.351,1.351,0,0,0,4.4.6c-.287,0-.442.126-.442.314,0,.5,1.8.166,1.8,1.327,0,.575-.409,1.006-1.256,1.006H4.4a1.78,1.78,0,0,1-1.229-.49ZM7.087,3.2,5.873.062h.76L7.5,2.474,8.369.062h.763L7.923,3.2Z" transform="translate(-13142.724 -21694.145)" fill="#fff"/>
    <path id="Path_26577" data-name="Path 26577" d="M-13129.7-21709.1l6.685,6.682h-6.685v-6.682" transform="translate(-6.927)" fill="#05afb2"/>
  </g>
</svg>
