<svg xmlns="http://www.w3.org/2000/svg" width="47.276" height="60" viewBox="0 0 47.276 60">
  <g id="Current" transform="translate(-14.204)">
    <g id="Group_19720" data-name="Group 19720" transform="translate(14.204)">
      <path id="Path_15336" data-name="Path 15336" d="M35.017,10.948a.879.879,0,0,0-1.6.5v4.941a.879.879,0,1,0,1.758,0V14.267l1.739,2.518a.951.951,0,0,0,1.064.385.966.966,0,0,0,.666-.957L38.6,11.429a.879.879,0,0,0-.879-.87h-.009a.879.879,0,0,0-.87.887l.021,2.168Z" transform="translate(-24.81 -5.829)" fill="#006d77"/>
      <path id="Path_15337" data-name="Path 15337" d="M27.719,16.389V11.438a.879.879,0,1,0-1.758,0v4.951a.879.879,0,1,0,1.758,0Z" transform="translate(-20.695 -5.829)" fill="#006d77"/>
      <path id="Path_15338" data-name="Path 15338" d="M77.636,10.559a.879.879,0,0,0-.879.879v4.951a.879.879,0,0,0,1.758,0V11.438a.879.879,0,0,0-.879-.879Z" transform="translate(-48.739 -5.829)" fill="#006d77"/>
      <path id="Path_15339" data-name="Path 15339" d="M102.4,12.368a.879.879,0,0,0,0-1.758h-2.067a.879.879,0,0,0-.879.879v4.905a.879.879,0,0,0,.879.879H102.4a.879.879,0,0,0,0-1.758h-1.188V14.82h1.036a.879.879,0,0,0,0-1.758h-1.036v-.695H102.4Z" transform="translate(-61.27 -5.857)" fill="#006d77"/>
      <path id="Path_15340" data-name="Path 15340" d="M87.194,12.317a1.587,1.587,0,0,1,.892.272.879.879,0,1,0,.984-1.457,3.354,3.354,0,1,0-1.876,6.136,2.828,2.828,0,0,0,2.233-1.013.879.879,0,1,0-1.347-1.129,1.087,1.087,0,0,1-.112.116,1.125,1.125,0,0,1-.774.269,1.6,1.6,0,1,1,0-3.192Z" transform="translate(-52.649 -5.829)" fill="#006d77"/>
      <path id="Path_15341" data-name="Path 15341" d="M49.453,17.268h.007a.994.994,0,0,0,.933-.678l1.616-4.866a.879.879,0,1,0-1.668-.554l-.9,2.721-.952-2.742a.879.879,0,1,0-1.661.576l1.695,4.882a.991.991,0,0,0,.934.661Z" transform="translate(-32.187 -5.829)" fill="#006d77"/>
      <path id="Path_15342" data-name="Path 15342" d="M65.306,13.913a3.354,3.354,0,1,0-3.354,3.354,3.354,3.354,0,0,0,3.354-3.354Zm-4.951,0a1.6,1.6,0,1,1,1.6,1.6,1.6,1.6,0,0,1-1.6-1.6Z" transform="translate(-38.713 -5.829)" fill="#006d77"/>
      <path id="Path_15343" data-name="Path 15343" d="M80.463,34.551a.879.879,0,0,0,.879.879H91.915a.879.879,0,0,0,0-1.758H81.341a.879.879,0,0,0-.878.879Z" transform="translate(-50.785 -18.59)" fill="#006d77"/>
      <path id="Path_15344" data-name="Path 15344" d="M99.383,42.342H94.868a.879.879,0,1,0,0,1.758h4.516a.879.879,0,0,0,0-1.758Z" transform="translate(-58.252 -23.377)" fill="#006d77"/>
      <path id="Path_15345" data-name="Path 15345" d="M87.031,115.832c-.262,0-.426-.185-.819-.778a2.45,2.45,0,0,0-4.569,0c-.392.593-.557.778-.819.778s-.426-.185-.819-.778a2.45,2.45,0,0,0-4.569,0c-.392.593-.557.778-.819.778a.879.879,0,0,0,0,1.758,2.758,2.758,0,0,0,2.285-1.566c.392-.593.557-.778.819-.778s.426.185.819.778a2.45,2.45,0,0,0,4.569,0c.392-.593.557-.778.819-.778s.426.185.819.778a2.758,2.758,0,0,0,2.285,1.566.879.879,0,1,0,0-1.758Z" transform="translate(-47.073 -62.656)" fill="#006d77"/>
      <path id="Path_15346" data-name="Path 15346" d="M60.6,44.534a.879.879,0,0,0-.879.879V56.223A2.021,2.021,0,0,1,57.7,58.242H17.981a2.021,2.021,0,0,1-2.019-2.019V3.777a2.021,2.021,0,0,1,2.019-2.019h6.131a.879.879,0,0,0,0-1.758H17.981A3.781,3.781,0,0,0,14.2,3.777V56.223A3.781,3.781,0,0,0,17.981,60H57.7a3.781,3.781,0,0,0,3.777-3.777V45.412a.879.879,0,0,0-.879-.879Z" transform="translate(-14.204)" fill="#006d77"/>
      <path id="Path_15347" data-name="Path 15347" d="M73.164,0H43.087a.879.879,0,0,0,0,1.758H73.164a2.021,2.021,0,0,1,2.019,2.019V41.9a.879.879,0,1,0,1.758,0V3.777A3.781,3.781,0,0,0,73.164,0Z" transform="translate(-29.665)" fill="#006d77"/>
      <path id="Path_15348" data-name="Path 15348" d="M28.755,55.369V73.623a2.067,2.067,0,0,0,2.064,2.064h8.649a.879.879,0,0,0,0-1.758H30.82a.307.307,0,0,1-.307-.307V69.071H52.721v4.858H42.983a.879.879,0,1,0,0,1.758H60.931A2.067,2.067,0,0,0,63,73.622V55.369A2.067,2.067,0,0,0,60.931,53.3H30.82a2.067,2.067,0,0,0-2.064,2.064Zm2.064-.307h21.9V59.92H30.513V55.368a.307.307,0,0,1,.307-.305Zm-.307,12.253V61.678H52.721v5.637Zm30.725,0H54.479V61.678h6.759Zm-.307,6.615H54.479V69.073h6.759v4.552a.307.307,0,0,1-.307.305Zm.307-18.562v4.552H54.479V55.062h6.452a.307.307,0,0,1,.307.307Z" transform="translate(-22.238 -29.429)" fill="#006d77"/>
    </g>
  </g>
</svg>
