<svg xmlns="http://www.w3.org/2000/svg" width="32" height="24" viewBox="0 0 32 24">
  <defs>
    <style>
      .cls-1 {
        fill: #297dc7;
      }
    </style>
  </defs>
  <g id="Group_105" data-name="Group 105" transform="translate(-134 -641)">
    <path id="Path_161" data-name="Path 161" class="cls-1" d="M30,4a2,2,0,0,0-2-2H4A2,2,0,0,0,2,4V22H0a4,4,0,0,0,4,4H28a4,4,0,0,0,4-4H30ZM28,22H4V4H28Z" transform="translate(134 639)"/>
    <g id="icons" transform="translate(142 644)">
      <path id="user2" class="cls-1" d="M8,0a8,8,0,1,0,8,8A8.024,8.024,0,0,0,8,0ZM8,2.667c1.467,0,2.667,1.467,2.667,3.333S9.467,9.333,8,9.333,5.333,7.867,5.333,6,6.533,2.667,8,2.667ZM12.4,13A6.772,6.772,0,0,1,8,14.667,6.772,6.772,0,0,1,3.6,13a.648.648,0,0,1-.067-.933,5.991,5.991,0,0,1,2.8-1.8,3.672,3.672,0,0,0,3.333,0,5.679,5.679,0,0,1,2.8,1.8A.6.6,0,0,1,12.4,13Z"/>
    </g>
  </g>
</svg>
