<svg xmlns="http://www.w3.org/2000/svg" width="18" height="15.998" viewBox="0 0 18 15.998">
  <g id="customization-4416623" transform="translate(-7.649 -5.416)">
    <path id="Path_26155" data-name="Path 26155" d="M16.748,18.54a.394.394,0,0,0-.417.417v1.5H14.29V18.832c0-.042,0-.042-.042-.083,0-.042-.042-.042-.042-.083a.041.041,0,0,0-.042-.042.145.145,0,0,0-.083-.042c-.042,0-.042-.042-.083-.042h-.042a5.581,5.581,0,0,1-2.541-1.458h-.042c-.042,0-.042-.042-.083-.042S11.249,17,11.207,17h-.25c-.042,0-.042,0-.083.042h-.042l-1.292.75L8.5,16l1.292-.75h.042c.042,0,.042-.042.083-.042l.042-.042c0-.042.042-.042.042-.083s0-.042.042-.083V14.79a5.208,5.208,0,0,1,0-2.916v-.208c0-.042,0-.042-.042-.083,0-.042,0-.042-.042-.083a.041.041,0,0,0-.042-.042.145.145,0,0,0-.083-.042H9.791L8.5,10.666,9.541,8.874l1.292.75h.042c.042,0,.042,0,.083.042h.25c.042,0,.042,0,.083-.042.042,0,.042-.042.083-.042h.042a5.581,5.581,0,0,1,2.541-1.458H14c.042,0,.042-.042.083-.042s.042-.042.083-.042L14.207,8c0-.042.042-.042.042-.083s0-.042.042-.083V6.208h2.041V7.833c0,.042,0,.042.042.083,0,.042.042.042.042.083a.041.041,0,0,0,.042.042.145.145,0,0,0,.083.042c.042,0,.042.042.083.042h.042a5.581,5.581,0,0,1,2.541,1.458.45.45,0,0,0,.292.125.378.378,0,0,0,.292-.125.4.4,0,0,0,0-.583,5.966,5.966,0,0,0-2.583-1.583V5.833a.394.394,0,0,0-.417-.417H13.915a.394.394,0,0,0-.417.417V7.416a6.818,6.818,0,0,0-2.375,1.375L9.749,8a.443.443,0,0,0-.333-.042c-.125.042-.208.083-.25.208l-1.458,2.5a.422.422,0,0,0,.167.583l1.375.792a7.744,7.744,0,0,0-.167,1.375,5.176,5.176,0,0,0,.167,1.375l-1.375.792a.461.461,0,0,0-.167.583l1.458,2.5a.612.612,0,0,0,.25.208h.125a.376.376,0,0,0,.208-.042l1.375-.792A6.463,6.463,0,0,0,13.5,19.415V21a.394.394,0,0,0,.417.417H16.79A.394.394,0,0,0,17.207,21V19.082C17.165,18.748,16.957,18.54,16.748,18.54Z" fill="#fff"/>
    <path id="Path_26156" data-name="Path 26156" d="M15.29,10.166a3.166,3.166,0,1,0,3.166,3.166,3.166,3.166,0,0,0-3.166-3.166Zm0,5.5a2.329,2.329,0,1,1,1.651-.682A2.333,2.333,0,0,1,15.29,15.665Z" fill="#fff"/>
    <path id="Path_26157" data-name="Path 26157" d="M24.289,7.375a2.21,2.21,0,0,0-1.708.042,2.437,2.437,0,0,0-1.208,1.208l-.208.458-3.208,8.124c0,.042-.042.083-.042.125v.083l.625,3.375a.648.648,0,0,0,.25.333c.042,0,.083.042.167.042a.592.592,0,0,0,.25-.083l2.75-2.041L22,19a.041.041,0,0,0,.042-.042.153.153,0,0,0,.042-.125L25.5,10.249a2.21,2.21,0,0,0-.042-1.708,2.136,2.136,0,0,0-1.167-1.167Zm-1.375.792a1.235,1.235,0,0,1,1.083,0,1.328,1.328,0,0,1,.75.75,1.235,1.235,0,0,1,0,1.083l-.042.083L22.123,9.041l.042-.083A1.4,1.4,0,0,1,22.914,8.166Zm-1.417,10-2.583-1.042,2.916-7.333,2.583,1.042Zm-2.583-.125,1.958.792L19.248,20.04Z" fill="#fff"/>
  </g>
</svg>
