<svg xmlns="http://www.w3.org/2000/svg" width="34" height="34" viewBox="0 0 34 34">
  <g id="Customers" transform="translate(-1 -1)">
    <path id="Path_15299" data-name="Path 15299" d="M31.685,27.716,28.426,26.9V25.761a4.818,4.818,0,0,0,2.645-3.368h.646a1.646,1.646,0,0,0,0-3.291H31.43l.533-1.332a4.228,4.228,0,0,0-3.925-5.8h-2.9V5.937h0a.549.549,0,0,0-.156-.388l-4.4-4.388A.544.544,0,0,0,20.2,1H1.549A.549.549,0,0,0,1,1.549V32.266a.549.549,0,0,0,.549.549H17.456V34.46a.549.549,0,0,0,.549.549H34.46a.549.549,0,0,0,.549-.549V31.973a4.381,4.381,0,0,0-3.324-4.257Zm-7.266.219,1.038,1.039-.76.761-.975-1.625Zm3.628,0,.7.174-.976,1.626-.76-.761ZM27.33,27.1l-1.1,1.1-1.1-1.1v-1a4.946,4.946,0,0,0,1.118.132h.11a4.787,4.787,0,0,0,.966-.1Zm2.743-5.676a3.712,3.712,0,0,1-3.708,3.709h-.11a3.856,3.856,0,0,1-3.862-3.84V19.65h.29a4.49,4.49,0,0,0,3.55-1.721,4.49,4.49,0,0,0,3.55,1.721h.29ZM31.718,20.2a.55.55,0,0,1,0,1.1h-.549V20.2Zm-.549-4a3.1,3.1,0,0,1-.224,1.163l-.476,1.191h-.686a3.4,3.4,0,0,1-3.056-1.891.572.572,0,0,0-.982,0,3.4,3.4,0,0,1-3.062,1.891H22l-.477-1.191a3.132,3.132,0,0,1,2.907-4.294h3.612A3.135,3.135,0,0,1,31.169,16.2ZM21.3,21.3h-.549a.55.55,0,1,1,0-1.1H21.3ZM24.043,6.49v5.5a4.182,4.182,0,0,0-1.1.255V6.485Zm-3.3-3.617,2.516,2.516H20.747Zm1.1,3.613v6.373A4.218,4.218,0,0,0,20.2,16.2c0,.055.005.11.008.16H4.291V4.291H19.65V5.937a.549.549,0,0,0,.549.549ZM2.1,2.1H19.65V3.2H3.743a.549.549,0,0,0-.549.549V16.907a.549.549,0,0,0,.549.549H20.392c.033.1.067.21.11.313l.532,1.332h-.287a1.646,1.646,0,1,0,0,3.291h.676A4.955,4.955,0,0,0,24.038,25.7v1.2l-3.258.815a4.377,4.377,0,0,0-3.313,4H2.1ZM33.912,33.912H31.718V31.169h-1.1v2.743H21.844V31.169h-1.1v2.743H18.553V31.973a3.286,3.286,0,0,1,2.493-3.193l1.562-.391L24.117,30.9a.549.549,0,0,0,.4.262.542.542,0,0,0,.067,0A.548.548,0,0,0,24.972,31l1.258-1.258L27.488,31a.549.549,0,0,0,.388.161.541.541,0,0,0,.067,0,.549.549,0,0,0,.4-.262l1.508-2.514,1.563.391a3.286,3.286,0,0,1,2.493,3.193Z" fill="#707070"/>
    <path id="Path_15300" data-name="Path 15300" d="M15.194,11.194a1.1,1.1,0,0,1,1.1,1.1h1.1a2.194,2.194,0,0,0-1.646-2.116V9h-1.1v1.175a2.19,2.19,0,0,0,.549,4.31,1.1,1.1,0,1,1-1.1,1.1H13A2.194,2.194,0,0,0,14.646,17.7v1.175h1.1V17.7a2.19,2.19,0,0,0-.549-4.31,1.1,1.1,0,0,1,0-2.194Z" transform="translate(-5.418 -3.612)" fill="#707070"/>
    <path id="Path_15301" data-name="Path 15301" d="M27.194,11.194a1.1,1.1,0,0,1,1.1,1.1h1.1a2.194,2.194,0,0,0-1.646-2.116V9h-1.1v1.175a2.19,2.19,0,0,0,.549,4.31,1.1,1.1,0,1,1-1.1,1.1H25A2.194,2.194,0,0,0,26.646,17.7v1.175h1.1V17.7a2.19,2.19,0,0,0-.549-4.31,1.1,1.1,0,1,1,0-2.194Z" transform="translate(-10.835 -3.612)" fill="#707070"/>
    <rect id="Rectangle_2786" data-name="Rectangle 2786" width="15" height="1" transform="translate(3 19)" fill="#707070"/>
    <rect id="Rectangle_2787" data-name="Rectangle 2787" width="15" height="1" transform="translate(3 21)" fill="#707070"/>
    <rect id="Rectangle_2788" data-name="Rectangle 2788" width="18" height="1" transform="translate(3 23)" fill="#707070"/>
    <rect id="Rectangle_2789" data-name="Rectangle 2789" width="18" height="1" transform="translate(3 25)" fill="#707070"/>
    <rect id="Rectangle_2790" data-name="Rectangle 2790" width="15" height="1" transform="translate(3 27)" fill="#707070"/>
    <rect id="Rectangle_2791" data-name="Rectangle 2791" width="12" height="1" transform="translate(3 30)" fill="#707070"/>
    <rect id="Rectangle_2792" data-name="Rectangle 2792" width="1" height="1" transform="translate(16 30)" fill="#707070"/>
  </g>
</svg>
