<svg id="dashboard-icon" xmlns="http://www.w3.org/2000/svg" width="34" height="34" viewBox="0 0 34 34">
  <g id="Group_19786" data-name="Group 19786">
    <path id="Path_15502" data-name="Path 15502" d="M13.458,11.333H2.125A2.128,2.128,0,0,1,0,9.208V2.125A2.128,2.128,0,0,1,2.125,0H13.458a2.128,2.128,0,0,1,2.125,2.125V9.208A2.128,2.128,0,0,1,13.458,11.333ZM2.125,1.417a.709.709,0,0,0-.708.708V9.208a.709.709,0,0,0,.708.708H13.458a.709.709,0,0,0,.708-.708V2.125a.709.709,0,0,0-.708-.708Z" fill="#707070"/>
  </g>
  <g id="Group_19787" data-name="Group 19787" transform="translate(0 14.166)">
    <path id="Path_15503" data-name="Path 15503" d="M13.458,29.833H2.125A2.128,2.128,0,0,1,0,27.708V12.125A2.128,2.128,0,0,1,2.125,10H13.458a2.128,2.128,0,0,1,2.125,2.125V27.708A2.128,2.128,0,0,1,13.458,29.833ZM2.125,11.417a.709.709,0,0,0-.708.708V27.708a.709.709,0,0,0,.708.708H13.458a.709.709,0,0,0,.708-.708V12.125a.709.709,0,0,0-.708-.708Z" transform="translate(0 -10)" fill="#707070"/>
  </g>
  <g id="Group_19788" data-name="Group 19788" transform="translate(18.416 22.666)">
    <path id="Path_15504" data-name="Path 15504" d="M26.458,27.333H15.125A2.128,2.128,0,0,1,13,25.208V18.125A2.128,2.128,0,0,1,15.125,16H26.458a2.128,2.128,0,0,1,2.125,2.125v7.083a2.128,2.128,0,0,1-2.125,2.125ZM15.125,17.417a.709.709,0,0,0-.708.708v7.083a.709.709,0,0,0,.708.708H26.458a.709.709,0,0,0,.708-.708V18.125a.709.709,0,0,0-.708-.708Z" transform="translate(-13 -16)" fill="#707070"/>
  </g>
  <g id="Group_19789" data-name="Group 19789" transform="translate(18.416)">
    <path id="Path_15505" data-name="Path 15505" d="M26.458,19.833H15.125A2.128,2.128,0,0,1,13,17.708V2.125A2.128,2.128,0,0,1,15.125,0H26.458a2.128,2.128,0,0,1,2.125,2.125V17.708a2.128,2.128,0,0,1-2.125,2.125ZM15.125,1.417a.709.709,0,0,0-.708.708V17.708a.709.709,0,0,0,.708.708H26.458a.709.709,0,0,0,.708-.708V2.125a.709.709,0,0,0-.708-.708Z" transform="translate(-13)" fill="#707070"/>
  </g>
</svg>
