<svg xmlns="http://www.w3.org/2000/svg" width="17.455" height="20" viewBox="0 0 17.455 20">
  <g id="Group_20048" data-name="Group 20048" transform="translate(-2.909 -1.636)">
    <g id="Layer_1">
      <g id="Group_20047" data-name="Group 20047">
        <path id="Path_15366" data-name="Path 15366" d="M14.182,17.273a.727.727,0,0,0,.727-.727V9.273a.727.727,0,1,0-1.455,0v7.273A.727.727,0,0,0,14.182,17.273Z" fill="#dc3545"/>
        <path id="Path_15367" data-name="Path 15367" d="M9.091,17.273a.727.727,0,0,0,.727-.727V9.273a.727.727,0,1,0-1.455,0v7.273A.727.727,0,0,0,9.091,17.273Z" fill="#dc3545"/>
        <path id="Path_15368" data-name="Path 15368" d="M14.545,3.091a.727.727,0,1,0,0-1.455H8.727a.727.727,0,1,0,0,1.455Z" fill="#dc3545"/>
        <path id="Path_15369" data-name="Path 15369" d="M3.636,3.818a.727.727,0,1,0,0,1.455h.727V18.655a2.986,2.986,0,0,0,2.982,2.982h8.582a2.986,2.986,0,0,0,2.982-2.982V5.273h.727a.727.727,0,0,0,0-1.455ZM17.455,5.273V18.655a1.527,1.527,0,0,1-1.527,1.527H7.345a1.527,1.527,0,0,1-1.527-1.527V5.273Z" fill="#dc3545"/>
      </g>
    </g>
  </g>
</svg>
