<svg id="disputes" xmlns="http://www.w3.org/2000/svg" width="20.002" height="18.85" viewBox="0 0 20.002 18.85">
  <path id="Path_18019" data-name="Path 18019" d="M19.406,0H4.179a2.3,2.3,0,0,0-2.39,2.2v9.65a2.311,2.311,0,0,0,2.378,2.188H12l5.041,4.61a.845.845,0,0,0,.545.2.82.82,0,0,0,.328-.068.752.752,0,0,0,.467-.764l-.441-3.978h1.551a2.313,2.313,0,0,0,2.3-2.2V2.191A2.3,2.3,0,0,0,19.406,0ZM16.465,12.76a.73.73,0,0,0-.217.6l.311,2.74-3.694-3.372a.837.837,0,0,0-.543-.2H4.109a.717.717,0,0,1-.717-.69V2.187a.717.717,0,0,1,.775-.673H19.481a.718.718,0,0,1,.707.69v9.65a.712.712,0,0,1-.775.672H17.049a.844.844,0,0,0-.584.237Z" transform="translate(-1.789 0.002)" fill="#dc3545"/>
  <path id="Union_29" data-name="Union 29" d="M14168.3,16319.4v-1.5h-1.5a1,1,0,0,1,0-2h1.5v-1.5a1,1,0,0,1,2,0v1.5h1.5a1,1,0,0,1,0,2h-1.5v1.5a1,1,0,0,1-2,0Z" transform="translate(-14159.288 -16309.998)" fill="#dc3545"/>
</svg>
