<svg xmlns="http://www.w3.org/2000/svg" width="60" height="58.146" viewBox="0 0 60 58.146">
  <g id="Dispute" transform="translate(0 -0.541)">
    <path id="Path_15309" data-name="Path 15309" d="M.938,37.157A.938.938,0,0,1,0,36.219V12.782A2.813,2.813,0,0,1,2.813,9.97H13.127a.938.938,0,0,1,0,1.875H2.813a.938.938,0,0,0-.938.938V36.219a.938.938,0,0,1-.938.938Z" transform="translate(0 6.53)" fill="#b23414"/>
    <path id="Path_15310" data-name="Path 15310" d="M57.187,45.595H2.813A2.813,2.813,0,0,1,0,42.782v-3.75a.938.938,0,0,1,1.875,0v3.75a.938.938,0,0,0,.938.938H57.187a.938.938,0,0,0,.938-.938v-30a.938.938,0,0,0-.938-.938H45A.938.938,0,0,1,45,9.97H57.187A2.813,2.813,0,0,1,60,12.782v30a2.813,2.813,0,0,1-2.813,2.813Z" transform="translate(0 6.53)" fill="#b23414"/>
    <path id="Path_15311" data-name="Path 15311" d="M23.392,38.346h-7.5a.938.938,0,0,1-.938-.938V30.846a.938.938,0,0,1,.938-.938h7.5a.938.938,0,0,1,.938.938v6.562A.938.938,0,0,1,23.392,38.346Zm-6.563-1.875h5.625V31.783H16.829Z" transform="translate(10.358 20.341)" fill="#b23414"/>
    <path id="Path_15312" data-name="Path 15312" d="M33.961,35.66h-22.5a.938.938,0,1,1,0-1.875h22.5a.938.938,0,1,1,0,1.875Z" transform="translate(7.289 23.027)" fill="#b23414"/>
    <path id="Path_15313" data-name="Path 15313" d="M.554,26.585H58.679V28.46H.554Z" transform="translate(0.384 18.039)" fill="#b23414"/>
    <path id="Path_15314" data-name="Path 15314" d="M25.308,22.2a.938.938,0,0,1-.938-.938V8.136a.938.938,0,0,1,1.875,0V21.263A.938.938,0,0,1,25.308,22.2Z" transform="translate(16.88 4.612)" fill="#b23414"/>
    <path id="Path_15315" data-name="Path 15315" d="M21.984,25.035a.938.938,0,1,1,0-1.875,4.693,4.693,0,0,0,4.687-4.687v-.919a.938.938,0,1,1,1.875,0v.917a6.571,6.571,0,0,1-6.562,6.564Z" transform="translate(14.578 11.134)" fill="#b23414"/>
    <path id="Path_15316" data-name="Path 15316" d="M32.726,36.167H12.1A6.571,6.571,0,0,1,5.539,29.6a.938.938,0,0,1,.938-.938h4.687V7.1A6.57,6.57,0,0,1,17.724.542H42.1a.938.938,0,1,1,0,1.875H17.724A4.693,4.693,0,0,0,13.036,7.1V28.667H27.1a.938.938,0,0,1,.938.938,4.693,4.693,0,0,0,4.687,4.687.938.938,0,0,1,0,1.875ZM7.508,30.542a4.7,4.7,0,0,0,4.594,3.75H28.132a6.557,6.557,0,0,1-1.907-3.75Z" transform="translate(3.837)" fill="#b23414"/>
    <path id="Path_15317" data-name="Path 15317" d="M32.808,13.68H28.12a.938.938,0,0,1,0-1.875h3.75V5.241a2.813,2.813,0,1,0-5.625,0v7.5a.938.938,0,1,1-1.875,0v-7.5a4.688,4.688,0,0,1,9.375,0v7.5a.938.938,0,0,1-.938.942Z" transform="translate(16.88 0.008)" fill="#b23414"/>
    <path id="Path_15318" data-name="Path 15318" d="M19.258,19.773a3.75,3.75,0,0,1-3.75-3.751.938.938,0,0,1,1.875,0,1.875,1.875,0,1,0,1.875-1.875,3.75,3.75,0,1,1,3.75-3.75.938.938,0,1,1-1.875,0,1.875,1.875,0,1,0-1.875,1.875,3.75,3.75,0,1,1,0,7.5Z" transform="translate(10.742 4.229)" fill="#b23414"/>
    <path id="Path_15319" data-name="Path 15319" d="M18.107,9.289a.938.938,0,0,1-.938-.938V6.476a.938.938,0,0,1,1.875,0V8.351A.938.938,0,0,1,18.107,9.289Z" transform="translate(11.893 3.461)" fill="#b23414"/>
    <path id="Path_15320" data-name="Path 15320" d="M18.107,17.043a.938.938,0,0,1-.938-.938V14.23a.938.938,0,0,1,1.875,0v1.875a.938.938,0,0,1-.937.938Z" transform="translate(11.893 8.832)" fill="#b23414"/>
  </g>
</svg>
