<svg id="elavon-header-logo" xmlns="http://www.w3.org/2000/svg" width="68.825" height="33.039" viewBox="0 0 68.825 33.039">
  <path id="Path_26529" data-name="Path 26529" d="M55.566,157.642h2v-6.884c0-2.193,1.176-3.82,3.606-3.82a2.3,2.3,0,0,1,2.475,2.453v8.251h2v-8.014c0-2.611-.995-4.453-4.193-4.453A4.248,4.248,0,0,0,57.5,147.39h-.045v-1.933H55.566Zm-11.846-6.092c0-2.973,1.7-4.623,3.8-4.623s3.8,1.65,3.8,4.623c0,2.95-1.7,4.6-3.8,4.6s-3.809-1.65-3.8-4.6m-2.125,0c0,3.56,2.046,6.364,5.923,6.364s5.923-2.8,5.923-6.364c0-3.583-2.046-6.386-5.923-6.386s-5.923,2.8-5.923,6.386m-.576-6.1h-2.1l-3.323,10.162h-.045l-3.414-10.162H29.9l4.521,12.185h2.148ZM29.637,156.037a1.623,1.623,0,0,1-.61.113c-.633,0-.633-.43-.633-1.368v-6.273c0-2.848-2.385-3.346-4.578-3.346-2.713,0-5.041,1.062-5.166,4.08h2c.09-1.8,1.345-2.306,3.041-2.306,1.277,0,2.713.283,2.713,2.023,0,1.5-1.888,1.368-4.1,1.8-2.08.4-4.126.995-4.126,3.753,0,2.43,1.82,3.414,4.035,3.414a5.411,5.411,0,0,0,4.3-1.888c0,1.322.656,1.888,1.7,1.888a2.671,2.671,0,0,0,1.435-.328Zm-3.255-2.645c0,1.108-1.085,2.758-3.73,2.758-1.221,0-2.362-.475-2.362-1.8,0-1.481,1.13-1.955,2.453-2.193,1.345-.237,2.848-.26,3.628-.825Zm-12.388,4.25h2V140.8h-2ZM0,157.642H11.687v-1.888H2.238v-5.821h8.749v-1.888H2.238v-5.358H11.62V140.8H0Z" transform="translate(0 -124.885)"/>
  <path id="Path_26530" data-name="Path 26530" d="M247.765,52.312a17.077,17.077,0,0,0-.045-2.012c-5.991.509-14.4,4.352-22.188,10.625-.882.712-1.729,1.424-2.532,2.148h.5c.147-.113.283-.237.43-.362,8.195-6.59,17.147-10.421,23.228-10.421C247.358,52.289,247.562,52.3,247.765,52.312Z" transform="translate(-197.794 -44.615)" fill="#0c2074"/>
  <path id="Path_26531" data-name="Path 26531" d="M472.938,52.839A6.2,6.2,0,0,0,469.4,51.2a24.637,24.637,0,0,1,.158,2.588,5.487,5.487,0,0,1,1.82,1.221,5.806,5.806,0,0,1,1.492,4.612,13.8,13.8,0,0,1-1.051,4.261h.328a16.471,16.471,0,0,0,2.227-6.635A5.587,5.587,0,0,0,472.938,52.839Z" transform="translate(-416.343 -45.413)" fill="#0c2074"/>
  <path id="Path_26532" data-name="Path 26532" d="M388.549,2.374C388.017.8,387.237,0,386.231,0h-.011c-1.842,0-4.137,2.713-6.42,7.392.4-.147.791-.283,1.176-.418,1.594-2.679,3.108-4.261,4.2-4.261h.1c.61.057,1.062.644,1.322,1.752.678,2.848-.068,8.432-1.729,14.321a7.667,7.667,0,0,1,3.334.927C389.487,12.377,389.713,5.8,388.549,2.374Z" transform="translate(-336.871 0)" fill="#0075c9"/>
  <path id="Path_26533" data-name="Path 26533" d="M345.628,87.894c-.52,1.232-1.029,2.555-1.537,3.979-.5,1.4-.961,2.837-1.39,4.284h.486a66.879,66.879,0,0,1,2.408-6.556c.305-.7.61-1.356.916-2C346.215,87.69,345.921,87.781,345.628,87.894Z" transform="translate(-303.964 -77.698)" fill="#0075c9"/>
  <path id="Path_26534" data-name="Path 26534" d="M590.685,270.079a.976.976,0,0,1-1.334,1.424l-.045-.045a.975.975,0,0,1,.678-1.661A1.022,1.022,0,0,1,590.685,270.079Zm.113-.113a1.132,1.132,0,1,0,.328.791A1.163,1.163,0,0,0,590.8,269.966Zm-.633.746a.42.42,0,0,1-.2.023h-.192v-.452h.192a.509.509,0,0,1,.26.045.2.2,0,0,1,.079.181A.2.2,0,0,1,590.165,270.712Zm-.622.667h.215v-.486h.169a.487.487,0,0,1,.249.045.308.308,0,0,1,.113.283v.17h.2l-.011-.011a.141.141,0,0,1-.011-.068v-.181a.306.306,0,0,0-.068-.192.323.323,0,0,0-.215-.124.484.484,0,0,0,.181-.056.3.3,0,0,0,.124-.249.321.321,0,0,0-.192-.316,1.164,1.164,0,0,0-.339-.045h-.43Z" transform="translate(-522.301 -239.154)"/>
</svg>
