<svg xmlns="http://www.w3.org/2000/svg" width="29.883" height="30" viewBox="0 0 29.883 30">
  <g id="Group_21348" data-name="Group 21348" transform="translate(-0.059 0)">
    <path id="Path_18032" data-name="Path 18032" d="M29.625,12.04,25.254,8.4V3.926a.879.879,0,0,0-.879-.879H18.844L15.576.215a.879.879,0,0,0-1.151,0L11.157,3.047H5.625a.879.879,0,0,0-.879.879V8.4L.375,12.04a.879.879,0,0,0-.316.675V29.121A.879.879,0,0,0,.938,30H29.063a.879.879,0,0,0,.879-.879V12.715a.879.879,0,0,0-.316-.675ZM10.053,20.918,1.816,27.324V14.512Zm1.733.879h6.428L26.5,28.242H3.5Zm8.161-.879,8.236-6.406V27.324Zm7.714-8.227-2.407,1.872V10.685ZM15,2.042l1.16,1H13.84ZM23.5,4.8V15.931l-5.282,4.108H11.786L6.5,15.931V4.8ZM4.746,14.564,2.339,12.691l2.407-2.006Z" fill="#ffa149"/>
    <path id="Path_18033" data-name="Path 18033" d="M11.074,17.5a6.5,6.5,0,0,0,3.786,1.362h.025a.879.879,0,1,0,.024-1.758,4.688,4.688,0,1,1,4.613-6.055,4.092,4.092,0,0,1-.259,2.714,1.234,1.234,0,0,1-1.122.846.283.283,0,0,1-.183-.093.572.572,0,0,1-.159-.4l.024-4.883a.879.879,0,0,0-.875-.883h0a.879.879,0,0,0-.863.715,2.78,2.78,0,0,0-1.3-.319A3.081,3.081,0,0,0,12.51,9.793a3.809,3.809,0,0,0-.939,2.57,4.087,4.087,0,0,0,.883,2.6,2.958,2.958,0,0,0,2.266,1.131,2.736,2.736,0,0,0,1.74-.632,2.253,2.253,0,0,0,.251.3,2.012,2.012,0,0,0,1.429.611A2.972,2.972,0,0,0,20.9,14.419a5.786,5.786,0,0,0,.321-3.831l-.008-.027A6.445,6.445,0,1,0,11.074,17.5Zm3.646-3.17c-.672,0-1.391-.792-1.391-1.971a1.662,1.662,0,0,1,1.45-1.853c.726,0,1.24.708,1.271,1.735v.221c-.042,1.041-.622,1.869-1.329,1.869Z" fill="#ffa149"/>
  </g>
</svg>
