<svg xmlns="http://www.w3.org/2000/svg" width="60.014" height="59.994" viewBox="0 0 60.014 59.994">
  <g id="check-3144970" transform="translate(-10.49 -2.406)">
    <path id="Path_17928" data-name="Path 17928" d="M60.758,62.4h-40.5a.886.886,0,0,1,0-1.772h40.5a.886.886,0,1,1,0,1.772Z" fill="#5c5c5c"/>
    <path id="Path_17929" data-name="Path 17929" d="M69.619,54.809H11.392a.881.881,0,0,1-.886-.886V13.417a.881.881,0,0,1,.886-.886H25.316a.886.886,0,0,1,0,1.772H12.278V53.037H68.732V14.3H55.694a.886.886,0,1,1,0-1.772H69.618a.881.881,0,0,1,.886.886V53.923a.881.881,0,0,1-.886.886Z" fill="#5c5c5c"/>
    <path id="Path_17930" data-name="Path 17930" d="M40.506,37.088a.89.89,0,0,1-.544-.19L10.848,14.113a.884.884,0,1,1,1.089-1.392L40.506,35.075,69.075,12.721a.884.884,0,0,1,1.089,1.392L41.051,36.9a.89.89,0,0,1-.544.19Z" fill="#5c5c5c"/>
    <path id="Path_17931" data-name="Path 17931" d="M11.392,54.809a.894.894,0,0,1-.7-.329.884.884,0,0,1,.139-1.241l18.987-15.19a.883.883,0,0,1,1.1,1.38L11.936,54.619a.864.864,0,0,1-.544.19Z" fill="#5c5c5c"/>
    <path id="Path_17932" data-name="Path 17932" d="M69.619,54.809a.926.926,0,0,1-.557-.19L50.075,39.429a.883.883,0,1,1,1.1-1.38l18.987,15.19A.884.884,0,0,1,70.3,54.48a.869.869,0,0,1-.684.329Z" fill="#5c5c5c"/>
    <path id="Path_17933" data-name="Path 17933" d="M29.113,47.594h2.532v2.532H29.113Z" fill="#5c5c5c"/>
    <path id="Path_17934" data-name="Path 17934" d="M34.176,47.594h2.532v2.532H34.176Z" fill="#5c5c5c"/>
    <path id="Path_17935" data-name="Path 17935" d="M39.24,47.594h2.532v2.532H39.24Z" fill="#5c5c5c"/>
    <path id="Path_17936" data-name="Path 17936" d="M44.3,47.594h2.532v2.532H44.3Z" fill="#5c5c5c"/>
    <path id="Path_17937" data-name="Path 17937" d="M49.366,47.594H51.9v2.532H49.366Z" fill="#5c5c5c"/>
    <path id="Path_17938" data-name="Path 17938" d="M40.506,24.43A11.012,11.012,0,1,1,51.518,13.418,11.012,11.012,0,0,1,40.506,24.43Zm0-20.253a9.24,9.24,0,1,0,9.24,9.24A9.24,9.24,0,0,0,40.506,4.177Z" fill="#5c5c5c"/>
    <path id="Path_17939" data-name="Path 17939" d="M37.973,18.1a.823.823,0,0,1-.62-.266L34.822,15.3a.886.886,0,0,1,1.253-1.253L37.923,15.9l5.709-6.848A.89.89,0,0,1,45,10.19l-6.33,7.6a.907.907,0,0,1-.646.316h-.051Z" fill="#5c5c5c"/>
  </g>
</svg>
