<svg id="Group_19983" data-name="Group 19983" xmlns="http://www.w3.org/2000/svg" width="29.757" height="17.179" viewBox="0 0 29.757 17.179">
  <path id="Path_15329" data-name="Path 15329" d="M30.3,15.4H9.82a2.651,2.651,0,0,0-2.643,2.643v.991a.661.661,0,0,0,1.321,0v-.991a1.658,1.658,0,0,1,.066-.4l7.4,6.343-7.4,6.343a1.658,1.658,0,0,1-.066-.4v-.989a.661.661,0,0,0-1.321,0v.991A2.651,2.651,0,0,0,9.82,32.58H30.3a2.651,2.651,0,0,0,2.643-2.643V18.043A2.651,2.651,0,0,0,30.3,15.4ZM9.556,16.753a.645.645,0,0,1,.264-.033H30.3a.645.645,0,0,1,.264.033L20.492,25.378a.7.7,0,0,1-.859,0ZM30.3,31.257H9.82a.644.644,0,0,1-.264-.033l7.433-6.376L18.773,26.4a1.923,1.923,0,0,0,2.577,0l1.784-1.553,7.433,6.376a.644.644,0,0,1-.263.035Zm1.321-1.321a1.658,1.658,0,0,1-.066.4l-7.4-6.343,7.4-6.343a1.658,1.658,0,0,1,.066.4ZM5.2,22.338a.663.663,0,0,1,.661-.661H9.821a.661.661,0,1,1,0,1.321H5.856A.663.663,0,0,1,5.2,22.338ZM9.82,26.3H3.874a.661.661,0,1,1,0-1.321H9.821a.661.661,0,1,1,0,1.321Z" transform="translate(-3.19 -15.4)" fill="#ff7d00"/>
</svg>
