<svg xmlns="http://www.w3.org/2000/svg" width="30" height="30" viewBox="0 0 30 30">
  <g id="noun-error-1835599" transform="translate(-163.33 -93.336)">
    <path id="Path_25745" data-name="Path 25745" d="M178.33,93.336a15,15,0,1,0,15,15,15,15,0,0,0-15-15m0,1.5a13.5,13.5,0,1,1-13.5,13.5,13.515,13.515,0,0,1,13.5-13.5" fill="#e76f51" fill-rule="evenodd"/>
    <path id="Path_25746" data-name="Path 25746" d="M283.182,213.648a1.088,1.088,0,0,1-.752-.369c-1.5-1.466-2.964-2.927-4.427-4.425l-.264-.272-4.7,4.7a1.067,1.067,0,0,1-.739.356.884.884,0,0,1-.624-.285.819.819,0,0,1-.3-.6,1.079,1.079,0,0,1,.368-.763c1.466-1.5,2.927-2.964,4.425-4.427l.272-.264-4.7-4.7a.889.889,0,0,1-.071-1.363.821.821,0,0,1,.609-.3,1.1,1.1,0,0,1,.754.368c1.5,1.466,2.963,2.929,4.425,4.425l.266.272,4.7-4.7a1.056,1.056,0,0,1,.739-.354.886.886,0,0,1,.624.283.832.832,0,0,1,.3.6,1.09,1.09,0,0,1-.369.765c-1.466,1.5-2.927,2.962-4.425,4.425l-.276.268.276.268c.992.969,1.969,1.952,2.938,2.931l1.487,1.5a1.083,1.083,0,0,1,.356.718.888.888,0,0,1-.285.643.824.824,0,0,1-.61.3" transform="translate(-99.37 -98.958)" fill="#e76f51" fill-rule="evenodd"/>
  </g>
</svg>
