<svg xmlns="http://www.w3.org/2000/svg" width="18.5" height="25.029" viewBox="0 0 18.5 25.029">
  <path id="Path_162" data-name="Path 162" d="M23.324,26.029H9.176A2.177,2.177,0,0,1,7,23.853V3.176A2.177,2.177,0,0,1,9.176,1H19.515a.536.536,0,0,1,.422.215l5.348,5.348a.534.534,0,0,1,.215.422h0V23.853A2.177,2.177,0,0,1,23.324,26.029ZM20.059,2.84v3.6h3.6Zm4.353,4.69h-4.9a.544.544,0,0,1-.544-.544v-4.9H9.176A1.089,1.089,0,0,0,8.088,3.176V23.853a1.089,1.089,0,0,0,1.088,1.088H23.324a1.089,1.089,0,0,0,1.088-1.088ZM21.147,21.676H11.353a.544.544,0,1,1,0-1.088h9.794a.544.544,0,1,1,0,1.088Zm0-4.353H11.353a.544.544,0,1,1,0-1.088h9.794a.544.544,0,1,1,0,1.088Zm0-4.353H11.353a.544.544,0,0,1,0-1.088h9.794a.544.544,0,1,1,0,1.088Z" transform="translate(-7 -1)" fill="#f20e00" fill-rule="evenodd"/>
</svg>
