<svg id="Group_21542" data-name="Group 21542" xmlns="http://www.w3.org/2000/svg" width="30" height="29.994" viewBox="0 0 30 29.994">
  <g id="Group_21539" data-name="Group 21539">
    <g id="Group_21538" data-name="Group 21538">
      <path id="Path_18057" data-name="Path 18057" d="M28.009,11.729l-1.664-.293a11.833,11.833,0,0,0-.8-1.941l.972-1.384a2.4,2.4,0,0,0-.269-3.077l-1.283-1.28a2.4,2.4,0,0,0-3.076-.266L20.5,4.456a11.833,11.833,0,0,0-1.941-.8L18.267,1.99A2.4,2.4,0,0,0,15.9,0H14.093a2.4,2.4,0,0,0-2.365,1.988l-.293,1.664a11.821,11.821,0,0,0-1.941.8L8.11,3.487a2.4,2.4,0,0,0-3.077.269L3.753,5.032A2.4,2.4,0,0,0,3.487,8.11l.971,1.384a11.832,11.832,0,0,0-.8,1.94l-1.664.293A2.4,2.4,0,0,0,0,14.093V15.9a2.4,2.4,0,0,0,1.987,2.365l1.665.293a11.82,11.82,0,0,0,.8,1.941l-.967,1.384a2.4,2.4,0,0,0,.266,3.076l1.279,1.281a2.4,2.4,0,0,0,3.077.269l1.384-.971a11.815,11.815,0,0,0,1.941.8l.293,1.664a2.4,2.4,0,0,0,2.366,1.986H15.9a2.4,2.4,0,0,0,2.366-1.987.762.762,0,0,0-1.5-.264.879.879,0,0,1-.865.727H14.093a.879.879,0,0,1-.866-.727l-.374-2.134a.762.762,0,0,0-.55-.6,10.29,10.29,0,0,1-2.476-1.02.762.762,0,0,0-.82.036l-1.77,1.243a.879.879,0,0,1-1.126-.1l-1.276-1.28a.879.879,0,0,1-.1-1.126L5.98,20.988a.762.762,0,0,0,.036-.82,10.3,10.3,0,0,1-1.024-2.475.762.762,0,0,0-.6-.555l-2.138-.372a.879.879,0,0,1-.727-.863V14.093a.879.879,0,0,1,.727-.865l2.134-.374a.762.762,0,0,0,.6-.551A10.3,10.3,0,0,1,6.012,9.827a.762.762,0,0,0-.036-.82L4.732,7.236a.879.879,0,0,1,.1-1.126L6.11,4.834a.879.879,0,0,1,1.126-.1L9.008,5.98a.762.762,0,0,0,.82.036A10.292,10.292,0,0,1,12.3,4.993a.762.762,0,0,0,.555-.6l.376-2.138a.879.879,0,0,1,.863-.727h1.809a.879.879,0,0,1,.866.727l.374,2.134a.762.762,0,0,0,.55.6,10.3,10.3,0,0,1,2.475,1.024.762.762,0,0,0,.82-.036l1.772-1.243a.879.879,0,0,1,1.126.1l1.28,1.28a.879.879,0,0,1,.1,1.126L24.024,9.009a.762.762,0,0,0-.036.82A10.309,10.309,0,0,1,25.011,12.3a.762.762,0,0,0,.6.555l2.134.374a.879.879,0,0,1,.727.864v1.809a.879.879,0,0,1-.727.866.762.762,0,0,0,.264,1.5A2.4,2.4,0,0,0,30,15.906V14.093a2.4,2.4,0,0,0-1.991-2.365Z" fill="#c461f5"/>
    </g>
  </g>
  <g id="Group_21541" data-name="Group 21541" transform="translate(7.554 7.555)">
    <g id="Group_21540" data-name="Group 21540">
      <path id="Path_18058" data-name="Path 18058" d="M122.453,117.569l-4.872-5.02a3.118,3.118,0,0,1-.872-2.461,7.27,7.27,0,0,0-7.886-7.875,1.426,1.426,0,0,0-.884.4,1.473,1.473,0,0,0-.02,2.081l2.1,2.14A1.1,1.1,0,0,1,110,108.4h0l-1.625,1.594a1.1,1.1,0,0,1-1.559-.015l-2.1-2.14a1.473,1.473,0,0,0-2.081-.02,1.427,1.427,0,0,0-.422.876,7.27,7.27,0,0,0,7.723,8.035,3.116,3.116,0,0,1,2.439.918l4.869,5.017a.762.762,0,0,0,1.094-1.061l-4.872-5.02a4.642,4.642,0,0,0-3.633-1.374,5.747,5.747,0,0,1-6.12-6.216l2.013,2.051a2.609,2.609,0,0,0,1.85.787h.026a2.608,2.608,0,0,0,1.837-.75l1.625-1.594a2.625,2.625,0,0,0,.036-3.714l-2.013-2.051a5.747,5.747,0,0,1,6.1,6.236,4.637,4.637,0,0,0,1.3,3.656l4.869,5.017a.762.762,0,1,0,1.093-1.061Z" transform="translate(-102.173 -102.184)" fill="#c461f5"/>
    </g>
  </g>
</svg>
