<svg id="call-icon" xmlns="http://www.w3.org/2000/svg" width="30" height="29.285" viewBox="0 0 30 29.285">
  <g id="Group_19931" data-name="Group 19931">
    <path id="Path_15295" data-name="Path 15295" d="M28.511,13.44a13.168,13.168,0,0,0-26.317,0,3.1,3.1,0,0,0-1.845,2.83v3.474a3.1,3.1,0,0,0,3.095,3.095,2,2,0,0,0,2-2v-5.66a2,2,0,0,0-1.806-1.983,11.733,11.733,0,0,1,23.422,0,2,2,0,0,0-1.808,1.983v5.659a2,2,0,0,0,1.831,1.985v1.43a2.924,2.924,0,0,1-2.919,2.919H22a2.15,2.15,0,0,0-2.042-1.454h-2.23a2.141,2.141,0,0,0-.909.2,2.171,2.171,0,0,0,.909,4.144h2.23A2.18,2.18,0,0,0,22,28.6h2.162a4.361,4.361,0,0,0,4.354-4.354V22.565a3.1,3.1,0,0,0,1.831-2.823V16.268a3.1,3.1,0,0,0-1.837-2.829Zm-24.5,1.737v5.659a.567.567,0,0,1-.569.567,1.661,1.661,0,0,1-1.659-1.659V16.269a1.661,1.661,0,0,1,1.659-1.659.567.567,0,0,1,.569.567Zm16.67,12.866a.74.74,0,0,1-.721.583h-2.23a.736.736,0,0,1-.305-1.406.713.713,0,0,1,.305-.067h2.23a.739.739,0,0,1,.721.889Zm8.236-8.3A1.661,1.661,0,0,1,27.259,21.4a.567.567,0,0,1-.569-.567V15.176a.567.567,0,0,1,.567-.567,1.661,1.661,0,0,1,1.659,1.659Z" transform="translate(-0.349 -0.773)" fill="#05afb2"/>
    <path id="Path_15296" data-name="Path 15296" d="M20.974,20.916a3.044,3.044,0,0,0,3.041-3.041v-6.2a3.045,3.045,0,0,0-3.041-3.041H11.679a3.044,3.044,0,0,0-3.041,3.041v6.2a3.044,3.044,0,0,0,3.041,3.041h.057v1.606a1.49,1.49,0,0,0,1.489,1.495,1.459,1.459,0,0,0,1.053-.444l2.671-2.657Zm-4.828-1.227-2.891,2.875a.036.036,0,0,1-.048.011.048.048,0,0,1-.033-.054V20.2a.718.718,0,0,0-.718-.718H11.68a1.608,1.608,0,0,1-1.606-1.606v-6.2a1.607,1.607,0,0,1,1.606-1.606h9.294a1.609,1.609,0,0,1,1.606,1.606v6.2a1.608,1.608,0,0,1-1.606,1.606H16.652a.718.718,0,0,0-.506.209Z" transform="translate(-1.324 -1.698)" fill="#05afb2"/>
    <path id="Path_15297" data-name="Path 15297" d="M13.259,14.525a1.059,1.059,0,1,0,1.06,1.059,1.059,1.059,0,0,0-1.06-1.059Z" transform="translate(-1.743 -2.391)" fill="#05afb2"/>
    <path id="Path_15298" data-name="Path 15298" d="M17.211,14.525a1.059,1.059,0,1,0,1.059,1.059,1.059,1.059,0,0,0-1.059-1.059Z" transform="translate(-2.208 -2.391)" fill="#05afb2"/>
    <path id="Path_15299" data-name="Path 15299" d="M21.161,14.525a1.059,1.059,0,1,0,1.06,1.059,1.059,1.059,0,0,0-1.06-1.059Z" transform="translate(-2.673 -2.391)" fill="#05afb2"/>
  </g>
</svg>
