<svg xmlns="http://www.w3.org/2000/svg" width="30.003" height="30.001" viewBox="0 0 30.003 30.001">
  <g id="noun-info-1582932" transform="translate(-119.493 -49.468)">
    <path id="Path_25742" data-name="Path 25742" d="M147.363,64.471a14.374,14.374,0,0,1-.124,1.873c.014-.1.025-.188.039-.284a13.967,13.967,0,0,1-.97,3.548l.107-.256a14.4,14.4,0,0,1-.967,1.877c-.181.291-.37.576-.572.853-.046.064-.092.124-.139.188-.028.036-.057.075-.085.11-.114.153.171-.217.053-.068s-.213.267-.324.4a13.86,13.86,0,0,1-1.45,1.475c-.121.107-.245.213-.373.316-.06.05-.121.1-.181.146s-.213.16.068-.053c-.05.039-.1.075-.149.114-.274.206-.555.4-.842.583a13.918,13.918,0,0,1-2.076,1.091l.256-.107a14.117,14.117,0,0,1-3.548.97c.1-.014.188-.025.284-.039a14.4,14.4,0,0,1-3.75,0c.1.014.188.025.284.039a13.967,13.967,0,0,1-3.548-.97l.256.107a14.4,14.4,0,0,1-1.877-.967c-.291-.181-.576-.37-.853-.572l-.188-.139-.11-.085c-.153-.114.217.171.068.053s-.267-.213-.4-.323a13.862,13.862,0,0,1-1.475-1.45c-.107-.121-.213-.245-.316-.373-.05-.06-.1-.121-.146-.181s-.16-.213.053.068c-.039-.05-.075-.1-.114-.149-.206-.274-.4-.555-.583-.842a13.919,13.919,0,0,1-1.091-2.076l.107.256a14.118,14.118,0,0,1-.97-3.548c.014.1.025.188.039.284a14.4,14.4,0,0,1,0-3.75c-.014.1-.025.188-.039.284a13.967,13.967,0,0,1,.97-3.548l-.107.256a14.4,14.4,0,0,1,.967-1.877c.181-.291.37-.576.572-.853.046-.064.092-.124.139-.188.028-.036.057-.075.085-.11.114-.153-.171.217-.053.068s.213-.267.323-.4a13.862,13.862,0,0,1,1.45-1.475c.121-.107.245-.213.373-.316.06-.05.121-.1.181-.146s.213-.16-.068.053c.05-.039.1-.075.149-.114.274-.206.555-.4.843-.583a13.918,13.918,0,0,1,2.076-1.091l-.256.107a14.118,14.118,0,0,1,3.548-.97c-.1.014-.188.025-.284.039a14.4,14.4,0,0,1,3.75,0c-.1-.014-.188-.025-.284-.039a13.967,13.967,0,0,1,3.548.97l-.256-.107a14.4,14.4,0,0,1,1.877.967c.292.181.576.37.853.572l.188.139.11.085c.153.114-.217-.171-.068-.053s.267.213.4.323a13.861,13.861,0,0,1,1.475,1.45c.107.121.213.245.316.373.05.06.1.121.146.181s.16.213-.053-.068c.039.05.075.1.114.149.206.274.4.555.583.842a13.918,13.918,0,0,1,1.091,2.076l-.107-.256a14.117,14.117,0,0,1,.97,3.548c-.014-.1-.025-.188-.039-.284a14.473,14.473,0,0,1,.124,1.877,1.066,1.066,0,1,0,2.133,0,14.974,14.974,0,0,0-2.727-8.617,15.3,15.3,0,0,0-7.184-5.5,14.971,14.971,0,0,0-16.6,4.5,15.56,15.56,0,0,0-2.407,4.031,14.991,14.991,0,0,0,1.081,13.334,15.025,15.025,0,0,0,6.576,5.869,15.564,15.564,0,0,0,4.632,1.28A14.982,14.982,0,0,0,149.3,66.871a16.473,16.473,0,0,0,.2-2.4,1.066,1.066,0,0,0-2.133,0Z" transform="translate(0)" fill="#0f6ec1"/>
    <path id="Path_25743" data-name="Path 25743" d="M335.451,243.351v-8.78a1.066,1.066,0,1,0-2.133,0v8.78a1.066,1.066,0,1,0,2.133,0Z" transform="translate(-199.926 -172.072)" fill="#0f6ec1"/>
    <path id="Path_25744" data-name="Path 25744" d="M335.451,160.062v-.96a1.066,1.066,0,1,0-2.133,0v.96a1.066,1.066,0,1,0,2.133,0Z" transform="translate(-199.926 -101.51)" fill="#0f6ec1"/>
  </g>
</svg>
