<svg xmlns="http://www.w3.org/2000/svg" width="34" height="33.998" viewBox="0 0 34 33.998">
  <g id="Group_20390" data-name="Group 20390" transform="translate(-0.956 -0.956)">
    <g id="Group_20389" data-name="Group 20389" transform="translate(0.956 0.956)">
      <path id="Path_17604" data-name="Path 17604" d="M50.661,31.543h3.29v1.1h-3.29Z" transform="translate(-22.144 -13.995)" fill="#707070"/>
      <path id="Path_17605" data-name="Path 17605" d="M50.661,27.72h3.29v1.1h-3.29Z" transform="translate(-22.144 -12.365)" fill="#707070"/>
      <path id="Path_17606" data-name="Path 17606" d="M50.661,46.837h3.29v1.1h-3.29Z" transform="translate(-22.144 -20.515)" fill="#707070"/>
      <path id="Path_17607" data-name="Path 17607" d="M50.661,43.014h3.29v1.1h-3.29Z" transform="translate(-22.144 -18.885)" fill="#707070"/>
      <path id="Path_17608" data-name="Path 17608" d="M33.859,13.021a1.1,1.1,0,0,0,1.1-1.1V6.44a1.1,1.1,0,0,0-1.1-1.1H31.666V3.7a1.647,1.647,0,0,0-1.645-1.645H20.6a1.635,1.635,0,0,0-3.088,0H8.085A1.647,1.647,0,0,0,6.44,3.7V6.449C3,6.545.956,7.551.956,9.182V26.731c0,1.632,2.04,2.636,5.484,2.733v2.749a1.647,1.647,0,0,0,1.645,1.645h9.424a1.635,1.635,0,0,0,3.088,0h9.424a1.647,1.647,0,0,0,1.645-1.645V30.569h2.194a1.1,1.1,0,0,0,1.1-1.1V23.992a1.1,1.1,0,0,0-1.1-1.1H31.666v-1.1h2.194a1.1,1.1,0,0,0,1.1-1.1V15.214a1.1,1.1,0,0,0-1.1-1.1H31.666v-1.1Zm0-1.1H28.376V6.44h5.484ZM19.053,2.052A.549.549,0,1,1,18.5,2.6a.549.549,0,0,1,.549-.549ZM6.44,7.546V9.731h1.1V7.546c2.882.088,4.387.866,4.387,1.636,0,.817-1.7,1.645-4.935,1.645S2.054,10,2.054,9.182C2.052,8.412,3.558,7.634,6.44,7.546ZM18.134,16.08A2.133,2.133,0,0,0,19.6,17.341v1.225a2.176,2.176,0,0,0-1.332,3.219l-.867.867a2.162,2.162,0,0,0-1.958-.132,2.133,2.133,0,0,0-1.26,1.471H13.021V21.748a3.839,3.839,0,1,0,0-7.584V11.923H14.18A2.176,2.176,0,0,0,17.4,13.256l.867.867a2.162,2.162,0,0,0-.132,1.958ZM13.021,19.5a1.625,1.625,0,0,0,.549.1,1.645,1.645,0,1,0,0-3.29,1.625,1.625,0,0,0-.549.1V15.275a2.742,2.742,0,1,1,0,5.362Zm.549-2.092a.549.549,0,1,1-.549.549.549.549,0,0,1,.549-.549ZM2.052,10.923a9.646,9.646,0,0,0,4.935,1,9.646,9.646,0,0,0,4.935-1v2.651c0,.817-1.7,1.645-4.935,1.645s-4.935-.832-4.935-1.645Zm0,4.387a9.646,9.646,0,0,0,4.935,1,9.646,9.646,0,0,0,4.935-1v2.647c0,.817-1.7,1.645-4.935,1.645s-4.935-.828-4.935-1.645Zm0,4.387a9.646,9.646,0,0,0,4.935,1,9.646,9.646,0,0,0,4.935-1v2.647c0,.817-1.7,1.645-4.935,1.645s-4.935-.828-4.935-1.645Zm0,7.033V24.088a9.646,9.646,0,0,0,4.935,1,9.646,9.646,0,0,0,4.936-1v2.647c0,.817-1.7,1.645-4.935,1.645S2.052,27.548,2.052,26.731Zm17,7.129a.549.549,0,1,1,.549-.549.549.549,0,0,1-.549.549Zm14.807-4.387H28.376v-5.48h5.484Zm0-8.774H28.376V15.214h5.484Zm-3.291-6.581H28.376a1.1,1.1,0,0,0-1.1,1.1V20.7a1.1,1.1,0,0,0,1.1,1.1h2.194v1.1H28.376a1.1,1.1,0,0,0-1.1,1.1v5.484a1.1,1.1,0,0,0,1.1,1.1h2.194v1.64a.549.549,0,0,1-.549.549H20.6a1.635,1.635,0,0,0-3.088,0H8.085a.549.549,0,0,1-.549-.549v-2.75c3.441-.1,5.484-1.1,5.484-2.733V25.085h1.645l.549-.032V24.5a1.075,1.075,0,0,1,1.846-.733l.388.388,1.938-1.938.366-.41-.388-.388A1.075,1.075,0,0,1,20.15,19.6H20.7v-2.74l-.032-.549h-.549a1.075,1.075,0,0,1-.731-1.848l.382-.388-1.935-1.936-.41-.366-.388.388a1.074,1.074,0,0,1-1.823-.786v-.549H13.021V9.182c0-1.632-2.04-2.636-5.484-2.733V3.7a.549.549,0,0,1,.549-.549h9.424a1.635,1.635,0,0,0,3.088,0h9.424a.549.549,0,0,1,.549.549V5.343H28.376a1.1,1.1,0,0,0-1.1,1.1v5.484a1.1,1.1,0,0,0,1.1,1.1h2.194Z" transform="translate(-0.956 -0.956)" fill="#707070"/>
      <path id="Path_17609" data-name="Path 17609" d="M50.661,16.25h3.29v1.1h-3.29Z" transform="translate(-22.144 -7.476)" fill="#707070"/>
      <path id="Path_17610" data-name="Path 17610" d="M50.661,12.426h3.29v1.1h-3.29Z" transform="translate(-22.144 -5.845)" fill="#707070"/>
    </g>
  </g>
</svg>
