<svg xmlns="http://www.w3.org/2000/svg" width="20" height="20" viewBox="0 0 20 20">
  <g id="Group_23554" data-name="Group 23554" transform="translate(0)">
    <path id="Path_15454" data-name="Path 15454" d="M1.95.341h16.1a1.61,1.61,0,0,1,1.61,1.61v16.1a1.61,1.61,0,0,1-1.61,1.61H1.95a1.61,1.61,0,0,1-1.61-1.61V1.951A1.61,1.61,0,0,1,1.95.341Z" fill="#fdb913"/>
    <path id="Path_15455" data-name="Path 15455" d="M18.049.341a1.61,1.61,0,0,1,1.61,1.61v16.1a1.61,1.61,0,0,1-1.61,1.61H1.951a1.61,1.61,0,0,1-1.61-1.61V1.951A1.61,1.61,0,0,1,1.951.341h16.1m0-.341H1.951A1.953,1.953,0,0,0,0,1.951v16.1A1.953,1.953,0,0,0,1.951,20h16.1A1.953,1.953,0,0,0,20,18.049V1.951A1.953,1.953,0,0,0,18.049,0" fill="#fff"/>
    <path id="Path_15456" data-name="Path 15456" d="M11.127,10.209l0-3.459.9-.214v.454a1.3,1.3,0,0,1,.777-.735.52.52,0,0,1,.251-.017V7.12a1.265,1.265,0,0,0-.473.1.823.823,0,0,0-.5.858v1.91ZM6.368,11.333a2.057,2.057,0,0,1-.147-1V8.613l-.464.111v-.71l.466-.11V7.13l.96-.227v.773l.678-.161v.709l-.678.161s0,1.411,0,1.754c0,.8.212.951.212.951ZM7.961,9.276a2.9,2.9,0,0,1,.276-1.408,1.605,1.605,0,0,1,1.125-.8c1.053-.24,1.433.384,1.419,1.22-.006.3,0,.445,0,.445L8.92,9.172V9.2c0,.584.122.861.493.783a.506.506,0,0,0,.434-.515c0-.04.006-.142.006-.142l.869-.208s0,.071,0,.151A1.457,1.457,0,0,1,9.41,10.711c-1.144.272-1.449-.427-1.449-1.436M9.4,7.716c-.307.07-.469.371-.476.871l.933-.222c0-.023,0-.072,0-.15,0-.377-.118-.576-.459-.5m6.906-.463c-.036-1.053.237-1.889,1.412-2.156.749-.17,1.034.025,1.178.213a1.2,1.2,0,0,1,.192.762v.062l-.919.219V6.225c0-.4-.111-.556-.4-.482-.348.087-.488.417-.488,1.074,0,.233,0,.275,0,.306,0,.667.091.972.492.888.348-.072.4-.377.4-.645,0-.042,0-.177,0-.177l.918-.217s0,.068,0,.143a1.548,1.548,0,0,1-1.327,1.627c-1.19.279-1.423-.409-1.46-1.489M13.127,8.728c0-.8.469-1.055,1.176-1.347.635-.263.649-.393.652-.622,0-.192-.086-.357-.4-.276a.477.477,0,0,0-.383.453,1.649,1.649,0,0,0-.006.178l-.891.21a1.772,1.772,0,0,1,.062-.526c.142-.479.565-.8,1.294-.97.948-.218,1.264.2,1.265.844V8.2c0,.741.138.849.138.849l-.874.207a1.9,1.9,0,0,1-.117-.314,1.2,1.2,0,0,1-.852.638.8.8,0,0,1-1.061-.855m1.821-1.094a3.3,3.3,0,0,1-.465.272.619.619,0,0,0-.423.589.3.3,0,0,0,.409.323.675.675,0,0,0,.479-.7Zm-13.6,6.124A.555.555,0,0,1,.883,12.9l.006-.008.01,0,1.306-.308v.992l-.02,0q-.361.087-.723.168a.546.546,0,0,1-.114.012m0,1.269a.554.554,0,0,1-.554-.554.548.548,0,0,1,.089-.3l.006-.009.01,0,1.306-.308v.992l-.02.005c-.3.071-.65.153-.723.168a.587.587,0,0,1-.114.011m0,1.271a.555.555,0,0,1-.554-.554.546.546,0,0,1,.089-.3l.006-.01,1.316-.31v.992l-.02.005c-.313.075-.66.154-.723.168a.578.578,0,0,1-.114.011m.857-9.542V12.3l-1.011.239V6.994Zm1.508,5.316a.624.624,0,1,0-1.248,0v5.186a1.692,1.692,0,0,0,1.689,1.69l1.767,0V14.368a.817.817,0,0,0-.363-.68l-1.575-1.07v2.429a.134.134,0,0,1-.269,0c0-.026,0-2.656,0-2.976M4.557,8.2a1.365,1.365,0,0,0-.9.7v-.39l-.911.216v2.49a.932.932,0,0,1,.959.168V9.773a.717.717,0,0,1,.465-.753c.206-.045.378.028.378.4v2.346l.959-.225V9.055c0-.6-.232-1.022-.952-.853M18.5,4.65a.593.593,0,1,1,.593-.593.593.593,0,0,1-.593.593m0-1.111a.519.519,0,1,0,.518.519.519.519,0,0,0-.518-.519" fill="#231f20"/>
    <path id="Path_15457" data-name="Path 15457" d="M18.281,3.7h.256a.167.167,0,0,1,.184.186c0,.094-.042.166-.12.178h0c.072.007.109.047.113.149,0,.046,0,.1,0,.147a.075.075,0,0,0,.034.063H18.62a.121.121,0,0,1-.02-.064c0-.043,0-.084,0-.137,0-.079-.026-.114-.105-.114H18.4v.314h-.115Zm.208.322a.106.106,0,0,0,.116-.117c0-.077-.033-.118-.109-.118h-.1v.235Z" fill="#231f20"/>
    <path id="Path_15458" data-name="Path 15458" d="M0,0H20V20H0Z" fill="none"/>
  </g>
</svg>
