<svg xmlns="http://www.w3.org/2000/svg" width="824.98" height="465.874" viewBox="0 0 824.98 465.874">
  <g id="create-your-first-invoice" transform="translate(-128.881 -160.72)">
    <path id="Path_4" data-name="Path 4" d="M160.574,624.65c.195-3.39-79.615-105.191,13.326-199.18,41.956-42.429,112.925-19.44,101.7-143.385-9.693-107.016,157.722-169.9,261.769-74.351,67.222,61.731,135.275-20.621,241.92,26.105s36.419,173.726,80.18,185.693c86.2,23.573,129.017,127.309,60.29,203.967Z" transform="translate(0 0)" fill="#ebf3fa"/>
    <g id="Group_19" data-name="Group 19" transform="translate(290.998 254.689)">
      <path id="Path_5" data-name="Path 5" d="M859.824,574.258c-.452-.933-.951-1.88-1.482-2.813l1.5-.853c.549.966,1.066,1.946,1.535,2.913Zm-3.14-5.531c-.572-.877-1.182-1.759-1.815-2.621l1.392-1.022c.652.888,1.281,1.8,1.87,2.7ZM685.158,587.764c-1.092.117-2.191.209-3.265.272l-.1-1.724c1.047-.061,2.117-.151,3.181-.266Zm3.247-.427-.265-1.706c1.039-.161,2.1-.349,3.148-.56l.339,1.693C690.553,586.978,689.469,587.172,688.405,587.336Zm-9.789.81c-1.1.008-2.2-.013-3.28-.062l.079-1.725c1.047.048,2.119.068,3.187.06Zm16.2-2.093-.41-1.677c1.023-.25,2.064-.527,3.093-.822l.477,1.66C696.931,585.515,695.868,585.8,694.822,586.053Zm-22.758,1.788c-1.092-.112-2.188-.257-3.256-.431l.277-1.7c1.035.169,2.1.309,3.156.417Zm29.041-3.589-.538-1.641c1-.329,2.02-.684,3.025-1.055l.6,1.62C703.164,583.554,702.126,583.917,701.1,584.252Zm6.127-2.259-.653-1.6c.977-.4,1.969-.824,2.948-1.261l.7,1.576C709.237,581.154,708.227,581.586,707.232,581.993Zm-41.651,4.791c-1.074-.243-2.146-.522-3.183-.829l.49-1.656c1,.3,2.037.566,3.076.8Zm187.331-23.2c-.669-.815-1.371-1.628-2.087-2.416l1.277-1.162c.736.81,1.457,1.644,2.145,2.483ZM713.189,579.33l-.754-1.553c.951-.461,1.915-.947,2.866-1.445l.8,1.531C715.134,578.368,714.154,578.862,713.189,579.33Zm-53.916,5.588c-1.031-.381-2.057-.8-3.048-1.248l.71-1.574c.954.43,1.943.835,2.937,1.2Zm59.7-8.606-.843-1.507c.923-.517,1.859-1.057,2.781-1.606l.883,1.483C720.855,575.239,719.905,575.787,718.968,576.312Zm129.65-17.449c-.75-.747-1.53-1.486-2.318-2.2l1.157-1.282c.808.73,1.608,1.489,2.379,2.256ZM653.272,582.209c-.967-.522-1.923-1.086-2.841-1.673l.931-1.454c.883.565,1.8,1.106,2.731,1.608Zm71.3-9.23-.922-1.46c.893-.563,1.8-1.152,2.7-1.75l.958,1.437C726.391,571.811,725.472,572.407,724.568,572.979Zm5.419-3.612-.992-1.413c.867-.608,1.745-1.239,2.611-1.877l1.023,1.391C731.753,568.112,730.864,568.752,729.986,569.367Zm-82.265,9.286c-.878-.662-1.738-1.364-2.558-2.086l1.143-1.295c.786.694,1.612,1.367,2.454,2Zm196.157-24.071c-.819-.671-1.666-1.331-2.518-1.965l1.03-1.386c.874.649,1.744,1.327,2.583,2.016Zm-108.65,10.927-1.054-1.368.256-.2q1.165-.9,2.327-1.771l1.035,1.382q-1.149.861-2.307,1.755ZM838.75,550.774c-.879-.59-1.786-1.168-2.693-1.717l.893-1.477c.932.563,1.861,1.156,2.764,1.761ZM642.779,574.289c-.763-.788-1.5-1.617-2.2-2.461l1.332-1.1c.667.81,1.376,1.6,2.107,2.358Zm97.608-12.639-1.008-1.4c.882-.634,1.776-1.265,2.658-1.874l.981,1.421C742.145,560.4,741.26,561.023,740.388,561.65Zm92.9-14.181c-.931-.5-1.888-.994-2.844-1.454l.749-1.556c.98.472,1.962.974,2.917,1.491ZM745.685,558l-.951-1.441c.911-.6,1.831-1.194,2.734-1.764l.92,1.462C747.5,556.815,746.586,557.4,745.685,558Zm-107.1,11.2c-.627-.9-1.226-1.834-1.781-2.783l1.491-.872c.531.909,1.106,1.806,1.706,2.666ZM751.129,554.57l-.887-1.482c.93-.558,1.876-1.109,2.812-1.64l.853,1.5C752.982,553.474,752.048,554.019,751.129,554.57Zm76.4-9.871c-.977-.414-1.976-.81-2.969-1.176l.6-1.62c1.018.376,2.043.782,3.045,1.207Zm-70.811,6.7-.815-1.522c.956-.512,1.928-1.017,2.891-1.5l.776,1.542C758.622,550.394,757.663,550.892,756.72,551.4Zm64.82-8.909c-1.01-.319-2.042-.618-3.067-.889l.442-1.67c1.052.278,2.11.585,3.146.913Zm-59.08,6.023-.735-1.563c.985-.463,1.984-.915,2.969-1.345l.69,1.583C764.415,547.609,763.431,548.054,762.46,548.511ZM635.25,563.5c-.476-.985-.919-2-1.317-3.027l1.608-.627c.382.981.807,1.958,1.264,2.9Zm180.117-22.644c-1.033-.222-2.089-.423-3.137-.6l.284-1.7c1.075.179,2.157.385,3.217.613Zm-47.022,5.091-.643-1.6c1.011-.406,2.036-.8,3.045-1.17l.594,1.621C770.348,545.159,769.34,545.546,768.345,545.946Zm40.723-6.141c-1.052-.126-2.123-.229-3.181-.306l.127-1.722c1.084.08,2.18.185,3.258.314Zm-34.7,3.934-.542-1.639c1.037-.343,2.085-.67,3.115-.973l.488,1.657C776.417,543.081,775.388,543.4,774.369,543.739Zm28.327-4.4c-1.054-.03-2.129-.038-3.2-.022l-.026-1.726c1.092-.017,2.193-.009,3.271.022Zm-22.177,2.6-.429-1.672c1.053-.271,2.122-.525,3.177-.756l.369,1.686C782.6,541.416,781.552,541.666,780.52,541.931Zm15.786-2.5c-1.056.061-2.129.145-3.188.25l-.17-1.718c1.083-.107,2.18-.193,3.259-.255Zm-9.527,1.135-.306-1.7c1.075-.193,2.161-.367,3.228-.516l.239,1.71C788.894,540.205,787.83,540.376,786.778,540.565ZM632.855,557.353c-.317-1.041-.6-2.115-.838-3.19l1.685-.376c.23,1.034.5,2.064.8,3.065Zm-1.436-6.431q-.087-.594-.16-1.193c-.083-.69-.152-1.391-.2-2.083l1.722-.13c.05.666.116,1.342.2,2.007q.07.576.154,1.147Zm1.227-6.58-1.727.013c-.008-1.085.02-2.191.084-3.292l1.723.1C632.665,542.226,632.638,543.3,632.646,544.341Zm.366-6.347-1.714-.208c.129-1.06.292-2.138.486-3.2l1.708.26-.013.067C633.294,535.924,633.136,536.968,633.012,537.994Zm1.117-6.283-1.684-.38c.24-1.062.506-2.131.789-3.174l1.667.452C634.623,529.63,634.363,530.673,634.129,531.711Zm59.071-8.737a23.821,23.821,0,0,1-3.354.086l.081-1.725a22.132,22.132,0,0,0,3.11-.08Zm3.3-.521-.371-1.687a29.125,29.125,0,0,0,3.026-.843l.552,1.636A30.932,30.932,0,0,1,696.5,522.453Zm-10,.175a17.172,17.172,0,0,1-3.236-1.043l.694-1.581a15.494,15.494,0,0,0,2.911.938Zm16.3-2.287-.712-1.573c.949-.43,1.893-.913,2.807-1.436l.858,1.5C704.787,519.381,703.794,519.889,702.794,520.341Zm5.75-3.288-.993-1.413c.86-.6,1.7-1.255,2.492-1.932l1.122,1.313C710.331,515.733,709.449,516.416,708.545,517.053Zm-72.739,8.492-1.645-.526c.331-1.038.691-2.079,1.065-3.094l1.619.6C636.479,523.515,636.129,524.531,635.805,525.545Zm44.5-5.672a14.748,14.748,0,0,1-2.495-2.349l1.321-1.111a13.075,13.075,0,0,0,2.2,2.074Zm33.282-7.122-1.242-1.2a31.412,31.412,0,0,0,2.072-2.369l1.356,1.07C715.091,511.109,714.356,511.95,713.582,512.75Zm-75.562,6.8-1.591-.671c.423-1,.875-2.008,1.342-2.986l1.558.744C638.874,517.594,638.434,518.574,638.021,519.553Zm37.889-4.866a18.652,18.652,0,0,1-1.285-3.131l1.649-.513a16.935,16.935,0,0,0,1.165,2.842Zm41.777-7.151-1.461-.92a28.061,28.061,0,0,0,1.52-2.742l1.555.751A29.826,29.826,0,0,1,717.687,507.535Zm-76.916,6.254-1.523-.815c.513-.958,1.055-1.917,1.611-2.85l1.484.884C641.8,511.918,641.271,512.854,640.771,513.789Zm33.1-5.506q-.07-.451-.127-.917c-.093-.772-.157-1.58-.189-2.4l1.726-.067c.03.775.09,1.536.177,2.262q.052.436.119.858Zm46.7-6.741-1.632-.562a25.758,25.758,0,0,0,.837-3.012l1.689.359A27.308,27.308,0,0,1,720.573,501.542ZM644.042,508.3l-1.441-.952c.6-.9,1.225-1.809,1.867-2.689l1.4,1.017C645.237,506.538,644.624,507.421,644.042,508.3ZM675.3,501.73l-1.725-.067c.043-1.1.124-2.208.241-3.282l1.716.187C675.416,499.6,675.338,500.667,675.3,501.73Zm46.663-6.706-1.72-.149a25.836,25.836,0,0,0,.077-3.124l1.725-.062A27.449,27.449,0,0,1,721.959,495.025ZM647.8,503.141l-1.347-1.08c.678-.846,1.387-1.69,2.105-2.507l1.3,1.141C649.159,501.491,648.468,502.314,647.8,503.141Zm4.22-4.8-1.243-1.2c.755-.783,1.536-1.559,2.323-2.306l1.189,1.253C653.525,496.821,652.762,497.578,652.025,498.343Zm23.962-2.9-1.7-.314c.2-1.082.444-2.164.725-3.214l1.668.445C676.413,493.363,676.179,494.4,675.987,495.438Zm43.945-6.723a13.056,13.056,0,0,0-1.019-2.846l1.546-.77a14.765,14.765,0,0,1,1.155,3.223Zm-63.271,5.227-1.132-1.3c.819-.711,1.666-1.414,2.519-2.091l1.073,1.352C658.288,492.561,657.461,493.249,656.661,493.943Zm20.956-4.6-1.627-.578c.368-1.035.782-2.064,1.23-3.061l1.575.709C678.366,487.363,677.969,488.349,677.617,489.34Zm39.636-5.992a14.169,14.169,0,0,0-2.2-2.1l1.052-1.369a15.951,15.951,0,0,1,2.472,2.351Zm-55.585,6.62-1.013-1.4c.881-.638,1.787-1.265,2.692-1.862l.951,1.441C663.416,488.733,662.53,489.344,661.669,489.968Zm5.338-3.523-.888-1.481c.932-.559,1.889-1.1,2.844-1.622l.823,1.519C668.852,485.366,667.917,485.9,667.007,486.445Zm13.2-2.86-1.512-.834c.466-.845.971-1.687,1.5-2.507-.568.2-1.137.406-1.7.62l-.613-1.614c1.021-.387,2.06-.755,3.089-1.091l.537,1.641q-.433.141-.867.29l1.2.793C681.262,481.762,680.712,482.672,680.208,483.585Zm32.241-3.97a21.577,21.577,0,0,0-2.861-1.21l.56-1.633a23.282,23.282,0,0,1,3.092,1.308ZM672.63,483.4l-.755-1.553c.978-.476,1.98-.936,2.976-1.367l.685,1.585C674.563,482.486,673.586,482.936,672.63,483.4Zm33.938-5.828c-.992-.214-2.037-.385-3.109-.509l.2-1.715c1.127.13,2.229.31,3.275.536Zm-22,1.306-.342-1.245q-.274.338-.539.678l-1.363-1.06c.665-.854,1.376-1.7,2.117-2.525l1.282,1.156q-.52.576-1.018,1.17c.865-.229,1.733-.44,2.59-.628l.372,1.686C686.645,478.337,685.6,478.595,684.572,478.878Zm15.733-2.044c-1.029-.033-2.1-.028-3.173.016l-.069-1.725c1.117-.045,2.226-.05,3.3-.016Zm-9.5.673-.28-1.7c1.1-.18,2.19-.328,3.257-.44l.18,1.718C692.925,477.19,691.865,477.333,690.8,477.507Zm-2.87-3.905-1.2-1.241c.774-.749,1.593-1.491,2.433-2.2l1.119,1.315C689.473,472.161,688.682,472.879,687.933,473.6Zm4.834-4.119-1.04-1.379c.857-.646,1.755-1.286,2.67-1.9l.964,1.433C694.471,468.234,693.6,468.855,692.767,469.483Zm5.283-3.558-.891-1.479c.918-.553,1.875-1.1,2.846-1.626l.823,1.519C699.88,464.851,698.946,465.385,698.05,465.925Zm5.625-3.05-.757-1.552c.962-.469,1.961-.933,2.969-1.376l.7,1.58C705.6,461.962,704.617,462.415,703.675,462.875Zm5.867-2.586-.637-1.6c1-.4,2.024-.785,3.059-1.155l.583,1.625C711.531,459.518,710.52,459.9,709.543,460.289Zm6.045-2.17-.53-1.643c1.025-.331,2.076-.652,3.124-.956l.481,1.658C717.631,457.477,716.6,457.793,715.588,458.119Zm6.177-1.792-.432-1.671c1.044-.27,2.112-.53,3.175-.773l.385,1.683C723.846,455.8,722.793,456.061,721.765,456.327Zm6.276-1.436L727.7,453.2c1.074-.215,2.156-.415,3.215-.6l.29,1.7C730.165,454.482,729.1,454.679,728.041,454.891Zm9.521-1.451c-.008,0-1.185.1-3.172.372l-.237-1.71c2.05-.284,3.235-.38,3.271-.383Z" transform="translate(-630.918 -451.719)" fill="#8c9df4"/>
    </g>
    <rect id="Rectangle_43" data-name="Rectangle 43" width="68.691" height="176.393" transform="translate(337.346 446.584)" fill="#bdd1f9"/>
    <rect id="Rectangle_44" data-name="Rectangle 44" width="68.691" height="234.049" transform="translate(444.208 388.929)" fill="#bdd1f9"/>
    <rect id="Rectangle_45" data-name="Rectangle 45" width="75.215" height="296.273" transform="translate(541.371 326.705)" fill="#bdd1f9"/>
    <rect id="Rectangle_46" data-name="Rectangle 46" width="68.691" height="337.289" transform="translate(643.383 285.689)" fill="#bdd1f9"/>
    <g id="Group_20" data-name="Group 20" transform="translate(616.586 355.55)">
      <path id="Path_6" data-name="Path 6" d="M1639.182,833.949l144.37-69.889L1719.166,901.3l-10.886-62.268Z" transform="translate(-1639.182 -764.06)" fill="#f77d48"/>
    </g>
    <g id="Group_23" data-name="Group 23" transform="translate(582.599 345.198)">
      <path id="Path_7" data-name="Path 7" d="M1534.706,765.457a27.051,27.051,0,1,1,32.681,19.888A27.051,27.051,0,0,1,1534.706,765.457Z" transform="translate(-1533.932 -732.003)" fill="#ffb93e"/>
      <g id="Group_21" data-name="Group 21" transform="translate(2.477 2.712)">
        <path id="Path_8" data-name="Path 8" d="M1572.087,789.006a24.647,24.647,0,1,1,15.227-11.135A24.488,24.488,0,0,1,1572.087,789.006Zm-11.307-46.467a23.177,23.177,0,1,0,28,17.039A23.2,23.2,0,0,0,1560.78,742.538Z" transform="translate(-1541.603 -740.401)" fill="#ffa412"/>
      </g>
      <g id="Group_22" data-name="Group 22" transform="translate(17.342 8.988)">
        <path id="Path_9" data-name="Path 9" d="M1602.416,784.365a4.059,4.059,0,0,0-.395-1.377,2.973,2.973,0,0,0-.869-1.012,5.616,5.616,0,0,0-1.428-.751,14.712,14.712,0,0,0-2.07-.577,38.852,38.852,0,0,1-3.814-1.03,12.267,12.267,0,0,1-3.014-1.435,7.211,7.211,0,0,1-2.094-2.134,8.146,8.146,0,0,1-.816-6.14,6.861,6.861,0,0,1,1.354-2.513,8.561,8.561,0,0,1,2.349-1.912,11.415,11.415,0,0,1,3.224-1.19l-.492-4.061,3.269-.4.5,4.118a10.24,10.24,0,0,1,3.3.543,7.733,7.733,0,0,1,4.515,3.988,10.282,10.282,0,0,1,.956,3.36l-5.9.716a5.011,5.011,0,0,0-1.424-3.284,3.482,3.482,0,0,0-2.844-.8,4.422,4.422,0,0,0-1.552.448,3,3,0,0,0-1.008.834,2.8,2.8,0,0,0-.505,1.13,4.114,4.114,0,0,0-.046,1.334,3.769,3.769,0,0,0,.358,1.246,2.788,2.788,0,0,0,.833.968,5.624,5.624,0,0,0,1.438.75,19.181,19.181,0,0,0,2.16.634q2.071.5,3.79,1.081a12.427,12.427,0,0,1,3.006,1.455,6.972,6.972,0,0,1,3.124,5.255,7.454,7.454,0,0,1-.219,3.069,6.761,6.761,0,0,1-1.367,2.5,8.262,8.262,0,0,1-2.375,1.867,12.322,12.322,0,0,1-3.248,1.163l.458,3.776-3.249.394-.455-3.758a13.787,13.787,0,0,1-3.369-.343,8.754,8.754,0,0,1-3.008-1.3,7.844,7.844,0,0,1-2.289-2.467,9.536,9.536,0,0,1-1.209-3.82l5.9-.715a5.866,5.866,0,0,0,.651,2.2,3.788,3.788,0,0,0,1.186,1.32,3.685,3.685,0,0,0,1.532.585,6.3,6.3,0,0,0,1.671.019,5.281,5.281,0,0,0,1.656-.45,3.515,3.515,0,0,0,1.132-.831,2.8,2.8,0,0,0,.61-1.123A3.416,3.416,0,0,0,1602.416,784.365Z" transform="translate(-1587.637 -759.836)" fill="#ffa412"/>
      </g>
    </g>
    <g id="Group_26" data-name="Group 26" transform="translate(714.757 263.679)">
      <circle id="Ellipse_5" data-name="Ellipse 5" cx="26.346" cy="26.346" r="26.346" transform="translate(0 37.258) rotate(-45)" fill="#ffb93e"/>
      <g id="Group_24" data-name="Group 24" transform="translate(13.266 13.565)">
        <path id="Path_10" data-name="Path 10" d="M2009.225,569.556a24,24,0,1,1,16.684-7.692A23.846,23.846,0,0,1,2009.225,569.556Zm-1.83-46.539a22.572,22.572,0,1,0,23.441,21.667A22.6,22.6,0,0,0,2007.395,523.017Z" transform="translate(-1984.277 -521.567)" fill="#ffa412"/>
      </g>
      <g id="Group_25" data-name="Group 25" transform="translate(26.968 19.808)">
        <path id="Path_11" data-name="Path 11" d="M2040.587,565.491a3.943,3.943,0,0,0-.111-1.39,2.9,2.9,0,0,0-.634-1.133,5.481,5.481,0,0,0-1.218-.993,14.511,14.511,0,0,0-1.865-.95,37.842,37.842,0,0,1-3.443-1.719,11.969,11.969,0,0,1-2.6-1.952,7.039,7.039,0,0,1-1.586-2.441,7.934,7.934,0,0,1,.405-6.019,6.675,6.675,0,0,1,1.777-2.138,8.329,8.329,0,0,1,2.611-1.371,11.1,11.1,0,0,1,3.308-.514l.314-3.972,3.2.253-.318,4.027a9.981,9.981,0,0,1,3.045,1.156,7.527,7.527,0,0,1,3.541,4.678,10.03,10.03,0,0,1,.265,3.392l-5.775-.456a4.882,4.882,0,0,0-.726-3.409,3.39,3.39,0,0,0-2.56-1.313,4.316,4.316,0,0,0-1.568.128,2.92,2.92,0,0,0-1.123.6,2.72,2.72,0,0,0-.7.982,4,4,0,0,0-.3,1.265,3.675,3.675,0,0,0,.1,1.259,2.706,2.706,0,0,0,.608,1.085,5.458,5.458,0,0,0,1.228.993,18.628,18.628,0,0,0,1.94,1.022q1.88.877,3.409,1.763a12.1,12.1,0,0,1,2.589,1.969,6.785,6.785,0,0,1,1.969,5.619,7.254,7.254,0,0,1-.8,2.887,6.59,6.59,0,0,1-1.786,2.118,8.028,8.028,0,0,1-2.628,1.324,11.981,11.981,0,0,1-3.325.484l-.292,3.694-3.177-.251.29-3.674a13.477,13.477,0,0,1-3.149-.977,8.515,8.515,0,0,1-2.62-1.823,7.62,7.62,0,0,1-1.709-2.8,9.279,9.279,0,0,1-.417-3.88l5.774.456a5.71,5.71,0,0,0,.2,2.228,3.7,3.7,0,0,0,.877,1.489,3.582,3.582,0,0,0,1.35.853,6.155,6.155,0,0,0,1.591.341,5.147,5.147,0,0,0,1.668-.111,3.427,3.427,0,0,0,1.241-.574,2.727,2.727,0,0,0,.8-.955A3.325,3.325,0,0,0,2040.587,565.491Z" transform="translate(-2026.709 -540.898)" fill="#ffa412"/>
      </g>
    </g>
    <g id="Group_29" data-name="Group 29" transform="translate(688.513 330.212)">
      <path id="Path_12" data-name="Path 12" d="M1861.925,704.09a18.172,18.172,0,1,1,18.49,17.848A18.172,18.172,0,0,1,1861.925,704.09Z" transform="translate(-1861.922 -685.596)" fill="#ffb93e"/>
      <g id="Group_27" data-name="Group 27" transform="translate(1.619 1.83)">
        <path id="Path_13" data-name="Path 13" d="M1883.785,724.375a16.557,16.557,0,1,1,11.62-5.056A16.446,16.446,0,0,1,1883.785,724.375Zm-.568-32.121a15.569,15.569,0,1,0,15.842,15.292A15.587,15.587,0,0,0,1883.217,692.254Z" transform="translate(-1866.936 -691.265)" fill="#ffa412"/>
      </g>
      <g id="Group_28" data-name="Group 28" transform="translate(10.99 6.146)">
        <path id="Path_14" data-name="Path 14" d="M1905.5,721.635a2.722,2.722,0,0,0-.056-.96,2.005,2.005,0,0,0-.42-.791,3.779,3.779,0,0,0-.826-.7,10.038,10.038,0,0,0-1.272-.684,26.037,26.037,0,0,1-2.349-1.236,8.232,8.232,0,0,1-1.764-1.385,4.85,4.85,0,0,1-1.057-1.707,5.47,5.47,0,0,1,.369-4.145,4.6,4.6,0,0,1,1.257-1.448,5.746,5.746,0,0,1,1.822-.907,7.658,7.658,0,0,1,2.288-.3l.276-2.734,2.2.221-.28,2.773a6.88,6.88,0,0,1,2.083.842,5.193,5.193,0,0,1,2.372,3.279,6.912,6.912,0,0,1,.132,2.343l-3.975-.4a3.367,3.367,0,0,0-.45-2.363,2.338,2.338,0,0,0-1.746-.944,2.988,2.988,0,0,0-1.083.066,2.007,2.007,0,0,0-.783.4,1.874,1.874,0,0,0-.5.666,2.751,2.751,0,0,0-.226.868,2.524,2.524,0,0,0,.051.87,1.872,1.872,0,0,0,.4.757,3.791,3.791,0,0,0,.832.7,12.823,12.823,0,0,0,1.323.733q1.283.633,2.325,1.266a8.37,8.37,0,0,1,1.756,1.4,4.684,4.684,0,0,1,1.274,3.9,5.012,5.012,0,0,1-.6,1.979,4.553,4.553,0,0,1-1.263,1.435,5.554,5.554,0,0,1-1.832.874,8.287,8.287,0,0,1-2.3.284l-.256,2.543-2.187-.22.255-2.53a9.24,9.24,0,0,1-2.157-.721,5.884,5.884,0,0,1-1.781-1.3,5.263,5.263,0,0,1-1.136-1.954,6.4,6.4,0,0,1-.23-2.682l3.975.4a3.956,3.956,0,0,0,.1,1.54,2.561,2.561,0,0,0,.583,1.04,2.478,2.478,0,0,0,.918.609,4.261,4.261,0,0,0,1.093.258,3.541,3.541,0,0,0,1.152-.052,2.362,2.362,0,0,0,.865-.378,1.883,1.883,0,0,0,.565-.646A2.3,2.3,0,0,0,1905.5,721.635Z" transform="translate(-1895.955 -704.63)" fill="#ffa412"/>
      </g>
    </g>
    <g id="Group_32" data-name="Group 32" transform="translate(606.839 231.429)">
      <circle id="Ellipse_6" data-name="Ellipse 6" cx="44.343" cy="44.343" r="44.343" transform="translate(0 6.013) rotate(-3.888)" fill="#ffb93e"/>
      <g id="Group_30" data-name="Group 30" transform="translate(6.991 7.323)">
        <path id="Path_15" data-name="Path 15" d="M1683.769,481.141a40.4,40.4,0,1,1,23.4-20.212A40.136,40.136,0,0,1,1683.769,481.141Zm-24.641-74.418a37.991,37.991,0,1,0,48.007,24.123A38.034,38.034,0,0,0,1659.128,406.723Z" transform="translate(-1630.648 -402.367)" fill="#ffa412"/>
      </g>
      <g id="Group_31" data-name="Group 31" transform="translate(30.536 17.689)">
        <path id="Path_16" data-name="Path 16" d="M1729.4,473.906a6.654,6.654,0,0,0-.828-2.2,4.874,4.874,0,0,0-1.554-1.538,9.2,9.2,0,0,0-2.433-1.038,24.341,24.341,0,0,0-3.459-.668,63.57,63.57,0,0,1-6.369-1.177,20.138,20.138,0,0,1-5.115-1.945,11.827,11.827,0,0,1-3.7-3.209,13.349,13.349,0,0,1-2.149-9.923,11.225,11.225,0,0,1,1.878-4.286,14,14,0,0,1,3.584-3.436,18.684,18.684,0,0,1,5.11-2.372l-1.344-6.57,5.288-1.081,1.362,6.662a16.769,16.769,0,0,1,5.463.45,12.674,12.674,0,0,1,7.906,5.916,16.87,16.87,0,0,1,2.008,5.363l-9.551,1.953q-.753-3.684-2.763-5.177a5.705,5.705,0,0,0-4.752-.932,7.256,7.256,0,0,0-2.476.939,4.913,4.913,0,0,0-1.536,1.5,4.586,4.586,0,0,0-.676,1.914,6.757,6.757,0,0,0,.1,2.186,6.185,6.185,0,0,0,.751,1.989,4.56,4.56,0,0,0,1.489,1.471,9.221,9.221,0,0,0,2.449,1.034,31.236,31.236,0,0,0,3.613.749q3.45.542,6.336,1.263a20.332,20.332,0,0,1,5.1,1.98,11.416,11.416,0,0,1,5.8,8.169,12.206,12.206,0,0,1,.05,5.043,11.1,11.1,0,0,1-1.9,4.258,13.558,13.558,0,0,1-3.633,3.366,20.209,20.209,0,0,1-5.153,2.333l1.249,6.108-5.255,1.075L1723.056,488a22.646,22.646,0,0,1-5.55-.112,14.35,14.35,0,0,1-5.087-1.727,12.84,12.84,0,0,1-4.067-3.726,15.626,15.626,0,0,1-2.483-6.081l9.552-1.952a9.625,9.625,0,0,0,1.355,3.513,6.226,6.226,0,0,0,2.113,2,6.04,6.04,0,0,0,2.581.752,10.358,10.358,0,0,0,2.733-.192,8.637,8.637,0,0,0,2.645-.956,5.764,5.764,0,0,0,1.74-1.507,4.587,4.587,0,0,0,.848-1.917A5.6,5.6,0,0,0,1729.4,473.906Z" transform="translate(-1703.561 -434.467)" fill="#ffa412"/>
      </g>
    </g>
    <g id="Group_34" data-name="Group 34" transform="translate(416.555 220.806)">
      <path id="Path_17" data-name="Path 17" d="M1136.476,401.455c-3.985,1-7.791,1.946-11.349,2.555-11.525,1.971-20.428.345-24.266-15.018s3.256-20.986,14.354-24.666c3.427-1.136,7.233-2.086,11.218-3.082,8.519-2.128,17.947-1.188,25.457,1.277,7.387,2.428,12.914,6.332,13.894,10.255,1.116,4.467-1.926,10.517-7.337,16A48.549,48.549,0,0,1,1136.476,401.455Z" transform="translate(-1073.952 -355.777)" fill="#739af0"/>
      <path id="Path_18" data-name="Path 18" d="M1076.737,355.341l-13.091-8.549-20.666,4.4,21.465,15.08Z" transform="translate(-1035.475 -346.792)" fill="#163560"/>
      <path id="Path_19" data-name="Path 19" d="M1119.735,487.652l-7.534,13.7-20.309,5.831,11.853-23.4Z" transform="translate(-1068.592 -439.545)" fill="#163560"/>
      <path id="Path_20" data-name="Path 20" d="M1125.127,412.949c-11.525,1.971-20.428.346-24.266-15.018s3.256-20.986,14.354-24.666Z" transform="translate(-1073.952 -364.716)" fill="#163560"/>
      <path id="Path_21" data-name="Path 21" d="M1019.737,446.231s5.753-13.4,15.823-11.34c10.273,2.105,8.979,13.174,1.269,14.19S1024.234,445.107,1019.737,446.231Z" transform="translate(-1019.737 -406.296)" fill="#f77d48"/>
      <path id="Path_22" data-name="Path 22" d="M1193.665,388.8a9.933,9.933,0,1,1-7.23,12.044A9.933,9.933,0,0,1,1193.665,388.8Z" transform="translate(-1132.403 -375.03)" fill="#163560"/>
      <g id="Group_33" data-name="Group 33" transform="translate(53.073 12.806)">
        <path id="Path_23" data-name="Path 23" d="M1194.687,407.642a10.6,10.6,0,1,1,2.567-.317A10.615,10.615,0,0,1,1194.687,407.642Zm0-19.868a9.272,9.272,0,1,0,9,7.025A9.242,9.242,0,0,0,1194.685,387.774Z" transform="translate(-1184.089 -386.45)" fill="#bdd1f9"/>
      </g>
      <path id="Path_24" data-name="Path 24" d="M1267.643,393.927l-6.557-26.251c7.386,2.428,12.914,6.332,13.894,10.255C1276.1,382.4,1273.055,388.448,1267.643,393.927Z" transform="translate(-1183.15 -360.932)" fill="#f77d48"/>
    </g>
    <g id="Group_35" data-name="Group 35" transform="translate(752.016 356.224)">
      <path id="Path_25" data-name="Path 25" d="M2201.231,895.353s20.071,20.81,21.019,28.642-9.614,20.059-9.614,20.059Z" transform="translate(-2155.165 -853.631)" fill="#ed7d2b"/>
      <path id="Path_26" data-name="Path 26" d="M2116.235,1555.738s-.709,11.037-2.844,11.192c-.284.02-10.833,0-10.833,0l-13.466-.107s.1-3.245,4.033-3.922,10.532-3.429,12.927-8.626C2108.573,1548.8,2116.235,1555.738,2116.235,1555.738Z" transform="translate(-2079.237 -1298.35)" fill="#2e5a99"/>
      <path id="Path_27" data-name="Path 27" d="M2209.115,1555.94s-.708,11.038-2.844,11.192c-.284.02-10.833,0-10.833,0l-13.465-.107s.1-3.244,4.033-3.922,10.532-3.429,12.927-8.627C2201.453,1549.005,2209.115,1555.94,2209.115,1555.94Z" transform="translate(-2142.125 -1298.486)" fill="#18417c"/>
      <path id="Path_28" data-name="Path 28" d="M2127.763,1160.484s3.473,22.532,16.524,62.546,14.8,57.332,14.8,57.332l14.1-.365s.215-43.7-5.8-63.819-1.15-72.49-1.15-72.49Z" transform="translate(-2105.421 -1021.774)" fill="#163560"/>
      <path id="Path_29" data-name="Path 29" d="M2106.6,1147.2a546.586,546.586,0,0,0,5.21,75.631c5.782,41.689,3.753,59.375,3.753,59.375l14.065.5s8.5-41.674,6.132-62.539,11.666-71.555,11.666-71.555Z" transform="translate(-2091.078 -1024.154)" fill="#1c468a"/>
      <path id="Path_30" data-name="Path 30" d="M2153.049,866.215l-7.5,4.9-10.826-2.042c.152-.874.874-4.5,1.533-7.777.04-.194.08-.387.116-.576.564-2.792,1.051-5.19,1.051-5.19l10.126-4.441,3.775-1.655c-.01.058-.3,3.1-.339,3.542A25.789,25.789,0,0,0,2153.049,866.215Z" transform="translate(-2110.13 -822.537)" fill="#ffb27d"/>
      <path id="Path_31" data-name="Path 31" d="M2134.238,886.448c.21-.088,13.051-3.847,14.444-3.383s2.213,3.162,2.213,3.162l-21,4.7S2131.554,887.572,2134.238,886.448Z" transform="translate(-2106.864 -845.284)" fill="#ed7d2b"/>
      <path id="Path_32" data-name="Path 32" d="M2147.783,979.1c-2.2,9.918-38.4,11.016-47.711,1.989-1.06-1.029-1.1-5.805-.687-12.245.81-12.581,3.366-31.5,3.485-41.174a76.5,76.5,0,0,1,1.574-13.781,111.928,111.928,0,0,1,4.627-16.488s17.694-5.677,21-4.7C2146,897.42,2149.979,969.182,2147.783,979.1Z" transform="translate(-2086.041 -851.759)" fill="#f99746"/>
      <path id="Path_33" data-name="Path 33" d="M2099.9,1009.617c.81-12.581,3.366-31.5,3.485-41.174a76.519,76.519,0,0,1,1.574-13.781l10.641-1.854S2125.9,995.307,2099.9,1009.617Z" transform="translate(-2086.553 -892.533)" fill="#ed7d2b"/>
      <path id="Path_34" data-name="Path 34" d="M2111.469,1071a2.5,2.5,0,0,1-.8,2.895c-1.525,1.16-2.517,3.043-2.171,4.421s3.681,3.633,4.839,3.273,3.519-2.169,3.267-2.9,1.6-6.374-1.219-8.555S2111.469,1071,2111.469,1071Z" transform="translate(-2092.327 -971.44)" fill="#ffb27d"/>
      <path id="Path_35" data-name="Path 35" d="M2089.732,899.661s-10.378,1.919-18.669,14.082-13.75,21.207-12.236,25.6,15.359,19.65,17.751,19.655,6.258-1.727,6.484-5.641c0,0-9.74-14.666-7.81-16.855.824-.935,12.708-10.54,14.392-6.186C2092.431,937.517,2089.732,899.661,2089.732,899.661Z" transform="translate(-2058.575 -856.547)" fill="#f99746"/>
      <path id="Path_36" data-name="Path 36" d="M2153.434,856.578c-2.229,3.758-10.514,6.994-13.969,8.183.04-.194.079-.387.116-.576.564-2.792,1.051-5.19,1.051-5.19l10.126-4.441C2152.994,854.529,2154.354,855.032,2153.434,856.578Z" transform="translate(-2113.344 -826.006)" fill="#fca56b"/>
      <path id="Path_37" data-name="Path 37" d="M2127.034,810.185s16.284,5.118,19.315-5.071,7.175-16.392-3.094-20.09-13.454-.414-15.294,2.74S2122.876,808.591,2127.034,810.185Z" transform="translate(-2103.558 -777.819)" fill="#ffb27d"/>
      <path id="Path_38" data-name="Path 38" d="M2132.944,775.114s1.013,11.867,3.468,11.357,4.681-.887,4.314,2.689-3.779,7.7,3.782,8.348,18.475-18.829,16.405-22.526C2154.942,764.314,2124.309,762.1,2132.944,775.114Z" transform="translate(-2107.897 -766.149)" fill="#163560"/>
    </g>
    <g id="Group_64" data-name="Group 64" transform="translate(550.333 490.187)">
      <g id="Group_60" data-name="Group 60" transform="translate(54.233)">
        <g id="Group_58" data-name="Group 58" transform="translate(0 51.178)">
          <g id="Group_37" data-name="Group 37" transform="translate(8.655 74.947)">
            <path id="Path_39" data-name="Path 39" d="M1713.643,1573.22v4.27a1.454,1.454,0,0,1-.337.918,1.949,1.949,0,0,1-.918.615,1.888,1.888,0,0,1-.359.086,2.252,2.252,0,0,1-.346.025h-80.962a1.9,1.9,0,0,1-1.94-1.4c-.007-.053-.015-.106-.017-.162,0-.028,0-.055,0-.083v-4.27c0-.028,0-.056,0-.083,0-.056.01-.109.017-.162a1.9,1.9,0,0,1,1.94-1.4h80.962a2.222,2.222,0,0,1,.346.025,2.139,2.139,0,0,1,.359.086,1.951,1.951,0,0,1,.918.615A1.456,1.456,0,0,1,1713.643,1573.22Z" transform="translate(-1628.762 -1571.575)" fill="#ffb93e"/>
            <path id="Path_40" data-name="Path 40" d="M1673.887,1579.133h-43.375a1.737,1.737,0,0,1-1.683-1.217,1.343,1.343,0,0,1-.047-.181c-.007-.053-.015-.106-.017-.162,0-.028,0-.055,0-.083v-4.27c0-.028,0-.056,0-.083,0-.056.01-.109.017-.162a1.343,1.343,0,0,1,.047-.181,1.736,1.736,0,0,1,1.683-1.217h38.049A13.239,13.239,0,0,0,1673.887,1579.133Z" transform="translate(-1628.762 -1571.575)" fill="#ffa412"/>
            <g id="Group_36" data-name="Group 36" transform="translate(29.748)">
              <rect id="Rectangle_47" data-name="Rectangle 47" width="0.92" height="7.558" transform="translate(44.361 0)" fill="#ffa412"/>
              <rect id="Rectangle_48" data-name="Rectangle 48" width="0.92" height="7.558" transform="translate(41.247 0)" fill="#ffa412"/>
              <rect id="Rectangle_49" data-name="Rectangle 49" width="0.92" height="7.558" transform="translate(37.511 0)" fill="#ffa412"/>
              <rect id="Rectangle_50" data-name="Rectangle 50" width="0.92" height="7.558" transform="translate(31.786 0)" fill="#ffa412"/>
              <rect id="Rectangle_51" data-name="Rectangle 51" width="0.921" height="7.558" transform="translate(25.731 0)" fill="#ffa412"/>
              <rect id="Rectangle_52" data-name="Rectangle 52" width="0.92" height="7.558" transform="translate(16.45 0)" fill="#ffa412"/>
              <rect id="Rectangle_53" data-name="Rectangle 53" width="0.92" height="7.558" transform="translate(7.76 0)" fill="#ffa412"/>
              <rect id="Rectangle_54" data-name="Rectangle 54" width="0.92" height="7.558" transform="translate(0 0)" fill="#ffa412"/>
              <rect id="Rectangle_55" data-name="Rectangle 55" width="0.92" height="7.558" transform="translate(47.326 0)" fill="#ffa412"/>
              <rect id="Rectangle_56" data-name="Rectangle 56" width="0.92" height="7.558" transform="translate(49.285 0)" fill="#ffa412"/>
              <rect id="Rectangle_57" data-name="Rectangle 57" width="0.92" height="7.558" transform="translate(51.176 0)" fill="#ffa412"/>
              <path id="Path_41" data-name="Path 41" d="M1884.691,1571.6v7.506a2.3,2.3,0,0,1-.345.026h-.575v-7.558h.575A2.314,2.314,0,0,1,1884.691,1571.6Z" transform="translate(-1831.172 -1571.574)" fill="#ffa412"/>
              <path id="Path_42" data-name="Path 42" d="M1888.649,1572.533v6.1a1.945,1.945,0,0,1-.919.616v-7.336A1.948,1.948,0,0,1,1888.649,1572.533Z" transform="translate(-1833.852 -1571.807)" fill="#ffa412"/>
            </g>
          </g>
          <g id="Group_39" data-name="Group 39" transform="translate(0 67.388)">
            <path id="Path_43" data-name="Path 43" d="M1686.838,1549.812v4.267a1.47,1.47,0,0,1-.334.921,1.925,1.925,0,0,1-.185.195,2.114,2.114,0,0,1-1.095.5,2.192,2.192,0,0,1-.344.028h-80.964a1.9,1.9,0,0,1-1.937-1.4c-.008-.053-.015-.106-.018-.159,0-.028,0-.056,0-.086v-4.267c0-.028,0-.058,0-.086,0-.053.01-.106.018-.16a1.9,1.9,0,0,1,1.938-1.4h80.964c.051,0,.1,0,.155.008a.388.388,0,0,1,.056,0,.008.008,0,0,1,.01,0,.365.365,0,0,1,.073.008l.051.007a2.131,2.131,0,0,1,.359.083c.068.023.134.048.2.076h0l.127.061.07.041a.493.493,0,0,1,.066.04,1.508,1.508,0,0,1,.238.174c.025.02.045.043.068.064a.549.549,0,0,1,.04.037.149.149,0,0,1,.02.023l.018.018a.76.76,0,0,1,.073.084A1.461,1.461,0,0,1,1686.838,1549.812Z" transform="translate(-1601.959 -1548.165)" fill="#ffb93e"/>
            <path id="Path_44" data-name="Path 44" d="M1647.082,1555.725h-43.375a1.735,1.735,0,0,1-1.68-1.221,1.335,1.335,0,0,1-.047-.181c-.008-.053-.015-.106-.018-.159,0-.028,0-.056,0-.086v-4.267c0-.028,0-.058,0-.086,0-.053.01-.106.018-.16a1.343,1.343,0,0,1,.047-.18,1.735,1.735,0,0,1,1.68-1.221h38.049c.015.063.033.124.053.187A13.221,13.221,0,0,0,1647.082,1555.725Z" transform="translate(-1601.959 -1548.165)" fill="#ffa412"/>
            <g id="Group_38" data-name="Group 38" transform="translate(29.746 0.001)">
              <rect id="Rectangle_58" data-name="Rectangle 58" width="0.92" height="7.558" transform="translate(44.361 0)" fill="#ffa412"/>
              <rect id="Rectangle_59" data-name="Rectangle 59" width="0.92" height="7.558" transform="translate(41.247 0)" fill="#ffa412"/>
              <rect id="Rectangle_60" data-name="Rectangle 60" width="0.92" height="7.558" transform="translate(37.512 0)" fill="#ffa412"/>
              <rect id="Rectangle_61" data-name="Rectangle 61" width="0.92" height="7.558" transform="translate(31.786 0)" fill="#ffa412"/>
              <rect id="Rectangle_62" data-name="Rectangle 62" width="0.92" height="7.558" transform="translate(25.732 0)" fill="#ffa412"/>
              <rect id="Rectangle_63" data-name="Rectangle 63" width="0.92" height="7.558" transform="translate(16.451 0)" fill="#ffa412"/>
              <rect id="Rectangle_64" data-name="Rectangle 64" width="0.92" height="7.558" transform="translate(7.76 0)" fill="#ffa412"/>
              <rect id="Rectangle_65" data-name="Rectangle 65" width="0.92" height="7.558" transform="translate(0 0)" fill="#ffa412"/>
              <rect id="Rectangle_66" data-name="Rectangle 66" width="0.92" height="7.558" transform="translate(47.327 0)" fill="#ffa412"/>
              <rect id="Rectangle_67" data-name="Rectangle 67" width="0.92" height="7.558" transform="translate(49.285 0)" fill="#ffa412"/>
              <rect id="Rectangle_68" data-name="Rectangle 68" width="0.92" height="7.558" transform="translate(51.177 0)" fill="#ffa412"/>
              <path id="Path_45" data-name="Path 45" d="M1857.884,1548.194v7.505a2.3,2.3,0,0,1-.346.027h-.575v-7.559h.575A2.241,2.241,0,0,1,1857.884,1548.194Z" transform="translate(-1804.364 -1548.167)" fill="#ffa412"/>
              <path id="Path_46" data-name="Path 46" d="M1861.843,1549.127v6.1a1.947,1.947,0,0,1-.919.615v-7.336A1.952,1.952,0,0,1,1861.843,1549.127Z" transform="translate(-1807.046 -1548.4)" fill="#ffa412"/>
            </g>
          </g>
          <g id="Group_41" data-name="Group 41" transform="translate(4.183 60.017)">
            <path id="Path_47" data-name="Path 47" d="M1699.793,1526.986v4.269a1.456,1.456,0,0,1-.337.918,1.937,1.937,0,0,1-.918.614,2.278,2.278,0,0,1-.359.086,2.564,2.564,0,0,1-.344.025h-80.964a2.251,2.251,0,0,1-.9-.187,1.709,1.709,0,0,1-1.032-1.194c-.008-.036-.01-.071-.016-.106s0-.048,0-.073,0-.056,0-.083v-4.269c0-.028,0-.056,0-.084a1.068,1.068,0,0,1,.018-.159,1.893,1.893,0,0,1,1.937-1.4h80.964a2.2,2.2,0,0,1,.344.025,2.089,2.089,0,0,1,.359.083,1.966,1.966,0,0,1,.918.617A1.454,1.454,0,0,1,1699.793,1526.986Z" transform="translate(-1614.914 -1525.341)" fill="#ffb93e"/>
            <path id="Path_48" data-name="Path 48" d="M1660.037,1532.9h-43.375a1.81,1.81,0,0,1-.8-.187,1.659,1.659,0,0,1-.921-1.194c-.008-.036-.01-.071-.016-.106s0-.048,0-.073,0-.056,0-.083v-4.269c0-.028,0-.056,0-.084a1.068,1.068,0,0,1,.018-.159,1.425,1.425,0,0,1,.045-.176,1.732,1.732,0,0,1,1.682-1.225h38.049a13.265,13.265,0,0,0,5.061,7.37C1659.857,1532.775,1659.946,1532.838,1660.037,1532.9Z" transform="translate(-1614.914 -1525.341)" fill="#ffa412"/>
            <g id="Group_40" data-name="Group 40" transform="translate(29.746)">
              <rect id="Rectangle_69" data-name="Rectangle 69" width="0.92" height="7.558" transform="translate(44.361 0)" fill="#ffa412"/>
              <rect id="Rectangle_70" data-name="Rectangle 70" width="0.92" height="7.558" transform="translate(41.247 0)" fill="#ffa412"/>
              <rect id="Rectangle_71" data-name="Rectangle 71" width="0.92" height="7.558" transform="translate(37.511 0)" fill="#ffa412"/>
              <rect id="Rectangle_72" data-name="Rectangle 72" width="0.921" height="7.558" transform="translate(31.786 0)" fill="#ffa412"/>
              <rect id="Rectangle_73" data-name="Rectangle 73" width="0.92" height="7.558" transform="translate(25.732 0)" fill="#ffa412"/>
              <rect id="Rectangle_74" data-name="Rectangle 74" width="0.92" height="7.558" transform="translate(16.45 0)" fill="#ffa412"/>
              <rect id="Rectangle_75" data-name="Rectangle 75" width="0.92" height="7.558" transform="translate(7.76 0)" fill="#ffa412"/>
              <rect id="Rectangle_76" data-name="Rectangle 76" width="0.92" height="7.558" transform="translate(0 0)" fill="#ffa412"/>
              <rect id="Rectangle_77" data-name="Rectangle 77" width="0.92" height="7.558" transform="translate(47.326 0)" fill="#ffa412"/>
              <rect id="Rectangle_78" data-name="Rectangle 78" width="0.92" height="7.558" transform="translate(49.285 0)" fill="#ffa412"/>
              <rect id="Rectangle_79" data-name="Rectangle 79" width="0.92" height="7.558" transform="translate(51.176 0)" fill="#ffa412"/>
              <path id="Path_49" data-name="Path 49" d="M1870.839,1525.365v7.505a2.237,2.237,0,0,1-.346.026h-.575v-7.558h.575A2.268,2.268,0,0,1,1870.839,1525.365Z" transform="translate(-1817.319 -1525.339)" fill="#ffa412"/>
              <path id="Path_50" data-name="Path 50" d="M1874.8,1526.3v6.105a1.951,1.951,0,0,1-.92.616v-7.337A1.953,1.953,0,0,1,1874.8,1526.3Z" transform="translate(-1820 -1525.571)" fill="#ffa412"/>
            </g>
          </g>
          <g id="Group_43" data-name="Group 43" transform="translate(6.124 52.458)">
            <path id="Path_51" data-name="Path 51" d="M1705.8,1503.578v4.267a1.45,1.45,0,0,1-.337.918c-.027.035-.058.068-.089.1a1.885,1.885,0,0,1-.559.407,2.318,2.318,0,0,1-.271.109,2.1,2.1,0,0,1-.359.084c-.055.007-.111.015-.169.02s-.119.008-.177.008h-80.961a1.9,1.9,0,0,1-1.94-1.4c-.008-.053-.015-.106-.018-.159v-4.439a1.806,1.806,0,0,1,1.725-1.548c.076-.007.154-.012.233-.012h80.961c.058,0,.119,0,.177.007a1.574,1.574,0,0,1,.169.02,2.12,2.12,0,0,1,.359.083,1.954,1.954,0,0,1,.918.615A1.456,1.456,0,0,1,1705.8,1503.578Z" transform="translate(-1620.922 -1501.932)" fill="#ffb93e"/>
            <path id="Path_52" data-name="Path 52" d="M1666.044,1509.491h-43.375a1.739,1.739,0,0,1-1.683-1.22,1.445,1.445,0,0,1-.047-.181c-.008-.053-.015-.106-.018-.159v-4.439a1.7,1.7,0,0,1,1.54-1.548,1.905,1.905,0,0,1,.208-.012h38.049s0,.007,0,.012A13.257,13.257,0,0,0,1666.044,1509.491Z" transform="translate(-1620.922 -1501.932)" fill="#ffa412"/>
            <g id="Group_42" data-name="Group 42" transform="translate(29.745)">
              <rect id="Rectangle_80" data-name="Rectangle 80" width="0.92" height="7.558" transform="translate(44.362 0)" fill="#ffa412"/>
              <rect id="Rectangle_81" data-name="Rectangle 81" width="0.92" height="7.558" transform="translate(41.247 0)" fill="#ffa412"/>
              <rect id="Rectangle_82" data-name="Rectangle 82" width="0.92" height="7.558" transform="translate(37.512 0)" fill="#ffa412"/>
              <rect id="Rectangle_83" data-name="Rectangle 83" width="0.92" height="7.558" transform="translate(31.786 0)" fill="#ffa412"/>
              <rect id="Rectangle_84" data-name="Rectangle 84" width="0.92" height="7.558" transform="translate(25.732 0)" fill="#ffa412"/>
              <rect id="Rectangle_85" data-name="Rectangle 85" width="0.92" height="7.558" transform="translate(16.45 0)" fill="#ffa412"/>
              <rect id="Rectangle_86" data-name="Rectangle 86" width="0.921" height="7.558" transform="translate(7.76 0)" fill="#ffa412"/>
              <rect id="Rectangle_87" data-name="Rectangle 87" width="0.921" height="7.558" transform="translate(0 0)" fill="#ffa412"/>
              <rect id="Rectangle_88" data-name="Rectangle 88" width="0.92" height="7.558" transform="translate(47.326 0)" fill="#ffa412"/>
              <rect id="Rectangle_89" data-name="Rectangle 89" width="0.92" height="7.558" transform="translate(49.285 0)" fill="#ffa412"/>
              <rect id="Rectangle_90" data-name="Rectangle 90" width="0.92" height="7.558" transform="translate(51.177 0)" fill="#ffa412"/>
              <path id="Path_53" data-name="Path 53" d="M1876.844,1501.958v7.505a2.243,2.243,0,0,1-.345.026h-.575v-7.558h.575A2.2,2.2,0,0,1,1876.844,1501.958Z" transform="translate(-1823.324 -1501.932)" fill="#ffa412"/>
              <path id="Path_54" data-name="Path 54" d="M1880.8,1502.89V1509a1.948,1.948,0,0,1-.919.615v-7.337A1.951,1.951,0,0,1,1880.8,1502.89Z" transform="translate(-1826.006 -1502.163)" fill="#ffa412"/>
            </g>
          </g>
          <g id="Group_45" data-name="Group 45" transform="translate(0.169 44.911)">
            <path id="Path_55" data-name="Path 55" d="M1687.363,1480.207v4.266a1.447,1.447,0,0,1-.334.918,1.934,1.934,0,0,1-.92.617,2.03,2.03,0,0,1-.357.083.87.87,0,0,1-.114.016h-.015a.485.485,0,0,1-.061,0l-.053.005-.1,0h-80.961a1.85,1.85,0,0,1-1.958-1.56.831.831,0,0,1,0-.087v-4.266a.839.839,0,0,1,0-.086c0-.023,0-.046,0-.068a1.773,1.773,0,0,1,1.47-1.439.454.454,0,0,1,.058-.013,2.339,2.339,0,0,1,.425-.04H1685.4c.061,0,.116,0,.175.008l.073.007h.008c.03,0,.061.008.091.013a2.041,2.041,0,0,1,.357.083,1.935,1.935,0,0,1,.92.617A1.449,1.449,0,0,1,1687.363,1480.207Z" transform="translate(-1602.483 -1478.56)" fill="#ffb93e"/>
            <path id="Path_56" data-name="Path 56" d="M1647.606,1486.12h-43.373a1.713,1.713,0,0,1-1.748-1.56.831.831,0,0,1,0-.087v-4.266a.839.839,0,0,1,0-.086c0-.023,0-.046,0-.068a1.688,1.688,0,0,1,1.359-1.449.332.332,0,0,1,.073-.015,1.8,1.8,0,0,1,.311-.028h38.047c0,.02.01.036.015.055a13.247,13.247,0,0,0,5.293,7.492C1647.594,1486.112,1647.6,1486.115,1647.606,1486.12Z" transform="translate(-1602.483 -1478.56)" fill="#ffa412"/>
            <g id="Group_44" data-name="Group 44" transform="translate(29.747 0.001)">
              <rect id="Rectangle_91" data-name="Rectangle 91" width="0.92" height="7.558" transform="translate(44.361 0)" fill="#ffa412"/>
              <rect id="Rectangle_92" data-name="Rectangle 92" width="0.92" height="7.558" transform="translate(41.247 0)" fill="#ffa412"/>
              <rect id="Rectangle_93" data-name="Rectangle 93" width="0.92" height="7.558" transform="translate(37.511 0)" fill="#ffa412"/>
              <rect id="Rectangle_94" data-name="Rectangle 94" width="0.92" height="7.558" transform="translate(31.786 0)" fill="#ffa412"/>
              <rect id="Rectangle_95" data-name="Rectangle 95" width="0.921" height="7.558" transform="translate(25.732 0)" fill="#ffa412"/>
              <rect id="Rectangle_96" data-name="Rectangle 96" width="0.92" height="7.558" transform="translate(16.45 0)" fill="#ffa412"/>
              <rect id="Rectangle_97" data-name="Rectangle 97" width="0.92" height="7.558" transform="translate(7.76 0)" fill="#ffa412"/>
              <rect id="Rectangle_98" data-name="Rectangle 98" width="0.92" height="7.558" transform="translate(0 0)" fill="#ffa412"/>
              <rect id="Rectangle_99" data-name="Rectangle 99" width="0.92" height="7.558" transform="translate(47.327 0)" fill="#ffa412"/>
              <rect id="Rectangle_100" data-name="Rectangle 100" width="0.92" height="7.558" transform="translate(49.285 0)" fill="#ffa412"/>
              <rect id="Rectangle_101" data-name="Rectangle 101" width="0.92" height="7.558" transform="translate(51.176 0)" fill="#ffa412"/>
              <path id="Path_57" data-name="Path 57" d="M1858.411,1478.589v7.506a2.278,2.278,0,0,1-.345.026h-.575v-7.558h.575A2.263,2.263,0,0,1,1858.411,1478.589Z" transform="translate(-1804.891 -1478.563)" fill="#ffa412"/>
              <path id="Path_58" data-name="Path 58" d="M1862.37,1479.521v6.106a1.952,1.952,0,0,1-.919.615v-7.337A1.954,1.954,0,0,1,1862.37,1479.521Z" transform="translate(-1807.573 -1478.795)" fill="#ffa412"/>
            </g>
          </g>
          <g id="Group_47" data-name="Group 47" transform="translate(0 37.407)">
            <path id="Path_59" data-name="Path 59" d="M1686.838,1456.968v4.267a1.463,1.463,0,0,1-.334.918,2.148,2.148,0,0,1-.185.2,2.032,2.032,0,0,1-.736.42,2.122,2.122,0,0,1-.278.071h-.008a.687.687,0,0,1-.073.013,2.252,2.252,0,0,1-.344.028h-80.964a2.075,2.075,0,0,1-.253-.015c-.033,0-.066-.007-.1-.013a1.821,1.821,0,0,1-1.591-1.391,1.356,1.356,0,0,1-.015-.142c0-.03,0-.058,0-.086v-4.267c0-.031,0-.058,0-.086,0-.053.01-.106.018-.159a1.9,1.9,0,0,1,1.938-1.4h80.964c.051,0,.1,0,.155.005l.02,0a.279.279,0,0,0,.045,0c.023,0,.048.005.073.01a.194.194,0,0,1,.051.007,2.1,2.1,0,0,1,.359.083c.068.023.134.048.2.076h0a1.983,1.983,0,0,1,.647.455c.025.028.05.056.073.083A1.47,1.47,0,0,1,1686.838,1456.968Z" transform="translate(-1601.959 -1455.321)" fill="#ffb93e"/>
            <path id="Path_60" data-name="Path 60" d="M1647.082,1462.881h-43.375l-.1,0c-.038,0-.076-.008-.111-.01a1.71,1.71,0,0,1-1.518-1.406,1.356,1.356,0,0,1-.015-.142c0-.03,0-.058,0-.086v-4.267c0-.031,0-.058,0-.086,0-.053.01-.106.018-.159a1.321,1.321,0,0,1,.047-.181,1.735,1.735,0,0,1,1.68-1.221h38.049c.015.063.033.124.053.187a13.223,13.223,0,0,0,5.195,7.317C1647.029,1462.845,1647.057,1462.861,1647.082,1462.881Z" transform="translate(-1601.959 -1455.321)" fill="#ffa412"/>
            <g id="Group_46" data-name="Group 46" transform="translate(29.746 0.001)">
              <rect id="Rectangle_102" data-name="Rectangle 102" width="0.92" height="7.558" transform="translate(44.361 0)" fill="#ffa412"/>
              <rect id="Rectangle_103" data-name="Rectangle 103" width="0.92" height="7.558" transform="translate(41.247 0)" fill="#ffa412"/>
              <rect id="Rectangle_104" data-name="Rectangle 104" width="0.92" height="7.558" transform="translate(37.512 0)" fill="#ffa412"/>
              <rect id="Rectangle_105" data-name="Rectangle 105" width="0.92" height="7.558" transform="translate(31.786 0)" fill="#ffa412"/>
              <rect id="Rectangle_106" data-name="Rectangle 106" width="0.92" height="7.558" transform="translate(25.732 0)" fill="#ffa412"/>
              <rect id="Rectangle_107" data-name="Rectangle 107" width="0.92" height="7.558" transform="translate(16.451 0)" fill="#ffa412"/>
              <rect id="Rectangle_108" data-name="Rectangle 108" width="0.92" height="7.558" transform="translate(7.76 0)" fill="#ffa412"/>
              <rect id="Rectangle_109" data-name="Rectangle 109" width="0.92" height="7.558" transform="translate(0 0)" fill="#ffa412"/>
              <rect id="Rectangle_110" data-name="Rectangle 110" width="0.92" height="7.558" transform="translate(47.327 0)" fill="#ffa412"/>
              <rect id="Rectangle_111" data-name="Rectangle 111" width="0.92" height="7.558" transform="translate(49.285 0)" fill="#ffa412"/>
              <rect id="Rectangle_112" data-name="Rectangle 112" width="0.92" height="7.558" transform="translate(51.177 0)" fill="#ffa412"/>
              <path id="Path_61" data-name="Path 61" d="M1857.884,1455.349v7.505a2.272,2.272,0,0,1-.346.026h-.575v-7.558h.575A2.3,2.3,0,0,1,1857.884,1455.349Z" transform="translate(-1804.364 -1455.323)" fill="#ffa412"/>
              <path id="Path_62" data-name="Path 62" d="M1861.843,1456.281v6.105a1.949,1.949,0,0,1-.919.616v-7.337A1.956,1.956,0,0,1,1861.843,1456.281Z" transform="translate(-1807.046 -1455.555)" fill="#ffa412"/>
            </g>
          </g>
          <g id="Group_49" data-name="Group 49" transform="translate(4.183 30.034)">
            <path id="Path_63" data-name="Path 63" d="M1699.793,1434.137v4.267a1.458,1.458,0,0,1-.337.921,1.94,1.94,0,0,1-.918.615,2.055,2.055,0,0,1-.359.083,2.246,2.246,0,0,1-.344.027h-80.964a2.247,2.247,0,0,1-.9-.187,1.709,1.709,0,0,1-1.032-1.194c-.008-.035-.01-.071-.016-.106s0-.048,0-.073,0-.055,0-.086v-4.267c0-.028,0-.058,0-.086a1.1,1.1,0,0,1,.018-.159,1.9,1.9,0,0,1,1.937-1.4h80.964a2.23,2.23,0,0,1,.344.028,2.067,2.067,0,0,1,.359.084,1.927,1.927,0,0,1,.918.617A1.45,1.45,0,0,1,1699.793,1434.137Z" transform="translate(-1614.914 -1432.49)" fill="#ffb93e"/>
            <path id="Path_64" data-name="Path 64" d="M1660.037,1440.05h-43.375a1.806,1.806,0,0,1-.8-.187,1.658,1.658,0,0,1-.921-1.194c-.008-.035-.01-.071-.016-.106s0-.048,0-.073,0-.055,0-.086v-4.267c0-.028,0-.058,0-.086a1.1,1.1,0,0,1,.018-.159,1.394,1.394,0,0,1,.045-.176,1.734,1.734,0,0,1,1.682-1.226h38.049a13.262,13.262,0,0,0,5.061,7.373C1659.857,1439.926,1659.946,1439.987,1660.037,1440.05Z" transform="translate(-1614.914 -1432.49)" fill="#ffa412"/>
            <g id="Group_48" data-name="Group 48" transform="translate(29.746 0.001)">
              <rect id="Rectangle_113" data-name="Rectangle 113" width="0.92" height="7.558" transform="translate(44.361 0)" fill="#ffa412"/>
              <rect id="Rectangle_114" data-name="Rectangle 114" width="0.92" height="7.558" transform="translate(41.247 0)" fill="#ffa412"/>
              <rect id="Rectangle_115" data-name="Rectangle 115" width="0.92" height="7.558" transform="translate(37.511 0)" fill="#ffa412"/>
              <rect id="Rectangle_116" data-name="Rectangle 116" width="0.921" height="7.558" transform="translate(31.786 0)" fill="#ffa412"/>
              <rect id="Rectangle_117" data-name="Rectangle 117" width="0.92" height="7.558" transform="translate(25.732 0)" fill="#ffa412"/>
              <rect id="Rectangle_118" data-name="Rectangle 118" width="0.92" height="7.558" transform="translate(16.45 0)" fill="#ffa412"/>
              <rect id="Rectangle_119" data-name="Rectangle 119" width="0.92" height="7.558" transform="translate(7.76 0)" fill="#ffa412"/>
              <rect id="Rectangle_120" data-name="Rectangle 120" width="0.92" height="7.558" transform="translate(0 0)" fill="#ffa412"/>
              <rect id="Rectangle_121" data-name="Rectangle 121" width="0.92" height="7.558" transform="translate(47.326 0)" fill="#ffa412"/>
              <rect id="Rectangle_122" data-name="Rectangle 122" width="0.92" height="7.558" transform="translate(49.285 0)" fill="#ffa412"/>
              <rect id="Rectangle_123" data-name="Rectangle 123" width="0.92" height="7.558" transform="translate(51.176 0)" fill="#ffa412"/>
              <path id="Path_65" data-name="Path 65" d="M1870.839,1432.521v7.505a2.316,2.316,0,0,1-.346.026h-.575v-7.558h.575A2.237,2.237,0,0,1,1870.839,1432.521Z" transform="translate(-1817.319 -1432.494)" fill="#ffa412"/>
              <path id="Path_66" data-name="Path 66" d="M1874.8,1433.453v6.105a1.953,1.953,0,0,1-.92.616v-7.337A1.957,1.957,0,0,1,1874.8,1433.453Z" transform="translate(-1820 -1432.727)" fill="#ffa412"/>
            </g>
          </g>
          <g id="Group_51" data-name="Group 51" transform="translate(10.799 22.477)">
            <path id="Path_67" data-name="Path 67" d="M1720.281,1410.732V1415a1.463,1.463,0,0,1-.334.916l0,0c-.028.035-.058.068-.089.1a1.837,1.837,0,0,1-.432.339,2.021,2.021,0,0,1-.258.124,0,0,0,0,0,0,0c-.043.018-.088.035-.136.051a2.045,2.045,0,0,1-.359.083,2.2,2.2,0,0,1-.344.025H1637.36a1.894,1.894,0,0,1-1.937-1.4,1.236,1.236,0,0,1-.018-.162c0-.028,0-.055,0-.084v-4.269c0-.028,0-.056,0-.084a1.8,1.8,0,0,1,1.725-1.548,1.752,1.752,0,0,1,.23-.012h80.964a2.547,2.547,0,0,1,.344.025,2.292,2.292,0,0,1,.359.086,1.988,1.988,0,0,1,.829.513c.031.033.061.066.089.1l0,0A1.462,1.462,0,0,1,1720.281,1410.732Z" transform="translate(-1635.402 -1409.088)" fill="#ffb93e"/>
            <path id="Path_68" data-name="Path 68" d="M1680.526,1416.645H1637.15a1.732,1.732,0,0,1-1.682-1.223,1.553,1.553,0,0,1-.045-.175,1.236,1.236,0,0,1-.018-.162c0-.028,0-.055,0-.084v-4.269c0-.028,0-.056,0-.084a1.7,1.7,0,0,1,1.538-1.548,1.421,1.421,0,0,1,.207-.012H1675.2a.093.093,0,0,1,0,.012A13.239,13.239,0,0,0,1680.526,1416.645Z" transform="translate(-1635.402 -1409.088)" fill="#ffa412"/>
            <g id="Group_50" data-name="Group 50" transform="translate(29.747)">
              <rect id="Rectangle_124" data-name="Rectangle 124" width="0.92" height="7.558" transform="translate(44.361 0)" fill="#ffa412"/>
              <rect id="Rectangle_125" data-name="Rectangle 125" width="0.92" height="7.558" transform="translate(41.246 0)" fill="#ffa412"/>
              <rect id="Rectangle_126" data-name="Rectangle 126" width="0.92" height="7.558" transform="translate(37.511 0)" fill="#ffa412"/>
              <rect id="Rectangle_127" data-name="Rectangle 127" width="0.92" height="7.558" transform="translate(31.786 0)" fill="#ffa412"/>
              <rect id="Rectangle_128" data-name="Rectangle 128" width="0.92" height="7.558" transform="translate(25.731 0)" fill="#ffa412"/>
              <rect id="Rectangle_129" data-name="Rectangle 129" width="0.92" height="7.558" transform="translate(16.45 0)" fill="#ffa412"/>
              <rect id="Rectangle_130" data-name="Rectangle 130" width="0.92" height="7.558" transform="translate(7.76 0)" fill="#ffa412"/>
              <rect id="Rectangle_131" data-name="Rectangle 131" width="0.92" height="7.558" transform="translate(0 0)" fill="#ffa412"/>
              <rect id="Rectangle_132" data-name="Rectangle 132" width="0.92" height="7.558" transform="translate(47.326 0)" fill="#ffa412"/>
              <rect id="Rectangle_133" data-name="Rectangle 133" width="0.92" height="7.558" transform="translate(49.285 0)" fill="#ffa412"/>
              <rect id="Rectangle_134" data-name="Rectangle 134" width="0.92" height="7.558" transform="translate(51.176 0)" fill="#ffa412"/>
              <path id="Path_69" data-name="Path 69" d="M1891.328,1409.113v7.506a2.318,2.318,0,0,1-.346.027h-.575v-7.559h.575A2.286,2.286,0,0,1,1891.328,1409.113Z" transform="translate(-1837.809 -1409.087)" fill="#ffa412"/>
              <path id="Path_70" data-name="Path 70" d="M1895.287,1410.047v6.1a1.951,1.951,0,0,1-.919.615v-7.336A1.953,1.953,0,0,1,1895.287,1410.047Z" transform="translate(-1840.49 -1409.32)" fill="#ffa412"/>
            </g>
          </g>
          <g id="Group_53" data-name="Group 53" transform="translate(0.169 14.93)">
            <path id="Path_71" data-name="Path 71" d="M1687.363,1387.363v4.266a1.445,1.445,0,0,1-.334.918,1.928,1.928,0,0,1-.92.617,2.075,2.075,0,0,1-.357.084l-.114.015h-.015c-.025.005-.051.005-.076.007l-.046,0-.1,0h-80.961a2.058,2.058,0,0,1-1.667-.784,1.447,1.447,0,0,1-.291-.776c0-.031,0-.058,0-.086v-4.266a.8.8,0,0,1,0-.085,1.736,1.736,0,0,1,1.388-1.488,2.21,2.21,0,0,1,.569-.073H1685.4l.1,0a.3.3,0,0,1,.051,0,1.649,1.649,0,0,1,.192.02,2.108,2.108,0,0,1,.357.083,1.23,1.23,0,0,1,.167.064h0a1.907,1.907,0,0,1,.566.356.039.039,0,0,1,.008.01c.008.008.015.012.023.02a1.6,1.6,0,0,1,.154.165A1.452,1.452,0,0,1,1687.363,1387.363Z" transform="translate(-1602.483 -1385.717)" fill="#ffb93e"/>
            <path id="Path_72" data-name="Path 72" d="M1647.606,1393.276h-43.373a1.778,1.778,0,0,1-1.462-.746,1.547,1.547,0,0,1-.286-.814c0-.031,0-.058,0-.086v-4.266a.8.8,0,0,1,0-.085,1.687,1.687,0,0,1,1.393-1.526,1.812,1.812,0,0,1,.354-.035h38.047c.015.058.033.116.051.174a13.217,13.217,0,0,0,5.258,7.372A.075.075,0,0,1,1647.606,1393.276Z" transform="translate(-1602.483 -1385.717)" fill="#ffa412"/>
            <g id="Group_52" data-name="Group 52" transform="translate(29.747 0)">
              <rect id="Rectangle_135" data-name="Rectangle 135" width="0.92" height="7.558" transform="translate(44.361 0)" fill="#ffa412"/>
              <rect id="Rectangle_136" data-name="Rectangle 136" width="0.92" height="7.558" transform="translate(41.247 0)" fill="#ffa412"/>
              <rect id="Rectangle_137" data-name="Rectangle 137" width="0.92" height="7.558" transform="translate(37.511 0)" fill="#ffa412"/>
              <rect id="Rectangle_138" data-name="Rectangle 138" width="0.92" height="7.558" transform="translate(31.786 0)" fill="#ffa412"/>
              <rect id="Rectangle_139" data-name="Rectangle 139" width="0.921" height="7.558" transform="translate(25.732 0)" fill="#ffa412"/>
              <rect id="Rectangle_140" data-name="Rectangle 140" width="0.92" height="7.558" transform="translate(16.45 0)" fill="#ffa412"/>
              <rect id="Rectangle_141" data-name="Rectangle 141" width="0.92" height="7.558" transform="translate(7.76 0)" fill="#ffa412"/>
              <rect id="Rectangle_142" data-name="Rectangle 142" width="0.92" height="7.558" transform="translate(0 0)" fill="#ffa412"/>
              <rect id="Rectangle_143" data-name="Rectangle 143" width="0.92" height="7.558" transform="translate(47.327 0)" fill="#ffa412"/>
              <rect id="Rectangle_144" data-name="Rectangle 144" width="0.92" height="7.558" transform="translate(49.285 0)" fill="#ffa412"/>
              <rect id="Rectangle_145" data-name="Rectangle 145" width="0.92" height="7.558" transform="translate(51.176 0)" fill="#ffa412"/>
              <path id="Path_73" data-name="Path 73" d="M1858.411,1385.744v7.505a2.247,2.247,0,0,1-.345.026h-.575v-7.558h.575A2.2,2.2,0,0,1,1858.411,1385.744Z" transform="translate(-1804.891 -1385.718)" fill="#ffa412"/>
              <path id="Path_74" data-name="Path 74" d="M1862.37,1386.676v6.1a1.95,1.95,0,0,1-.919.615v-7.337A1.955,1.955,0,0,1,1862.37,1386.676Z" transform="translate(-1807.573 -1385.95)" fill="#ffa412"/>
            </g>
          </g>
          <g id="Group_55" data-name="Group 55" transform="translate(6.122 7.547)">
            <path id="Path_75" data-name="Path 75" d="M1705.8,1364.5v4.268a1.45,1.45,0,0,1-.336.919,1.946,1.946,0,0,1-.919.616,2.135,2.135,0,0,1-.359.085,2.3,2.3,0,0,1-.345.026h-80.962a2.233,2.233,0,0,1-.875-.175,1.684,1.684,0,0,1-1.076-1.318c0-.022,0-.045-.005-.067s0-.057,0-.085V1364.5c0-.028,0-.056,0-.084a1.805,1.805,0,0,1,1.725-1.548,2.055,2.055,0,0,1,.231-.012h80.962a2.206,2.206,0,0,1,.345.026,2.1,2.1,0,0,1,.359.084,1.945,1.945,0,0,1,.919.616A1.449,1.449,0,0,1,1705.8,1364.5Z" transform="translate(-1620.918 -1362.853)" fill="#ffb93e"/>
            <path id="Path_76" data-name="Path 76" d="M1666.041,1370.411h-43.374a1.807,1.807,0,0,1-.781-.175,1.656,1.656,0,0,1-.961-1.318c0-.022,0-.045-.005-.067s0-.057,0-.085V1364.5c0-.028,0-.056,0-.084a1.7,1.7,0,0,1,1.54-1.548,1.639,1.639,0,0,1,.207-.012h38.047a.076.076,0,0,1,0,.012,13.256,13.256,0,0,0,5.074,7.372C1665.874,1370.3,1665.957,1370.354,1666.041,1370.411Z" transform="translate(-1620.918 -1362.853)" fill="#ffa412"/>
            <g id="Group_54" data-name="Group 54" transform="translate(29.747)">
              <rect id="Rectangle_146" data-name="Rectangle 146" width="0.92" height="7.558" transform="translate(44.362 0)" fill="#ffa412"/>
              <rect id="Rectangle_147" data-name="Rectangle 147" width="0.92" height="7.558" transform="translate(41.247 0)" fill="#ffa412"/>
              <rect id="Rectangle_148" data-name="Rectangle 148" width="0.92" height="7.558" transform="translate(37.512 0)" fill="#ffa412"/>
              <rect id="Rectangle_149" data-name="Rectangle 149" width="0.92" height="7.558" transform="translate(31.786 0)" fill="#ffa412"/>
              <rect id="Rectangle_150" data-name="Rectangle 150" width="0.92" height="7.558" transform="translate(25.732 0)" fill="#ffa412"/>
              <rect id="Rectangle_151" data-name="Rectangle 151" width="0.92" height="7.558" transform="translate(16.45 0)" fill="#ffa412"/>
              <rect id="Rectangle_152" data-name="Rectangle 152" width="0.921" height="7.558" transform="translate(7.76 0)" fill="#ffa412"/>
              <rect id="Rectangle_153" data-name="Rectangle 153" width="0.921" height="7.558" transform="translate(0 0)" fill="#ffa412"/>
              <rect id="Rectangle_154" data-name="Rectangle 154" width="0.92" height="7.558" transform="translate(47.326 0)" fill="#ffa412"/>
              <rect id="Rectangle_155" data-name="Rectangle 155" width="0.92" height="7.558" transform="translate(49.285 0)" fill="#ffa412"/>
              <rect id="Rectangle_156" data-name="Rectangle 156" width="0.92" height="7.558" transform="translate(51.177 0)" fill="#ffa412"/>
              <path id="Path_77" data-name="Path 77" d="M1876.844,1362.878v7.505a2.29,2.29,0,0,1-.345.026h-.575v-7.558h.575A2.213,2.213,0,0,1,1876.844,1362.878Z" transform="translate(-1823.324 -1362.852)" fill="#ffa412"/>
              <path id="Path_78" data-name="Path 78" d="M1880.8,1363.81v6.105a1.949,1.949,0,0,1-.919.615v-7.337A1.95,1.95,0,0,1,1880.8,1363.81Z" transform="translate(-1826.006 -1363.083)" fill="#ffa412"/>
            </g>
          </g>
          <g id="Group_57" data-name="Group 57" transform="translate(8.656)">
            <path id="Path_79" data-name="Path 79" d="M1713.645,1341.127v4.268a1.453,1.453,0,0,1-.336.919,1.945,1.945,0,0,1-.919.615,2.1,2.1,0,0,1-.358.085c-.038.005-.076.011-.114.015l-.064.005-.064,0-.1,0h-80.962a1.849,1.849,0,0,1-1.956-1.56c0-.028,0-.056,0-.085v-4.268c0-.028,0-.056,0-.084a1.849,1.849,0,0,1,1.956-1.561h80.962a2.252,2.252,0,0,1,.346.027,2.117,2.117,0,0,1,.358.084,1.952,1.952,0,0,1,.919.616A1.452,1.452,0,0,1,1713.645,1341.127Z" transform="translate(-1628.765 -1339.482)" fill="#ffb93e"/>
            <path id="Path_80" data-name="Path 80" d="M1673.888,1347.041h-43.375a1.712,1.712,0,0,1-1.746-1.56c0-.028,0-.056,0-.085v-4.268c0-.028,0-.056,0-.084a1.712,1.712,0,0,1,1.746-1.561h38.048a13.253,13.253,0,0,0,5.309,7.547Z" transform="translate(-1628.765 -1339.482)" fill="#ffa412"/>
            <g id="Group_56" data-name="Group 56" transform="translate(29.747)">
              <rect id="Rectangle_157" data-name="Rectangle 157" width="0.92" height="7.558" transform="translate(44.361 0)" fill="#ffa412"/>
              <rect id="Rectangle_158" data-name="Rectangle 158" width="0.92" height="7.558" transform="translate(41.247 0)" fill="#ffa412"/>
              <rect id="Rectangle_159" data-name="Rectangle 159" width="0.92" height="7.558" transform="translate(37.511 0)" fill="#ffa412"/>
              <rect id="Rectangle_160" data-name="Rectangle 160" width="0.92" height="7.558" transform="translate(31.786 0)" fill="#ffa412"/>
              <rect id="Rectangle_161" data-name="Rectangle 161" width="0.92" height="7.558" transform="translate(25.732 0)" fill="#ffa412"/>
              <rect id="Rectangle_162" data-name="Rectangle 162" width="0.92" height="7.558" transform="translate(16.45 0)" fill="#ffa412"/>
              <rect id="Rectangle_163" data-name="Rectangle 163" width="0.92" height="7.558" transform="translate(7.76 0)" fill="#ffa412"/>
              <rect id="Rectangle_164" data-name="Rectangle 164" width="0.92" height="7.558" transform="translate(0 0)" fill="#ffa412"/>
              <rect id="Rectangle_165" data-name="Rectangle 165" width="0.92" height="7.558" transform="translate(47.326 0)" fill="#ffa412"/>
              <rect id="Rectangle_166" data-name="Rectangle 166" width="0.92" height="7.558" transform="translate(49.285 0)" fill="#ffa412"/>
              <rect id="Rectangle_167" data-name="Rectangle 167" width="0.92" height="7.558" transform="translate(51.176 0)" fill="#ffa412"/>
              <path id="Path_81" data-name="Path 81" d="M1884.692,1339.509v7.505a2.277,2.277,0,0,1-.345.027h-.575v-7.559h.575A2.261,2.261,0,0,1,1884.692,1339.509Z" transform="translate(-1831.172 -1339.482)" fill="#ffa412"/>
              <path id="Path_82" data-name="Path 82" d="M1888.65,1340.441v6.105a1.953,1.953,0,0,1-.92.615v-7.337A1.952,1.952,0,0,1,1888.65,1340.441Z" transform="translate(-1833.852 -1339.714)" fill="#ffa412"/>
            </g>
          </g>
        </g>
        <g id="Group_59" data-name="Group 59" transform="translate(12.434)">
          <path id="Path_83" data-name="Path 83" d="M1770.257,1189.1s-4.252,5.986-8.151,6.07-9.83-2.775-9.83-2.775-3.58-7.977-1.152-11.1a5.213,5.213,0,0,1,4.981.818,7.645,7.645,0,0,1,1.318,1.263,4.182,4.182,0,0,0,2.046,1.387c2.782.847,6.084-1.144,7.319.777a13.057,13.057,0,0,0,2.151,2.546A9.855,9.855,0,0,0,1770.257,1189.1Z" transform="translate(-1714.819 -1180.997)" fill="#ffeddc"/>
          <path id="Path_84" data-name="Path 84" d="M1640.463,1262.008s15.031-36.419,42.085-37.113c0,0,24.973,2.775,26.361,37.113Z" transform="translate(-1640.463 -1210.719)" fill="#ffeddc"/>
          <path id="Path_85" data-name="Path 85" d="M1747.727,1218.455s10.844,2.412,14.19.994c0,0,.506-4.534-4.061-3.9-3.126.435-5.162-1.067-6.359-1.676C1749.8,1213.012,1747.276,1216.558,1747.727,1218.455Z" transform="translate(-1713.054 -1203.167)" fill="#db6a1d"/>
          <path id="Path_86" data-name="Path 86" d="M1771.143,1191.8c-.694.52-2.823-7.333-2.823-7.333a7.638,7.638,0,0,1,1.318,1.263,4.183,4.183,0,0,0,2.046,1.387C1771.691,1187.343,1771.816,1191.29,1771.143,1191.8Z" transform="translate(-1727.032 -1183.344)" fill="#e5c1a1"/>
          <path id="Path_87" data-name="Path 87" d="M1795.645,1197.622c-.153.09-5.168,3.094-5.848,3.094s3.7-5.64,3.7-5.64A13.05,13.05,0,0,0,1795.645,1197.622Z" transform="translate(-1741.524 -1190.529)" fill="#e5c1a1"/>
          <path id="Path_88" data-name="Path 88" d="M1685.924,1274.373c-.278-.238,10.637-16.071,13.643-16.187s9.76,3.469,14.65,3.931,9.63-.925,10.555,1.966,3.469,13.138,1.908,14.778S1691.926,1279.5,1685.924,1274.373Z" transform="translate(-1671.24 -1233.258)" fill="#f9ddbf"/>
        </g>
      </g>
      <path id="Path_89" data-name="Path 89" d="M1639.356,1395.721c0,.02,0,.038-.005.056a36.179,36.179,0,0,1-1.214,7.492.113.113,0,0,0,0,.012c-.1.354-.2.708-.306,1.06a37.015,37.015,0,0,1-2.668,6.487,37.588,37.588,0,0,1-5.086,7.37c-.053.063-.109.127-.164.187a38.99,38.99,0,0,1-8.895,7.373q-1.078.656-2.211,1.252c-.511.268-1.024.521-1.54.767-.493.286-1.014.531-1.505.832a21.029,21.029,0,0,1-5.144,2.117V1427.4c0-.028,0-.056,0-.083,0-.055.01-.109.017-.162a1.372,1.372,0,0,1,.047-.181,1.737,1.737,0,0,1,1.683-1.217h-8.657a1.735,1.735,0,0,1-1.68-1.221,1.325,1.325,0,0,1-.047-.181c-.008-.053-.015-.106-.018-.159,0-.028,0-.056,0-.086v-4.267c0-.028,0-.058,0-.086,0-.053.01-.106.018-.16a1.348,1.348,0,0,1,.047-.181,1.735,1.735,0,0,1,1.68-1.22h3.379a1.659,1.659,0,0,1-.921-1.194c-.007-.036-.01-.071-.016-.106s0-.048,0-.073,0-.055,0-.083v-4.269c0-.028,0-.056,0-.084a1.071,1.071,0,0,1,.018-.159,1.434,1.434,0,0,1,.045-.176,1.732,1.732,0,0,1,1.682-1.225h1.94a1.739,1.739,0,0,1-1.683-1.22,1.484,1.484,0,0,1-.047-.181c-.008-.053-.015-.106-.017-.159v-4.439a1.7,1.7,0,0,1,1.54-1.548h-5.743a1.713,1.713,0,0,1-1.748-1.56.828.828,0,0,1,0-.087v-4.266a.836.836,0,0,1,0-.086c0-.023,0-.046,0-.068a1.687,1.687,0,0,1,1.359-1.449,1.71,1.71,0,0,1-1.518-1.406,1.364,1.364,0,0,1-.015-.142c0-.03,0-.058,0-.085v-4.267c0-.03,0-.058,0-.086,0-.053.01-.106.018-.159a1.343,1.343,0,0,1,.047-.18,1.735,1.735,0,0,1,1.68-1.221h3.379a1.658,1.658,0,0,1-.921-1.193c-.007-.035-.01-.071-.016-.106s0-.048,0-.073,0-.056,0-.086v-4.267c0-.028,0-.058,0-.086a1.1,1.1,0,0,1,.018-.159,1.406,1.406,0,0,1,.045-.176,1.734,1.734,0,0,1,1.682-1.226h6.616a1.732,1.732,0,0,1-1.682-1.223,1.534,1.534,0,0,1-.045-.175,1.2,1.2,0,0,1-.018-.162c0-.028,0-.055,0-.084v-4.268c0-.028,0-.056,0-.084a1.7,1.7,0,0,1,1.538-1.548h-10.42a1.779,1.779,0,0,1-1.462-.746l.005-.038,1.1-6.7,0-.038,1.563-9.562a41.719,41.719,0,0,1,5.365,1.08l.308.083.02.008q1.537.429,3.033.974a.128.128,0,0,1,.028.01,40.091,40.091,0,0,1,12.57,7.373c.066.056.131.114.195.174a37.869,37.869,0,0,1,5.271,5.678q.475.622.918,1.267c.1.141.2.283.291.427a.014.014,0,0,1,.007.013q.717,1.059,1.361,2.172a37.237,37.237,0,0,1,2.562,5.372,35.958,35.958,0,0,1,1.963,7.373c.013.064.02.124.03.187A36.1,36.1,0,0,1,1639.356,1395.721Z" transform="translate(-1547.726 -1299.632)" fill="#e2810e" opacity="0.5"/>
      <g id="Group_63" data-name="Group 63" transform="translate(0 52.358)">
        <path id="Path_90" data-name="Path 90" d="M1448.392,1402.191a39.823,39.823,0,1,1,54.1,15.65A39.824,39.824,0,0,1,1448.392,1402.191Z" transform="translate(-1440.394 -1343.135)" fill="#e2810e"/>
        <path id="Path_91" data-name="Path 91" d="M1494.566,1422.166q-.735.448-1.5.868-.258.143-.515.278c-.393.209-.785.41-1.181.607a39.824,39.824,0,0,1-36.755-70.637q.766-.422,1.543-.806c.5-.251,1.009-.489,1.518-.715a39.765,39.765,0,0,1,11.953-3.214,39.83,39.83,0,0,1,24.933,73.618Z" transform="translate(-1434.014 -1346.651)" fill="#ffb93e"/>
        <g id="Group_61" data-name="Group 61" transform="translate(4.36 6.243)">
          <path id="Path_92" data-name="Path 92" d="M1483.265,1433.845a35.834,35.834,0,0,1-9.967-1.422,35.464,35.464,0,1,1,9.967,1.422Zm-.109-70.413a34.716,34.716,0,1,0,30.464,17.953A34.5,34.5,0,0,0,1483.155,1363.431Z" transform="translate(-1447.515 -1362.469)" fill="#ffa412"/>
        </g>
        <g id="Group_62" data-name="Group 62" transform="translate(23.337 15.733)">
          <path id="Path_93" data-name="Path 93" d="M1540.552,1421.509c-.078-.2-.162-.386-.246-.573a10.444,10.444,0,0,0-2.416-3.451,10.791,10.791,0,0,0-3.8-2.237,18.206,18.206,0,0,0-4.831-.908q-2.667-.164-5.8-.075a28.074,28.074,0,0,1-3.313-.067,8.3,8.3,0,0,1-2.332-.51,4.081,4.081,0,0,1-1.557-1.055,5.54,5.54,0,0,1-.989-1.632,6.04,6.04,0,0,1-.45-1.914,4.114,4.114,0,0,1,.283-1.8,4.4,4.4,0,0,1,1.111-1.573,6.475,6.475,0,0,1,2.031-1.236,5.125,5.125,0,0,1,4.35.041,7.38,7.38,0,0,1,3.289,4.116l8.113-3.293a15.182,15.182,0,0,0-2.656-4.4,11.382,11.382,0,0,0-7.953-3.923,15.023,15.023,0,0,0-4.9.5l-2.3-5.659-4.49,1.823,2.265,5.58a16.844,16.844,0,0,0-4.123,2.934,12.61,12.61,0,0,0-2.6,3.622,10.1,10.1,0,0,0-.955,4.094,11.99,11.99,0,0,0,3.53,8.408,10.62,10.62,0,0,0,3.8,2.224,17.991,17.991,0,0,0,4.834.877,57.153,57.153,0,0,0,5.817-.006,21.59,21.59,0,0,1,3.165.021,8.261,8.261,0,0,1,2.319.515,4.384,4.384,0,0,1,1.624,1.1,5.964,5.964,0,0,1,1.092,1.8,5,5,0,0,1,.388,1.923,4.1,4.1,0,0,1-.433,1.832,5.166,5.166,0,0,1-1.289,1.617,7.794,7.794,0,0,1-2.178,1.279,9.369,9.369,0,0,1-2.381.618,5.444,5.444,0,0,1-2.4-.24,5.583,5.583,0,0,1-2.193-1.418,8.6,8.6,0,0,1-1.775-2.878l-8.112,3.294a14.019,14.019,0,0,0,3.191,4.96,11.519,11.519,0,0,0,4.2,2.621,12.86,12.86,0,0,0,4.775.688,20.248,20.248,0,0,0,4.92-.813l2.095,5.164,4.463-1.812-2.106-5.187a18.115,18.115,0,0,0,4.165-2.908,12.3,12.3,0,0,0,2.514-3.282c.049-.095.1-.19.142-.286a9.967,9.967,0,0,0,.978-4.072A10.96,10.96,0,0,0,1540.552,1421.509Z" transform="translate(-1506.281 -1391.855)" fill="#ffa412"/>
        </g>
      </g>
    </g>
    <g id="Group_71" data-name="Group 71" transform="translate(823.172 517.703)" opacity="0.7">
      <g id="Group_66" data-name="Group 66" transform="translate(9.153 43.673)">
        <path id="Path_94" data-name="Path 94" d="M2349.59,1419.963s7.653-8.928.472-14.6c0,0-5.245-3.176-9.522-2.918,0,0,6.061,10.162,4.1,11.174s-5.937-11.811-5.937-11.811-11.936-1.158-15.776.688c0,0,10.2,8.351,8.055,8.848s-13.171-7.7-13.171-7.7-11.109,1.89-10.517,8.668,4.421,8.87,6.1,8.689,11.524-3.937,11.739-2.559-5.71,5.884-9.858,6.094c0,0,7.832,8.638,13.038,6.145s5.65-6.444,8.894-7.926,6.015-1.479,4.675.033-7.212,2.98-9.068,6.263-3.52,5.5,1.865,4.686,14.14-4.751,14.525-9.264Z" transform="translate(-2307.271 -1401.45)" fill="#77a4e5"/>
        <g id="Group_65" data-name="Group 65" transform="translate(5.482 10.993)">
          <path id="Path_95" data-name="Path 95" d="M2324.246,1435.546s30.174-1.163,36.837,7.467a21.828,21.828,0,0,0,6.008,8.433l.707,1.926s-5.229-5.513-7.1-5.846C2360.7,1447.526,2363.625,1436.834,2324.246,1435.546Z" transform="translate(-2324.246 -1435.494)" fill="#77a4e5"/>
          <path id="Path_96" data-name="Path 96" d="M2453.358,1483.3a18.947,18.947,0,0,1,6.926,13.348l-1.175.1s-2.068-8.849-5.807-12.309S2453.358,1483.3,2453.358,1483.3Z" transform="translate(-2410.512 -1467.349)" fill="#77a4e5"/>
        </g>
      </g>
      <g id="Group_68" data-name="Group 68" transform="translate(68.015 27.09)">
        <path id="Path_97" data-name="Path 97" d="M2496.607,1377.889s-10.731-6.01-5.723-14.165c0,0,4.006-5.008,8.3-6.3,0,0-2.29,12.162,0,12.448s1.574-13.736,1.574-13.736,11.3-5.437,15.739-5.008c0,0-7.011,11.876-4.722,11.59s10.159-12.305,10.159-12.305,11.59-2.146,13.45,4.722-1.144,10.3-2.862,10.732-12.735.286-12.448,1.717,7.727,3.72,11.876,2.433c0,0-4.579,11.3-10.588,10.731s-7.87-4.292-11.591-4.579-6.438.716-4.579,1.717,8.156.328,11.161,2.883,5.437,4.128-.143,5.273-15.6.429-17.6-3.863Z" transform="translate(-2489.552 -1350.099)" fill="#77a4e5"/>
        <g id="Group_67" data-name="Group 67" transform="translate(1.387 7.186)">
          <path id="Path_98" data-name="Path 98" d="M2538.881,1372.351s-30.048,9.729-33.482,20.6a22.817,22.817,0,0,1-2.861,10.445v2.146s3.147-7.3,4.865-8.3C2507.4,1397.248,2500.677,1387.8,2538.881,1372.351Z" transform="translate(-2499.731 -1372.351)" fill="#77a4e5"/>
          <path id="Path_99" data-name="Path 99" d="M2496.654,1465.7a19.818,19.818,0,0,0-1.991,15.6l1.192-.32s-1.157-9.434,1.267-14.18S2496.654,1465.7,2496.654,1465.7Z" transform="translate(-2493.848 -1434.653)" fill="#77a4e5"/>
        </g>
      </g>
      <g id="Group_70" data-name="Group 70">
        <path id="Path_100" data-name="Path 100" d="M2337.789,1307.762s16.047-8.987,8.558-21.182c0,0-5.991-7.489-12.41-9.414,0,0,3.424,18.187,0,18.615s-2.353-20.54-2.353-20.54-16.9-8.131-23.536-7.489c0,0,10.484,17.759,7.061,17.331s-15.192-18.4-15.192-18.4-17.33-3.21-20.112,7.061,1.711,15.405,4.279,16.047,19.042.428,18.615,2.568-11.553,5.563-17.759,3.637c0,0,6.846,16.9,15.833,16.047s11.768-6.419,17.331-6.847,9.628,1.07,6.847,2.568-12.2.491-16.689,4.31-8.13,6.174.214,7.885,23.322.642,26.318-5.777Z" transform="translate(-2278.928 -1266.207)" fill="#9fc1f4"/>
        <g id="Group_69" data-name="Group 69" transform="translate(8.794 10.745)">
          <path id="Path_101" data-name="Path 101" d="M2306.162,1299.481s44.932,14.55,50.066,30.811a34.136,34.136,0,0,0,4.28,15.619v3.209s-4.707-10.912-7.275-12.409C2353.233,1336.71,2363.289,1322.589,2306.162,1299.481Z" transform="translate(-2306.162 -1299.481)" fill="#9fc1f4"/>
          <path id="Path_102" data-name="Path 102" d="M2469.956,1439.074s6.929,10.523,2.979,23.331l-1.783-.479s1.731-14.108-1.895-21.2S2469.956,1439.074,2469.956,1439.074Z" transform="translate(-2415.61 -1392.644)" fill="#9fc1f4"/>
        </g>
      </g>
      <path id="Path_103" data-name="Path 103" d="M2401.9,1534.546a27.709,27.709,0,0,1-27.71-27.71h55.419A27.71,27.71,0,0,1,2401.9,1534.546Z" transform="translate(-2343.432 -1429.132)" fill="#9fc1f4"/>
      <rect id="Rectangle_168" data-name="Rectangle 168" width="56.961" height="0.85" transform="translate(87.094 78.554) rotate(180)" fill="#77a4e5"/>
      <path id="Path_104" data-name="Path 104" d="M2442.253,1587.987h-25.944a2.222,2.222,0,0,1,2.222-2.222h21.5a2.222,2.222,0,0,1,2.223,2.222Z" transform="translate(-2371.946 -1482.574)" fill="#77a4e5"/>
    </g>
    <g id="Group_72" data-name="Group 72" transform="translate(352.753 407.145)">
      <path id="Path_105" data-name="Path 105" d="M1182.155,953.765c-35.654,29.03-78.369,51.345-126.961,66.326-39.469,12.164-83.2,19.619-129.979,22.158-12.757.693-25.182.995-37.141.995-24.184,0-46.483-1.229-65.917-2.94l7.864-37.2a693.691,693.691,0,0,0,93.377,1.453c44.024-2.385,85.024-9.354,121.854-20.7,44.319-13.665,83.082-33.853,115.2-60.013Z" transform="translate(-822.156 -923.837)" fill="#f77d48"/>
    </g>
    <g id="Group_74" data-name="Group 74" transform="translate(372.348 361.433)">
      <path id="Path_106" data-name="Path 106" d="M1030.952,783.734a11.3,11.3,0,0,0-8.931-.956c-15.17-1.781-19.6,15.91-19.389,22s.9,12.626-5.875,20.534c-19.569,22.844,21.416,23.851,21.416,23.851.346-18.251,22.225-11.592,21.266-9.742C1067.485,846.15,1042.228,789.584,1030.952,783.734Z" transform="translate(-956.386 -782.277)" fill="#163560"/>
      <path id="Path_107" data-name="Path 107" d="M898.886,1012.3s-2.668-4.061-4.818-4.141-6.132-1.195-5.814-.4,2.788.876,3.026,1.354-3.663,1.194-4.778,1.274-3.743,0-3.663.558,4.737,2.867,8.022,2.548a22.292,22.292,0,0,1,7.347.956Z" transform="translate(-882.838 -934.757)" fill="#ffb27d"/>
      <path id="Path_108" data-name="Path 108" d="M967.721,958.489a40.038,40.038,0,0,1-4.081,6.171c-3.17,3.971-8.058,8.558-14.2,9.463a15.235,15.235,0,0,1-8.433-1.369l-.01,0c-7.454-3.309-13.058-10.917-13.058-10.917a6.129,6.129,0,0,1,.836-6.013s15.051,3.385,16.484,2.668,9.8-24.8,11.785-27.832,8.777-4.6,8.777-4.6Z" transform="translate(-913.091 -879.629)" fill="#f99746"/>
      <path id="Path_109" data-name="Path 109" d="M991.931,1028.872c-3.17,3.971-8.058,8.558-14.2,9.463a15.234,15.234,0,0,1-8.433-1.369c.291.038,7.736.958,10.7-4.35,3.027-5.416,6.3-14.016,10.8-11.15C992.741,1022.7,992.655,1025.779,991.931,1028.872Z" transform="translate(-941.382 -943.842)" fill="#ed7d2b"/>
      <path id="Path_110" data-name="Path 110" d="M1191.015,1525.434s4.593,4.191,3.7,7.169-5.041,4.963-5.6,8.6-2.8,5.625-4.817,5.625h-9.613s-1.484-2.561,2.1-3.333,4.936-5.049,4.712-9.019a70.067,70.067,0,0,1,.336-9.265l7.617-1.765Z" transform="translate(-1080.234 -1284.111)" fill="#36599e"/>
      <path id="Path_111" data-name="Path 111" d="M1050.661,1535.107s1.652,17.755-.364,18.748l-25.8-.053s0-2.978,4.144-3.64,11.425-3.088,12.657-8.492S1050.661,1535.107,1050.661,1535.107Z" transform="translate(-978.751 -1292.004)" fill="#2b478b"/>
      <path id="Path_112" data-name="Path 112" d="M1071.434,960.535c-5.31-11.908-8.559-15.326-7.938-19.022.462-2.751-1.406-51.289-1.406-51.289-.63-.2-1.893-.37-2.583-.524a6.476,6.476,0,0,1-4.731-4.114,33.01,33.01,0,0,1-1.606-10.952l-.68.134-11.437,2.264s.26,3.6.268,6.99c0,.028,0,.056,0,.084a6.578,6.578,0,0,1-4.747,6.361c-1.445.417-2.7.773-2.7.773a104.88,104.88,0,0,0-5,24.307c-.8,12.317,7.636,17.668-.063,42.281C1020.946,982.967,1074.367,967.115,1071.434,960.535Z" transform="translate(-981.136 -844.811)" fill="#ffb27d"/>
      <path id="Path_113" data-name="Path 113" d="M1068.387,877.313s.26,3.6.268,6.99c6.4-.181,9.783-6.019,11.169-9.255Z" transform="translate(-1008.47 -845.091)" fill="#e8945b"/>
      <path id="Path_114" data-name="Path 114" d="M1051.194,838.432s15.142.249,15.152-9.183,1.972-15.752-7.7-16.31-11.549,3.039-12.318,6.186S1047.255,838.124,1051.194,838.432Z" transform="translate(-993.414 -802.999)" fill="#ffb27d"/>
      <path id="Path_115" data-name="Path 115" d="M1063.5,808.326s4.146,11.065,10.508,12.7,9.122-.069,9.122-.069a18.019,18.019,0,0,1-5.893-10.644S1066.631,803.059,1063.5,808.326Z" transform="translate(-1005.164 -798.616)" fill="#163560"/>
      <path id="Path_116" data-name="Path 116" d="M1050.61,811.344s-3.074,1.149-4.339,3.392a15.245,15.245,0,0,0-2.047,8.659s-3.124-7.521.387-11.775C1048.332,807.108,1050.61,811.344,1050.61,811.344Z" transform="translate(-991.242 -800.736)" fill="#163560"/>
      <path id="Path_117" data-name="Path 117" d="M1060.505,872.776a3.805,3.805,0,0,1-3.135,1.276,2.784,2.784,0,0,1-2.333-1.54A10.174,10.174,0,0,1,1060.505,872.776Z" transform="translate(-999.431 -843.194)" fill="#ebf3fa"/>
      <path id="Path_118" data-name="Path 118" d="M1069.245,944.379a102.808,102.808,0,0,1,0,11.927c-.256,4.312-4.618,10.088-5.237,11.517-1.552,3.583-3.3,4.166-3.3,4.166l-13.548,3.321-4.763,1.166-15.022-4.487s-6.842-19.1-4.095-29.848a82.629,82.629,0,0,1,6.945-18.216s12.257,12,28.218-1.018Z" transform="translate(-977.486 -877.495)" fill="#f99746"/>
      <path id="Path_119" data-name="Path 119" d="M1023.656,1083.878s-7.439,23.156-7.917,31.039,14.221,111.994,14.812,115.627c.557,3.424,4.809,5.607,4.809,5.607a6.433,6.433,0,0,0,4.747.365c3.872-1.093,5.1-2.4,5.1-2.4s5.791-74.251,2.208-100.775a420.029,420.029,0,0,1-3.626-49.461Z" transform="translate(-972.815 -986.485)" fill="#233862"/>
      <path id="Path_120" data-name="Path 120" d="M1076.934,1081.74s11.347,15.226,12.405,25.518,1.66,46.445,3.914,56.479,10.535,29.342,10.535,60.638a6.244,6.244,0,0,1-3.518,2.749,29.006,29.006,0,0,1-3.094.855,4.863,4.863,0,0,1-5.44-2.583c-5.6-11.272-23.432-47.627-24.346-55.173-.647-5.341-6.278-40.686-18.56-61.426-2.948-4.979,1.81-24.781,1.81-24.781Z" transform="translate(-994.575 -985.038)" fill="#2b478b"/>
      <path id="Path_121" data-name="Path 121" d="M1059.86,873.176s-.262,1.111-3.027.94c0,0-2.322-.144-2.251-1.365A7.469,7.469,0,0,1,1059.86,873.176Z" transform="translate(-999.122 -843.342)" fill="#fff"/>
      <path id="Path_122" data-name="Path 122" d="M1035.715,1072.809s2.987,2.362,8.919,2.482c7.086.142,24.646-1.807,24.646-1.807a14.524,14.524,0,0,1,.749,4.481s-21.447,5.41-33.873.791A7.854,7.854,0,0,1,1035.715,1072.809Z" transform="translate(-986.063 -978.991)" fill="#233862"/>
      <g id="Group_73" data-name="Group 73" transform="translate(53.638 95.087)">
        <path id="Path_123" data-name="Path 123" d="M1052.176,1084.057a3.688,3.688,0,1,1,3.234-3.66A3.471,3.471,0,0,1,1052.176,1084.057Zm0-6.247a2.63,2.63,0,1,0,2.162,2.587A2.406,2.406,0,0,0,1052.176,1077.81Z" transform="translate(-1048.942 -1076.738)" fill="#fff"/>
      </g>
      <rect id="Rectangle_169" data-name="Rectangle 169" width="29.135" height="39.881" transform="matrix(0.754, -0.657, 0.657, 0.754, 58.144, 87.063)" fill="#b5453c"/>
      <path id="Path_124" data-name="Path 124" d="M1108.37,1086s-8.05.941-8.025,2.852,2.005,5.837,3,6.011,6.552-5.309,6.552-5.309Z" transform="translate(-1030.109 -987.92)" fill="#ffb27d"/>
      <path id="Path_125" data-name="Path 125" d="M1123.306,922.907s10.748.753,14.869,10.77,11.938,26.832,11.938,29.661-4.367,11.55-27.819,16.564c0,0-2.426-2.551-2.278-4.569,0,0,14.639-12.574,14.6-14.043-.075-2.78-2.4-6.45-15.253-19.307C1115.868,938.486,1123.306,922.907,1123.306,922.907Z" transform="translate(-1042.352 -877.495)" fill="#f99746"/>
    </g>
    <g id="Group_86" data-name="Group 86" transform="translate(212.723 405.465)">
      <g id="Group_82" data-name="Group 82">
        <g id="Group_77" data-name="Group 77" transform="translate(4.779 73.527)">
          <g id="Group_75" data-name="Group 75" transform="translate(2.078 70.157)">
            <path id="Path_126" data-name="Path 126" d="M410.974,1438.569h-.106a1.115,1.115,0,0,1-1.114-1.141l1.69-73.259,4.979-.581-4.246,73.845A1.2,1.2,0,0,1,410.974,1438.569Z" transform="translate(-409.753 -1363.589)" fill="#95c0f4"/>
          </g>
          <g id="Group_76" data-name="Group 76" transform="translate(77.912 70.157)">
            <path id="Path_127" data-name="Path 127" d="M650.04,1438.569h.106a1.115,1.115,0,0,0,1.114-1.141l-1.69-73.259-4.979-.581,4.246,73.845A1.2,1.2,0,0,0,650.04,1438.569Z" transform="translate(-644.591 -1363.589)" fill="#b0d4ff"/>
          </g>
          <path id="Path_128" data-name="Path 128" d="M403.318,1212.524v-50.2a15.994,15.994,0,0,1,15.994-15.994H455.48a15.994,15.994,0,0,1,15.994,15.994v52.119Z" transform="translate(-403.318 -1146.33)" fill="#b0d4ff"/>
          <path id="Rectangle_170" data-name="Rectangle 170" d="M0,0H74.636a0,0,0,0,1,0,0V7.925a0,0,0,0,1,0,0H7.925A7.925,7.925,0,0,1,0,0V0A0,0,0,0,1,0,0Z" transform="translate(0 66.194)" fill="#95c0f4"/>
          <path id="Rectangle_171" data-name="Rectangle 171" d="M3.962,0H55.972a3.963,3.963,0,0,1,3.963,3.963v0a3.963,3.963,0,0,1-3.963,3.963H3.963A3.963,3.963,0,0,1,0,3.963v0A3.962,3.962,0,0,1,3.962,0Z" transform="translate(26.621 66.194)" fill="#b0d4ff"/>
        </g>
        <g id="Group_81" data-name="Group 81">
          <path id="Path_129" data-name="Path 129" d="M572.635,1309.484c-5.182,9.018-11.7,12.5-11.7,12.5H533.824S576.587,1302.6,572.635,1309.484Z" transform="translate(-486.902 -1182.271)" fill="#233862"/>
          <g id="Group_78" data-name="Group 78">
            <path id="Path_130" data-name="Path 130" d="M588.174,1481.5a2.506,2.506,0,0,0-.447,2.681.02.02,0,0,0,.006.014c.647,1.787,2.783,3.782,5.265,5.775.317.256.6.489.845.7.065.057.13.113.19.17l.146.132c2.314,2.133,1.443,2.622,5.6,6.95,4.74,4.932,8,5.021,8.932,4.572.786-.384-.81-3-2.579-5.939-.086-.141-.17-.285-.258-.429-.236-.391-.469-.787-.7-1.18-2.072-3.539-1.54-5.2-1.049-10.465.4-4.279,6.658-23.908,6.658-23.908l-9.084-1.565s-2.736,15.63-5.75,18.037c-1.612,1.283-3.416,1.3-4.965,2.25q-.165.1-.323.2A11.916,11.916,0,0,0,588.174,1481.5Z" transform="translate(-523.264 -1284.514)" fill="#ffb27d"/>
            <path id="Path_131" data-name="Path 131" d="M588.174,1524.037a2.506,2.506,0,0,0-.447,2.681.02.02,0,0,0,.006.014c.792,1.785,2.874,3.771,5.273,5.757.313.26.59.5.836.723.065.057.13.113.19.17l.146.132c2.314,2.133,1.443,2.622,5.6,6.95,4.74,4.932,8,5.021,8.932,4.572.786-.384-.81-3-2.579-5.939a20.2,20.2,0,0,1-8.45-6.226c-2.854-3.642-4.758-8.323-6.7-11.033q-.165.1-.323.2A11.919,11.919,0,0,0,588.174,1524.037Z" transform="translate(-523.264 -1327.051)" fill="#233862"/>
            <path id="Path_132" data-name="Path 132" d="M801.131,1470.031c.561,2.8,4.558,2.336,9.024,1.245s3.4.206,9.76-.5,8.281-3.073,8.475-4.018c.174-.839-2.967-1.134-6.335-1.522-.423-.047-.849-.1-1.274-.152-3.8-.477-6.588-2.931-10.043-4.947-3.272-1.909-8.155-9.687-8.155-9.687l-8.716.69s4.574,6.947,6.343,9.968c1.04,1.776.986,4.126.855,5.94A11.187,11.187,0,0,0,801.131,1470.031Z" transform="translate(-662.971 -1278.718)" fill="#ffb27d"/>
            <path id="Path_133" data-name="Path 133" d="M825.109,1502.278c4.465-1.092,3.4.206,9.76-.5s8.281-3.074,8.475-4.018c.174-.839-2.967-1.134-6.335-1.522l-.031.065a17.915,17.915,0,0,1-9.1,2.829c-4.312.1-8.879-1.131-11.857-1.083a11.186,11.186,0,0,0,.067,2.982C816.646,1503.837,820.643,1503.369,825.109,1502.278Z" transform="translate(-677.925 -1309.72)" fill="#233862"/>
            <path id="Path_134" data-name="Path 134" d="M650.229,1309.2l-8.148,21.925-10.637,28.628a17.246,17.246,0,0,1-5.651-.516,24.5,24.5,0,0,1-5.466-2.661s2.954-30.738,8.464-48.383c1.412-4.529,2.994-8.193,4.741-10.255C642.074,1287.841,650.229,1309.2,650.229,1309.2Z" transform="translate(-545.472 -1173.617)" fill="#233862"/>
            <path id="Path_135" data-name="Path 135" d="M522.024,1221.483c-5.338-1.722-20.562.489-35.857,3.483l-3.2-5.282-33.034-2.58s-10.9,24.174-4.933,39.577a5.586,5.586,0,0,0,5.591,3.763s.481,0,.483,0,19.661-.011,26.045-.011c16.428,0,34.768-11.293,37.14-11.767,3.884-.777,5.437,6.99,9.32,15.145s36.5,36.114,36.5,36.114,5.013.049,7.085-.727a6.978,6.978,0,0,0,3.042-1.92S534.062,1225.366,522.024,1221.483Z" transform="translate(-425.551 -1120.722)" fill="#2b478b"/>
            <path id="Path_136" data-name="Path 136" d="M444.888,921.407c-4.232-2.222-10.671-2.523-11.717-2.663-12.518-1.682-20.052,16.507-20.495,22.019-.817,10.159-6.191,11.708-13.755,18.07-15.168,12.757-10.72,27.581-2.426,33.089,4.976,3.305,13.747,0,13.747,0,.124.087,23.988-13.34,35.751-19.817C463.628,969.6,455.671,927.07,444.888,921.407Z" transform="translate(-388.773 -918.634)" fill="#b5453c"/>
            <path id="Path_137" data-name="Path 137" d="M501.437,1028.36c.052.033-5.787,2.027-9.692.3-3.674-1.624-6.456-7.667-6.4-7.671,1.671-.077,3.505-1.538,4.918-11.124l.712.255,11.964,4.3s-.867,3.839-1.428,7.494C501.038,1024.985,500.784,1027.926,501.437,1028.36Z" transform="translate(-454.076 -980.403)" fill="#ffb27d"/>
            <path id="Path_138" data-name="Path 138" d="M514.743,1014.959s-.867,3.839-1.428,7.494c-6.872-1.237-9.569-8.083-10.536-11.8Z" transform="translate(-465.882 -980.939)" fill="#ed975d"/>
            <path id="Path_139" data-name="Path 139" d="M514.012,975.413s-16.369-2.2-14.844-12.37.439-17.307,10.955-16.334,11.959,5.158,12.276,8.677S518.309,975.722,514.012,975.413Z" transform="translate(-463.37 -937.583)" fill="#ffb27d"/>
            <path id="Path_140" data-name="Path 140" d="M511.955,947.924s-10.479,9.03-17.606,9.758-9.826-1.559-9.826-1.559a27.831,27.831,0,0,0,6.729-9.118,5.012,5.012,0,0,1,4.131-2.954C500.474,943.612,510.121,943.411,511.955,947.924Z" transform="translate(-453.521 -935.697)" fill="#b5453c"/>
            <path id="Path_141" data-name="Path 141" d="M549.187,949.888s3.506,3.389,4.61,5.9c1.066,2.426,1.385,8.228.537,10.533,0,0,5.462-10.62,2.37-15.78C553.424,945.073,549.187,949.888,549.187,949.888Z" transform="translate(-497.304 -938.47)" fill="#b5453c"/>
            <path id="Path_142" data-name="Path 142" d="M485.767,1074.988c-.5,33.134-.136,26.21-3.76,29.354-.873.757-3.329,1.208-6.56,1.422-10.16.675-28.02-1-28.7-2.877-2.344-6.5-.689-8.515-2.644-18.462-.2-1.058-.456-2.2-.752-3.45-1.63-6.831-3.217-9.155,2.567-20.131,5.245-9.942,10.694-18.011,11.184-17.719,13.838,8.214,14.954,1.31,14.954,1.31S486.009,1058.826,485.767,1074.988Z" transform="translate(-424.622 -1002.919)" fill="#8c9df4"/>
            <path id="Path_143" data-name="Path 143" d="M642.081,1358.307l-10.637,28.628a17.244,17.244,0,0,1-5.651-.516,24.492,24.492,0,0,1-5.466-2.661s2.954-30.738,8.464-48.383Z" transform="translate(-545.472 -1200.802)" fill="#2b478b"/>
            <path id="Path_144" data-name="Path 144" d="M535.407,1047.191s14.239,2.414,15.911,8.544,11.511,42.171,11.511,42.171-7.239,1.3-10.582-2.043-11.636-31.024-11.636-31.024Z" transform="translate(-487.974 -1005.678)" fill="#8c9df4"/>
            <path id="Path_145" data-name="Path 145" d="M480.188,1163.443c-10.16.675-28.02-1-28.7-2.877-2.344-6.5-.689-8.515-2.644-18.462l4.9-13.8s-.81,15.366,3.722,19.408,18.554,7.8,20.757,11.179A12.356,12.356,0,0,1,480.188,1163.443Z" transform="translate(-429.364 -1060.598)" fill="#6980e2"/>
            <path id="Path_146" data-name="Path 146" d="M509.859,1213.851s10.023-2.232,11.641-1.342,5.57,4.129,6.065,5.257-3.6-.856-4.933-1.213c-.863-.232-3.134.557-4.258.932-4.731,1.577-7.629.766-7.629.766Z" transform="translate(-470.676 -1117.469)" fill="#ffb27d"/>
            <path id="Path_147" data-name="Path 147" d="M420.989,1043.118s-13.459.829-18.118,7.328c-6.558,9.147-19.569,48.132-12.113,53.332,8.4,5.856,38.218,1.532,38.218,1.532s.992-4.638-.388-6.882-23.818-5.868-24.854-6.9,12.945-20.194,12.945-23.3S420.989,1043.118,420.989,1043.118Z" transform="translate(-388.519 -1002.92)" fill="#8c9df4"/>
            <path id="Path_148" data-name="Path 148" d="M547.411,1221.588a19.369,19.369,0,0,0,2.789,3.032,2.055,2.055,0,0,0,1.133.243l-1.415-2.547Z" transform="translate(-496.102 -1123.758)" fill="#ffb27d"/>
            <path id="Path_149" data-name="Path 149" d="M545.908,1212.948l6.106,2.965a1.089,1.089,0,0,1-1.012.391,14.6,14.6,0,0,1-2.648-.728Z" transform="translate(-495.084 -1117.909)" fill="#ffb27d"/>
          </g>
          <g id="Group_80" data-name="Group 80" transform="translate(35.981 68.879)">
            <g id="Group_79" data-name="Group 79">
              <path id="Path_150" data-name="Path 150" d="M549.207,1168.069h51.517l15.5-36.132H564.783Z" transform="translate(-533.299 -1131.937)" fill="#f77d48"/>
              <path id="Path_151" data-name="Path 151" d="M567.972,1236.58H499.944v2.282h67.424Z" transform="translate(-499.944 -1202.789)" fill="#f77d48"/>
            </g>
            <path id="Path_152" data-name="Path 152" d="M657.974,1183.062a1.7,1.7,0,0,0-1.749-2.3,3.485,3.485,0,0,0-3.157,2.3,1.7,1.7,0,0,0,1.75,2.3A3.486,3.486,0,0,0,657.974,1183.062Z" transform="translate(-603.555 -1164.995)" fill="#ebf3fa"/>
          </g>
        </g>
      </g>
      <g id="Group_85" data-name="Group 85" transform="translate(29.782 105.012)">
        <g id="Group_83" data-name="Group 83" transform="translate(142.591 5.257)">
          <path id="Path_153" data-name="Path 153" d="M929.52,1369.512h.141a1.56,1.56,0,0,0,1.474-1.664L928.9,1260.958l-6.584-.848,5.615,107.746A1.67,1.67,0,0,0,929.52,1369.512Z" transform="translate(-922.315 -1260.11)" fill="#233862"/>
        </g>
        <g id="Group_84" data-name="Group 84" transform="translate(9.387 5.257)">
          <path id="Path_154" data-name="Path 154" d="M511.429,1369.512h-.14a1.56,1.56,0,0,1-1.474-1.664l2.235-106.891,6.585-.848-5.615,107.746A1.669,1.669,0,0,1,511.429,1369.512Z" transform="translate(-509.815 -1260.11)" fill="#233862"/>
        </g>
        <path id="Rectangle_172" data-name="Rectangle 172" d="M3.825,0H150.964a3.824,3.824,0,0,1,3.824,3.824v0a3.825,3.825,0,0,1-3.825,3.825H3.824A3.824,3.824,0,0,1,0,3.825v0A3.825,3.825,0,0,1,3.825,0Z" fill="#233862"/>
      </g>
    </g>
    <rect id="Rectangle_173" data-name="Rectangle 173" width="815.387" height="3.478" rx="1.739" transform="translate(128.981 623.116)" fill="#2e3552"/>
  </g>
</svg>
