<svg xmlns="http://www.w3.org/2000/svg" width="28.333" height="30" viewBox="0 0 28.333 30">
  <g id="dddddddddddd" transform="translate(-1.744 -1.744)">
    <g id="Layer_2" data-name="Layer 2">
      <g id="Group_21542" data-name="Group 21542">
        <path id="Path_18070" data-name="Path 18070" d="M13.953,31.744a3.837,3.837,0,1,1,3.837-3.837,3.837,3.837,0,0,1-3.837,3.837Zm0-5.581A1.744,1.744,0,1,0,15.7,27.907,1.744,1.744,0,0,0,13.953,26.163Z" fill="#e965ee"/>
        <path id="Path_18071" data-name="Path 18071" d="M25.116,31.744a3.837,3.837,0,1,1,3.837-3.837,3.837,3.837,0,0,1-3.837,3.837Zm0-5.581a1.744,1.744,0,1,0,1.744,1.744A1.744,1.744,0,0,0,25.116,26.163Z" fill="#e965ee"/>
        <path id="Path_18072" data-name="Path 18072" d="M22.326,28.953H16.744a1.047,1.047,0,1,1,0-2.093h5.581a1.047,1.047,0,1,1,0,2.093Z" fill="#e965ee"/>
        <path id="Path_18073" data-name="Path 18073" d="M11.163,28.953H9.7a2.442,2.442,0,0,1-2.442-2.3L6,4.162a.349.349,0,0,0-.349-.325H2.791a1.047,1.047,0,1,1,0-2.093h2.86a2.442,2.442,0,0,1,2.442,2.3L9.349,26.541a.349.349,0,0,0,.35.322h1.464a1.047,1.047,0,1,1,0,2.093Z" fill="#e965ee"/>
        <path id="Path_18074" data-name="Path 18074" d="M24.181,23.372H8.065a1.047,1.047,0,1,1,0-2.093H24.181A1.739,1.739,0,0,0,25.9,19.853L27.98,8.436a.343.343,0,0,0-.077-.279.357.357,0,0,0-.279-.128H12.558a1.047,1.047,0,1,1,0-2.093h15.07a2.449,2.449,0,0,1,2.411,2.879L27.96,20.233a3.83,3.83,0,0,1-3.779,3.14Z" fill="#e965ee"/>
      </g>
      <path id="Path_18075" data-name="Path 18075" d="M18.14,18.488a1.047,1.047,0,0,1-1.047-1.047V11.86a1.047,1.047,0,0,1,2.093,0v5.581A1.047,1.047,0,0,1,18.14,18.488Z" fill="#e965ee"/>
      <path id="Path_18076" data-name="Path 18076" d="M20.93,15.7H15.349a1.047,1.047,0,1,1,0-2.093H20.93a1.047,1.047,0,0,1,0,2.093Z" fill="#e965ee"/>
    </g>
  </g>
</svg>
