<svg xmlns="http://www.w3.org/2000/svg" width="19.028" height="30" viewBox="0 0 19.028 30">
  <g id="noun-location-1570212" transform="translate(-204.4 -50.445)">
    <path id="Path_26158" data-name="Path 26158" d="M213.914,50.445a9.291,9.291,0,0,0-9.514,9.514,15.37,15.37,0,0,0,1.738,6.392l7.456,13.905a.366.366,0,0,0,.64,0l7.456-13.905a15.376,15.376,0,0,0,1.738-6.392,9.291,9.291,0,0,0-9.514-9.514Zm0,.732a8.51,8.51,0,0,1,8.782,8.782A15.069,15.069,0,0,1,221.05,66l-7.136,13.311L206.779,66a15.07,15.07,0,0,1-1.647-6.038,8.51,8.51,0,0,1,8.782-8.782Zm0,4.391a4.391,4.391,0,1,0,4.391,4.391A4.4,4.4,0,0,0,213.914,55.568Zm0,.732a3.659,3.659,0,1,1-3.659,3.659A3.654,3.654,0,0,1,213.914,56.3Z" fill="#e965ee"/>
  </g>
</svg>
