<?xml version="1.0" encoding="UTF-8"?><svg xmlns="http://www.w3.org/2000/svg" width="211.704" height="49.752" viewBox="0 0 358.06 85.92"><defs><style>.d{fill:#444;}.e{fill:#f47c20;}</style></defs><g id="a"/><g id="b"><g id="c"><g><g><path class="d" d="M5.58,80.28c-3.72-3.76-5.58-8.8-5.58-15.12V20.64C0,14.4,1.86,9.4,5.58,5.64,9.3,1.88,14.24,0,20.4,0s11.22,1.86,14.94,5.58,5.58,8.74,5.58,15.06v2.04c0,.8-.4,1.2-1.2,1.2l-6.24,.36c-.8,0-1.2-.4-1.2-1.2v-3c0-3.76-1.08-6.8-3.24-9.12-2.16-2.32-5.04-3.48-8.64-3.48s-6.38,1.16-8.58,3.48c-2.2,2.32-3.3,5.36-3.3,9.12v45.84c0,3.76,1.1,6.8,3.3,9.12,2.2,2.32,5.06,3.48,8.58,3.48s6.48-1.16,8.64-3.48c2.16-2.32,3.24-5.36,3.24-9.12v-3c0-.8,.4-1.2,1.2-1.2l6.24,.36c.8,0,1.2,.4,1.2,1.2v1.92c0,6.32-1.88,11.36-5.64,15.12-3.76,3.76-8.72,5.64-14.88,5.64s-11.1-1.88-14.82-5.64Z"/><path class="d" d="M85.44,83.88l-3-14.88c0-.16-.06-.28-.18-.36-.12-.08-.26-.12-.42-.12h-21.72c-.16,0-.3,.04-.42,.12-.12,.08-.18,.2-.18,.36l-3,14.88c-.08,.72-.52,1.08-1.32,1.08h-6.12c-.4,0-.7-.12-.9-.36-.2-.24-.26-.56-.18-.96L66,2.04c.16-.72,.6-1.08,1.32-1.08h7.2c.8,0,1.24,.36,1.32,1.08l18.24,81.6v.24c0,.72-.36,1.08-1.08,1.08h-6.24c-.72,0-1.16-.36-1.32-1.08Zm-24-22.32h18.96c.24,0,.36-.16,.36-.48l-9.6-47.16c-.08-.24-.16-.36-.24-.36s-.16,.12-.24,.36l-9.6,47.16c0,.32,.12,.48,.36,.48Z"/><path class="d" d="M104.28,83.76V2.16c0-.8,.4-1.2,1.2-1.2h18.48c6.16,0,11.08,2.02,14.76,6.06,3.68,4.04,5.52,9.46,5.52,16.26V62.64c0,6.8-1.84,12.22-5.52,16.26-3.68,4.04-8.6,6.06-14.76,6.06h-18.48c-.8,0-1.2-.4-1.2-1.2Zm9-6.24l10.56-.12c3.52,0,6.34-1.36,8.46-4.08,2.12-2.72,3.22-6.4,3.3-11.04V23.64c0-4.72-1.04-8.44-3.12-11.16-2.08-2.72-4.96-4.08-8.64-4.08h-10.56c-.32,0-.48,.16-.48,.48V77.04c0,.32,.16,.48,.48,.48Z"/><path class="d" d="M242.88,.96h6c.8,0,1.2,.4,1.2,1.2V83.76c0,.8-.4,1.2-1.2,1.2h-7.08c-.64,0-1.08-.32-1.32-.96l-23.4-62.04c-.08-.24-.2-.34-.36-.3-.16,.04-.24,.18-.24,.42l.12,61.68c0,.8-.4,1.2-1.2,1.2h-6.12c-.8,0-1.2-.4-1.2-1.2V2.16c0-.8,.4-1.2,1.2-1.2h6.96c.64,0,1.08,.32,1.32,.96l23.52,62.16c.08,.24,.2,.34,.36,.3,.16-.04,.24-.18,.24-.42V2.16c0-.8,.4-1.2,1.2-1.2Z"/><path class="e" d="M270.78,80.28c-3.72-3.76-5.58-8.8-5.58-15.12V20.64c0-6.24,1.86-11.24,5.58-15,3.72-3.76,8.66-5.64,14.82-5.64s11.22,1.86,14.94,5.58,5.58,8.74,5.58,15.06v2.04c0,.8-.4,1.2-1.2,1.2l-6.24,.36c-.8,0-1.2-.4-1.2-1.2v-3c0-3.76-1.08-6.8-3.24-9.12-2.16-2.32-5.04-3.48-8.64-3.48s-6.38,1.16-8.58,3.48c-2.2,2.32-3.3,5.36-3.3,9.12v45.84c0,3.76,1.1,6.8,3.3,9.12,2.2,2.32,5.06,3.48,8.58,3.48s6.48-1.16,8.64-3.48c2.16-2.32,3.24-5.36,3.24-9.12v-3c0-.8,.4-1.2,1.2-1.2l6.24,.36c.8,0,1.2,.4,1.2,1.2v1.92c0,6.32-1.88,11.36-5.64,15.12-3.76,3.76-8.72,5.64-14.88,5.64s-11.1-1.88-14.82-5.64Z"/><path class="d" d="M332.76,83.64V47.76c0-.32-.04-.52-.12-.6L315.96,2.4l-.12-.48c0-.64,.36-.96,1.08-.96h6.48c.72,0,1.2,.32,1.44,.96l11.76,35.16c.08,.16,.2,.24,.36,.24s.28-.08,.36-.24L349.08,1.92c.24-.64,.72-.96,1.44-.96h6.48c.4,0,.7,.14,.9,.42,.2,.28,.22,.62,.06,1.02l-16.56,44.76c-.08,.08-.12,.28-.12,.6v35.88c0,.8-.4,1.2-1.2,1.2h-6.12c-.8,0-1.2-.4-1.2-1.2Z"/></g><g><rect class="e" x="159.24" y="39.12" width="27.58" height="7.55" rx=".95" ry=".95"/><rect class="e" x="159.24" y="77.41" width="38.03" height="7.55" rx=".95" ry=".95"/><rect class="e" x="159.24" y=".95" width="38.03" height="7.55" rx=".95" ry=".95"/></g></g></g></g></svg>