<svg xmlns="http://www.w3.org/2000/svg" width="211.704" height="49.752" viewBox="0 0 211.704 49.752">
  <g id="Modified_Version" transform="translate(-22.3 -10.4)">
    <g id="Group_12706" data-name="Group 12706" transform="translate(22.3 10.4)">
      <path id="Path_11737" data-name="Path 11737" d="M29.053,48.693a14.113,14.113,0,0,1-5-6.326A25.332,25.332,0,0,1,22.3,32.493a26.918,26.918,0,0,1,1.667-10,13.718,13.718,0,0,1,4.83-6.369A12.745,12.745,0,0,1,36.234,13.9,13.853,13.853,0,0,1,43.8,15.866a13.3,13.3,0,0,1,4.915,5.471l-3.12,1.838a11.064,11.064,0,0,0-3.89-4.4,10.38,10.38,0,0,0-5.471-1.325,8.16,8.16,0,0,0-7.224,3.975c-1.71,2.607-2.565,6.283-2.565,10.985a23.658,23.658,0,0,0,1.2,7.993,11.224,11.224,0,0,0,3.419,5.172,8.016,8.016,0,0,0,5.172,1.8,9.128,9.128,0,0,0,5.728-1.624,14.955,14.955,0,0,0,3.8-5.129l3.291,1.966a15.145,15.145,0,0,1-4.958,6.2,12.637,12.637,0,0,1-7.352,2.137A13.472,13.472,0,0,1,29.053,48.693Z" transform="translate(-22.3 -12.404)" fill="#252422"/>
      <path id="Path_11738" data-name="Path 11738" d="M404.056,64.021a11.532,11.532,0,0,1-4.317-4.616,15.4,15.4,0,0,1,0-13.421,11.432,11.432,0,0,1,4.274-4.616,11.751,11.751,0,0,1,6.24-1.667,10.2,10.2,0,0,1,5.172,1.282,14.323,14.323,0,0,1,4.018,3.59l-2.607,2.009a7.751,7.751,0,0,0-6.582-3.676,8.242,8.242,0,0,0-4.4,1.24,8.561,8.561,0,0,0-3.035,3.462,12,12,0,0,0,0,10.087,8.292,8.292,0,0,0,3.035,3.462,8.136,8.136,0,0,0,4.4,1.24,7.98,7.98,0,0,0,7.01-3.377L420,60.943a13.216,13.216,0,0,1-4.232,3.419,11.807,11.807,0,0,1-5.428,1.282A11.305,11.305,0,0,1,404.056,64.021Z" transform="translate(-237.53 -27.176)" fill="#252422"/>
      <g id="Group_12698" data-name="Group 12698" transform="translate(68.773)">
        <path id="Path_11739" data-name="Path 11739" d="M200.639,60.53a7.863,7.863,0,0,1-.94.727,8.177,8.177,0,0,1-4.445,1.24,7.991,7.991,0,0,1-4.36-1.24,8.467,8.467,0,0,1-2.992-3.462,11.413,11.413,0,0,1-1.111-5.086,11.042,11.042,0,0,1,1.111-5,8.749,8.749,0,0,1,2.992-3.462,7.991,7.991,0,0,1,4.36-1.24,8.283,8.283,0,0,1,4.445,1.24,7.863,7.863,0,0,1,.94.727V41.3a6.326,6.326,0,0,0-.556-.342,10.251,10.251,0,0,0-4.873-1.154,11.6,11.6,0,0,0-6.2,1.667,11.907,11.907,0,0,0-4.274,4.573,14.2,14.2,0,0,0-1.539,6.668,14.427,14.427,0,0,0,1.539,6.753,11.532,11.532,0,0,0,4.317,4.616,11.858,11.858,0,0,0,6.24,1.667,10.154,10.154,0,0,0,4.787-1.154c.171-.085.342-.214.513-.3V60.53Z" transform="translate(-183.2 -27.234)" fill="#252422"/>
        <path id="Path_11740" data-name="Path 11740" d="M231.4,10.4V27.412h0v17.14h0v3.59h3.548V10.4Z" transform="translate(-210.798 -10.4)" fill="#252422"/>
      </g>
      <g id="Group_12699" data-name="Group 12699" transform="translate(129.681 12.524)">
        <path id="Path_11741" data-name="Path 11741" d="M329.248,57.985V41.7H325.7V65.978h3.548Z" transform="translate(-325.7 -40.845)" fill="#252422"/>
        <path id="Path_11742" data-name="Path 11742" d="M354.394,43.8a8.476,8.476,0,0,0-3.419-3.077,10.812,10.812,0,0,0-4.7-1.026,8.764,8.764,0,0,0-4.744,1.282c-.043.043-.086.043-.128.085v3.163a7.014,7.014,0,0,1,4.317-1.325c4.274,0,6.454,2.394,6.454,7.224v14.7h3.548V48.59A9.215,9.215,0,0,0,354.394,43.8Z" transform="translate(-334.689 -39.7)" fill="#252422"/>
      </g>
      <g id="Group_12700" data-name="Group 12700" transform="translate(34.964 12.566)">
        <path id="Path_11743" data-name="Path 11743" d="M121.539,60.53a7.863,7.863,0,0,1-.94.727,8.177,8.177,0,0,1-4.445,1.24,7.991,7.991,0,0,1-4.36-1.24,8.467,8.467,0,0,1-2.992-3.462,11.413,11.413,0,0,1-1.111-5.086,11.042,11.042,0,0,1,1.111-5,8.749,8.749,0,0,1,2.992-3.462,7.991,7.991,0,0,1,4.36-1.24,8.283,8.283,0,0,1,4.445,1.24,7.863,7.863,0,0,1,.94.727V41.3a6.327,6.327,0,0,0-.556-.342,10.251,10.251,0,0,0-4.873-1.154,11.6,11.6,0,0,0-6.2,1.667,11.907,11.907,0,0,0-4.274,4.573,14.2,14.2,0,0,0-1.539,6.668,14.427,14.427,0,0,0,1.539,6.753,11.533,11.533,0,0,0,4.317,4.616,11.858,11.858,0,0,0,6.24,1.667,10.154,10.154,0,0,0,4.787-1.154c.171-.085.342-.214.513-.3V60.53Z" transform="translate(-104.1 -39.8)" fill="#252422"/>
        <path id="Path_11744" data-name="Path 11744" d="M152.3,41.7v3.633h0V62.387h0v3.59h3.548V41.7Z" transform="translate(-131.698 -40.888)" fill="#252422"/>
      </g>
      <g id="Group_12701" data-name="Group 12701" transform="translate(188.923 13.378)">
        <path id="Path_11745" data-name="Path 11745" d="M474.3,57.515,467.976,41.7H464.3l8.249,20.431Z" transform="translate(-464.3 -41.7)" fill="#ff7d00"/>
        <path id="Path_11746" data-name="Path 11746" d="M492.036,41.7l-5.685,14.746-3.847,10h0l-.214.6-2.607,6.8V73.8l-.983,2.565h3.5L495.327,41.7Z" transform="translate(-472.545 -41.7)" fill="#252422"/>
      </g>
      <g id="Group_12702" data-name="Group 12702" transform="translate(104.292 13.378)">
        <rect id="Rectangle_2712" data-name="Rectangle 2712" width="12.395" height="3.163" transform="translate(0 10.557)" fill="#ff7d00"/>
        <rect id="Rectangle_2713" data-name="Rectangle 2713" width="16.029" height="3.206" transform="translate(0 21.072)" fill="#ff7d00"/>
        <rect id="Rectangle_2714" data-name="Rectangle 2714" width="15.858" height="3.291" fill="#ff7d00"/>
      </g>
      <g id="Group_12705" data-name="Group 12705" transform="translate(69.286 40.178)">
        <g id="Group_12704" data-name="Group 12704">
          <g id="Group_12703" data-name="Group 12703">
            <path id="Path_11747" data-name="Path 11747" d="M187.178,115.428a2.675,2.675,0,0,1-2.265-1.325v2.907H184.4v-7.181h.513v1.24a2.622,2.622,0,0,1,2.265-1.368,2.7,2.7,0,0,1,2.65,2.821v.043A2.743,2.743,0,0,1,187.178,115.428Zm2.094-2.864a2.174,2.174,0,0,0-2.137-2.351,2.265,2.265,0,0,0-2.223,2.351h0a2.292,2.292,0,0,0,2.223,2.351,2.15,2.15,0,0,0,2.137-2.351Z" transform="translate(-184.4 -107.435)" fill="#252422"/>
            <path id="Path_11748" data-name="Path 11748" d="M204.678,115.485a2.781,2.781,0,0,1-2.778-2.821h0a2.827,2.827,0,0,1,2.821-2.864,2.781,2.781,0,0,1,2.778,2.821v.043A2.845,2.845,0,0,1,204.678,115.485Zm2.223-2.864a2.246,2.246,0,1,0-4.488,0v.043a2.273,2.273,0,0,0,2.265,2.351,2.329,2.329,0,0,0,2.223-2.394Z" transform="translate(-194.42 -107.492)" fill="#252422"/>
            <path id="Path_11749" data-name="Path 11749" d="M224.9,115.457h-.47l-1.624-4.7-1.624,4.7h-.47l-2.009-5.514h.6l1.667,4.787,1.667-4.83h.427l1.667,4.83,1.667-4.787h.556Z" transform="translate(-204.039 -107.549)" fill="#252422"/>
            <path id="Path_11750" data-name="Path 11750" d="M244.393,114.915a2.526,2.526,0,0,0,1.881-.855l.385.342a2.855,2.855,0,0,1-2.265,1.026,2.724,2.724,0,0,1-2.693-2.864h0a2.709,2.709,0,0,1,2.607-2.864,2.594,2.594,0,0,1,2.522,2.864h0v.214h-4.573A2.167,2.167,0,0,0,244.393,114.915Zm1.838-2.607a2.055,2.055,0,0,0-1.966-2.137,2.121,2.121,0,0,0-2.009,2.137Z" transform="translate(-217.208 -107.435)" fill="#252422"/>
            <path id="Path_11751" data-name="Path 11751" d="M261.864,110.353c-1.282,0-2.351.94-2.351,2.736v2.223H259v-5.428h.513v1.539a2.549,2.549,0,0,1,2.436-1.624v.6h-.085Z" transform="translate(-227.114 -107.489)" fill="#252422"/>
            <path id="Path_11752" data-name="Path 11752" d="M271.993,114.915a2.526,2.526,0,0,0,1.881-.855l.385.342a2.855,2.855,0,0,1-2.265,1.026,2.724,2.724,0,0,1-2.693-2.864h0a2.708,2.708,0,0,1,2.607-2.864,2.594,2.594,0,0,1,2.522,2.864h0v.214H269.9A2.079,2.079,0,0,0,271.993,114.915Zm1.8-2.607a2.055,2.055,0,0,0-1.966-2.137,2.121,2.121,0,0,0-2.009,2.137Z" transform="translate(-233.011 -107.435)" fill="#252422"/>
            <path id="Path_11753" data-name="Path 11753" d="M290.615,112.379v-1.24a2.622,2.622,0,0,1-2.265,1.368,2.7,2.7,0,0,1-2.65-2.821h0a2.716,2.716,0,0,1,2.65-2.864,2.675,2.675,0,0,1,2.265,1.325V104.6h.513v7.822h-.513Zm0-2.778a2.292,2.292,0,0,0-2.223-2.351,2.127,2.127,0,0,0-2.137,2.351v.043a2.174,2.174,0,0,0,2.137,2.351,2.3,2.3,0,0,0,2.223-2.394Z" transform="translate(-242.402 -104.515)" fill="#252422"/>
            <path id="Path_11754" data-name="Path 11754" d="M316.878,112.45a2.675,2.675,0,0,1-2.265-1.325v1.2H314.1V104.5h.513v3.59a2.622,2.622,0,0,1,2.265-1.368,2.7,2.7,0,0,1,2.65,2.821v.043A2.77,2.77,0,0,1,316.878,112.45Zm2.094-2.864a2.174,2.174,0,0,0-2.137-2.351,2.265,2.265,0,0,0-2.223,2.351h0a2.292,2.292,0,0,0,2.223,2.351,2.174,2.174,0,0,0,2.137-2.351Z" transform="translate(-258.663 -104.457)" fill="#252422"/>
            <path id="Path_11755" data-name="Path 11755" d="M333.535,115.585c-.47,1.154-1.026,1.539-1.838,1.539a2.2,2.2,0,0,1-1.069-.256l.171-.47a2.038,2.038,0,0,0,.94.214c.556,0,.94-.342,1.368-1.282L330.5,109.9h.6l2.265,4.873,1.966-4.873h.6Z" transform="translate(-268.053 -107.549)" fill="#252422"/>
            <path id="Path_11756" data-name="Path 11756" d="M360.279,112.78H357.8V105.3h2.479a3.734,3.734,0,0,1,3.975,3.719h0A3.768,3.768,0,0,1,360.279,112.78Zm3.419-3.761a3.213,3.213,0,0,0-3.419-3.248h-1.923v6.454h1.923a3.157,3.157,0,0,0,3.419-3.206Z" transform="translate(-283.684 -104.915)" fill="#252422"/>
            <path id="Path_11757" data-name="Path 11757" d="M381.989,115.3v-.9a2.553,2.553,0,0,1-2.094,1.026,1.9,1.9,0,0,1-2.094-1.71v-.043c0-1.154.983-1.8,2.394-1.8a5.325,5.325,0,0,1,1.8.256v-.256a1.568,1.568,0,0,0-1.8-1.667,3.614,3.614,0,0,0-1.71.427l-.214-.47a4.129,4.129,0,0,1,1.923-.47,2,2,0,0,1,2.265,2.137v3.419h-.47Zm.043-2.693a6.764,6.764,0,0,0-1.838-.256c-1.154,0-1.8.513-1.8,1.282v.043c0,.812.769,1.24,1.581,1.24a1.86,1.86,0,0,0,2.052-1.667Z" transform="translate(-295.136 -107.435)" fill="#252422"/>
            <path id="Path_11758" data-name="Path 11758" d="M395.951,113.209a1.4,1.4,0,0,1-1.539-1.5v-3.59H393.6v-.47h.812V105.9h.513v1.752h1.923v.47h-1.923v3.5a.98.98,0,0,0,1.111,1.069,1.542,1.542,0,0,0,.812-.214V113A1.987,1.987,0,0,1,395.951,113.209Z" transform="translate(-304.182 -105.259)" fill="#252422"/>
            <path id="Path_11759" data-name="Path 11759" d="M409.789,115.3v-.9a2.553,2.553,0,0,1-2.094,1.026,1.9,1.9,0,0,1-2.094-1.71v-.043c0-1.154.983-1.8,2.394-1.8a5.325,5.325,0,0,1,1.8.256v-.256a1.568,1.568,0,0,0-1.8-1.667,3.614,3.614,0,0,0-1.71.427l-.214-.47a4.129,4.129,0,0,1,1.923-.47,2,2,0,0,1,2.265,2.137v3.419h-.47Zm.043-2.693a6.765,6.765,0,0,0-1.838-.256c-1.154,0-1.8.513-1.8,1.282v.043c0,.812.769,1.24,1.581,1.24a1.86,1.86,0,0,0,2.052-1.667Z" transform="translate(-311.053 -107.435)" fill="#252422"/>
            <path id="Path_11760" data-name="Path 11760" d="M423.923,115.328a3.621,3.621,0,0,1-2.223-.812l.3-.427a3.2,3.2,0,0,0,1.966.727c.727,0,1.325-.427,1.325-1.026v-.043c0-.641-.684-.9-1.453-1.111-.9-.256-1.881-.513-1.881-1.5V111.1c0-.9.727-1.5,1.8-1.5a3.778,3.778,0,0,1,1.923.6l-.3.427a3.107,3.107,0,0,0-1.667-.556c-.769,0-1.24.427-1.24.94v.043c0,.6.727.855,1.539,1.069.9.256,1.8.556,1.8,1.539v.043A1.671,1.671,0,0,1,423.923,115.328Z" transform="translate(-320.272 -107.377)" fill="#252422"/>
            <path id="Path_11761" data-name="Path 11761" d="M438.978,115.485a2.781,2.781,0,0,1-2.778-2.821h0a2.827,2.827,0,0,1,2.821-2.864,2.781,2.781,0,0,1,2.778,2.821v.043A2.845,2.845,0,0,1,438.978,115.485Zm2.223-2.864a2.246,2.246,0,1,0-4.488,0v.043a2.273,2.273,0,0,0,2.265,2.351,2.3,2.3,0,0,0,2.223-2.394Z" transform="translate(-328.574 -107.492)" fill="#252422"/>
            <path id="Path_11762" data-name="Path 11762" d="M456.136,104.87c-.769,0-1.111.47-1.111,1.368v.513h1.923v.47h-1.923v5h-.513v-5H453.7v-.427h.812v-.556c0-1.2.6-1.838,1.624-1.838a2.314,2.314,0,0,1,.812.128v.513A2.128,2.128,0,0,0,456.136,104.87Z" transform="translate(-338.594 -104.4)" fill="#252422"/>
            <path id="Path_11763" data-name="Path 11763" d="M466.751,113.209a1.4,1.4,0,0,1-1.539-1.5v-3.59H464.4v-.47h.812V105.9h.513v1.752h1.923v.47h-1.923v3.5a.98.98,0,0,0,1.111,1.069,1.542,1.542,0,0,0,.812-.214V113A2.133,2.133,0,0,1,466.751,113.209Z" transform="translate(-344.721 -105.259)" fill="#252422"/>
          </g>
        </g>
      </g>
    </g>
  </g>
</svg>
