<svg xmlns="http://www.w3.org/2000/svg" width="26.644" height="19" viewBox="0 0 26.644 19">
  <g id="Group_23124" data-name="Group 23124" transform="translate(12954.171 -946.784)">
    <g id="Group_23120" data-name="Group 23120" transform="translate(-12954.171 946.784)">
      <g id="Group_23118" data-name="Group 23118" transform="translate(0 8.573)">
        <g id="Group_23108" data-name="Group 23108" transform="translate(0 0)">
          <path id="Path_26143" data-name="Path 26143" d="M144.022,234.815h-3.96a3.237,3.237,0,0,0-3.233,3.233V244.6a.647.647,0,0,0,.647.647h9.133a.647.647,0,0,0,.647-.647v-6.547A3.237,3.237,0,0,0,144.022,234.815Z" transform="translate(-136.829 -234.815)" fill="#219ebc"/>
        </g>
      </g>
      <g id="Group_23119" data-name="Group 23119" transform="translate(1.325 0)">
        <g id="Group_23110" data-name="Group 23110" transform="translate(0)">
          <path id="Path_26144" data-name="Path 26144" d="M171,38.84a3.888,3.888,0,1,0,3.889,3.889A3.893,3.893,0,0,0,171,38.84Z" transform="translate(-167.114 -38.84)" fill="#219ebc"/>
        </g>
      </g>
    </g>
    <g id="Group_23121" data-name="Group 23121" transform="translate(-12942.965 950.562)">
      <g id="Group_23118-2" data-name="Group 23118" transform="translate(0 6.868)">
        <g id="Group_23108-2" data-name="Group 23108" transform="translate(0 0)">
          <path id="Path_26143-2" data-name="Path 26143" d="M142.592,234.815h-3.173a2.593,2.593,0,0,0-2.59,2.59v5.245a.518.518,0,0,0,.518.518h7.317a.518.518,0,0,0,.518-.518v-5.245A2.593,2.593,0,0,0,142.592,234.815Z" transform="translate(-136.829 -234.815)" fill="#219ebc"/>
        </g>
      </g>
      <g id="Group_23119-2" data-name="Group 23119" transform="translate(1.061 0)">
        <g id="Group_23110-2" data-name="Group 23110" transform="translate(0)">
          <path id="Path_26144-2" data-name="Path 26144" d="M170.229,38.84a3.115,3.115,0,1,0,3.115,3.115A3.119,3.119,0,0,0,170.229,38.84Z" transform="translate(-167.114 -38.84)" fill="#219ebc"/>
        </g>
      </g>
    </g>
    <g id="Group_23122" data-name="Group 23122" transform="translate(-12933.832 954.294)">
      <g id="Group_23118-3" data-name="Group 23118" transform="translate(0 5.184)">
        <g id="Group_23108-3" data-name="Group 23108" transform="translate(0 0)">
          <path id="Path_26143-3" data-name="Path 26143" d="M141.179,234.815h-2.395a1.958,1.958,0,0,0-1.955,1.955v3.959a.391.391,0,0,0,.391.391h5.523a.391.391,0,0,0,.391-.391V236.77A1.957,1.957,0,0,0,141.179,234.815Z" transform="translate(-136.829 -234.815)" fill="#219ebc"/>
        </g>
      </g>
      <g id="Group_23119-3" data-name="Group 23119" transform="translate(0.801 0)">
        <g id="Group_23110-3" data-name="Group 23110" transform="translate(0)">
          <path id="Path_26144-3" data-name="Path 26144" d="M169.465,38.84a2.351,2.351,0,1,0,2.351,2.351A2.354,2.354,0,0,0,169.465,38.84Z" transform="translate(-167.114 -38.84)" fill="#219ebc"/>
        </g>
      </g>
    </g>
  </g>
</svg>
