<svg xmlns="http://www.w3.org/2000/svg" width="60" height="43.448" viewBox="0 0 60 43.448">
  <g id="programming-3441201" transform="translate(-11.379 -11.379)">
    <path id="Path_17928" data-name="Path 17928" d="M17.586,41.379a1.034,1.034,0,1,1-1.034-1.034,1.034,1.034,0,0,1,1.034,1.034" fill="#5c5c5c"/>
    <path id="Path_17929" data-name="Path 17929" d="M21.724,41.379a1.034,1.034,0,1,1-1.034-1.034,1.034,1.034,0,0,1,1.034,1.034" fill="#5c5c5c"/>
    <path id="Path_17936" data-name="Path 17936" d="M21.724,41.379a1.034,1.034,0,1,1-1.034-1.034,1.034,1.034,0,0,1,1.034,1.034" transform="translate(4.138)" fill="#5c5c5c"/>
    <path id="Path_17930" data-name="Path 17930" d="M66.8,46.551H15.962a4.593,4.593,0,0,1-4.583-4.583V15.961a4.593,4.593,0,0,1,4.583-4.583H66.8a4.593,4.593,0,0,1,4.583,4.583V41.969A4.593,4.593,0,0,1,66.8,46.551Zm-50.835-33.1a2.513,2.513,0,0,0-2.514,2.514V41.969a2.513,2.513,0,0,0,2.514,2.514H66.8a2.513,2.513,0,0,0,2.514-2.514V15.962A2.513,2.513,0,0,0,66.8,13.448Z" fill="#5c5c5c"/>
    <path id="Path_17931" data-name="Path 17931" d="M51.724,54.827H31.034a1.034,1.034,0,1,1,0-2.069H51.724a1.034,1.034,0,0,1,0,2.069Z" fill="#5c5c5c"/>
    <path id="Path_17932" data-name="Path 17932" d="M45.517,54.827H37.241a1.035,1.035,0,0,1-1.034-1.034V45.517a1.035,1.035,0,0,1,1.034-1.034h8.276a1.034,1.034,0,0,1,1.034,1.035v8.276a1.034,1.034,0,0,1-1.035,1.034Zm-7.241-2.069h6.207V46.551H38.276Z" fill="#5c5c5c"/>
    <g id="row-3866088" transform="translate(28.843 17.583)">
      <path id="Path_17938" data-name="Path 17938" d="M25.073,4.038V18.786A2.212,2.212,0,0,1,22.86,21H2.212A2.212,2.212,0,0,1,0,18.786V4.038A2.212,2.212,0,0,1,2.212,1.826H22.86A2.212,2.212,0,0,1,25.073,4.038ZM1.475,7.725v2.95H23.6V7.725ZM5.9,3.3H2.212a.737.737,0,0,0-.737.737V6.25H5.9ZM1.475,12.15V15.1H5.9V12.15Zm0,4.425v2.212a.737.737,0,0,0,.737.737H5.9v-2.95ZM13.274,3.3V6.25H17.7V3.3Zm0,8.849V15.1H17.7V12.15Zm0,4.425v2.95H17.7v-2.95ZM7.374,3.3V6.25H11.8V3.3Zm0,8.849V15.1H11.8V12.15Zm0,4.425v2.95H11.8v-2.95ZM19.173,3.3V6.25H23.6V4.038A.737.737,0,0,0,22.86,3.3Zm0,8.849V15.1H23.6V12.15Zm0,4.425v2.95H22.86a.737.737,0,0,0,.738-.738V16.574Z" fill="#5c5c5c"/>
    </g>
  </g>
</svg>
