<svg xmlns="http://www.w3.org/2000/svg" width="60" height="43.448" viewBox="0 0 60 43.448">
  <g id="programming-3441201" transform="translate(-11.379 -11.379)">
    <path id="Path_17928" data-name="Path 17928" d="M17.586,41.379a1.034,1.034,0,1,1-1.034-1.034,1.034,1.034,0,0,1,1.034,1.034" fill="#5c5c5c"/>
    <path id="Path_17929" data-name="Path 17929" d="M21.724,41.379a1.034,1.034,0,1,1-1.034-1.034,1.034,1.034,0,0,1,1.034,1.034" fill="#5c5c5c"/>
    <path id="Path_17929-2" data-name="Path 17929" d="M21.724,41.379a1.034,1.034,0,1,1-1.034-1.034,1.034,1.034,0,0,1,1.034,1.034" transform="translate(4.138)" fill="#5c5c5c"/>
    <path id="Path_17930" data-name="Path 17930" d="M66.8,46.551H15.962a4.593,4.593,0,0,1-4.583-4.583V15.961a4.593,4.593,0,0,1,4.583-4.583H66.8a4.593,4.593,0,0,1,4.583,4.583V41.969A4.593,4.593,0,0,1,66.8,46.551Zm-50.835-33.1a2.513,2.513,0,0,0-2.514,2.514V41.969a2.513,2.513,0,0,0,2.514,2.514H66.8a2.513,2.513,0,0,0,2.514-2.514V15.962A2.513,2.513,0,0,0,66.8,13.448Z" fill="#5c5c5c"/>
    <path id="Path_17931" data-name="Path 17931" d="M51.724,54.827H31.034a1.034,1.034,0,1,1,0-2.069H51.724a1.034,1.034,0,0,1,0,2.069Z" fill="#5c5c5c"/>
    <path id="Path_17932" data-name="Path 17932" d="M45.517,54.827H37.241a1.035,1.035,0,0,1-1.034-1.034V45.517a1.035,1.035,0,0,1,1.034-1.034h8.276a1.034,1.034,0,0,1,1.034,1.035v8.276a1.034,1.034,0,0,1-1.035,1.034Zm-7.241-2.069h6.207V46.551H38.276Z" fill="#5c5c5c"/>
    <path id="Path_17933" data-name="Path 17933" d="M35.172,36.207a1.033,1.033,0,0,1-.734-.3L28.231,29.7a1.034,1.034,0,0,1,0-1.469l6.207-6.207a1.038,1.038,0,1,1,1.469,1.469l-5.483,5.473,5.483,5.473a1.034,1.034,0,0,1-.734,1.769Z" fill="#5c5c5c"/>
    <path id="Path_17934" data-name="Path 17934" d="M47.586,36.207a1.034,1.034,0,0,1-.734-1.769l5.483-5.473-5.483-5.473a1.038,1.038,0,1,1,1.469-1.469l6.207,6.207a1.034,1.034,0,0,1,0,1.469L48.32,35.906a1.033,1.033,0,0,1-.734.3Z" fill="#5c5c5c"/>
    <path id="Path_17935" data-name="Path 17935" d="M39.31,36.207a1.282,1.282,0,0,1-.331,0,1.034,1.034,0,0,1-.652-1.314l4.138-12.414a1.037,1.037,0,1,1,1.966.662L40.293,35.555a1.034,1.034,0,0,1-.983.652Z" fill="#5c5c5c"/>
  </g>
</svg>
