<svg id="Group_21305" data-name="Group 21305" xmlns="http://www.w3.org/2000/svg" width="20" height="18.927" viewBox="0 0 20 18.927">
  <g id="Group_21304" data-name="Group 21304">
    <g id="Group_21303" data-name="Group 21303">
      <path id="Path_18021" data-name="Path 18021" d="M18.125,2.458a6.4,6.4,0,0,0-9.041,0L1.335,10.208a4.566,4.566,0,0,0,6.458,6.458l7.1-7.1a2.74,2.74,0,0,0-3.875-3.875L6.376,10.332a.913.913,0,0,0,1.291,1.292l4.645-4.645A.913.913,0,1,1,13.6,8.27l-7.1,7.1A2.74,2.74,0,1,1,2.627,11.5L10.376,3.75a4.566,4.566,0,1,1,6.458,6.457L9.084,17.957a.913.913,0,1,0,1.292,1.292L18.125,11.5a6.392,6.392,0,0,0,0-9.041Z" transform="translate(0.002 -0.589)" fill="#ddd"/>
    </g>
  </g>
</svg>
