<svg xmlns="http://www.w3.org/2000/svg" xmlns:xlink="http://www.w3.org/1999/xlink" width="28" height="28" viewBox="0 0 28 28">
  <defs>
    <clipPath id="clip-path">
      <rect id="Rectangle_3466" data-name="Rectangle 3466" width="28" height="28" transform="translate(266 328)" fill="#09a191"/>
    </clipPath>
  </defs>
  <g id="Mask_Group_384" data-name="Mask Group 384" transform="translate(-266 -328)" clip-path="url(#clip-path)">
    <g id="Group_21126" data-name="Group 21126" transform="translate(266 328.218)">
      <g id="Group_21119" data-name="Group 21119" transform="translate(0)">
        <g id="Group_21118" data-name="Group 21118">
          <path id="Path_17943" data-name="Path 17943" d="M27.9,22.026l-1.626-4.733A11.829,11.829,0,1,0,3.822,11.941a8.619,8.619,0,0,0-2.616,10.59l-1.12,3.26A1.537,1.537,0,0,0,2.04,27.746l3.26-1.12a8.656,8.656,0,0,0,3.685.832H9a8.606,8.606,0,0,0,6.959-3.539,11.865,11.865,0,0,0,4.888-1.2l4.733,1.626A1.829,1.829,0,0,0,27.9,22.026ZM9,25.791H8.988a6.971,6.971,0,0,1-3.238-.8.834.834,0,0,0-.661-.052L1.747,26.084,2.9,22.741a.834.834,0,0,0-.052-.661,6.95,6.95,0,0,1,1.133-8.057,11.874,11.874,0,0,0,9.9,9.767,6.932,6.932,0,0,1-4.876,2Zm17.289-3.057a.151.151,0,0,1-.167.038l-5.067-1.741a.833.833,0,0,0-.661.052,10.181,10.181,0,0,1-4.729,1.174h-.016a10.158,10.158,0,1,1,8.988-5.418.833.833,0,0,0-.052.661l1.741,5.067a.151.151,0,0,1-.039.167Z" transform="translate(-0.002 -0.266)" fill="#09a191"/>
        </g>
      </g>
      <g id="Group_21121" data-name="Group 21121" transform="translate(9.849 7.411)">
        <g id="Group_21120" data-name="Group 21120">
          <path id="Path_17944" data-name="Path 17944" d="M22.725,9.266h-9.93a.833.833,0,1,0,0,1.667h9.93a.833.833,0,0,0,0-1.667Z" transform="translate(-11.961 -9.266)" fill="#09a191"/>
        </g>
      </g>
      <g id="Group_21123" data-name="Group 21123" transform="translate(9.849 10.839)">
        <g id="Group_21122" data-name="Group 21122">
          <path id="Path_17945" data-name="Path 17945" d="M22.725,13.428h-9.93a.833.833,0,1,0,0,1.667h9.93a.833.833,0,0,0,0-1.667Z" transform="translate(-11.961 -13.428)" fill="#09a191"/>
        </g>
      </g>
      <g id="Group_21125" data-name="Group 21125" transform="translate(9.848 14.267)">
        <g id="Group_21124" data-name="Group 21124">
          <path id="Path_17946" data-name="Path 17946" d="M18.9,17.59H12.794a.833.833,0,1,0,0,1.667H18.9a.833.833,0,0,0,0-1.667Z" transform="translate(-11.961 -17.59)" fill="#09a191"/>
        </g>
      </g>
    </g>
  </g>
</svg>
