<svg id="Group_20093" data-name="Group 20093" xmlns="http://www.w3.org/2000/svg" width="30" height="21.453" viewBox="0 0 30 21.453">
  <g id="Group_20087" data-name="Group 20087">
    <g id="Group_20078" data-name="Group 20078" transform="translate(9.067 10.009)">
      <g id="XMLID_34_" transform="translate(3.936)">
        <path id="Path_15377" data-name="Path 15377" d="M197.944,152.3h0a3.513,3.513,0,1,1,3.3-3.506,3.414,3.414,0,0,1-3.3,3.506Zm0-5.9a2.406,2.406,0,1,0,2.19,2.4,2.321,2.321,0,0,0-2.19-2.4Z" transform="translate(-194.217 -145.279)" fill="#27ae60"/>
      </g>
      <g id="Group_20076" data-name="Group 20076" transform="translate(0 1.861)">
        <path id="Path_15378" data-name="Path 15378" d="M133.054,175.442a1.6,1.6,0,1,1,1.6-1.6A1.6,1.6,0,0,1,133.054,175.442Zm0-2.085a.487.487,0,1,0,.486.487A.487.487,0,0,0,133.054,173.357Z" transform="translate(-131.454 -172.243)" fill="#27ae60"/>
      </g>
      <g id="Group_20077" data-name="Group 20077" transform="translate(12.228 1.847)">
        <path id="Path_15379" data-name="Path 15379" d="M310.431,175.242a1.6,1.6,0,1,1,1.6-1.6A1.6,1.6,0,0,1,310.431,175.242Zm0-2.085a.487.487,0,1,0,.486.487A.487.487,0,0,0,310.431,173.157Z" transform="translate(-308.831 -172.043)" fill="#27ae60"/>
      </g>
    </g>
    <g id="Group_20083" data-name="Group 20083" transform="translate(3.621 5.481)">
      <g id="Group_20080" data-name="Group 20080">
        <g id="Group_20079" data-name="Group 20079">
          <path id="Path_15380" data-name="Path 15380" d="M58.736,191.942H58.08a5.929,5.929,0,0,0-4.548-4.686v-2.385a.554.554,0,0,0-.555-.554h0a.554.554,0,0,0-.555.554V192.5a.561.561,0,0,0,.555.562l5.757.008h0a.562.562,0,1,0,0-1.123Zm-5.2-3.548a4.745,4.745,0,0,1,3.409,3.547H53.535Z" transform="translate(-52.422 -177.093)" fill="#27ae60"/>
          <path id="Path_15381" data-name="Path 15381" d="M206.251,80.063a.548.548,0,0,0-.555-.547h-15.83a.549.549,0,0,0,0,1.1h10.693a6.36,6.36,0,0,0,4.583,4.69V90.9a.559.559,0,0,0,.555.56h0a.56.56,0,0,0,.555-.561Zm-4.549.555h3.439v3.529a5.2,5.2,0,0,1-3.439-3.529Z" transform="translate(-179.875 -79.516)" fill="#27ae60"/>
        </g>
      </g>
    </g>
    <g id="Group_20086" data-name="Group 20086">
      <g id="Group_20084" data-name="Group 20084">
        <path id="Path_15385" data-name="Path 15385" d="M5.9,11.812a5.905,5.905,0,1,1,5.9-5.9A5.905,5.905,0,0,1,5.9,11.812Zm0-10.7a4.8,4.8,0,1,0,4.791,4.8A4.8,4.8,0,0,0,5.9,1.111Z" transform="translate(0.008 -0.001)" fill="#27ae60"/>
      </g>
      <g id="Group_20085" data-name="Group 20085" transform="translate(3.994 2.049)">
        <path id="Path_15386" data-name="Path 15386" d="M60.128,32.987c-.745-.309-.96-.49-.96-.806,0-.262.188-.542.717-.542a2.569,2.569,0,0,1,1.227.4l.377-1a2.838,2.838,0,0,0-1.2-.42v-.873H59.3v.935a1.63,1.63,0,0,0-1.333,1.6c0,.978.766,1.41,1.594,1.736.611.249.861.5.861.85,0,.387-.334.648-.832.648a2.518,2.518,0,0,1-1.384-.5l-.363,1.015a2.541,2.541,0,0,0,1.392.515v.906h1v-.962a1.732,1.732,0,0,0,1.4-1.689C61.633,33.963,61.183,33.418,60.128,32.987Z" transform="translate(-57.847 -29.747)" fill="#27ae60"/>
      </g>
    </g>
  </g>
</svg>
