<svg xmlns="http://www.w3.org/2000/svg" width="64.225" height="70" viewBox="0 0 64.225 70">
  <g id="not-found-4147383" transform="translate(-25.328 -8.382)">
    <path id="Path_26171" data-name="Path 26171" d="M87.174,47.59H37.093a1.4,1.4,0,0,0-1.343,1.036l-5.6,20.015L28.135,34.18a.7.7,0,0,1,.2-.56.755.755,0,0,1,.56-.224h10.3a1.765,1.765,0,0,1,1.4.7l3.416,4.4a1.371,1.371,0,0,0,1.092.532H75.584v4.2a1.4,1.4,0,1,0,2.8,0v-5.6a1.4,1.4,0,0,0-1.4-1.428H45.631l-2.968-3.836h0a4.673,4.673,0,0,0-3.471-1.791H28.89a3.665,3.665,0,0,0-2.6,1.147,3.529,3.529,0,0,0-.952,2.632l2.659,42.634a2.211,2.211,0,0,0,.28.84,1.371,1.371,0,0,0,1.12.56H76.733a5.346,5.346,0,0,0,5.179-4.031l2.071-8.09a1.446,1.446,0,1,0-2.8-.728l-2.128,8.118a2.63,2.63,0,0,1-2.491,1.931H31.243l6.915-25.195h47.2l-1.9,7.222a1.443,1.443,0,1,0,2.8.7L88.6,49.324h0A1.4,1.4,0,0,0,87.26,47.56Z" fill="#ddd"/>
    <path id="Path_26172" data-name="Path 26172" d="M56.407,67.549a1.4,1.4,0,0,0,0,1.988,1.343,1.343,0,0,0,1.96,0,2.575,2.575,0,0,1,3.639,0,1.343,1.343,0,0,0,1.96,0,1.4,1.4,0,0,0,0-1.988,5.319,5.319,0,0,0-7.558,0Z" fill="#ddd"/>
    <path id="Path_26173" data-name="Path 26173" d="M48.99,58.788a1.4,1.4,0,0,0,0,2.8h2.8a1.4,1.4,0,1,0,0-2.8Z" fill="#ddd"/>
    <path id="Path_26174" data-name="Path 26174" d="M68.586,58.788a1.4,1.4,0,0,0,0,2.8h2.8a1.4,1.4,0,0,0,0-2.8Z" fill="#ddd"/>
    <path id="Path_26175" data-name="Path 26175" d="M55.988,31.633a1.511,1.511,0,0,0,.5,1.456,1.428,1.428,0,0,0,.868.307,1.5,1.5,0,0,0,.616,0l7.5-3.779a24,24,0,0,0,7.278,1.092c9.406,0,16.8-4.927,16.8-11.2,0-5.179-4.955-9.518-12.346-10.861h0a1.422,1.422,0,0,0-.5,2.8c5.935.868,10.078,4.2,10.078,7.895,0,4.563-6.411,8.4-14,8.4a21.611,21.611,0,0,1-6.942-1.12,1.285,1.285,0,0,0-1.064,0l-5.291,2.8,1.2-4.9a1.372,1.372,0,0,0-.307-1.26,5.851,5.851,0,0,1-1.6-3.919c0-3.751,4.367-7.167,10.358-8.146A1.417,1.417,0,1,0,68.7,8.4C61.223,9.63,55.989,14,55.989,19.316a8.4,8.4,0,0,0,1.82,5.123Z" fill="#ddd"/>
    <path id="Path_26176" data-name="Path 26176" d="M69.706,18.225l1.092,1.12-1.092,1.092a1.406,1.406,0,1,0,1.96,2.016l1.12-1.12,1.12,1.12a1.406,1.406,0,1,0,1.96-2.016l-1.092-1.092,1.092-1.12a1.4,1.4,0,0,0,0-1.988,1.343,1.343,0,0,0-1.96,0l-1.12,1.12-1.12-1.12a1.343,1.343,0,0,0-1.96,0,1.4,1.4,0,0,0,0,1.988Z" fill="#ddd"/>
  </g>
</svg>
