<svg xmlns="http://www.w3.org/2000/svg" xmlns:xlink="http://www.w3.org/1999/xlink" width="34" height="34" viewBox="0 0 34 34">
  <defs>
    <clipPath id="clip-path">
      <rect id="Rectangle_2784" data-name="Rectangle 2784" width="34" height="34" transform="translate(1524 -8444)" fill="#707070"/>
    </clipPath>
  </defs>
  <g id="notification-icon" transform="translate(-1524 8444)" clip-path="url(#clip-path)">
    <g id="Group_19797" data-name="Group 19797" transform="translate(1524 -8445.078)">
      <g id="Group_19798" data-name="Group 19798" transform="translate(0 2.446)">
        <path id="Path_15512" data-name="Path 15512" d="M29.118,18.883v-5.1a8.246,8.246,0,0,0-4.833-7.49,11.392,11.392,0,0,0-1.98-.685V5.283a2.837,2.837,0,0,0-5.672,0v.375A11.22,11.22,0,0,0,14.85,6.3a8.574,8.574,0,0,0-5.017,7.481v5.1a12.572,12.572,0,0,1-3.8,9.232.566.566,0,0,0,.3.961L11.718,30c1,.173,1.924.314,2.8.431a5.6,5.6,0,0,0,10.106,0c.875-.116,1.792-.257,2.788-.43l5.381-.928a.566.566,0,0,0,.3-.961A12.671,12.671,0,0,1,29.118,18.883ZM17.77,5.283a1.7,1.7,0,0,1,3.4,0v.1a11.267,11.267,0,0,0-3.4.026Zm1.8,27.2A4.542,4.542,0,0,1,15.938,30.6a35.1,35.1,0,0,0,3.63.2,34.9,34.9,0,0,0,3.644-.2,4.544,4.544,0,0,1-3.637,1.879Zm7.649-3.6c-1.087.188-2.084.34-3.026.46h0c-.416.053-.819.1-1.214.138h-.01c-.362.036-.716.066-1.065.091l-.2.013c-.3.02-.6.035-.9.047l-.182.008c-.705.023-1.4.023-2.1,0l-.189-.008c-.294-.012-.587-.026-.886-.046l-.213-.014c-.34-.024-.685-.053-1.033-.088h-.038q-.587-.059-1.2-.137h0c-.945-.119-1.946-.273-3.038-.461l-4.341-.749a13.639,13.639,0,0,0,3.393-9.257v-5.1a7.419,7.419,0,0,1,4.359-6.457,10.13,10.13,0,0,1,1.981-.672h.018a10.3,10.3,0,0,1,4.3-.038h.023a10.249,10.249,0,0,1,2.167.707,7.193,7.193,0,0,1,4.171,6.457v5.1a13.788,13.788,0,0,0,3.577,9.255Z" transform="translate(-2.47 -2.446)" fill="#707070"/>
        <path id="Path_15513" data-name="Path 15513" d="M28.047,12.992a8.659,8.659,0,0,0-7.066,0,5.727,5.727,0,0,0-3.371,4.9.566.566,0,0,0,.564.57h0a.566.566,0,0,0,.566-.564,4.571,4.571,0,0,1,2.711-3.881,7.5,7.5,0,0,1,6.12,0,.567.567,0,0,0,.472-1.03Z" transform="translate(-7.411 -6.567)" fill="#707070"/>
        <path id="Path_15514" data-name="Path 15514" d="M2.721,22.18a.566.566,0,0,0-.8,0,6.57,6.57,0,0,0,0,9.282.567.567,0,0,0,.8-.8,5.437,5.437,0,0,1,0-7.679A.567.567,0,0,0,2.721,22.18Z" transform="translate(0 -10.68)" fill="#707070"/>
        <path id="Path_15515" data-name="Path 15515" d="M6.8,31.162a.566.566,0,0,0,.4-.968,3.718,3.718,0,0,1,0-5.257.567.567,0,1,0-.8-.8A4.856,4.856,0,0,0,6.4,31,.563.563,0,0,0,6.8,31.162Z" transform="translate(-2.098 -11.504)" fill="#707070"/>
        <path id="Path_15516" data-name="Path 15516" d="M54.686,22.18a.567.567,0,0,0-.8.8,5.437,5.437,0,0,1,0,7.679.567.567,0,1,0,.8.8,6.57,6.57,0,0,0,0-9.282Z" transform="translate(-22.606 -10.68)" fill="#707070"/>
        <path id="Path_15517" data-name="Path 15517" d="M49.766,24.137a.566.566,0,0,0,0,.8,3.718,3.718,0,0,1,0,5.257.567.567,0,0,0,.8.8,4.856,4.856,0,0,0,0-6.859.566.566,0,0,0-.8,0Z" transform="translate(-20.872 -11.504)" fill="#707070"/>
      </g>
    </g>
  </g>
</svg>
