<svg xmlns="http://www.w3.org/2000/svg" width="27" height="27" viewBox="0 0 27 27">
  <g id="noun-settings-5060771" transform="translate(-93.332 -23.335)">
    <path id="Path_26557" data-name="Path 26557" d="M95.554,40.059l1.4.134h0a10.354,10.354,0,0,0,.515,1.253l-.9,1.084a2.446,2.446,0,0,0,.156,3.3l1.1,1.1a2.445,2.445,0,0,0,3.3.156l1.084-.9h0a10.292,10.292,0,0,0,1.253.515l.134,1.4h0a2.445,2.445,0,0,0,2.444,2.221h1.56a2.445,2.445,0,0,0,2.443-2.222l.134-1.4h0a10.289,10.289,0,0,0,1.253-.515l1.084.9h0a2.446,2.446,0,0,0,3.3-.156l1.1-1.1a2.444,2.444,0,0,0,.156-3.3l-.9-1.084h0a10.356,10.356,0,0,0,.515-1.253l1.4-.134h0a2.445,2.445,0,0,0,2.222-2.443V36.054a2.445,2.445,0,0,0-2.222-2.443l-1.4-.134h0a10.355,10.355,0,0,0-.515-1.253l.9-1.084h0a2.444,2.444,0,0,0-.156-3.3l-1.1-1.1a2.443,2.443,0,0,0-3.3-.156l-1.084.9h0a10.291,10.291,0,0,0-1.253-.515l-.134-1.4h0a2.445,2.445,0,0,0-2.444-2.221h-1.56a2.445,2.445,0,0,0-2.444,2.222l-.134,1.4a10.289,10.289,0,0,0-1.253.515l-1.084-.9h0a2.445,2.445,0,0,0-3.3.156l-1.1,1.1a2.446,2.446,0,0,0-.156,3.3l.9,1.084h0a10.355,10.355,0,0,0-.515,1.253l-1.4.134h0a2.445,2.445,0,0,0-2.222,2.443v1.561a2.445,2.445,0,0,0,2.222,2.443Zm-.995-4a1.221,1.221,0,0,1,1.111-1.222l1.808-.172h0a.614.614,0,0,0,.53-.437,9.191,9.191,0,0,1,.736-1.784.614.614,0,0,0-.066-.684l-1.157-1.4a1.224,1.224,0,0,1,.079-1.649l1.1-1.1a1.222,1.222,0,0,1,1.649-.078l1.4,1.154h0a.614.614,0,0,0,.684.066,9.161,9.161,0,0,1,1.784-.736.614.614,0,0,0,.437-.53l.172-1.809h0a1.223,1.223,0,0,1,1.223-1.108h1.56a1.222,1.222,0,0,1,1.222,1.111l.172,1.809h0a.614.614,0,0,0,.437.53,9.149,9.149,0,0,1,1.784.736.614.614,0,0,0,.684-.066l1.4-1.154h0a1.221,1.221,0,0,1,1.649.078l1.1,1.1a1.222,1.222,0,0,1,.079,1.649l-1.154,1.4h0a.614.614,0,0,0-.066.684,9.2,9.2,0,0,1,.736,1.784.614.614,0,0,0,.53.437l1.808.172h0a1.222,1.222,0,0,1,1.109,1.219v1.561a1.221,1.221,0,0,1-1.111,1.222l-1.808.172h0a.614.614,0,0,0-.53.437,9.173,9.173,0,0,1-.736,1.784.614.614,0,0,0,.066.685l1.154,1.4h0a1.222,1.222,0,0,1-.079,1.649l-1.1,1.1a1.222,1.222,0,0,1-1.649.078l-1.4-1.154h0a.614.614,0,0,0-.684-.066,9.186,9.186,0,0,1-1.784.736.614.614,0,0,0-.437.53L108.833,48h0a1.222,1.222,0,0,1-1.22,1.109h-1.56A1.223,1.223,0,0,1,104.829,48l-.172-1.808h0a.614.614,0,0,0-.437-.53,9.166,9.166,0,0,1-1.784-.736.614.614,0,0,0-.684.066l-1.4,1.154h0a1.222,1.222,0,0,1-1.649-.078l-1.1-1.1a1.227,1.227,0,0,1-.079-1.65l1.154-1.4h0a.614.614,0,0,0,.066-.685,9.168,9.168,0,0,1-.736-1.784.614.614,0,0,0-.53-.437l-1.808-.172h0a1.222,1.222,0,0,1-1.109-1.218Z" transform="translate(0 0)" fill="#09a191"/>
    <path id="Path_26558" data-name="Path 26558" d="M228.418,165.166a6.758,6.758,0,1,0-4.77-1.979A6.75,6.75,0,0,0,228.418,165.166Zm0-12.272a5.529,5.529,0,1,1-3.9,1.619A5.522,5.522,0,0,1,228.418,152.893Z" transform="translate(-121.586 -121.582)" fill="#09a191"/>
  </g>
</svg>
