<svg xmlns="http://www.w3.org/2000/svg" width="40.219" height="47.229" viewBox="0 0 40.219 47.229">
  <g id="noun-batch-3194149" transform="translate(-123.76 -14)">
    <path id="Path_26532" data-name="Path 26532" d="M163.681,22.551,155.428,14.3a1.13,1.13,0,0,0-.8-.3H136.487a1.1,1.1,0,0,0-1.094,1.094v4.723H130.67a1.1,1.1,0,0,0-1.094,1.094v4.773h-4.723a1.1,1.1,0,0,0-1.094,1.094V60.135a1.1,1.1,0,0,0,1.094,1.094h26.4a1.1,1.1,0,0,0,1.094-1.094V55.412h4.723a1.1,1.1,0,0,0,1.094-1.094V49.545h4.723a1.1,1.1,0,0,0,1.094-1.094V23.346a1.13,1.13,0,0,0-.3-.8Zm-8.949-5.867,6.563,6.563h-6.562Zm-4.624,42.357H125.9V27.87h3.629V54.318a1.1,1.1,0,0,0,1.094,1.094h19.488Zm5.867-5.817H131.714V22h3.679V48.452a1.1,1.1,0,0,0,1.094,1.094h19.488Zm-18.394-5.866V16.187h14.964V24.34a1.1,1.1,0,0,0,1.094,1.094h8.153V47.358Z" transform="translate(0 0)" fill="#1a6cab"/>
    <path id="Path_26533" data-name="Path 26533" d="M328.772,167.44a8.451,8.451,0,1,0,8.451,8.451A8.444,8.444,0,0,0,328.772,167.44Zm0,14.716a6.264,6.264,0,1,1,6.264-6.264A6.207,6.207,0,0,1,328.772,182.156Z" transform="translate(-179.111 -139.819)" fill="#1a6cab"/>
    <path id="Path_26534" data-name="Path 26534" d="M378.458,236.3l-2.535,2.535-.945-.945a1.09,1.09,0,1,0-1.541,1.541l1.74,1.74a1.13,1.13,0,0,0,.8.3,1.22,1.22,0,0,0,.8-.3l3.281-3.281a1.052,1.052,0,0,0,0-1.541A1.072,1.072,0,0,0,378.458,236.3Z" transform="translate(-227.206 -202.263)" fill="#1a6cab"/>
  </g>
</svg>
