<svg xmlns="http://www.w3.org/2000/svg" width="39.667" height="39.645" viewBox="0 0 39.667 39.645">
  <path id="noun-bank-4428862" d="M127.167,32.3V29.66a1.322,1.322,0,0,0-.674-1.124L107.981,17.958a1.323,1.323,0,0,0-1.322,0L88.148,28.536A1.322,1.322,0,0,0,87.5,29.66V32.3a3.966,3.966,0,0,0,3.967,3.967V49.493A3.966,3.966,0,0,0,87.5,53.46V56.1a1.322,1.322,0,0,0,1.322,1.322h37.022a1.322,1.322,0,0,0,1.322-1.322V53.46a3.966,3.966,0,0,0-3.967-3.967V36.271a3.966,3.966,0,0,0,3.967-3.967ZM107.333,20.6l13.526,7.735H93.807ZM90.144,32.3V30.982h34.378V32.3a1.322,1.322,0,0,1-1.322,1.322H91.467A1.322,1.322,0,0,1,90.144,32.3ZM111.3,49.493V36.271h3.967V49.493Zm-7.933-13.222V49.493H99.4V36.271Zm2.644,0h2.644V49.493h-2.644Zm-11.9,0h2.644V49.493H94.111ZM124.522,53.46v1.322H90.144V53.46a1.322,1.322,0,0,1,1.322-1.322H123.2a1.322,1.322,0,0,1,1.322,1.322Zm-3.967-3.967h-2.644V36.271h2.644Z" transform="translate(-87.5 -17.781)" fill="#005b52"/>
</svg>
