<svg xmlns="http://www.w3.org/2000/svg" width="36.944" height="47.617" viewBox="0 0 36.944 47.617">
  <g id="noun-total-payment-4928385" transform="translate(-154.332 -27.824)">
    <path id="Path_26552" data-name="Path 26552" d="M190.269,36.841l-8.015-8.013a3.413,3.413,0,0,0-2.432-1H159.883a5.557,5.557,0,0,0-5.551,5.551V69.89a5.558,5.558,0,0,0,5.551,5.551h25.842a5.557,5.557,0,0,0,5.551-5.551V39.27a3.412,3.412,0,0,0-1.007-2.43ZM188.63,69.888a2.911,2.911,0,0,1-2.908,2.908H159.884a2.911,2.911,0,0,1-2.908-2.908V33.373a2.911,2.911,0,0,1,2.908-2.908h19.941a.8.8,0,0,1,.561.233L188.4,38.71a.8.8,0,0,1,.232.561Z" transform="translate(0)" fill="#885f0d"/>
    <path id="Path_26553" data-name="Path 26553" d="M244.909,111.117h-5.352a1.322,1.322,0,1,0,0,2.643h2.713v1.178a1.322,1.322,0,1,0,2.643,0V113.76a4.035,4.035,0,0,0,0-8.07h-2.418a1.393,1.393,0,0,1-.007-2.785h4.665a1.322,1.322,0,1,0,0-2.643h-2.235V99.086a1.322,1.322,0,1,0-2.643,0v1.185a4.034,4.034,0,0,0,.221,8.062h2.418a1.392,1.392,0,1,1,0,2.783Z" transform="translate(-75.982 -63.337)" fill="#885f0d"/>
    <path id="Path_26554" data-name="Path 26554" d="M258.012,336.12h-18.46a1.322,1.322,0,1,0,0,2.643h18.46a1.322,1.322,0,1,0,0-2.643Z" transform="translate(-75.978 -279.191)" fill="#885f0d"/>
    <path id="Path_26555" data-name="Path 26555" d="M258.012,420.07h-18.46a1.322,1.322,0,1,0,0,2.643h18.46a1.322,1.322,0,1,0,0-2.643Z" transform="translate(-75.978 -355.216)" fill="#885f0d"/>
  </g>
</svg>
