<svg xmlns="http://www.w3.org/2000/svg" width="20.401" height="19.37" viewBox="0 0 20.401 19.37">
  <g id="noun-upload-1165119" transform="translate(-181.999 -120.585)">
    <path id="Path_18042" data-name="Path 18042" d="M255.2,134.174a.68.68,0,0,0,.68-.68v-10.67l4.295,4.039a.691.691,0,0,0,.932-1.02l-5.44-5.1-.044-.034-.051-.041-.061-.034-.054-.027-.068-.02h-.055a.68.68,0,0,0-.112,0h-.037a.68.68,0,0,0-.112,0h-.054l-.068.02-.054.027-.061.034-.051.041-.044.034-5.44,5.1a.69.69,0,0,0,.928,1.02l4.295-4.039v10.67a.68.68,0,0,0,.68.68Z" transform="translate(-62.997 0)" fill="#5c5c5c"/>
    <path id="Path_18043" data-name="Path 18043" d="M202.4,339.481a.68.68,0,0,0-1.36,0v2.72a1.36,1.36,0,0,1-1.36,1.36H184.719a1.36,1.36,0,0,1-1.36-1.36v-2.72a.68.68,0,0,0-1.36,0v2.72a2.72,2.72,0,0,0,2.72,2.72H199.68a2.72,2.72,0,0,0,2.72-2.72Z" transform="translate(0 -204.967)" fill="#5c5c5c"/>
  </g>
</svg>
