<svg xmlns="http://www.w3.org/2000/svg" width="33.744" height="32.737" viewBox="0 0 33.744 32.737">
  <g id="noun-bank-1668067" transform="translate(-102.512 -39.896)">
    <path id="Path_26444" data-name="Path 26444" d="M135.292,53.737l-7.16-6.406-6.594-5.9c-1.868-1.673-1.8-2.175-3.667-.508l-7.16,6.409-6.593,5.9c-1.869,1.673-2.743,1.895.982,1.895h9.41a5.147,5.147,0,0,1,10.245,0h7.854c3.738,0,4.546.28,2.683-1.389Z" fill="#657284" fill-rule="evenodd"/>
    <path id="Path_26445" data-name="Path 26445" d="M170.966,296.14h-1.711V285.46h1.908a.779.779,0,0,0,.777-.777V283.52c0-.027,0-.055,0-.082-.286,0-.572-.008-.858-.008h-7.9a5.148,5.148,0,0,1-10.148,0h-9.182a.713.713,0,0,0,0,.089v1.163a.779.779,0,0,0,.777.777h2.47v10.68h-2.315a.982.982,0,0,0-.98.978v1.467a.983.983,0,0,0,.98.98h26.192a.984.984,0,0,0,.981-.98v-1.467a.982.982,0,0,0-.981-.978Zm-14.837,0h-4.955V285.46h1.086a6.546,6.546,0,0,0,3.87,3.32v7.36Zm9.04,0h-4.955v-7.406a6.542,6.542,0,0,0,3.731-3.274h1.224Z" transform="translate(-38.468 -226.932)" fill="#657284" fill-rule="evenodd"/>
    <path id="Path_26446" data-name="Path 26446" d="M326.951,217.281a.825.825,0,0,1-.649-.352c-.249-.247-.442-.372-.582-.372a.571.571,0,0,0-.393.177c-.21.2-.317.368-.317.492a.761.761,0,0,0,.2.436l.12.158a1.826,1.826,0,0,0,.426.344,2.17,2.17,0,0,0,.687.278v.576a1.274,1.274,0,0,0,.066.473.276.276,0,0,0,.161.167,1.061,1.061,0,0,0,.622,0,.325.325,0,0,0,.175-.177,1.185,1.185,0,0,0,.06-.455v-.593a2,2,0,0,0,1.012-.576,1.833,1.833,0,0,0,.227-1.98,1.063,1.063,0,0,0-.469-.459,4.007,4.007,0,0,0-.612-.227,4.416,4.416,0,0,0-.611-.14,1.141,1.141,0,0,1-.469-.168.39.39,0,0,1-.033-.649.66.66,0,0,1,.4-.115.72.72,0,0,1,.4.1,1.324,1.324,0,0,1,.12.093c.043.037.1.084.181.138a.467.467,0,0,0,.284.084.6.6,0,0,0,.477-.325,1.05,1.05,0,0,0,.219-.463c0-.093-.078-.21-.233-.352l-.037-.029-.084-.074a1.726,1.726,0,0,0-.3-.167,2.164,2.164,0,0,0-.475-.158v-.52a2.614,2.614,0,0,0-.018-.352.377.377,0,0,0-.144-.227.567.567,0,0,0-.376-.107c-.267,0-.43.074-.492.222a1.348,1.348,0,0,0-.056.455v.519a1.62,1.62,0,0,0-.975.576,1.576,1.576,0,0,0-.352,1,1.544,1.544,0,0,0,.259.92,1.44,1.44,0,0,0,.632.509,5.4,5.4,0,0,0,.742.238,3.93,3.93,0,0,1,.631.2c.173.074.261.181.261.315,0,.376-.23.565-.687.565Z" transform="translate(-207.329 -160.149)" fill="#f79421" fill-rule="evenodd"/>
  </g>
</svg>
