<svg xmlns="http://www.w3.org/2000/svg" width="31.109" height="25.755" viewBox="0 0 31.109 25.755">
  <g id="noun-sync-1077358" transform="translate(-105.816 -76.611)">
    <path id="Path_26559" data-name="Path 26559" d="M133.945,269.855a.711.711,0,0,0-1.3.2,11.805,11.805,0,0,1-5.565,7.294,11.525,11.525,0,0,1-15.812-4.01,11.063,11.063,0,0,1-1.45-4.622l3.087,1.963a.711.711,0,1,0,.763-1.2l-4.217-2.681h0a.711.711,0,0,0-1,.244l-2.537,4.388h0a.711.711,0,1,0,1.232.712l1.368-2.367a12.49,12.49,0,0,0,1.52,4.274,12.969,12.969,0,0,0,17.755,4.531,13.237,13.237,0,0,0,6.232-8.173h0a.711.711,0,0,0-.075-.549Z" transform="translate(0 -178.001)" fill="#c461f5" fill-rule="evenodd"/>
    <path id="Path_26560" data-name="Path 26560" d="M179.964,85.068a.711.711,0,0,0-1.223.017l-1.319,2.22a12.522,12.522,0,0,0-1.538-4.371A12.969,12.969,0,0,0,158.13,78.4a13.22,13.22,0,0,0-6.218,8.131.711.711,0,1,0,1.377.356,11.788,11.788,0,0,1,5.553-7.255,11.525,11.525,0,0,1,15.812,4.01,11.079,11.079,0,0,1,1.456,4.664l-3.048-1.992a.711.711,0,1,0-.778,1.191l4.187,2.736h0a.711.711,0,0,0,1-.232l2.495-4.2h0a.711.711,0,0,0,0-.743Z" transform="translate(-43.144)" fill="#c461f5" fill-rule="evenodd"/>
  </g>
</svg>
