<svg xmlns="http://www.w3.org/2000/svg" width="20.333" height="22.182" viewBox="0 0 20.333 22.182">
  <g id="noun-download-5028197" transform="translate(-157.5 -70)">
    <path id="Path_26530" data-name="Path 26530" d="M228.861,70.924a.924.924,0,0,0-1.848,0V83.481l-4.3-4.3a.924.924,0,0,0-1.307,1.307l5.882,5.882a.925.925,0,0,0,1.307,0l5.882-5.882a.924.924,0,0,0-1.307-1.307l-4.3,4.3Z" transform="translate(-60.27)"/>
    <path id="Path_26531" data-name="Path 26531" d="M159.348,350.924a.924.924,0,0,0-1.848,0V353.7a3.7,3.7,0,0,0,3.7,3.7h12.939a3.7,3.7,0,0,0,3.7-3.7v-2.773a.924.924,0,0,0-1.848,0V353.7a1.848,1.848,0,0,1-1.848,1.848H161.2a1.848,1.848,0,0,1-1.848-1.848Z" transform="translate(0 -265.212)"/>
  </g>
</svg>
