<svg id="Group_21196" data-name="Group 21196" xmlns="http://www.w3.org/2000/svg" width="15.255" height="16" viewBox="0 0 15.255 16">
  <g id="Group_21195" data-name="Group 21195">
    <path id="Path_18003" data-name="Path 18003" d="M17.86,9.825a6.875,6.875,0,0,1-13.678.013H3.506a.533.533,0,0,1-.463-.8L4.555,6.42a.533.533,0,0,1,.924,0L6.992,9.038a.533.533,0,0,1-.462.8H5.941A5.127,5.127,0,1,0,8.19,4.846a.907.907,0,0,1-1.216-.163.872.872,0,0,1,.2-1.258A6.831,6.831,0,0,1,10.166,2.3V1.312h-.7A.436.436,0,0,1,9.03.876V.436A.436.436,0,0,1,9.467,0h3.248a.436.436,0,0,1,.436.436V.876a.436.436,0,0,1-.436.436h-.771v1a6.883,6.883,0,0,1,5.917,7.51Zm.226-6.6L16.77,2.007a.436.436,0,0,0-.616.024l-.348.377a.436.436,0,0,0,.024.616L17.146,4.24a.436.436,0,0,0,.616-.024l.348-.377a.436.436,0,0,0-.024-.616Z" transform="translate(-2.971 0)" fill="#ffa149"/>
  </g>
  <path id="Path_18003-2" data-name="Path 18003" d="M11,4.893V9.159h4.224A4.145,4.145,0,0,0,11,4.893Z" transform="translate(-2.971)" fill="#ffa149" opacity="0.7"/>
</svg>
