<svg xmlns="http://www.w3.org/2000/svg" width="17.696" height="18" viewBox="0 0 17.696 18">
  <g id="website-icon" transform="translate(-3.044 -0.514)">
    <path id="Path_11656" data-name="Path 11656" d="M11.8,18.114v-2.8a14.024,14.024,0,0,0-1.56.1,13.527,13.527,0,0,0,1.56,2.7Z" fill="#ffa149"/>
    <path id="Path_11657" data-name="Path 11657" d="M6.355,13.015a13.474,13.474,0,0,0-2.245.78A9.193,9.193,0,0,0,6.222,16.44a9.161,9.161,0,0,1,1.655-.685,10.188,10.188,0,0,1-1.522-2.74Z" fill="#ffa149"/>
    <path id="Path_11658" data-name="Path 11658" d="M10.142,15.241a15.426,15.426,0,0,1,1.655-.114V12.349c-.875,0-1.732.057-2.55.133a16.092,16.092,0,0,0,.894,2.759Z" fill="#ffa149"/>
    <path id="Path_11659" data-name="Path 11659" d="M5.727,9.609H3.044a9.04,9.04,0,0,0,.97,4,13.123,13.123,0,0,1,2.264-.78,10.006,10.006,0,0,1-.552-3.216Z" fill="#ffa149"/>
    <path id="Path_11660" data-name="Path 11660" d="M8.011,15.888a10.513,10.513,0,0,0-1.636.666,8.631,8.631,0,0,0,5.328,1.96,9.132,9.132,0,0,1-3.691-2.626Z" fill="#ffa149"/>
    <path id="Path_11661" data-name="Path 11661" d="M9.19,12.311c.837-.1,1.712-.133,2.607-.152V9.609H8.886a13.36,13.36,0,0,0,.3,2.7Z" fill="#ffa149"/>
    <path id="Path_11662" data-name="Path 11662" d="M9.247,6.545a22.645,22.645,0,0,0,2.55.133V3.9a12.111,12.111,0,0,1-1.655-.114,16.09,16.09,0,0,0-.894,2.759Z" fill="#ffa149"/>
    <path id="Path_11663" data-name="Path 11663" d="M11.8,3.71V.913a13.51,13.51,0,0,0-1.56,2.7,14.024,14.024,0,0,0,1.56.1Z" fill="#ffa149"/>
    <path id="Path_11664" data-name="Path 11664" d="M8.886,9.419H11.8V6.869A23.663,23.663,0,0,1,9.19,6.717a13.365,13.365,0,0,0-.3,2.7Z" fill="#ffa149"/>
    <path id="Path_11665" data-name="Path 11665" d="M11.7.723A8.778,8.778,0,0,0,8.22,3.2a10.862,10.862,0,0,0,1.808.381A15.81,15.81,0,0,1,11.7.723Z" fill="#ffa149"/>
    <path id="Path_11666" data-name="Path 11666" d="M5.918,9.609a10.413,10.413,0,0,0,.552,3.178,24.406,24.406,0,0,1,2.55-.457,13.4,13.4,0,0,1-.3-2.721Z" fill="#ffa149"/>
    <path id="Path_11667" data-name="Path 11667" d="M6.526,12.958a9.11,9.11,0,0,0,1.56,2.7,14.057,14.057,0,0,1,1.865-.4,15.893,15.893,0,0,1-.894-2.74,20.05,20.05,0,0,0-2.531.438Z" fill="#ffa149"/>
    <path id="Path_11668" data-name="Path 11668" d="M6.279,6.2a13.123,13.123,0,0,1-2.264-.78,9.1,9.1,0,0,0-.97,4H5.727A10.007,10.007,0,0,1,6.279,6.2Z" fill="#ffa149"/>
    <path id="Path_11669" data-name="Path 11669" d="M11.7.514a8.855,8.855,0,0,0-5.309,1.96A8.418,8.418,0,0,0,8.03,3.14,8.943,8.943,0,0,1,11.7.514Z" fill="#ffa149"/>
    <path id="Path_11670" data-name="Path 11670" d="M11.7,18.3a15.184,15.184,0,0,1-1.674-2.854,10.863,10.863,0,0,0-1.808.381A8.778,8.778,0,0,0,11.7,18.3Z" fill="#ffa149"/>
    <path id="Path_11671" data-name="Path 11671" d="M6.469,6.241a10.313,10.313,0,0,0-.552,3.178H8.7A13.541,13.541,0,0,1,9,6.7a17.539,17.539,0,0,1-2.531-.457Z" fill="#ffa149"/>
    <path id="Path_11672" data-name="Path 11672" d="M7.9,3.311a10.04,10.04,0,0,1-1.655-.685A8.709,8.709,0,0,0,4.129,5.271a13.478,13.478,0,0,0,2.245.78A8.394,8.394,0,0,1,7.9,3.311Z" fill="#ffa149"/>
    <path id="Path_11673" data-name="Path 11673" d="M15.774,3.14a10.513,10.513,0,0,0,1.636-.666A8.955,8.955,0,0,0,12.082.514,9.13,9.13,0,0,1,15.774,3.14Z" fill="#ffa149"/>
    <path id="Path_11674" data-name="Path 11674" d="M9.951,3.767a14.033,14.033,0,0,1-1.865-.4,10.022,10.022,0,0,0-1.56,2.7,23.654,23.654,0,0,0,2.512.457,18.024,18.024,0,0,1,.913-2.759Z" fill="#ffa149"/>
    <path id="Path_11675" data-name="Path 11675" d="M17.315,6.241a24.408,24.408,0,0,1-2.55.457,13.4,13.4,0,0,1,.3,2.721h2.778a8.928,8.928,0,0,0-.533-3.178Z" fill="#ffa149"/>
    <path id="Path_11676" data-name="Path 11676" d="M18.057,9.419H20.74a9.04,9.04,0,0,0-.97-4,13.123,13.123,0,0,1-2.264.78,10.01,10.01,0,0,1,.552,3.216Z" fill="#ffa149"/>
    <path id="Path_11677" data-name="Path 11677" d="M17.562,2.607a9.162,9.162,0,0,1-1.655.685,9.593,9.593,0,0,1,1.541,2.721,13.474,13.474,0,0,0,2.245-.78,9.792,9.792,0,0,0-2.131-2.626Z" fill="#ffa149"/>
    <path id="Path_11678" data-name="Path 11678" d="M11.987,15.317v2.8a13.51,13.51,0,0,0,1.56-2.7,14.025,14.025,0,0,0-1.56-.1Z" fill="#ffa149"/>
    <path id="Path_11679" data-name="Path 11679" d="M13.833,3.767a15.893,15.893,0,0,1,.894,2.74,16.816,16.816,0,0,0,2.512-.457,9.11,9.11,0,0,0-1.56-2.7A10.908,10.908,0,0,1,13.833,3.767Z" fill="#ffa149"/>
    <path id="Path_11680" data-name="Path 11680" d="M12.082.723a15.184,15.184,0,0,1,1.674,2.854A10.863,10.863,0,0,0,15.565,3.2,8.778,8.778,0,0,0,12.083.723Z" fill="#ffa149"/>
    <path id="Path_11681" data-name="Path 11681" d="M14.594,6.717c-.837.1-1.712.133-2.607.152v2.55H14.9a13.36,13.36,0,0,0-.3-2.7Z" fill="#ffa149"/>
    <path id="Path_11682" data-name="Path 11682" d="M11.987.913v2.8a14.025,14.025,0,0,0,1.56-.1,13.527,13.527,0,0,0-1.56-2.7Z" fill="#ffa149"/>
    <path id="Path_11683" data-name="Path 11683" d="M13.643,3.786a15.426,15.426,0,0,1-1.655.114V6.679c.875,0,1.732-.057,2.55-.133a16.09,16.09,0,0,0-.894-2.759Z" fill="#ffa149"/>
    <path id="Path_11684" data-name="Path 11684" d="M19.751,12.063l-6.964-1.617,2,6.869,1.275-2.3,3.121,2.93,1.446-1.522-3.121-2.949Z" fill="#ffa149" opacity="0.4"/>
    <path id="Path_11685" data-name="Path 11685" d="M14.042,15.488a1.483,1.483,0,0,0-.3-.038A14.6,14.6,0,0,1,12.063,18.3,8.536,8.536,0,0,0,14.442,16.9Z" fill="#ffa149"/>
    <path id="Path_11686" data-name="Path 11686" d="M20.245,11.987,18.457,13.11c.457.152.913.323,1.313.495a9.1,9.1,0,0,0,.97-4H18.057a9.583,9.583,0,0,1-.19,1.827Z" fill="#ffa149"/>
    <path id="Path_11687" data-name="Path 11687" d="M18.247,13.243l-.438.266L19.1,14.727a9.406,9.406,0,0,0,.571-.932,9.662,9.662,0,0,0-1.427-.552Z" fill="#ffa149"/>
    <path id="Path_11688" data-name="Path 11688" d="M16.173,15.374l-.285.342a9.166,9.166,0,0,1,1.085.419Z" fill="#ffa149"/>
    <path id="Path_11689" data-name="Path 11689" d="M14.727,17.81l-.209-.723a8.451,8.451,0,0,1-2.436,1.427,8.674,8.674,0,0,0,5.328-1.96,9.576,9.576,0,0,0-1.617-.666Z" fill="#ffa149"/>
    <path id="Path_11690" data-name="Path 11690" d="M13.148,12.387c-.381-.019-.761-.038-1.161-.038v2.778a12.111,12.111,0,0,1,1.655.114,4.968,4.968,0,0,0,.19-.476Z" fill="#ffa149"/>
    <path id="Path_11691" data-name="Path 11691" d="M12.5,10.2l2.321.533c.038-.381.057-.761.057-1.123H11.987v2.55c.362,0,.742.019,1.1.038Z" fill="#ffa149"/>
    <path id="Path_11692" data-name="Path 11692" d="M17.7,11.4a11.191,11.191,0,0,0,.19-1.789h-2.8c0,.381-.038.78-.076,1.18Z" fill="#ffa149"/>
    <path id="Path_11693" data-name="Path 11693" d="M13.928,15.051a2.249,2.249,0,0,1-.1.209c.057,0,.1.019.152.019Z" fill="#ffa149"/>
  </g>
</svg>
