<svg xmlns="http://www.w3.org/2000/svg" width="19.996" height="20" viewBox="0 0 19.996 20">
  <g id="save-2766370" transform="translate(-2.755 -0.2)">
    <path id="Path_17934" data-name="Path 17934" d="M21.077,20.2H4.428a1.681,1.681,0,0,1-1.673-1.673V1.877A1.681,1.681,0,0,1,4.428.2H16.915a.739.739,0,0,1,.633.245l4.917,4.917a.844.844,0,0,1,.245.673h.041V18.547A1.676,1.676,0,0,1,21.077,20.2ZM8.59,18.527h8.325V12.712H8.59Zm6.672-16.65h-5v5h5Zm5.815,4.55L16.915,2.265V6.876a1.681,1.681,0,0,1-1.673,1.673H10.263A1.681,1.681,0,0,1,8.59,6.876v-5H4.428v16.67H6.917V12.712A1.681,1.681,0,0,1,8.59,11.038h8.325a1.681,1.681,0,0,1,1.673,1.673v5.835H21.1V6.427Z" fill="#ffa149"/>
  </g>
</svg>
