<svg xmlns="http://www.w3.org/2000/svg" width="14.222" height="16" viewBox="0 0 14.222 16">
  <g id="add-task-1868393" transform="translate(-6.222 -1.778)">
    <path id="Path_18030" data-name="Path 18030" d="M10.667,5.333H16a.889.889,0,0,0,.889-.889V3.555H15.111a1.778,1.778,0,0,0-3.556,0H9.778v.889a.889.889,0,0,0,.889.889Z" fill="#ffa149" opacity="0.7"/>
    <path id="Path_18031" data-name="Path 18031" d="M18.222,3.6v.844A2.225,2.225,0,0,1,16,6.667H10.666A2.225,2.225,0,0,1,8.444,4.444V3.6A2.661,2.661,0,0,0,6.222,6.222v8.889a2.667,2.667,0,0,0,2.667,2.667h8.889a2.667,2.667,0,0,0,2.667-2.667V6.222A2.661,2.661,0,0,0,18.222,3.6ZM16,13.333H14.222v1.778a.889.889,0,1,1-1.778,0V13.333H10.666a.889.889,0,0,1,0-1.778h1.778V9.778a.889.889,0,1,1,1.778,0v1.778H16a.889.889,0,0,1,0,1.778Z" fill="#ffa149"/>
  </g>
</svg>
