<svg xmlns="http://www.w3.org/2000/svg" width="60" height="59.992" viewBox="0 0 60 59.992">
  <g id="Over_Due" data-name="Over Due" transform="translate(0 -0.011)">
    <g id="Group_19719" data-name="Group 19719" transform="translate(0 0.01)">
      <g id="Group_19718" data-name="Group 19718">
        <path id="Path_15321" data-name="Path 15321" d="M126.168,28.507a.88.88,0,0,0,.88-.88V21.14a.88.88,0,0,0-1.759,0v6.488a.88.88,0,0,0,.88.879Z" transform="translate(-81.877 -13.249)" fill="#001c77"/>
        <path id="Path_15322" data-name="Path 15322" d="M126.224,48.7a.88.88,0,0,0,0,1.759A.88.88,0,0,0,126.224,48.7Z" transform="translate(-81.934 -31.827)" fill="#001c77"/>
        <path id="Path_15323" data-name="Path 15323" d="M65.678,51.127a.88.88,0,0,0,.88-.88v-1.29a.88.88,0,1,0-1.759,0v1.29A.88.88,0,0,0,65.678,51.127Z" transform="translate(-42.347 -31.428)" fill="#001c77"/>
        <path id="Path_15324" data-name="Path 15324" d="M43.7,56.36a.91.91,0,0,0,1.2.322.88.88,0,0,0,.322-1.2l-.645-1.116a.88.88,0,0,0-1.522.88Z" transform="translate(-28.061 -35.243)" fill="#001c77"/>
        <path id="Path_15325" data-name="Path 15325" d="M29.371,70.69l-1.116-.645a.88.88,0,1,0-.88,1.522l1.116.645a.91.91,0,0,0,1.2-.322.88.88,0,0,0-.322-1.2Z" transform="translate(-17.602 -45.701)" fill="#001c77"/>
        <path id="Path_15326" data-name="Path 15326" d="M28.492,111.9l-1.116.645a.88.88,0,0,0-.322,1.2.91.91,0,0,0,1.2.322l1.116-.645a.88.88,0,1,0-.88-1.522Z" transform="translate(-17.602 -73.057)" fill="#001c77"/>
        <path id="Path_15327" data-name="Path 15327" d="M44.9,126.544a.88.88,0,0,0-1.2.322l-.645,1.116a.88.88,0,0,0,.322,1.2.91.91,0,0,0,1.2-.322l.645-1.116a.88.88,0,0,0-.322-1.2Z" transform="translate(-28.061 -82.625)" fill="#001c77"/>
        <path id="Path_15328" data-name="Path 15328" d="M104.8,92.667a.88.88,0,0,0,.88.88h1.289a.88.88,0,0,0,0-1.759h-1.289a.88.88,0,0,0-.879.88Z" transform="translate(-68.485 -59.988)" fill="#001c77"/>
        <path id="Path_15329" data-name="Path 15329" d="M100.756,72.213l1.116-.645a.88.88,0,1,0-.88-1.522l-1.116.645a.88.88,0,0,0-.322,1.2A.981.981,0,0,0,100.756,72.213Z" transform="translate(-64.983 -45.702)" fill="#001c77"/>
        <path id="Path_15330" data-name="Path 15330" d="M85.237,56.682a.91.91,0,0,0,1.2-.322l.645-1.116a.88.88,0,0,0-1.522-.88l-.645,1.116a.88.88,0,0,0,.321,1.2Z" transform="translate(-55.416 -35.243)" fill="#001c77"/>
        <path id="Path_15331" data-name="Path 15331" d="M61.908,79.676a2.865,2.865,0,0,0,2.126-4.767L67.612,68.8a.88.88,0,0,0-1.517-.888l-3.581,6.112a2.859,2.859,0,1,0-.607,5.652Zm0-3.96a1.1,1.1,0,1,1-1.1,1.1A1.1,1.1,0,0,1,61.908,75.717Z" transform="translate(-38.589 -44.1)" fill="#001c77"/>
        <path id="Path_15332" data-name="Path 15332" d="M56.548,38.583H45.922a23.449,23.449,0,0,0-1.533-15.967H54.4a2.6,2.6,0,0,0,2.23-3.867L46.52,1.275a2.6,2.6,0,0,0-4.461,0l-6.63,11.456A23.187,23.187,0,0,0,26.768,9.6V7.647h.519a2.5,2.5,0,0,0,0-5H19.375a2.5,2.5,0,1,0,0,5h.519V9.6a23.056,23.056,0,0,0-6.235,1.847.879.879,0,0,0,.731,1.6c16.638-7.6,34.715,7.95,29.711,25.54H42.269c4.068-12.449-5.806-25.936-18.938-25.722a19.829,19.829,0,0,0-2.509,39.5v1.771c-19.443-2.436-26-27.122-10.25-38.844A.879.879,0,0,0,9.531,13.87,23.321,23.321,0,0,0,6.28,48.62,23.265,23.265,0,0,0,20.824,55.9v.653A3.453,3.453,0,0,0,24.274,60H56.55A3.453,3.453,0,0,0,60,56.552V42.032A3.453,3.453,0,0,0,56.548,38.583ZM18.632,5.147a.744.744,0,0,1,.744-.744h7.911a.744.744,0,0,1,0,1.485H19.375A.744.744,0,0,1,18.632,5.147ZM21.65,9.4V7.645h3.359V9.4a23.684,23.684,0,0,0-3.359,0ZM36.9,13.7,43.582,2.156a.822.822,0,0,1,1.417,0L55.11,19.629a.822.822,0,0,1-.709,1.229H43.448A23.526,23.526,0,0,0,36.9,13.7ZM22.582,46.671a7.277,7.277,0,0,0,6.331-6.331h23a7.277,7.277,0,0,0,6.331,6.331v5.24a7.277,7.277,0,0,0-6.331,6.331h-23a7.277,7.277,0,0,0-6.331-6.331Zm0-1.774V42.032a1.691,1.691,0,0,1,1.691-1.691h2.866A5.519,5.519,0,0,1,22.582,44.9Zm35.658-2.866V44.9a5.52,5.52,0,0,1-4.557-4.557h2.866a1.693,1.693,0,0,1,1.691,1.691Zm-48.19,2.911C-.591,33.5,7.7,14.574,23.331,14.619,35.547,14.457,44.546,27.1,40.418,38.583H24.273a3.453,3.453,0,0,0-3.45,3.45v8.555a18.011,18.011,0,0,1-10.775-5.644ZM22.582,56.551V53.685a5.52,5.52,0,0,1,4.557,4.557H24.273a1.691,1.691,0,0,1-1.691-1.69Zm33.967,1.691H53.683a5.52,5.52,0,0,1,4.557-4.557v2.866a1.691,1.691,0,0,1-1.691,1.69Z" transform="translate(0 -0.01)" fill="#001c77"/>
        <path id="Path_15333" data-name="Path 15333" d="M103.344,135.95a7.007,7.007,0,0,0,2.971-.656.88.88,0,0,0-.74-1.595,5.343,5.343,0,1,1,2.65-2.72.88.88,0,1,0,1.613.7,7.124,7.124,0,0,0-6.495-9.926C93.952,122.142,93.954,135.561,103.344,135.95Z" transform="translate(-62.934 -79.57)" fill="#001c77"/>
        <path id="Path_15334" data-name="Path 15334" d="M112.085,138.271a.944.944,0,0,0,.88-.988,2.436,2.436,0,0,0,1.513-1.865,2.2,2.2,0,0,0-1.485-2.491c-.209-.074-1.478-.4-1.311-.854.124-.336.727-.265.953-.113,0,0,.734.589,1.243.024a.9.9,0,0,0-.048-1.315,2.372,2.372,0,0,0-.864-.48.88.88,0,1,0-1.759.051,2.1,2.1,0,0,0-1.273,1.58,1.9,1.9,0,0,0,.639,1.872,6.609,6.609,0,0,0,1.832.89.451.451,0,0,1,.338.541.667.667,0,0,1-.664.568,1.319,1.319,0,0,1-.987-.254.88.88,0,0,0-.965,1.469,2.994,2.994,0,0,0,1.079.477.93.93,0,0,0,.88.885Z" transform="translate(-71.71 -84.507)" fill="#001c77"/>
      </g>
      <path id="Path_15335" data-name="Path 15335" d="M24.139,92.667a.88.88,0,0,0-.88-.88h-1.29a.88.88,0,0,0,0,1.759h1.29A.88.88,0,0,0,24.139,92.667Z" transform="translate(-13.787 -59.988)" fill="#001c77"/>
    </g>
  </g>
</svg>
