<svg xmlns="http://www.w3.org/2000/svg" width="58.583" height="60" viewBox="0 0 58.583 60">
  <g id="Paid" transform="translate(-1.754)">
    <g id="Group_19711" data-name="Group 19711" transform="translate(1.754)">
      <path id="Path_15290" data-name="Path 15290" d="M21.542,50.22a.879.879,0,0,0,.879-.879V46.227l2.411,3.49a.955.955,0,0,0,1.08.394.986.986,0,0,0,.676-.979l-.055-5.744a.879.879,0,0,0-.879-.87h-.009a.879.879,0,0,0-.87.887l.031,3.18-2.539-3.677a.879.879,0,0,0-1.6.5v5.932a.879.879,0,0,0,.879.879Z" transform="translate(-13.024 -25.341)" fill="#00772c"/>
      <path id="Path_15291" data-name="Path 15291" d="M74.222,50.221a.879.879,0,0,0,.879-.879V43.4a.879.879,0,1,0-1.758,0v5.945A.879.879,0,0,0,74.222,50.221Z" transform="translate(-44.423 -25.342)" fill="#00772c"/>
      <path id="Path_15292" data-name="Path 15292" d="M13.6,50.221a.879.879,0,0,0,.879-.879V43.4a.879.879,0,1,0-1.758,0v5.945A.879.879,0,0,0,13.6,50.221Z" transform="translate(-8.288 -25.342)" fill="#00772c"/>
      <path id="Path_15293" data-name="Path 15293" d="M98.906,43.531v5.891a.879.879,0,0,0,.879.879h2.482a.879.879,0,0,0,0-1.758h-1.6V47.355h1.421a.879.879,0,1,0,0-1.758h-1.421V44.41h1.6a.879.879,0,0,0,0-1.758H99.785A.879.879,0,0,0,98.906,43.531Z" transform="translate(-59.659 -25.422)" fill="#00772c"/>
      <path id="Path_15294" data-name="Path 15294" d="M83.549,50.221A3.216,3.216,0,0,0,86.1,49.067a.879.879,0,1,0-1.347-1.13,1.463,1.463,0,0,1-1.2.525,2.094,2.094,0,1,1,1.17-3.829.879.879,0,1,0,.984-1.457,3.852,3.852,0,1,0-2.154,7.045Z" transform="translate(-48.21 -25.342)" fill="#00772c"/>
      <path id="Path_15295" data-name="Path 15295" d="M39.1,49.547a1.014,1.014,0,0,0,.955.674h.007a1.015,1.015,0,0,0,.954-.693l1.941-5.843a.879.879,0,1,0-1.668-.554l-1.25,3.762-1.313-3.786a.879.879,0,1,0-1.661.576Z" transform="translate(-22.771 -25.341)" fill="#00772c"/>
      <path id="Path_15296" data-name="Path 15296" d="M55.507,50.221a3.852,3.852,0,1,0-3.852-3.852,3.852,3.852,0,0,0,3.852,3.852Zm0-5.945a2.094,2.094,0,1,1-2.094,2.094,2.094,2.094,0,0,1,2.094-2.094Z" transform="translate(-31.496 -25.342)" fill="#00772c"/>
      <path id="Path_15297" data-name="Path 15297" d="M63.662,67.269H32.149a.879.879,0,0,0,0,1.758H63.662a.879.879,0,0,0,0-1.758Z" transform="translate(-19.346 -40.094)" fill="#00772c"/>
      <path id="Path_15298" data-name="Path 15298" d="M15.939,68.148a.879.879,0,0,0-.879-.879H9.368a.879.879,0,0,0,0,1.758H15.06a.879.879,0,0,0,.879-.879Z" transform="translate(-5.768 -40.094)" fill="#00772c"/>
      <path id="Path_15299" data-name="Path 15299" d="M43.8,79.308H25.171a.879.879,0,0,0,0,1.758H43.8a.879.879,0,0,0,0-1.758Z" transform="translate(-15.187 -47.27)" fill="#00772c"/>
      <path id="Path_15300" data-name="Path 15300" d="M90.608,79.308H88.071a.879.879,0,0,0,0,1.758h2.538a.879.879,0,0,0,0-1.758Z" transform="translate(-52.677 -47.27)" fill="#00772c"/>
      <path id="Path_15301" data-name="Path 15301" d="M43.8,90.558H25.171a.879.879,0,0,0,0,1.758H43.8a.879.879,0,0,0,0-1.758Z" transform="translate(-15.187 -53.975)" fill="#00772c"/>
      <path id="Path_15302" data-name="Path 15302" d="M90.608,90.558H88.071a.879.879,0,0,0,0,1.758h2.538a.879.879,0,0,0,0-1.758Z" transform="translate(-52.677 -53.975)" fill="#00772c"/>
      <path id="Path_15303" data-name="Path 15303" d="M43.8,101.808H25.171a.879.879,0,1,0,0,1.758H43.8a.879.879,0,0,0,0-1.758Z" transform="translate(-15.187 -60.681)" fill="#00772c"/>
      <path id="Path_15304" data-name="Path 15304" d="M90.608,101.808H88.071a.879.879,0,0,0,0,1.758h2.538a.879.879,0,0,0,0-1.758Z" transform="translate(-52.677 -60.681)" fill="#00772c"/>
      <path id="Path_15305" data-name="Path 15305" d="M43.8,113.058H25.171a.879.879,0,1,0,0,1.758H43.8a.879.879,0,0,0,0-1.758Z" transform="translate(-15.187 -67.386)" fill="#00772c"/>
      <path id="Path_15306" data-name="Path 15306" d="M60.175,40.869a4.362,4.362,0,0,0-8-.976l-2.5,4.432V5.565A5.572,5.572,0,0,0,44.1,0H18.038a6.784,6.784,0,0,0-4.764,1.973L3.727,11.52a6.784,6.784,0,0,0-1.973,4.764V49.128a5.572,5.572,0,0,0,5.567,5.565H42.04l2.8,3.618A4.394,4.394,0,0,0,48.291,60c.1,0,.2,0,.319-.012a4.354,4.354,0,0,0,3.483-2.2l3.239-5.739A.879.879,0,1,0,53.8,51.18l-3.24,5.737a2.6,2.6,0,0,1-2.076,1.317c-.071,0-.135.007-.194.007a2.624,2.624,0,0,1-2.058-1.008l-5.826-7.515a2.6,2.6,0,1,1,4.118-3.191L47.141,49.9a.879.879,0,0,0,1.46-.106l5.1-9.037A2.6,2.6,0,1,1,58.24,43.32l-2.721,4.817A.879.879,0,1,0,57.05,49l2.721-4.818a4.336,4.336,0,0,0,.4-3.316ZM14.517,3.216a4.889,4.889,0,0,1,.493-.429,4.285,4.285,0,0,0-.278,1.52V9.171a3.812,3.812,0,0,1-3.808,3.807H6.06a4.284,4.284,0,0,0-1.519.278,4.88,4.88,0,0,1,.429-.493Zm33.2,44.562-1.806-2.329a4.366,4.366,0,0,0-7.059.223H37.146a.879.879,0,0,0,0,1.758h1.013c-.008.048-.016.1-.022.145a4.333,4.333,0,0,0,.88,3.22l1.659,2.141H7.32a3.812,3.812,0,0,1-3.81-3.807V17.276a2.553,2.553,0,0,1,2.55-2.539h4.864A5.572,5.572,0,0,0,16.49,9.171V4.307a2.553,2.553,0,0,1,2.548-2.549H44.1a3.812,3.812,0,0,1,3.809,3.807V47.439Z" transform="translate(-1.754)" fill="#00772c"/>
      <path id="Path_15307" data-name="Path 15307" d="M90.415,18.81a3.281,3.281,0,0,0,1.351.564v.138a.879.879,0,0,0,1.758,0v-.235a2.754,2.754,0,0,0,1.8-2.123,2.438,2.438,0,0,0-1.655-2.761,6.479,6.479,0,0,1-1.625-.75.4.4,0,0,1-.058-.346.577.577,0,0,1,.372-.456,1.16,1.16,0,0,1,1.068.16.879.879,0,1,0,1.124-1.351,2.751,2.751,0,0,0-1.022-.52v-.122a.879.879,0,1,0-1.758,0v.177a2.321,2.321,0,0,0-1.512,1.787,2.089,2.089,0,0,0,.7,2.054,7.7,7.7,0,0,0,2.125,1.025.678.678,0,0,1,.508.812.954.954,0,0,1-.94.8h-.009a1.721,1.721,0,0,1-1.26-.327.879.879,0,1,0-.962,1.471Z" transform="translate(-54.361 -6.037)" fill="#00772c"/>
    </g>
  </g>
</svg>
