<svg xmlns="http://www.w3.org/2000/svg" width="30" height="30" viewBox="0 0 30 30">
  <g id="noun-bank-1038014" transform="translate(-98 -28)">
    <path id="Path_25748" data-name="Path 25748" d="M217.52,232.868v1h15.77v-1h-1.209v-8.189h1.209v-1H217.52v1h1.209v8.189Zm4.342,0v-8.189h1.978v8.189Zm5.11,0v-8.189h1.978v8.189Zm4.11-8.189v8.189H229.95v-8.189Zm-5.11,0v8.189H224.84v-8.189Zm-6.242,0h1.132v8.189H219.73Z" transform="translate(-112.406 -184.031)" fill="#5c5c5c"/>
    <path id="Path_25749" data-name="Path 25749" d="M212.629,411.6h-17.5a.5.5,0,1,0,0,1h17.5a.5.5,0,0,0,0-1Z" transform="translate(-90.88 -360.767)" fill="#5c5c5c"/>
    <path id="Path_25750" data-name="Path 25750" d="M213.1,102.607c0-.012,0-.025,0-.037s-.01-.033-.015-.049-.008-.029-.014-.043a.423.423,0,0,0-.023-.043c-.008-.014-.014-.028-.023-.041s-.02-.024-.03-.036-.021-.026-.032-.038-.02-.016-.03-.025a.467.467,0,0,0-.047-.037l-.005,0-8.749-5.567a.5.5,0,0,0-.537,0l-8.749,5.567-.005,0a.46.46,0,0,0-.047.037c-.01.008-.021.016-.03.025a.424.424,0,0,0-.032.038c-.01.012-.021.023-.03.036s-.015.027-.023.041-.017.028-.023.043a.44.44,0,0,0-.014.043.5.5,0,0,0-.015.049c0,.012,0,.025,0,.037a.555.555,0,0,0-.006.062s0,0,0,.006,0,.021,0,.032a.536.536,0,0,0,.006.061c0,.015.008.03.012.044a.318.318,0,0,0,.04.1c.006.011.01.022.017.033l0,.005a.484.484,0,0,0,.033.042.439.439,0,0,0,.029.035c.009.009.019.016.028.024a.489.489,0,0,0,.047.039l.023.013a.5.5,0,0,0,.061.033c.009,0,.019.006.029.009a.474.474,0,0,0,.064.02l.029,0a.463.463,0,0,0,.07.007h17.5a.5.5,0,0,0,.113-.014l.029-.009a.472.472,0,0,0,.077-.03l.033-.018a.5.5,0,0,0,.067-.047c.009-.007.017-.013.026-.021a.49.49,0,0,0,.073-.088l0,0c.007-.011.011-.022.017-.033s.018-.032.025-.049.011-.033.015-.049a.416.416,0,0,0,.012-.044.443.443,0,0,0,.006-.061c0-.011,0-.021,0-.032s0,0,0-.006c0-.022-.005-.042-.008-.063ZM203.862,97.7l7.031,4.475H196.83Z" transform="translate(-90.862 -64.523)" fill="#5c5c5c"/>
    <path id="Path_25751" data-name="Path 25751" d="M113,28a15,15,0,1,0,15,15A15.017,15.017,0,0,0,113,28Zm0,29a14,14,0,1,1,14-14A14.016,14.016,0,0,1,113,57Z" fill="#5c5c5c"/>
  </g>
</svg>
