<svg xmlns="http://www.w3.org/2000/svg" width="91.552" height="22.003" viewBox="0 0 91.552 22.003">
  <g id="surface1" transform="translate(-59.77 -65.173)">
    <g id="Paysafe-UI-KIT-logos" transform="translate(59.77 65.173)">
      <g id="Logos-white" transform="translate(0 0)">
        <g id="b2b-logo-full-colour-white" transform="translate(0)">
          <path id="Fill-1" d="M591.249,286.824a2.624,2.624,0,1,1-2.625-2.624,2.624,2.624,0,0,1,2.625,2.624" transform="translate(-499.697 -278.951)" fill="#7887e6"/>
          <path id="Fill-3" d="M591.249,340.624A2.624,2.624,0,1,1,588.624,338a2.624,2.624,0,0,1,2.625,2.624" transform="translate(-499.697 -324.542)" fill="#ff5073"/>
          <path id="Fill-5" d="M26.61,258.833H24.52v-4.99h2.09a2.259,2.259,0,0,1,2.319,2.518A2.209,2.209,0,0,1,26.61,258.833Zm.458-8.011H20.4V268.2h4.135v-6.348h2.548c3.357,0,5.875-2.09,5.875-5.646C32.943,253.142,31.051,250.822,27.068,250.822Zm27.588,4.532-2.777,7.675-3.189-7.675H44.57L50,267.591,48.308,271.8h3.83l6.515-16.449Zm29.77-.519v.534H82.289v2.747h2.136v10.1h4v-10.1H91.2v-2.747H88.423v-.687c0-1.129.458-1.938,1.694-1.938a4.314,4.314,0,0,1,1.19.183v-2.869A7.117,7.117,0,0,0,89.4,249.8C86.15,249.8,84.425,251.784,84.425,254.835ZM77.1,265.379a2.8,2.8,0,0,1-1.587.5,1.512,1.512,0,0,1-1.694-1.511c0-1.053.839-2.09,3.281-1.694Zm-.778-10.315a10.715,10.715,0,0,0-5.661,1.541l1.114,2.289a10.066,10.066,0,0,1,3.571-.9c.931,0,1.77.32,1.77,1.312v.854c-5.554-.4-7.156,2.045-7.156,4.3a4.168,4.168,0,0,0,4.318,4.059,5.535,5.535,0,0,0,2.823-.87v.565h4.028v-8.942C81.145,256.361,79.3,255.064,76.323,255.064ZM40.45,265.379a2.8,2.8,0,0,1-1.587.5,1.512,1.512,0,0,1-1.694-1.511c0-1.053.839-2.09,3.281-1.694Zm-.931-10.315a10.715,10.715,0,0,0-5.661,1.541l1.114,2.289a10.066,10.066,0,0,1,3.571-.9c.931,0,1.77.32,1.77,1.312v.854c-5.569-.412-7.156,2.029-7.156,4.288a4.168,4.168,0,0,0,4.318,4.059,5.535,5.535,0,0,0,2.823-.87v.565h4.028V259.26C44.341,256.361,42.495,255.064,39.519,255.064Zm23.3,3.921c0-.61.61-.977,1.617-.977a7.906,7.906,0,0,1,2.975.732l1.129-2.64a10.038,10.038,0,0,0-4.3-1.038c-2.991,0-5.417,1.358-5.417,4.074,0,4.288,6.042,3.494,6.042,5.386,0,.7-.7,1.053-1.892,1.053a7.511,7.511,0,0,1-3.281-.854l-1.282,2.594a10.608,10.608,0,0,0,4.913,1.19c2.914,0,5.447-1.511,5.447-4.288C68.755,259.993,62.819,260.695,62.819,258.986Zm35.049-1.1c1.114,0,1.984.885,2.136,2.594H95.717C95.885,258.757,96.77,257.887,97.868,257.887Zm6.21,4.7V261.58a6.192,6.192,0,0,0-6.21-6.531c-3.571,0-6.348,2.853-6.348,6.805,0,4.059,2.624,6.653,6.805,6.653a9.751,9.751,0,0,0,5.249-1.434l-1.129-2.5a7.165,7.165,0,0,1-3.525.992,1.662,1.662,0,0,1-.275-.015h-.061a1.5,1.5,0,0,1-.259-.031.115.115,0,0,1-.061-.015c-.076-.015-.137-.015-.2-.03-.031,0-.046-.015-.076-.015a.755.755,0,0,1-.2-.061c-.031-.015-.076-.015-.107-.031l-.137-.046c-.046-.015-.107-.046-.153-.061-.015,0-.031-.015-.046-.015-.076-.046-.168-.076-.229-.122h0a2.6,2.6,0,0,1-.458-.351h0a.8.8,0,0,1-.153-.168l-.061-.061a.461.461,0,0,1-.076-.107,2.222,2.222,0,0,1-.137-.2h0a3.75,3.75,0,0,1-.488-1.633h8.331Z" transform="translate(-20.4 -249.8)" fill="#2d2341"/>
        </g>
      </g>
    </g>
  </g>
</svg>
