<svg xmlns="http://www.w3.org/2000/svg" width="17.167" height="21.935" viewBox="0 0 17.167 21.935">
  <g id="Group_9429" data-name="Group 9429" transform="translate(0)">
    <path id="Path_13645" data-name="Path 13645" d="M16.109,3.334a.16.16,0,0,0,.24,0l1.109-1.118a.16.16,0,0,0-.121-.268h-.4V1.16a.16.16,0,0,0-.16-.16h-1.1a.16.16,0,0,0-.16.16v.788h-.4a.16.16,0,0,0-.12.268Z" transform="translate(-0.333 -1)" fill="#f00f00"/>
    <path id="Path_13646" data-name="Path 13646" d="M12.868,10.347c-.458-.512-.911-1.082-1.319-1.6-.192-.244-.376-.474-.548-.685l-.013-.015a7.2,7.2,0,0,0,.428-1.746,3.042,3.042,0,0,0-.383-2.213.844.844,0,0,0-.9-.224,1.186,1.186,0,0,0-.726.836,4.514,4.514,0,0,0,.623,3.475A25.654,25.654,0,0,1,8.7,11.064a6.338,6.338,0,0,0-2.359,1.365c-.744.726-1.047,1.447-.83,1.978a.851.851,0,0,0,.825.524,1.555,1.555,0,0,0,.834-.278,10.131,10.131,0,0,0,2.118-2.885,13.131,13.131,0,0,1,2.541-.5c.232-.022.463-.04.682-.053a4.643,4.643,0,0,0,2.306,1.571,2.214,2.214,0,0,0,.4.038,1.357,1.357,0,0,0,1.219-.587.87.87,0,0,0-.009-.89c-.375-.649-1.506-1.006-3.186-1.006C13.122,10.342,13,10.343,12.868,10.347ZM6.7,13.938a.752.752,0,0,1-.366.139.165.165,0,0,1-.038,0c-.017-.085.044-.453.64-1.035a4.5,4.5,0,0,1,1.053-.744A6.364,6.364,0,0,1,6.7,13.938ZM10.22,4.969c.062-.19.139-.276.187-.292h0c.046.052.244.35.155,1.567a4.358,4.358,0,0,1-.154.8A3.376,3.376,0,0,1,10.22,4.97Zm1.524,5.45a14.487,14.487,0,0,0-1.916.317c.3-.6.576-1.2.807-1.763l.246.309c.279.352.592.747.917,1.133Zm3.946,1.355c.013.022.012.031.009.037a.591.591,0,0,1-.48.161,1.37,1.37,0,0,1-.249-.024,2.832,2.832,0,0,1-1.252-.742c1.327.065,1.864.385,1.971.57Z" transform="translate(-2.414 -0.383)" fill="#f00f00"/>
    <path id="Path_13647" data-name="Path 13647" d="M15.218,1H4.183A1.226,1.226,0,0,0,2.957,2.226V21.709a1.226,1.226,0,0,0,1.226,1.226H18.9a1.225,1.225,0,0,0,1.226-1.226V5.9Zm0,1.734L18.388,5.9h-3.17ZM18.9,21.709H4.183V2.226h9.81V5.9a1.226,1.226,0,0,0,1.226,1.226H18.9V21.709Z" transform="translate(-2.957 -1)" fill="#f00f00"/>
    <path id="Path_13648" data-name="Path 13648" d="M8.734,13.916a.894.894,0,0,0-.357-.191,2.206,2.206,0,0,0-.574-.058H6.988a.5.5,0,0,0-.348.107.455.455,0,0,0-.116.344v2.421a.472.472,0,0,0,.1.327.378.378,0,0,0,.549,0,.475.475,0,0,0,.106-.33v-.829H7.8a1.4,1.4,0,0,0,.919-.262.955.955,0,0,0,.317-.774,1.133,1.133,0,0,0-.077-.428A.865.865,0,0,0,8.734,13.916Zm-.527,1.012a.377.377,0,0,1-.2.132,1.232,1.232,0,0,1-.358.044H7.282v-.838H7.65c.331,0,.466.066.519.12a.414.414,0,0,1,.106.3.4.4,0,0,1-.067.246Z" transform="translate(-2.177 1.769)" fill="#f00f00"/>
    <path id="Path_13649" data-name="Path 13649" d="M11.224,13.968a1.085,1.085,0,0,0-.445-.238,2.313,2.313,0,0,0-.57-.062H9.381a.393.393,0,0,0-.451.451v2.3a.991.991,0,0,0,.029.264.3.3,0,0,0,.142.183.566.566,0,0,0,.292.061h.829a2.526,2.526,0,0,0,.4-.029,1.331,1.331,0,0,0,.338-.1,1.153,1.153,0,0,0,.292-.193,1.375,1.375,0,0,0,.276-.35,1.6,1.6,0,0,0,.158-.439,2.572,2.572,0,0,0,.051-.529A1.655,1.655,0,0,0,11.224,13.968Zm-.554,2.2a.458.458,0,0,1-.146.085.717.717,0,0,1-.171.039c-.058.005-.139.008-.244.008H9.688V14.293h.359a1.647,1.647,0,0,1,.479.061.565.565,0,0,1,.311.268,1.321,1.321,0,0,1,.132.665A1.113,1.113,0,0,1,10.67,16.17Z" transform="translate(-1.652 1.768)" fill="#f00f00"/>
    <path id="Path_13650" data-name="Path 13650" d="M13.53,13.667h-1.5a.587.587,0,0,0-.247.045.313.313,0,0,0-.157.156.585.585,0,0,0-.046.25v2.417a.476.476,0,0,0,.105.332.383.383,0,0,0,.548,0,.477.477,0,0,0,.105-.334V15.56h.987a.377.377,0,0,0,.257-.079.279.279,0,0,0,.094-.219.283.283,0,0,0-.092-.219.372.372,0,0,0-.259-.081h-.987v-.682H13.53a.385.385,0,0,0,.268-.084.312.312,0,0,0,0-.446.387.387,0,0,0-.268-.081Z" transform="translate(-1.072 1.769)" fill="#f00f00"/>
  </g>
</svg>
