<svg xmlns="http://www.w3.org/2000/svg" xmlns:xlink="http://www.w3.org/1999/xlink" width="20" height="20" viewBox="0 0 20 20">
  <defs>
    <clipPath id="clip-path">
      <rect id="Rectangle_2825" data-name="Rectangle 2825" width="20" height="20" fill="#e76f51"/>
    </clipPath>
  </defs>
  <g id="Mask_Group_299" data-name="Mask Group 299" clip-path="url(#clip-path)">
    <g id="Group_19987" data-name="Group 19987" transform="translate(2)">
      <path id="Path_15331" data-name="Path 15331" d="M73.358,4.055,69.473.17A.583.583,0,0,0,69.062,0H60.122a1.75,1.75,0,0,0-1.745,1.745v16.4a1.75,1.75,0,0,0,1.745,1.745H71.779a1.75,1.75,0,0,0,1.745-1.745V4.468a.583.583,0,0,0-.17-.412ZM69.644,1.99l1.9,1.9h-1.9ZM71.78,18.722H60.122a.584.584,0,0,1-.583-.583V1.745a.584.584,0,0,1,.583-.579h8.356v3.3a.583.583,0,0,0,.583.583h3.3V18.143a.584.584,0,0,1-.584.582Z" transform="translate(-58.378)" fill="#e76f51"/>
      <path id="Path_15332" data-name="Path 15332" d="M125.52,157.939h-1.4l-1.546-2.678.7-1.213a1.586,1.586,0,1,0-2.747,0l.7,1.213-1.546,2.678h-1.4a1.586,1.586,0,1,0,0,3.172h0a1.57,1.57,0,0,0,1.373-.793l.7-1.213h3.093l.7,1.213a1.586,1.586,0,1,0,1.373-2.379Zm-6.876,1.8a.42.42,0,1,1-.364-.634h.728Zm2.892-6.69a.42.42,0,0,1,.728.42l-.364.634-.364-.634a.413.413,0,0,1,0-.42Zm-.509,4.894.872-1.512.872,1.512Zm4.857,1.8a.42.42,0,0,1-.728,0l-.364-.634h.728a.42.42,0,0,1,.364.634Z" transform="translate(-114.324 -145.512)" fill="#e76f51"/>
    </g>
  </g>
</svg>
