<svg xmlns="http://www.w3.org/2000/svg" width="12.963" height="12.964" viewBox="0 0 12.963 12.964">
  <g id="Group_19985" data-name="Group 19985" transform="translate(-4.321 0)">
    <path id="Edit" d="M13.392,17.716l8.644-8.644a.617.617,0,0,1,.872,0l3.086,3.086a.617.617,0,0,1,0,.872l-8.644,8.644a.617.617,0,0,1-.436.181H13.829a.617.617,0,0,1-.617-.617V18.149a.617.617,0,0,1,.181-.436Zm8.1-6.353L23.7,13.576l.979-.979-2.213-2.216Zm-7.043,9.259h2.214l6.172-6.172L20.62,12.235l-6.172,6.172Z" transform="translate(-8.891 -8.891)" fill="#09a191"/>
  </g>
</svg>
