<svg id="Group_6" data-name="Group 6" xmlns="http://www.w3.org/2000/svg" width="45.586" height="60" viewBox="0 0 45.586 60">
  <g id="Group_24187" data-name="Group 24187">
    <path id="Path_32" data-name="Path 32" d="M275.869,264.751a1.747,1.747,0,0,1,1.949,1.789c0,1.139-.819,1.7-1.941,1.7l-.034.65H274.8l-.042-1.435h.38c.878,0,1.536-.16,1.527-.92a.81.81,0,0,0-1.62,0h-1.114a1.736,1.736,0,0,1,1.932-1.78m-.549,6.151a.692.692,0,1,1,.717-.692.7.7,0,0,1-.717.692" transform="translate(-241.835 -233.725)" fill="#b23414"/>
    <path id="Path_34" data-name="Path 34" d="M275.869,395.828a1.747,1.747,0,0,1,1.949,1.789c0,1.139-.819,1.7-1.941,1.7l-.034.65H274.8l-.042-1.434h.38c.878,0,1.536-.16,1.527-.92a.81.81,0,0,0-1.62,0h-1.114a1.736,1.736,0,0,1,1.932-1.78m-.549,6.151a.692.692,0,1,1,.717-.692.7.7,0,0,1-.717.692" transform="translate(-241.835 -349.442)" fill="#b23414"/>
    <path id="Path_36" data-name="Path 36" d="M44.707,170.057a.879.879,0,0,0-.879.879v7.07a1.466,1.466,0,0,1-1.465,1.465H3.223a1.466,1.466,0,0,1-1.465-1.465V138.2A.879.879,0,0,0,0,138.2v39.806a3.226,3.226,0,0,0,3.223,3.223h39.14a3.226,3.226,0,0,0,3.223-3.223v-7.07a.879.879,0,0,0-.879-.879Z" transform="translate(0 -121.229)" fill="#b23414"/>
    <path id="Path_37" data-name="Path 37" d="M42.363,0H37.914a.879.879,0,0,0,0,1.758h4.449a1.466,1.466,0,0,1,1.465,1.465V8.145H1.758V3.223A1.466,1.466,0,0,1,3.223,1.758h30.6a.879.879,0,1,0,0-1.758H3.223A3.226,3.226,0,0,0,0,3.223v9.465a.879.879,0,0,0,1.758,0V9.9h42.07V45.554a.879.879,0,1,0,1.758,0V3.223A3.226,3.226,0,0,0,42.363,0" fill="#b23414"/>
    <path id="Path_38" data-name="Path 38" d="M239.738,115.9A6.738,6.738,0,1,0,233,109.158a6.738,6.738,0,0,0,6.738,6.742m0-11.719a4.98,4.98,0,1,1-4.98,4.98,4.98,4.98,0,0,1,4.98-4.98" transform="translate(-205.695 -90.418)" fill="#b23414"/>
    <path id="Path_39" data-name="Path 39" d="M239.738,246.974A6.738,6.738,0,1,0,233,240.236a6.738,6.738,0,0,0,6.738,6.738m0-11.719a4.98,4.98,0,1,1-4.98,4.98,4.98,4.98,0,0,1,4.98-4.98" transform="translate(-205.695 -206.134)" fill="#b23414"/>
    <path id="Path_40" data-name="Path 40" d="M239.738,378.051A6.738,6.738,0,1,0,233,371.313a6.738,6.738,0,0,0,6.738,6.738m0-11.719a4.98,4.98,0,1,1-4.98,4.98,4.98,4.98,0,0,1,4.98-4.98" transform="translate(-205.695 -321.85)" fill="#b23414"/>
    <path id="Path_41" data-name="Path 41" d="M50.11,135.534H64.172a.879.879,0,0,0,0-1.758H50.11a.879.879,0,1,0,0,1.758" transform="translate(-43.462 -118.099)" fill="#b23414"/>
    <path id="Path_42" data-name="Path 42" d="M50.11,172.822h7.031a.879.879,0,1,0,0-1.758H50.11a.879.879,0,0,0,0,1.758" transform="translate(-43.462 -151.017)" fill="#b23414"/>
    <path id="Path_43" data-name="Path 43" d="M50.11,266.347H64.172a.879.879,0,1,0,0-1.758H50.11a.879.879,0,1,0,0,1.758" transform="translate(-43.462 -233.582)" fill="#b23414"/>
    <path id="Path_44" data-name="Path 44" d="M50.11,303.635h7.031a.879.879,0,1,0,0-1.758H50.11a.879.879,0,0,0,0,1.758" transform="translate(-43.462 -266.501)" fill="#b23414"/>
    <path id="Path_45" data-name="Path 45" d="M50.11,397.159H64.172a.879.879,0,1,0,0-1.758H50.11a.879.879,0,0,0,0,1.758" transform="translate(-43.462 -349.065)" fill="#b23414"/>
    <path id="Path_46" data-name="Path 46" d="M50.11,434.447h7.031a.879.879,0,1,0,0-1.758H50.11a.879.879,0,0,0,0,1.758" transform="translate(-43.462 -381.983)" fill="#b23414"/>
    <path id="Path_47" data-name="Path 47" d="M263.886,141.355l2.481,1.333a.878.878,0,0,0,1.153-.3l2.209-3.411a.879.879,0,1,0-1.475-.956l-1.769,2.732-1.768-.949a.879.879,0,0,0-.832,1.549Z" transform="translate(-232.553 -121.495)" fill="#b23414"/>
  </g>
</svg>
