<svg id="Group_19997" data-name="Group 19997" xmlns="http://www.w3.org/2000/svg" width="19.992" height="19.991" viewBox="0 0 19.992 19.991">
  <path id="Path_15355" data-name="Path 15355" d="M18.634,5.31H17.488c.006-.09,0,.236,0-3.951A1.358,1.358,0,0,0,16.135,0H3.855A1.358,1.358,0,0,0,2.5,1.357c0,4.181,0,3.867,0,3.951H1.357A1.358,1.358,0,0,0,0,6.667v7.282a1.358,1.358,0,0,0,1.357,1.357H4.686v3.329a1.358,1.358,0,0,0,1.357,1.357H13.95a1.358,1.358,0,0,0,1.357-1.357V15.306h3.329a1.358,1.358,0,0,0,1.357-1.357V6.667A1.358,1.358,0,0,0,18.635,5.31ZM3.748,5.2V1.357a.107.107,0,0,1,.107-.107h12.28a.107.107,0,0,1,.107.107V5.2a.107.107,0,0,1-.107.107H3.855A.107.107,0,0,1,3.748,5.2ZM14.056,18.634a.107.107,0,0,1-.107.107H6.042a.107.107,0,0,1-.107-.107V12.289a.107.107,0,0,1,.107-.107h7.907a.107.107,0,0,1,.107.107Zm4.686-4.686a.107.107,0,0,1-.107.107h-3.33V12.289a1.358,1.358,0,0,0-1.357-1.357H6.042a1.358,1.358,0,0,0-1.357,1.357v1.767H1.357a.107.107,0,0,1-.107-.107V6.667a.107.107,0,0,1,.107-.111H18.634a.107.107,0,0,1,.107.107Z" fill="#ffa149"/>
  <path id="Path_15356" data-name="Path 15356" d="M424.16,208.229h-.933a.629.629,0,0,1,0-1.249h.938a.629.629,0,0,1,0,1.249Z" transform="translate(-407.293 -199.484)" fill="#ffa149"/>
  <path id="Path_15357" data-name="Path 15357" d="M211.368,372.089h-3.745a.629.629,0,0,1,0-1.249h3.748a.629.629,0,0,1,0,1.249Z" transform="translate(-199.498 -357.408)" fill="#ffa149"/>
  <path id="Path_15358" data-name="Path 15358" d="M211.368,449.706h-3.745a.629.629,0,0,1,0-1.249h3.748a.629.629,0,0,1,0,1.249Z" transform="translate(-199.498 -432.214)" fill="#ffa149"/>
</svg>
