<svg id="XMLID_98_" xmlns="http://www.w3.org/2000/svg" width="60" height="60" viewBox="0 0 60 60">
  <g id="XMLID_572_">
    <path id="XMLID_779_" d="M56.016,0H35.288a1.172,1.172,0,1,0,0,2.344H50.106a8.686,8.686,0,0,0,7.551,7.551V23.387a8.686,8.686,0,0,0-7.551,7.55H34.454V25.157a9.609,9.609,0,1,0-8.906,0v5.781H9.894a8.686,8.686,0,0,0-7.55-7.55V9.894a8.686,8.686,0,0,0,7.55-7.55H24.741a1.172,1.172,0,0,0,0-2.344H3.984A3.989,3.989,0,0,0,0,3.984V29.3a3.989,3.989,0,0,0,3.984,3.984H17.746a3.778,3.778,0,0,0,3.5,5.215h2.73a15.266,15.266,0,0,0,.012,12.6h-.306a1.172,1.172,0,0,0-1.172,1.172v6.562A1.172,1.172,0,0,0,23.677,60H43.834a1.172,1.172,0,0,0,1.172-1.172V52.266a1.172,1.172,0,0,0-1.172-1.172H42.373L44.5,47.042a18.869,18.869,0,0,0,2.146-8.721V33.282h9.374A3.989,3.989,0,0,0,60,29.3V3.984A3.989,3.989,0,0,0,56.016,0ZM52.473,2.344h3.543a1.642,1.642,0,0,1,1.64,1.64V7.528a6.343,6.343,0,0,1-5.184-5.184ZM37.736,33.282v1.7a1.641,1.641,0,0,1-3.281,0v-1.7Zm-15-16.641a7.266,7.266,0,1,1,11.257,6.074,4.451,4.451,0,0,0-7.981,0,7.259,7.259,0,0,1-3.276-6.074ZM3.984,2.344H7.528A6.343,6.343,0,0,1,2.344,7.528V3.984a1.642,1.642,0,0,1,1.64-1.64ZM2.344,29.3V25.754a6.343,6.343,0,0,1,5.184,5.184H3.984A1.642,1.642,0,0,1,2.344,29.3Zm17.461,5.42a1.437,1.437,0,0,1,1.436-1.436h4.307v2.373l-.3.5h-4.01A1.437,1.437,0,0,1,19.805,34.717ZM42.663,57.657H24.853V53.438H42.663ZM44.3,38.32a16.516,16.516,0,0,1-1.878,7.633l-2.692,5.141H26.571l-.381-.812a12.941,12.941,0,0,1,.593-12.12l.944-1.586a1.172,1.172,0,0,0,.165-.6V24.688a2.109,2.109,0,1,1,4.219,0V34.981a3.984,3.984,0,1,0,7.969,0v-1.7H44.3Zm11.718-7.383H52.473a6.343,6.343,0,0,1,5.184-5.184V29.3A1.642,1.642,0,0,1,56.016,30.938Z" fill="#77004b"/>
    <path id="XMLID_790_" d="M172.659,52.851a3.75,3.75,0,1,0-3.75,3.75,3.75,3.75,0,0,0,3.75-3.75Zm-5.156,0a1.406,1.406,0,1,1,1.406,1.406,1.406,1.406,0,0,1-1.406-1.406Z" transform="translate(-121.798 -36.211)" fill="#77004b"/>
    <path id="XMLID_793_" d="M34.821,52.851a3.75,3.75,0,1,0,3.75-3.75,3.75,3.75,0,0,0-3.75,3.75Zm5.156,0a1.406,1.406,0,1,1-1.406-1.406,1.406,1.406,0,0,1,1.406,1.406Z" transform="translate(-25.679 -36.211)" fill="#77004b"/>
    <path id="XMLID_794_" d="M110.981,2.344A1.172,1.172,0,1,0,110.152,2a1.173,1.173,0,0,0,.828.343Z" transform="translate(-80.981)" fill="#77004b"/>
  </g>
</svg>
