<svg xmlns="http://www.w3.org/2000/svg" width="34" height="31.538" viewBox="0 0 34 31.538">
  <g id="promise-to-pay-icon" transform="translate(-8 -11)">
    <path id="Path_212" data-name="Path 212" d="M53.767,63.194,50.431,56.5a.7.7,0,0,0-.151-.2.632.632,0,0,0-.21-.126l-3.912-1.406a2.482,2.482,0,0,0-1.733.017l-2.968,1.132a6.335,6.335,0,0,0-.621.276c-.068.035-.135.074-.2.111a5.515,5.515,0,0,0-.7-.319,5.372,5.372,0,0,0-2.348-.323l-2,.171a.609.609,0,0,0-.257.082.657.657,0,0,0-.2.189l-4.5,6.4a.719.719,0,0,0-.127.476.705.705,0,0,0,.2.444l1.956,1.938a1.588,1.588,0,0,0,1.292,2.344l.069,0a1.584,1.584,0,0,0,1.41,2.06A1.588,1.588,0,0,0,36.9,71.962a1.575,1.575,0,0,0,1.123-.466,1.592,1.592,0,0,0,1.467,1.344c.035,0,.071,0,.105,0a1.574,1.574,0,0,0,.551-.1,1.629,1.629,0,0,0,.974.277,1.665,1.665,0,0,0,1.127-.515l-1.076-1.073c0-.025.007-.049.008-.074a1.586,1.586,0,0,0-.078-.6l2.2,2.2a2.136,2.136,0,0,0,.895.157,2.215,2.215,0,0,0,1.589-.784l.22-.256a.355.355,0,0,0,.05-.081l-3.389-3.38a.24.24,0,0,1-.017-.321.2.2,0,0,1,.3-.007l4.031,4.02a1.873,1.873,0,0,0,.7.1,1.947,1.947,0,0,0,1.4-.69l.532-.616a.792.792,0,0,0,.188-.542l-3.537-3.526a.241.241,0,0,1-.017-.321.2.2,0,0,1,.3-.007L50.1,70.244a1.53,1.53,0,0,0,.456.052,1.592,1.592,0,0,0,1.144-.565l.143-.166a1.862,1.862,0,0,0-.087-2.5l-.949-.946.24.239,2.565-2.316a.7.7,0,0,0,.217-.4A.732.732,0,0,0,53.767,63.194ZM34,67.025a.9.9,0,0,1,.058-1.8l.061,0a.9.9,0,1,1-.118,1.8Zm1.538,2.065a.9.9,0,0,1-.665-1.513l.538-.568.089-.094a.9.9,0,1,1,1.312,1.241l-.251.266-.17.18-.029.031-.113.118-.052.055-.008.009A.894.894,0,0,1,35.538,69.09ZM37.554,71a.9.9,0,0,1-1.27.029.9.9,0,0,1-.046-1.264l.449-.475h0l.174-.184.438-.464.012-.012h0l.047-.05A.9.9,0,1,1,38.67,69.82Zm1.985,1.156a.9.9,0,0,1,.058-1.8l.061,0a.9.9,0,0,1-.118,1.8ZM50.576,65.89l-7.027-7.006h0l.079-.2a.384.384,0,0,0-.024-.331.33.33,0,0,0-.266-.169l-.522-.031h0l-.571-.034L42.2,58.8a7.859,7.859,0,0,1-.9,2.941,4.161,4.161,0,0,1-2.031,1.949,2.983,2.983,0,0,1-.53.069.619.619,0,0,1-.264-.048l-.267-.124a.471.471,0,0,1-.242-.268.517.517,0,0,1,0-.362l2.673-5.865.454-.3.183-.07h0l3.359-1.281a1.889,1.889,0,0,1,.657-.125h.019a1.887,1.887,0,0,1,.641.112l3.912,1.406L53.2,63.519Z" transform="translate(-17.317 -30.569)" fill="#dc67ce"/>
    <path id="Path_213" data-name="Path 213" d="M153.567,40.557l-2.641,1.317a1.661,1.661,0,0,0-.745,2.227l3.458,6.932a1.661,1.661,0,0,0,2.226.744l2.64-1.317Zm2.292,9.906a.636.636,0,1,1,.637-.636A.636.636,0,0,1,155.859,50.463Z" transform="translate(-116.506 -18.893)" fill="#dc67ce"/>
    <path id="Path_214" data-name="Path 214" d="M0,45.7l2.414,1.7A1.66,1.66,0,0,0,4.726,47l4.453-6.339a1.66,1.66,0,0,0-.4-2.313l-2.415-1.7Zm2.083-.325a.636.636,0,1,1,.534.724A.636.636,0,0,1,2.083,45.38Z" transform="translate(8 -15.65)" fill="#dc67ce"/>
    <g id="Path_215" data-name="Path 215" transform="translate(19 11)" fill="none">
      <path d="M6,0A6,6,0,1,1,0,6,6,6,0,0,1,6,0Z" stroke="none"/>
      <path d="M 6 1 C 3.242989540100098 1 1 3.242989540100098 1 6 C 1 8.757009506225586 3.242989540100098 11 6 11 C 8.757009506225586 11 11 8.757009506225586 11 6 C 11 3.242989540100098 8.757009506225586 1 6 1 M 6 0 C 9.31371021270752 0 12 2.68628978729248 12 6 C 12 9.31371021270752 9.31371021270752 12 6 12 C 2.68628978729248 12 0 9.31371021270752 0 6 C 0 2.68628978729248 2.68628978729248 0 6 0 Z" stroke="none" fill="#dc67ce"/>
    </g>
    <path id="Path_211" data-name="Path 211" d="M21.1,5.884a2.015,2.015,0,0,1-1.981,1.451v.552a.578.578,0,0,1-1.152,0V7.313l-.023,0a8.6,8.6,0,0,1-1.4-.354l-.2-.062a.517.517,0,0,1-.361-.666.591.591,0,0,1,.73-.33l.2.063a7.7,7.7,0,0,0,1.195.308c.847.114,1.746-.014,1.855-.56.093-.469-.2-.655-1.575-1l-.271-.068c-.79-.2-2.434-.621-2.133-2.131a2.014,2.014,0,0,1,1.98-1.438V.526a.578.578,0,0,1,1.152,0V1.1l.023,0a7.207,7.207,0,0,1,1.093.256.517.517,0,0,1,.367.664.591.591,0,0,1-.727.335,6.145,6.145,0,0,0-.9-.214c-.843-.115-1.743.013-1.852.561-.079.4.085.616,1.312.928l.263.066C19.772,3.967,21.4,4.372,21.1,5.884Z" transform="translate(6.456 12.794)" fill="#dc67ce"/>
  </g>
</svg>
