<svg xmlns="http://www.w3.org/2000/svg" width="27.32" height="27.32" viewBox="0 0 27.32 27.32">
  <g id="Icon_2_" transform="translate(-3.06 -67.539)">
    <circle id="Circle_2_" cx="13.66" cy="13.66" r="13.66" transform="translate(3.06 67.539)" fill="#2fa037"/>
    <path id="qb" d="M6.855,81.2a5.3,5.3,0,0,0,5.312,5.312h.759V84.538h-.759a3.339,3.339,0,1,1,0-6.678h1.821V88.181a1.969,1.969,0,0,0,1.973,1.973V75.887H12.167A5.318,5.318,0,0,0,6.855,81.2Zm14.418-5.312h-.759V77.86h.759a3.339,3.339,0,1,1,0,6.678H19.452V74.217a1.969,1.969,0,0,0-1.973-1.973V86.511h3.794a5.312,5.312,0,1,0,0-10.624Z" fill="#fff"/>
  </g>
</svg>
