<svg xmlns="http://www.w3.org/2000/svg" width="49.717" height="59.999" viewBox="0 0 49.717 59.999">
  <g id="Write" transform="translate(-14.574 -1.514)">
    <path id="Subtraction_6" data-name="Subtraction 6" d="M7700.158,6334.513h-37.734a5.989,5.989,0,0,1-5.993-5.993v-48.012a5.991,5.991,0,0,1,5.989-5.995h25.487a13.008,13.008,0,0,0-2.328,3.344h-23.17a2.678,2.678,0,0,0-1.909.79,2.723,2.723,0,0,0-.79,1.923v48.014a2.718,2.718,0,0,0,.79,1.923,2.671,2.671,0,0,0,1.9.788h37.751a2.74,2.74,0,0,0,2.713-2.711v-33.325a13,13,0,0,0,3.282-2.231v35.493a5.991,5.991,0,0,1-5.99,5.993Z" transform="translate(-7641.857 -6273)" fill="#9a9a9a"/>
    <path id="Path_26227" data-name="Path 26227" d="M51.609,47.7H27.256a1.64,1.64,0,1,0,0,3.281H51.609a1.64,1.64,0,0,0,0-3.281Z" fill="#9a9a9a"/>
    <path id="Path_26228" data-name="Path 26228" d="M51.609,37.1H27.256a1.64,1.64,0,1,0,0,3.281H51.609a1.629,1.629,0,0,0,1.64-1.64,1.67,1.67,0,0,0-1.64-1.64Z" fill="#9a9a9a"/>
    <path id="Path_26229" data-name="Path 26229" d="M51.609,26.562H27.256a1.64,1.64,0,0,0,0,3.281H51.609a1.64,1.64,0,1,0,0-3.281Z" fill="#9a9a9a"/>
    <path id="edit-1137659" d="M16.983,1.154l.982.982a1.028,1.028,0,0,1,0,1.451l-.492.492L15.041,1.646l.492-.492a1.029,1.029,0,0,1,1.451,0ZM5.533,1.143A2.819,2.819,0,0,0,2.722,3.954v9.461a2.82,2.82,0,0,0,2.812,2.811H15a2.82,2.82,0,0,0,2.811-2.811V5.868l-1.651,1.65v5.9A1.164,1.164,0,0,1,15,14.576H5.534a1.164,1.164,0,0,1-1.161-1.161V3.954A1.165,1.165,0,0,1,5.534,2.793h6.238l1.65-1.65Zm2.818,9.624.4-1.426.4-1.427,1.029,1.03L11.2,9.972l-1.426.4Zm8.607-6.175L14.526,2.159,9.474,7.211l2.432,2.432Z" transform="translate(45.938 0.974)" fill="#9a9a9a" fill-rule="evenodd"/>
  </g>
</svg>
