<svg id="Group_19996" data-name="Group 19996" xmlns="http://www.w3.org/2000/svg" width="19.063" height="19.139" viewBox="0 0 19.063 19.139">
  <g id="Group_19995" data-name="Group 19995" transform="translate(0)">
    <path id="Path_15352" data-name="Path 15352" d="M241.261,77.48a1.742,1.742,0,0,0,1.773-1.353,1.6,1.6,0,0,0-1.225-1.757c-.5-.183-.96-.383-1.111-.448a.24.24,0,0,1-.079-.221.368.368,0,0,1,.294-.292,1.329,1.329,0,0,1,1.089.253h0a.56.56,0,1,0,.721-.858h0a2.441,2.441,0,0,0-2.127-.462,1.492,1.492,0,0,0-1.08,1.205,1.353,1.353,0,0,0,.6,1.339.559.559,0,0,0,.078.043c.024.011.591.266,1.23.5.132.049.559.23.51.508a.647.647,0,0,1-.673.429,1.384,1.384,0,0,1-1.017-.425.561.561,0,1,0-.831.753,2.488,2.488,0,0,0,1.844.786Z" transform="translate(-231.259 -69.817)" fill="#c461f5"/>
    <path id="Path_15353" data-name="Path 15353" d="M150.8,10.089a5.044,5.044,0,0,0,3-8.968h.2A3.177,3.177,0,0,1,157.176,4.3V8.926l-.538-.538a.561.561,0,1,0-.793.793l1.5,1.5a.561.561,0,0,0,.793,0l1.5-1.5a.561.561,0,1,0-.793-.793l-.538.538V4.3A4.3,4.3,0,0,0,154,0h-3.308a5.046,5.046,0,1,0,.113,10.089Zm-.169-8.968a3.924,3.924,0,1,1-3.924,3.924,3.924,3.924,0,0,1,3.924-3.924Z" transform="translate(-140.731 0.001)" fill="#c461f5"/>
    <path id="Path_15354" data-name="Path 15354" d="M20.071,310.906a1.707,1.707,0,0,0-2.325-.963L14.395,311.5a1.684,1.684,0,0,0-1.374-1.422l-1.526-.266A3.811,3.811,0,0,1,10,309.2a4.972,4.972,0,0,0-4.489-.562l-1.152.42-.052-.144a.561.561,0,0,0-.719-.335l-2.108.767a.561.561,0,0,0-.37.528v6.674a.561.561,0,0,0,.561.561H4.1a.56.56,0,0,0,.191-.034l2.108-.767a.56.56,0,0,0,.369-.521l4.79.659a2.8,2.8,0,0,0,1.684-.294L19.26,313a1.707,1.707,0,0,0,.812-2.1ZM4,315.992H2.229v-5.72l1.212-.443,2.046,5.62Zm14.737-3.984-6.018,3.154a1.684,1.684,0,0,1-1.009.177L6.375,314.6l-1.63-4.485L5.9,309.7a3.847,3.847,0,0,1,3.474.435,4.928,4.928,0,0,0,1.931.785l1.526.266a.561.561,0,0,1-.195,1.1l-3.565-.628a.561.561,0,1,0-.195,1.1l3.565.628a1.679,1.679,0,0,0,1.4-.394l4.379-2.038a.585.585,0,0,1,.519,1.049Z" transform="translate(-1.111 -297.975)" fill="#c461f5"/>
  </g>
</svg>
