<svg xmlns="http://www.w3.org/2000/svg" width="20" height="19.131" viewBox="0 0 20 19.131">
  <g id="envelope-185646" transform="translate(-3.044 -0.87)">
    <path id="Path_17593" data-name="Path 17593" d="M13.044,20a4.783,4.783,0,1,1,4.783-4.783A4.788,4.788,0,0,1,13.044,20Zm0-8.7a3.913,3.913,0,1,0,3.913,3.913A3.918,3.918,0,0,0,13.044,11.3Z" fill="#ae2762"/>
    <path id="Path_17594" data-name="Path 17594" d="M13.044,16.522a.435.435,0,0,1-.435-.435V12.609a.435.435,0,0,1,.87,0v3.478A.435.435,0,0,1,13.044,16.522Z" fill="#ae2762"/>
    <path id="Path_17595" data-name="Path 17595" d="M13.044,18.261a.437.437,0,0,1-.313-.739.447.447,0,0,1,.617-.009.438.438,0,0,1,.13.313.432.432,0,0,1-.123.3.438.438,0,0,1-.312.13Z" fill="#ae2762"/>
    <path id="Path_17596" data-name="Path 17596" d="M20.87,14.783H19.13a.435.435,0,0,1,0-.87H20.87a1.306,1.306,0,0,0,1.3-1.3V3.043a1.306,1.306,0,0,0-1.3-1.3H5.217a1.306,1.306,0,0,0-1.3,1.3v9.565a1.306,1.306,0,0,0,1.3,1.3H6.957a.435.435,0,0,1,0,.87H5.217a2.176,2.176,0,0,1-2.174-2.174V3.044A2.176,2.176,0,0,1,5.217.87H20.87a2.176,2.176,0,0,1,2.174,2.174v9.565A2.176,2.176,0,0,1,20.87,14.783Z" fill="#ae2762"/>
    <path id="Path_17597" data-name="Path 17597" d="M13.044,8.7a2.258,2.258,0,0,1-1.324-.429L4.963,3.4a.435.435,0,0,1,.51-.705L12.229,7.57a1.374,1.374,0,0,0,1.63,0l6.757-4.879a.435.435,0,0,1,.51.7L14.369,8.275a2.263,2.263,0,0,1-1.325.43Z" fill="#ae2762"/>
    <path id="Path_17598" data-name="Path 17598" d="M5.217,13.044A.434.434,0,0,1,4.91,12.3L9.257,7.954a.435.435,0,0,1,.615.615L5.524,12.917a.433.433,0,0,1-.307.127Z" fill="#ae2762"/>
    <path id="Path_17599" data-name="Path 17599" d="M20.87,13.044a.437.437,0,0,1-.308-.127L16.214,8.569a.435.435,0,0,1,.615-.615L21.177,12.3a.434.434,0,0,1-.307.742Z" fill="#ae2762"/>
  </g>
</svg>
