<svg xmlns="http://www.w3.org/2000/svg" width="20" height="18.856" viewBox="0 0 20 18.856">
  <g id="queries-2386791" transform="translate(-1.789 0.002)">
    <path id="Path_17600" data-name="Path 17600" d="M19.406,0H4.179a2.3,2.3,0,0,0-2.39,2.2v9.65a2.311,2.311,0,0,0,2.378,2.188H12l5.041,4.61a.845.845,0,0,0,.545.2.82.82,0,0,0,.328-.068.752.752,0,0,0,.467-.764l-.441-3.978h1.551a2.313,2.313,0,0,0,2.3-2.2V2.191A2.3,2.3,0,0,0,19.406,0ZM16.465,12.76a.73.73,0,0,0-.217.6l.311,2.74-3.694-3.372a.837.837,0,0,0-.543-.2h-.007l-8.186,0h-.02a.717.717,0,0,1-.717-.69V2.187a.717.717,0,0,1,.775-.673H19.41l.071,0a.718.718,0,0,1,.707.69v9.65a.712.712,0,0,1-.775.672H17.049a.844.844,0,0,0-.584.237Z" fill="#dc3545"/>
    <path id="Path_17601" data-name="Path 17601" d="M8.513,7.418a1.1,1.1,0,1,1-1.1-1.1,1.1,1.1,0,0,1,1.1,1.1" fill="#dc3545"/>
    <path id="Path_17602" data-name="Path 17602" d="M12.927,7.418a1.1,1.1,0,1,1-1.1-1.1,1.1,1.1,0,0,1,1.1,1.1" fill="#dc3545"/>
    <path id="Path_17603" data-name="Path 17603" d="M17.34,7.418a1.1,1.1,0,1,1-1.1-1.1,1.1,1.1,0,0,1,1.1,1.1" fill="#dc3545"/>
  </g>
</svg>
