<svg xmlns="http://www.w3.org/2000/svg" width="20.096" height="22.595" viewBox="0 0 20.096 22.595">
  <g id="responsetimepassed" transform="translate(-7.35 -1.9)">
    <path id="Path_174" data-name="Path 174" d="M18.906,5.326V4.293h.962a.361.361,0,0,0,.352-.352V2.252a.361.361,0,0,0-.352-.352H15.762a.361.361,0,0,0-.352.352V3.941a.361.361,0,0,0,.352.352h.962V5.326A9.69,9.69,0,0,0,10.9,8.188l-.4-.4.657-.657a.34.34,0,0,0,0-.493L9.8,5.279a.34.34,0,0,0-.493,0L7.456,7.085a.34.34,0,0,0,0,.493L8.816,8.939a.4.4,0,0,0,.516,0l.68-.68.446.446a9.535,9.535,0,0,0-2.252,6.171,9.62,9.62,0,1,0,10.7-9.55ZM9.075,8.212,8.206,7.32,9.52,6.006l.868.868-.516.516-.258.258Zm8-4.622h-.962V2.6h3.4v.985h-.962a.361.361,0,0,0-.352.352V5.279h-.751V3.941A.381.381,0,0,0,17.075,3.589Zm.727,20.2a8.916,8.916,0,0,1,0-17.832,4.521,4.521,0,0,1,.563.023c.094,0,.188.023.282.023A8.912,8.912,0,0,1,17.8,23.791Z" transform="translate(0 0)" fill="#dc3545"/>
    <path id="Path_175" data-name="Path 175" d="M32.017,26.4l-.07-.07a7.59,7.59,0,0,0-4.974-1.83,7.651,7.651,0,1,0,5.045,1.9ZM26.949,39.164a6.969,6.969,0,1,1,4.27-12.459l-3.8,4.364a1.515,1.515,0,0,0-.446-.094,1.2,1.2,0,0,0,0,2.393,1.182,1.182,0,0,0,1.173-1.2,1.261,1.261,0,0,0-.188-.657l3.825-4.388a6.9,6.9,0,0,1,2.159,5.045A7.01,7.01,0,0,1,26.949,39.164Zm.493-6.992a.493.493,0,1,1-.985,0,.493.493,0,0,1,.985,0Z" transform="translate(-9.146 -17.297)" fill="#dc3545"/>
  </g>
</svg>
