<svg id="zoom-in-1631821" xmlns="http://www.w3.org/2000/svg" width="19.978" height="20" viewBox="0 0 19.978 20">
  <path id="Path_17943" data-name="Path 17943" d="M24.091,18.406,19.97,14.285A8.229,8.229,0,0,0,21.458,9.5a8.11,8.11,0,0,0-.669-3.279,8.356,8.356,0,0,0-1.812-2.7,8.717,8.717,0,0,0-2.7-1.812,8.375,8.375,0,0,0-6.559,0,8.356,8.356,0,0,0-2.7,1.812,8.717,8.717,0,0,0-1.812,2.7A8.11,8.11,0,0,0,4.544,9.5a8.11,8.11,0,0,0,.669,3.279,8.356,8.356,0,0,0,1.812,2.7,8.717,8.717,0,0,0,2.7,1.812,8.42,8.42,0,0,0,8.069-.82l4.121,4.121a1.417,1.417,0,0,0,1.079.453,1.45,1.45,0,0,0,1.079-.453,1.485,1.485,0,0,0,.453-1.079,1.512,1.512,0,0,0-.432-1.1ZM16.8,13.292A5.182,5.182,0,0,1,13,14.867a5.148,5.148,0,0,1-3.8-1.575A5.182,5.182,0,0,1,7.629,9.5,5.148,5.148,0,0,1,9.2,5.7,5.182,5.182,0,0,1,13,4.123,5.148,5.148,0,0,1,16.8,5.7a5.182,5.182,0,0,1,1.575,3.8A5.182,5.182,0,0,1,16.8,13.292Z" transform="translate(-4.544 -1.038)" fill="#707070"/>
  <path id="Path_17944" data-name="Path 17944" d="M17.832,10.1h-2.7V7.4a.455.455,0,0,0-.108-.281.357.357,0,0,0-.281-.108H13.97a.455.455,0,0,0-.281.108.357.357,0,0,0-.108.281v2.7H10.906a.455.455,0,0,0-.281.108.332.332,0,0,0-.108.281v.777a.455.455,0,0,0,.108.281.357.357,0,0,0,.281.108h2.7v2.7a.37.37,0,0,0,.388.388h.777a.455.455,0,0,0,.281-.108.357.357,0,0,0,.108-.281V11.629h2.7a.455.455,0,0,0,.281-.108.357.357,0,0,0,.108-.281v-.777a.455.455,0,0,0-.108-.281.8.8,0,0,0-.3-.086Z" transform="translate(-5.922 -2.416)" fill="#707070"/>
</svg>
