<svg xmlns="http://www.w3.org/2000/svg" width="30.001" height="33.944" viewBox="0 0 30.001 33.944">
  <g id="noun-lock-shield-551244" transform="translate(-137.202 -39.222)">
    <path id="Path_26157" data-name="Path 26157" d="M152.2,39.222a.607.607,0,0,0-.16.025L137.437,45.71a.4.4,0,0,0-.234.358c0,8.884,1.945,14.607,4.786,18.627s6.549,6.321,10,8.413a.4.4,0,0,0,.419,0c3.455-2.092,7.163-4.393,10-8.413s4.786-9.743,4.786-18.627a.4.4,0,0,0-.234-.358l-14.605-6.464a.491.491,0,0,0-.16-.025Zm0,.827,14.2,6.279c-.041,8.605-1.92,14.082-4.626,17.911-2.68,3.792-6.188,6-9.572,8.055-3.385-2.053-6.893-4.263-9.572-8.055-2.706-3.829-4.585-9.306-4.626-17.911Zm0,9.042a3.553,3.553,0,0,0-3.553,3.553v1.974h-1.258a.408.408,0,0,0-.321.395v6.316a.41.41,0,0,0,.395.395h9.474a.41.41,0,0,0,.395-.395V55.011a.41.41,0,0,0-.395-.395h-1.184V52.643A3.553,3.553,0,0,0,152.2,49.09Zm0,.789a2.749,2.749,0,0,1,2.763,2.763v1.974h-5.526V52.643A2.749,2.749,0,0,1,152.2,49.88Zm-4.342,5.526h8.684v5.526H147.86Z" fill="#0f6ec1"/>
  </g>
</svg>
