<svg xmlns="http://www.w3.org/2000/svg" width="20" height="17.388" viewBox="0 0 20 17.388">
  <path id="Path_15359" data-name="Path 15359" d="M19.988,32.386a.586.586,0,0,0-.782-.671L.378,38.9A.586.586,0,0,0,.378,40l5.289,2.043v6.434a.586.586,0,0,0,1.111.264L8.966,44.4l5.339,3.962a.586.586,0,0,0,.91-.3C20.195,31.716,19.98,32.427,19.988,32.386Zm-4.65,2.059-9.17,6.532L2.221,39.453Zm-8.5,7.494,7.995-5.694c-6.88,7.258-6.52,6.876-6.55,6.916-.045.06.079-.173-1.445,2.847Zm7.494,4.983-4.7-3.488,8.495-8.964Z" transform="translate(-0.001 -31.677)" fill="#219ebc"/>
</svg>
