<svg id="Group_19806" data-name="Group 19806" xmlns="http://www.w3.org/2000/svg" width="34" height="33.997" viewBox="0 0 34 33.997">
  <path id="Path_15528" data-name="Path 15528" d="M34,14.991v4.015a.531.531,0,0,1-.382.51l-3.743,1.1a13.287,13.287,0,0,1-1.214,2.927l1.87,3.426a.531.531,0,0,1-.09.63L27.6,30.438a.531.531,0,0,1-.63.09l-3.426-1.87a13.3,13.3,0,0,1-2.927,1.214l-1.1,3.743a.531.531,0,0,1-.51.382H14.991a.531.531,0,0,1-.51-.382l-1.1-3.742a13.29,13.29,0,0,1-2.927-1.214L7.029,30.528a.531.531,0,0,1-.63-.09L3.559,27.6a.531.531,0,0,1-.09-.63l1.87-3.426a13.3,13.3,0,0,1-1.214-2.927l-3.743-1.1A.531.531,0,0,1,0,19.006V14.991a.531.531,0,0,1,.382-.51l3.743-1.1a13.293,13.293,0,0,1,1.214-2.927L3.469,7.029a.531.531,0,0,1,.09-.63L6.4,3.559a.531.531,0,0,1,.63-.09l3.426,1.869a13.288,13.288,0,0,1,2.927-1.214l1.1-3.742A.531.531,0,0,1,14.991,0h4.015a.531.531,0,0,1,.51.382l1.1,3.743a13.287,13.287,0,0,1,2.927,1.214l3.426-1.87a.531.531,0,0,1,.63.09L30.438,6.4a.531.531,0,0,1,.09.63l-1.87,3.426a13.3,13.3,0,0,1,1.214,2.927l3.743,1.1a.531.531,0,0,1,.382.51Zm-1.063.4-3.651-1.073a.531.531,0,0,1-.365-.378,12.236,12.236,0,0,0-1.329-3.2.531.531,0,0,1-.009-.525l1.822-3.338L27.129,4.6,23.79,6.413a.531.531,0,0,1-.525-.009A12.228,12.228,0,0,0,20.059,5.07a.531.531,0,0,1-.378-.365L18.609,1.063h-3.22L14.316,4.709a.531.531,0,0,1-.378.365,12.228,12.228,0,0,0-3.2,1.33.531.531,0,0,1-.525.009L6.869,4.591,4.592,6.868l1.822,3.338a.531.531,0,0,1-.009.525A12.228,12.228,0,0,0,5.07,13.938a.531.531,0,0,1-.365.378L1.063,15.388v3.22L4.71,19.684a.531.531,0,0,1,.365.378,12.236,12.236,0,0,0,1.329,3.2.531.531,0,0,1,.009.525l-1.822,3.34,2.277,2.277,3.338-1.822a.531.531,0,0,1,.525.009,12.228,12.228,0,0,0,3.206,1.329.531.531,0,0,1,.378.365l1.072,3.648h3.22l1.078-3.647a.531.531,0,0,1,.378-.365,12.237,12.237,0,0,0,3.2-1.329.531.531,0,0,1,.525-.009l3.338,1.822L29.4,27.129,27.584,23.79a.531.531,0,0,1,.009-.525,12.228,12.228,0,0,0,1.329-3.206.531.531,0,0,1,.365-.378l3.648-1.072ZM26.058,17A9.057,9.057,0,1,1,17,7.942,9.057,9.057,0,0,1,26.058,17Zm-1.063,0A7.995,7.995,0,1,0,17,24.993,8,8,0,0,0,24.995,17Z" fill="#707070"/>
</svg>
