<svg id="users-4747584" xmlns="http://www.w3.org/2000/svg" width="15.412" height="20" viewBox="0 0 15.412 20">
  <path id="Path_15420" data-name="Path 15420" d="M30.918,17.563a6.579,6.579,0,0,1-3.8,1.171,6.82,6.82,0,0,1-3.8-1.171,6.476,6.476,0,0,0-3.892,5.949v2.722a.952.952,0,0,0,.949.949H33.892a.932.932,0,0,0,.949-.949V23.513A6.572,6.572,0,0,0,30.918,17.563Z" transform="translate(-19.43 -7.184)" fill="#ffa149"/>
  <path id="Path_15421" data-name="Path 15421" d="M27.12,16.74a4.774,4.774,0,1,0-3.38-1.4A4.794,4.794,0,0,0,27.12,16.74Z" transform="translate(-19.43 -7.184)" fill="#ffa149" opacity="0.7"/>
</svg>
