<svg xmlns="http://www.w3.org/2000/svg" width="35.54" height="29.1" viewBox="0 0 35.54 29.1">
  <g id="SuperAdmin_User" data-name="SuperAdmin User" transform="translate(-1429 -319)">
    <circle id="Ellipse_40" data-name="Ellipse 40" cx="14" cy="14" r="14" transform="translate(1429 319)" fill="#ebebeb"/>
    <g id="Group_23558" data-name="Group 23558" transform="translate(594.535 18)">
      <g id="user-1183672" transform="translate(829.062 299.308)">
        <path id="Path_18002" data-name="Path 18002" d="M27.477,23.692V21.415c0-2.462-3.385-4.492-7.538-4.492S12.4,18.954,12.4,21.415v2.277" fill="#8a8a8a"/>
      </g>
      <path id="Path_18002-2" data-name="Path 18002" d="M24.246,12a4.308,4.308,0,1,1-4.308-4.308A4.308,4.308,0,0,1,24.246,12Z" transform="translate(829.063 299.308)" fill="#8a8a8a" opacity="0.7"/>
    </g>
    <g id="row_1" transform="translate(1442.076 327.9)">
      <g id="protection" transform="translate(8 2)">
        <path id="Path_185" data-name="Path 185" d="M22.373,4.2c-1.6-1.537-3.8-2.2-7.141-2.2S9.687,2.663,8.09,4.2L8,4.29v6.75a9.737,9.737,0,0,0,7.141,9.13l.09.03.09-.03a9.737,9.737,0,0,0,7.141-9.13V4.29Z" transform="translate(-8 -2)" fill="#ffca28"/>
        <path id="Path_186" data-name="Path 186" d="M37.364,9.5c-1.175-.9-2.893-1.3-5.364-1.3V22.6l.06-.03a7.814,7.814,0,0,0,5.364-7.2V9.526Z" transform="translate(-24.768 -6.332)" fill="#ffecb3"/>
        <path id="Path_187" data-name="Path 187" d="M14.06,9.5l-.06.03v5.846a7.814,7.814,0,0,0,5.364,7.2l.06.03V8.2C16.953,8.2,15.235,8.592,14.06,9.5Z" transform="translate(-12.192 -6.332)" fill="#fff8e1"/>
        <path id="Path_188" data-name="Path 188" d="M23.413,25.034,20.4,20.816l.964-.723,2.38,3.345L26.366,17.2l1.085.482-3.013,7.232Z" transform="translate(-16.664 -12.62)" fill="#4caf50"/>
      </g>
    </g>
  </g>
</svg>
