<svg xmlns="http://www.w3.org/2000/svg" width="24" height="26.912" viewBox="0 0 24 26.912">
  <g id="support-icon" transform="translate(-4 -2)">
    <path id="Path_194" data-name="Path 194" d="M5,17V14a11,11,0,0,1,22,0v3" fill="none" stroke="#56bf82" stroke-linejoin="round" stroke-miterlimit="10" stroke-width="2"/>
    <path id="Path_195" data-name="Path 195" d="M27,17a10.99,10.99,0,0,1-9.3,10.9A1.526,1.526,0,0,1,16,26.4h0A1.367,1.367,0,0,1,17.4,25h0A1.58,1.58,0,0,1,19,26.6V27" fill="none" stroke="#56bf82" stroke-linejoin="round" stroke-miterlimit="10" stroke-width="2"/>
    <path id="Path_196" data-name="Path 196" d="M9,13a4,4,0,0,0,0,8Z" fill="none" stroke="#56bf82" stroke-linejoin="round" stroke-miterlimit="10" stroke-width="2"/>
    <path id="Path_197" data-name="Path 197" d="M23,21a4,4,0,0,0,0-8Z" fill="none" stroke="#56bf82" stroke-linejoin="round" stroke-miterlimit="10" stroke-width="2"/>
  </g>
</svg>
