<svg xmlns="http://www.w3.org/2000/svg" width="34" height="33.998" viewBox="0 0 34 33.998">
  <g id="task-icon" transform="translate(-0.996 -0.996)">
    <g id="Group_19775" data-name="Group 19775" transform="translate(0.996 0.996)">
      <path id="Path_15471" data-name="Path 15471" d="M7.849,17.155,5.306,19.7l-1-1a.775.775,0,0,0-1.1,1.1L4.76,21.346a.773.773,0,0,0,1.1,0l3.087-3.087a.775.775,0,0,0-1.1-1.1Z" transform="translate(0.103 7.796)" fill="#707070"/>
      <path id="Path_15472" data-name="Path 15472" d="M7.849,12.176,5.306,14.721l-1-1a.775.775,0,1,0-1.1,1.1L4.76,16.366a.773.773,0,0,0,1.1,0l3.087-3.087a.775.775,0,0,0-1.1-1.1Z" transform="translate(0.103 5.049)" fill="#707070"/>
      <path id="Path_15473" data-name="Path 15473" d="M8.739,13.5h6.181a.773.773,0,1,0,0-1.546H8.739a.773.773,0,0,0,0,1.546Z" transform="translate(2.851 5.049)" fill="#707070"/>
      <path id="Path_15474" data-name="Path 15474" d="M7.849,7.2,5.306,9.742l-1-1a.775.775,0,0,0-1.1,1.1L4.76,11.387a.773.773,0,0,0,1.1,0L8.943,8.3a.775.775,0,1,0-1.1-1.1Z" transform="translate(0.103 2.301)" fill="#707070"/>
      <path id="Path_15475" data-name="Path 15475" d="M8.739,8.516H21.1a.773.773,0,0,0,0-1.546H8.739a.773.773,0,1,0,0,1.546Z" transform="translate(2.851 2.301)" fill="#707070"/>
      <path id="Path_15476" data-name="Path 15476" d="M8.739,10.508H21.1a.773.773,0,1,0,0-1.546H8.739a.773.773,0,1,0,0,1.546Z" transform="translate(2.851 3.4)" fill="#707070"/>
      <path id="Path_15477" data-name="Path 15477" d="M28.812,19.695V7.086a3,3,0,0,0-3-3H22.626V2.974A1.992,1.992,0,0,0,20.653,1H9.156A1.992,1.992,0,0,0,7.177,2.974V4.083H3.99A3,3,0,0,0,1,7.084V32a3,3,0,0,0,3,3H27.267A7.636,7.636,0,0,0,31.9,33.448a7.727,7.727,0,0,0-3.087-13.753ZM8.722,2.974a.442.442,0,0,1,.433-.433h11.5a.442.442,0,0,1,.433.433V5.2a.442.442,0,0,1-.433.433H9.156A.442.442,0,0,1,8.722,5.2ZM3.993,33.446A1.451,1.451,0,0,1,2.54,31.993V7.084A1.451,1.451,0,0,1,3.994,5.631H7.239A1.958,1.958,0,0,0,9.156,7.177h11.5a1.958,1.958,0,0,0,1.916-1.546h3.245a1.456,1.456,0,0,1,1.453,1.454V19.54a7.727,7.727,0,0,0-4.636,13.908Zm23.273,0a6.181,6.181,0,1,1,6.181-6.181,6.181,6.181,0,0,1-6.181,6.181Z" transform="translate(-0.996 -0.996)" fill="#707070"/>
      <path id="Path_15478" data-name="Path 15478" d="M18.973,18.979v-2.77a.773.773,0,1,0-1.546,0V19.3a.773.773,0,0,0,.226.547L19.2,21.387a.775.775,0,1,0,1.1-1.1Z" transform="translate(8.071 6.972)" fill="#707070"/>
      <path id="Path_15479" data-name="Path 15479" d="M14.921,13.942H8.739a.773.773,0,1,0,0,1.546h6.181a.773.773,0,1,0,0-1.546Z" transform="translate(2.851 6.148)" fill="#707070"/>
      <path id="Path_15480" data-name="Path 15480" d="M13.375,18.921H8.739a.773.773,0,0,0,0,1.546h4.636a.773.773,0,1,0,0-1.546Z" transform="translate(2.851 8.896)" fill="#707070"/>
      <path id="Path_15481" data-name="Path 15481" d="M13.375,16.929H8.739a.773.773,0,0,0,0,1.546h4.636a.773.773,0,1,0,0-1.546Z" transform="translate(2.851 7.796)" fill="#707070"/>
    </g>
  </g>
</svg>
