<svg xmlns="http://www.w3.org/2000/svg" width="24.996" height="25.002" viewBox="0 0 24.996 25.002">
  <g id="task-icon" transform="translate(-1 -5.5)">
    <g id="Group_19775" data-name="Group 19775" transform="translate(1 5.5)">
      <path id="Path_15471" data-name="Path 15471" d="M6.56,17.1,4.69,18.967l-.735-.735a.572.572,0,1,0-.809.809l1.143,1.137a.568.568,0,0,0,.809,0l2.27-2.27a.572.572,0,0,0-.809-.809Z" transform="translate(-0.715 1.249)" fill="#15ceba"/>
      <path id="Path_15472" data-name="Path 15472" d="M6.56,12.116,4.69,13.988l-.735-.735a.572.572,0,1,0-.809.809L4.288,15.2a.568.568,0,0,0,.809,0l2.27-2.27a.572.572,0,0,0-.809-.809Z" transform="translate(-0.715 0.547)" fill="#15ceba"/>
      <path id="Path_15473" data-name="Path 15473" d="M8.534,13.091H13.08a.568.568,0,0,0,0-1.137H8.534a.568.568,0,1,0,0,1.137Z" transform="translate(-0.015 0.546)" fill="#15ceba"/>
      <path id="Path_15474" data-name="Path 15474" d="M6.56,7.14,4.69,9.009l-.735-.735a.572.572,0,1,0-.809.809l1.143,1.136a.568.568,0,0,0,.809,0l2.267-2.27a.572.572,0,0,0-.809-.809Z" transform="translate(-0.715 -0.156)" fill="#15ceba"/>
      <path id="Path_15475" data-name="Path 15475" d="M8.534,8.107h9.09a.568.568,0,1,0,0-1.137H8.534a.568.568,0,1,0,0,1.137Z" transform="translate(-0.015 -0.156)" fill="#15ceba"/>
      <path id="Path_15476" data-name="Path 15476" d="M8.534,10.1h9.09a.568.568,0,1,0,0-1.137H8.534a.568.568,0,1,0,0,1.137Z" transform="translate(-0.015 0.125)" fill="#15ceba"/>
      <path id="Path_15477" data-name="Path 15477" d="M21.451,14.747V5.475a2.206,2.206,0,0,0-2.206-2.206H16.9V2.452A1.465,1.465,0,0,0,15.452,1H7A1.465,1.465,0,0,0,5.542,2.452v.815H3.2A2.206,2.206,0,0,0,1,5.474V23.8A2.206,2.206,0,0,0,3.206,26H20.315a5.615,5.615,0,0,0,3.407-1.141,5.682,5.682,0,0,0-2.27-10.113ZM6.678,2.452A.325.325,0,0,1,7,2.133h8.456a.325.325,0,0,1,.318.318V4.088a.325.325,0,0,1-.318.318H7a.325.325,0,0,1-.319-.318ZM3.2,24.859A1.067,1.067,0,0,1,2.132,23.79V5.474A1.067,1.067,0,0,1,3.2,4.405H5.588A1.44,1.44,0,0,0,7,5.542h8.456a1.44,1.44,0,0,0,1.409-1.137h2.386a1.071,1.071,0,0,1,1.068,1.069v9.159A5.682,5.682,0,0,0,16.908,24.86Zm17.114,0a4.545,4.545,0,1,1,4.545-4.545,4.545,4.545,0,0,1-4.545,4.545Z" transform="translate(-1 -1)" fill="#15ceba"/>
      <path id="Path_15478" data-name="Path 15478" d="M18.564,18.041V16a.568.568,0,0,0-1.137,0v2.273a.568.568,0,0,0,.166.4l1.138,1.132A.572.572,0,0,0,19.54,19Z" transform="translate(1.32 1.039)" fill="#15ceba"/>
      <path id="Path_15479" data-name="Path 15479" d="M13.08,13.942H8.534a.568.568,0,1,0,0,1.137H13.08a.568.568,0,0,0,0-1.137Z" transform="translate(-0.015 0.828)" fill="#15ceba"/>
      <path id="Path_15480" data-name="Path 15480" d="M11.943,18.921H8.534a.568.568,0,1,0,0,1.137h3.409a.568.568,0,0,0,0-1.137Z" transform="translate(-0.015 1.531)" fill="#15ceba"/>
      <path id="Path_15481" data-name="Path 15481" d="M11.943,16.929H8.534a.568.568,0,1,0,0,1.137h3.409a.568.568,0,0,0,0-1.137Z" transform="translate(-0.015 1.249)" fill="#15ceba"/>
    </g>
  </g>
</svg>
