<svg xmlns="http://www.w3.org/2000/svg" width="30" height="30" viewBox="0 0 30 30">
  <g id="Group_21542" data-name="Group 21542" transform="translate(-0.002 0)">
    <g id="Group_21542-2" data-name="Group 21542" transform="translate(0.002 0)">
      <path id="Path_18070" data-name="Path 18070" d="M29.123,11.309h-3.4V6.563a.886.886,0,0,0-.257-.621c0-.006-5.648-5.707-5.682-5.735a.882.882,0,0,0-.466-.2C19.247,0,19.97,0,6.037,0A1.76,1.76,0,0,0,4.279,1.759v9.551H.881A.879.879,0,0,0,0,12.188V25.313a.879.879,0,0,0,.879.879h3.4v2.051A1.76,1.76,0,0,0,6.037,30h17.93a1.76,1.76,0,0,0,1.758-1.758V26.192h3.4A.879.879,0,0,0,30,25.313V12.188A.879.879,0,0,0,29.123,11.309ZM20.1,3.06l2.624,2.624H20.1ZM6.037,1.759h12.3v4.8a.879.879,0,0,0,.879.879h4.746v3.867H6.037Zm17.93,26.484H6.037V26.192h17.93Zm4.277-3.809H1.76V13.067H28.244Z" transform="translate(-0.002 0)" fill="#e76f51"/>
      <path id="Path_18071" data-name="Path 18071" d="M78.409,249.005H73.856a.854.854,0,1,0,0,1.707h1.423v5.521a.854.854,0,0,0,1.707,0v-5.521h1.423a.854.854,0,0,0,0-1.707Z" transform="translate(-68.847 -234.255)" fill="#e76f51"/>
      <path id="Path_18072" data-name="Path 18072" d="M201.29,249.649a1,1,0,0,0-1.861-.023c-.007.017.1-.269-2.385,6.3a.854.854,0,1,0,1.6.6l.308-.814h2.8l.305.812a.854.854,0,0,0,1.6-.6Zm-1.7,4.364.758-2,.753,2Z" transform="translate(-185.346 -234.254)" fill="#e76f51"/>
      <path id="Path_18073" data-name="Path 18073" d="M333.694,249.361l-1.582,2.215-1.582-2.215a.854.854,0,1,0-1.389.992l1.922,2.691-1.922,2.691a.854.854,0,1,0,1.389.992l1.582-2.215,1.582,2.215a.854.854,0,1,0,1.389-.992l-1.922-2.691,1.922-2.691a.854.854,0,1,0-1.389-.992Z" transform="translate(-309.398 -234.253)" fill="#e76f51"/>
      <path id="Path_18074" data-name="Path 18074" d="M141.954,65h-4.1a.854.854,0,1,0,0,1.707h4.1a.854.854,0,1,0,0-1.707Z" transform="translate(-128.917 -61.305)" fill="#e76f51"/>
      <path id="Path_18075" data-name="Path 18075" d="M141.954,129.005h-4.1a.854.854,0,1,0,0,1.707h4.1a.854.854,0,1,0,0-1.707Z" transform="translate(-128.917 -121.433)" fill="#e76f51"/>
    </g>
  </g>
</svg>
