<svg xmlns="http://www.w3.org/2000/svg" width="24" height="20.169" viewBox="0 0 24 20.169">
  <g id="templates-3558657" transform="translate(-3.273 -2.134)">
    <path id="Path_17680" data-name="Path 17680" d="M26.7,22.3H16.42a.571.571,0,0,1-.572-.572V12.982a.571.571,0,0,1,.572-.572H26.7a.571.571,0,0,1,.572.572v8.745a.56.56,0,0,1-.166.406.571.571,0,0,1-.406.17Zm-9.7-1.148h9.12v-7.6h-9.12Z" fill="#dc3545"/>
    <path id="Path_17681" data-name="Path 17681" d="M20.575,16.909H18.663a.572.572,0,1,1,0-1.143h1.911a.574.574,0,0,1,.572.572A.565.565,0,0,1,20.575,16.909Z" fill="#dc3545"/>
    <path id="Path_17682" data-name="Path 17682" d="M22.865,19.475h-4.2a.572.572,0,0,1,0-1.143h4.2a.572.572,0,0,1,0,1.143Z" fill="#dc3545"/>
    <path id="Path_17683" data-name="Path 17683" d="M23.489,17.463a1.439,1.439,0,0,1-1.025-.428,1.461,1.461,0,0,1-.423-1.025,1.444,1.444,0,0,1,.432-1.025A1.443,1.443,0,0,1,24.524,15a1.449,1.449,0,0,1-1.034,2.461Zm0-1.933a.491.491,0,1,0,.375.851.5.5,0,0,0,.161-.362.494.494,0,0,0-.537-.489Z" fill="#dc3545"/>
    <path id="Path_17684" data-name="Path 17684" d="M12.55,12.022a1.445,1.445,0,1,1,1.021-.423A1.443,1.443,0,0,1,12.55,12.022Zm0-1.937h0a.483.483,0,0,0-.454.305.5.5,0,0,0,.1.537.49.49,0,0,0,.537.1.492.492,0,0,0,.161-.8.478.478,0,0,0-.349-.144Z" fill="#dc3545"/>
    <path id="Path_17685" data-name="Path 17685" d="M18.659,11.149H15.386a.572.572,0,0,1,0-1.143h3.273a.572.572,0,0,1,0,1.143Z" fill="#dc3545"/>
    <path id="Path_17686" data-name="Path 17686" d="M14.409,14.335H11.585a.572.572,0,0,1,0-1.143h2.823a.572.572,0,0,1,0,1.143Z" fill="#dc3545"/>
    <path id="Path_17687" data-name="Path 17687" d="M14.409,16.927H11.585a.572.572,0,0,1,0-1.143h2.823a.572.572,0,1,1,0,1.143Z" fill="#dc3545"/>
    <path id="Path_17688" data-name="Path 17688" d="M14.409,19.519H11.585a.572.572,0,0,1,0-1.143h2.823a.572.572,0,0,1,0,1.143Z" fill="#dc3545"/>
    <path id="Path_17689" data-name="Path 17689" d="M6.633,6.729a1.445,1.445,0,1,1,1.021-.423,1.453,1.453,0,0,1-1.021.423Zm0-1.937a.5.5,0,0,0-.458.3.49.49,0,1,0,.943.183.481.481,0,0,0-.484-.484Z" fill="#dc3545"/>
    <path id="Path_17690" data-name="Path 17690" d="M12.8,5.756H9.36a.476.476,0,0,1,0-.951H12.8a.476.476,0,0,1,0,.951Z" fill="#dc3545"/>
    <path id="Path_17691" data-name="Path 17691" d="M7.6,9.779H5.66a.572.572,0,1,1,0-1.143H7.6a.572.572,0,1,1,0,1.143Z" fill="#dc3545"/>
    <path id="Path_17692" data-name="Path 17692" d="M7.6,12.881H5.66a.572.572,0,1,1,0-1.143H7.6a.572.572,0,1,1,0,1.143Z" fill="#dc3545"/>
    <path id="Path_17693" data-name="Path 17693" d="M7.6,15.988H5.66a.572.572,0,1,1,0-1.143H7.6a.572.572,0,1,1,0,1.143Z" fill="#dc3545"/>
    <path id="Path_17694" data-name="Path 17694" d="M7.6,19.091H5.66a.572.572,0,1,1,0-1.143H7.6a.572.572,0,1,1,0,1.143Z" fill="#dc3545"/>
    <path id="Path_17695" data-name="Path 17695" d="M14.893,21.731v-.572H10.311V8.417h9.626v3.055h1.148V7.846a.571.571,0,0,0-.572-.572H9.735a.571.571,0,0,0-.572.572V21.731a.571.571,0,0,0,.572.572H15.02a1.532,1.532,0,0,1-.127-.572Z" fill="#dc3545"/>
    <path id="Path_17696" data-name="Path 17696" d="M8.208,21.731v-.572H4.416V3.281h9.626V6.336H15.19V2.705a.571.571,0,0,0-.572-.572H3.844a.574.574,0,0,0-.572.572V21.731a.571.571,0,0,0,.572.572H8.321a1.517,1.517,0,0,1-.113-.572Z" fill="#dc3545"/>
  </g>
</svg>
