<svg xmlns="http://www.w3.org/2000/svg" width="20.23" height="22.745" viewBox="0 0 20.23 22.745">
  <g id="timetoresponse" transform="translate(-7.35 -1.9)">
    <path id="Path_174" data-name="Path 174" d="M18.982,5.348V4.309h.968a.363.363,0,0,0,.354-.354v-1.7a.363.363,0,0,0-.354-.354H15.817a.363.363,0,0,0-.354.354v1.7a.363.363,0,0,0,.354.354h.968V5.348A9.754,9.754,0,0,0,10.928,8.23l-.4-.4.661-.661a.342.342,0,0,0,0-.5L9.818,5.3a.342.342,0,0,0-.5,0L7.456,7.12a.342.342,0,0,0,0,.5l1.37,1.37a.4.4,0,0,0,.52,0l.685-.685.449.449a9.6,9.6,0,0,0-2.267,6.212,9.684,9.684,0,1,0,10.77-9.613Zm-9.9,2.905-.874-.9L9.535,6.033l.874.874-.52.52-.26.26ZM17.14,3.6h-.968V2.609H19.6V3.6h-.968a.363.363,0,0,0-.354.354V5.3h-.756V3.955A.384.384,0,0,0,17.14,3.6Zm.732,20.336a8.975,8.975,0,0,1,0-17.95,4.551,4.551,0,0,1,.567.024c.094,0,.189.024.283.024a8.972,8.972,0,0,1-.85,17.9Z" fill="#ffa149"/>
    <path id="Path_175" data-name="Path 175" d="M32.1,26.413l-.071-.071A7.64,7.64,0,0,0,27.023,24.5,7.7,7.7,0,1,0,32.1,26.413ZM27,39.262A7.015,7.015,0,1,1,31.3,26.72l-3.826,4.393a1.525,1.525,0,0,0-.449-.094,1.2,1.2,0,0,0,0,2.409,1.19,1.19,0,0,0,1.181-1.2,1.27,1.27,0,0,0-.189-.661l3.85-4.417a6.949,6.949,0,0,1,2.173,5.078A7.056,7.056,0,0,1,27,39.262Zm.5-7.038a.5.5,0,1,1-.992,0,.5.5,0,0,1,.992,0Z" transform="translate(-9.128 -17.262)" fill="#ffa149"/>
  </g>
</svg>
