<svg xmlns="http://www.w3.org/2000/svg" width="39.787" height="41.985" viewBox="0 0 39.787 41.985">
  <g id="PDF_94998" transform="matrix(0.883, -0.469, 0.469, 0.883, 0, 12.945)">
    <g id="Group_9705" data-name="Group 9705">
      <g id="Group_9704" data-name="Group 9704">
        <path id="Path_14083" data-name="Path 14083" d="M21.967,0H0V32.889H27.574V5.607Zm.292,1.7,3.614,3.614H22.258ZM1,31.893V1H21.262V6.312h5.315V31.893Z" fill="#707070"/>
        <g id="noun-image-2821144" transform="translate(-83.015 11.204) rotate(-1)">
          <path id="Path_15284" data-name="Path 15284" d="M142.173,46.586a.833.833,0,0,1,.839.866.84.84,0,0,1-.244.6.85.85,0,0,1-1.191,0,.84.84,0,0,1-.244-.6.833.833,0,0,1,.839-.866Zm.217.65a.271.271,0,0,0-.433,0v-.027a.378.378,0,0,0-.081.244.3.3,0,1,0,.6,0A.266.266,0,0,0,142.389,47.236Z" transform="translate(-50.946 -45.287)" fill="#707070"/>
          <path id="Path_15285" data-name="Path 15285" d="M90.631,0h11.153A1.722,1.722,0,0,1,103,.514a1.7,1.7,0,0,1,.487,1.191V13.914A1.7,1.7,0,0,1,103,15.105a1.722,1.722,0,0,1-1.218.514H90.631a1.759,1.759,0,0,1-1.705-1.705V1.705A1.615,1.615,0,0,1,89.44.514,1.615,1.615,0,0,1,90.631,0ZM89.467,9.448h13.481V7.174L98.536,2.761,96.4,4.9,94.069,7.255a.268.268,0,0,1-.379-.379L95.829,4.71,93.88,2.761,89.467,7.174Zm13.481.541H89.467v3.925a1.174,1.174,0,0,0,.352.812,1.125,1.125,0,0,0,.812.352h11.153a1.08,1.08,0,0,0,.812-.352,1.174,1.174,0,0,0,.352-.812V9.989Zm-13.481-3.6,4.223-4.2a.262.262,0,0,1,.379,0l2.139,2.139,2.139-2.139a.294.294,0,0,1,.406,0l4.2,4.2V1.706A1.125,1.125,0,0,0,102.6.893a1.08,1.08,0,0,0-.812-.352H90.631a1.125,1.125,0,0,0-.812.352,1.125,1.125,0,0,0-.352.812V6.389Z" transform="translate(0)" fill="#707070"/>
          <path id="Path_15286" data-name="Path 15286" d="M135.031,396.95a1.431,1.431,0,0,1,1.029.433,1.386,1.386,0,0,1,.433,1.029,1.479,1.479,0,0,1-1.462,1.462,1.5,1.5,0,0,1-1.056-.433,1.527,1.527,0,0,1-.406-1.029,1.475,1.475,0,0,1,.406-1.029A1.494,1.494,0,0,1,135.031,396.95Zm.65.812a.945.945,0,0,0-.65-.271.9.9,0,0,0-.65.271.915.915,0,0,0,0,1.3.9.9,0,0,0,.65.271.919.919,0,0,0,.65-1.57Z" transform="translate(-43.398 -385.878)" fill="#707070"/>
          <path id="Path_15287" data-name="Path 15287" d="M299.056,396.95a1.479,1.479,0,0,1,1.462,1.462,1.431,1.431,0,0,1-.433,1.029,1.386,1.386,0,0,1-1.029.433,1.479,1.479,0,0,1-1.462-1.462,1.386,1.386,0,0,1,.433-1.029A1.431,1.431,0,0,1,299.056,396.95Zm.65.812a.915.915,0,1,0,.271.65A.945.945,0,0,0,299.705,397.762Z" transform="translate(-202.848 -385.878)" fill="#707070"/>
          <path id="Path_15288" data-name="Path 15288" d="M463.076,396.95a1.479,1.479,0,0,1,1.489,1.462,1.55,1.55,0,0,1-.433,1.029,1.494,1.494,0,0,1-1.056.433,1.479,1.479,0,0,1-1.462-1.462,1.386,1.386,0,0,1,.433-1.029A1.431,1.431,0,0,1,463.076,396.95Zm.677.812a1.012,1.012,0,0,0-.677-.271.92.92,0,0,0,0,1.841,1.012,1.012,0,0,0,.677-.271.915.915,0,0,0,0-1.3Z" transform="translate(-362.293 -385.878)" fill="#707070"/>
        </g>
      </g>
    </g>
  </g>
</svg>
