<svg xmlns="http://www.w3.org/2000/svg" width="206.272" height="132.177" viewBox="0 0 206.272 132.177">
  <g id="Group_23103" data-name="Group 23103" transform="translate(-11.592 -198.773)">
    <g id="Group_23094" data-name="Group 23094" transform="translate(35.328 225.076)">
      <g id="Group_23093" data-name="Group 23093" transform="translate(0 0)">
        <path id="Path_26137" data-name="Path 26137" d="M92.528,261.105c-13.612,0-24.687,11.682-24.687,26.04s11.074,26.041,24.687,26.041,24.687-11.682,24.687-26.041S106.14,261.105,92.528,261.105Zm0,45.714c-10.1,0-18.32-8.825-18.32-19.673s8.218-19.673,18.32-19.673,18.319,8.825,18.319,19.673S102.629,306.819,92.528,306.819Z" transform="translate(-67.841 -261.105)" fill="#ebebeb"/>
      </g>
    </g>
    <g id="Group_23096" data-name="Group 23096" transform="translate(144.753 225.076)">
      <g id="Group_23095" data-name="Group 23095" transform="translate(0 0)">
        <path id="Path_26138" data-name="Path 26138" d="M351.84,261.105c-13.612,0-24.687,11.682-24.687,26.04s11.074,26.041,24.687,26.041,24.687-11.682,24.687-26.041S365.452,261.105,351.84,261.105Zm0,45.714c-10.1,0-18.319-8.825-18.319-19.673s8.218-19.673,18.319-19.673,18.32,8.826,18.32,19.673S361.941,306.819,351.84,306.819Z" transform="translate(-327.153 -261.105)" fill="#ebebeb"/>
      </g>
    </g>
    <g id="Group_23098" data-name="Group 23098" transform="translate(84.356 198.773)">
      <g id="Group_23097" data-name="Group 23097">
        <path id="Path_26139" data-name="Path 26139" d="M214.4,198.773c-16.747,0-30.371,14.392-30.371,32.082s13.625,32.082,30.371,32.082,30.371-14.392,30.371-32.082S231.144,198.773,214.4,198.773Zm0,57.8c-13.236,0-24-11.535-24-25.715s10.768-25.715,24-25.715,24,11.536,24,25.715S227.634,256.57,214.4,256.57Z" transform="translate(-184.027 -198.773)" fill="#ebebeb"/>
      </g>
    </g>
    <g id="Group_23100" data-name="Group 23100" transform="translate(11.592 268.841)">
      <g id="Group_23099" data-name="Group 23099" transform="translate(0 0)">
        <path id="Path_26140" data-name="Path 26140" d="M205.319,384.954,187.9,377.082a6.644,6.644,0,0,0-2.748-.591,6.576,6.576,0,0,0-3.719,1.134,21.27,21.27,0,0,1-13.544,3.63,26.036,26.036,0,0,0-8.143-5.787l-22.1-9.988a7.44,7.44,0,0,0-7.264.639,27.958,27.958,0,0,1-31.3,0,7.438,7.438,0,0,0-7.264-.638l-22.1,9.988a26.038,26.038,0,0,0-8.143,5.787,21.276,21.276,0,0,1-13.543-3.63,6.577,6.577,0,0,0-3.719-1.134,6.648,6.648,0,0,0-2.75.592l-17.419,7.871a21.365,21.365,0,0,0-12.544,19.434v15.047a7.5,7.5,0,0,0,7.493,7.493H210.371a7.5,7.5,0,0,0,7.493-7.493V404.388A21.365,21.365,0,0,0,205.319,384.954Zm-148.4,3.039c-.089.187-.178.374-.263.563s-.173.386-.256.581q-.207.49-.394.989c-.062.165-.119.331-.178.5q-.15.427-.286.859c-.042.133-.086.266-.125.4-.111.375-.211.753-.305,1.133-.031.127-.062.254-.092.381-.095.41-.182.822-.257,1.239-.015.081-.027.164-.041.245q-.1.582-.173,1.171c-.01.081-.022.161-.031.242q-.075.656-.116,1.32c-.006.1-.011.192-.016.288-.024.455-.041.912-.041,1.371v19.024c0,.265.016.526.04.784.006.063.012.126.019.189.029.255.065.508.116.756,0,.014.007.027.01.041.035.166.073.331.117.494H19.085a1.127,1.127,0,0,1-1.125-1.125V404.387a14.985,14.985,0,0,1,8.8-13.631l17.416-7.87a.318.318,0,0,1,.13-.028.262.262,0,0,1,.134.029,27.61,27.61,0,0,0,12.7,4.646C57.058,387.684,56.991,387.84,56.918,387.993Zm109.56,32.566H62.977a2.267,2.267,0,0,1-2.264-2.265V399.271c0-.272.007-.544.018-.814,0-.086.009-.171.014-.256q.015-.28.038-.558c.008-.1.017-.2.027-.295q.026-.264.059-.526c.012-.1.024-.2.038-.292.027-.189.057-.377.089-.565.014-.079.025-.159.039-.238q.069-.376.152-.748c.026-.115.055-.229.083-.343.033-.139.067-.277.1-.415s.075-.272.114-.407c.032-.111.065-.22.1-.33.046-.149.092-.3.142-.445.027-.08.055-.16.083-.24a19.8,19.8,0,0,1,1.01-2.389l.024-.048a19.764,19.764,0,0,1,9.488-9.09l22.1-9.988a1.071,1.071,0,0,1,1.054.1,34.16,34.16,0,0,0,38.478,0,1.087,1.087,0,0,1,1.053-.1l22.1,9.988a19.77,19.77,0,0,1,9.491,9.095l.02.039a19.746,19.746,0,0,1,1.013,2.4c.027.079.056.157.082.237.049.148.1.3.142.446q.051.165.1.331c.039.135.077.27.113.406s.07.278.1.417c.027.114.057.227.082.341.055.249.107.5.152.749.014.078.026.157.039.235.032.189.063.377.089.567.014.1.025.195.038.292q.033.263.059.527c.01.1.019.2.027.295q.023.279.038.558c0,.086.011.171.014.257.011.271.018.542.018.814v19.023h0A2.268,2.268,0,0,1,166.478,420.559Zm43.892,0H174.809c.044-.162.082-.327.117-.494,0-.014.007-.027.01-.041.051-.248.087-.5.116-.756.007-.063.013-.125.019-.189.024-.259.04-.52.04-.784V399.271c0-.459-.016-.916-.041-1.371-.005-.1-.01-.192-.016-.288-.028-.442-.066-.883-.117-1.32-.009-.08-.021-.159-.031-.24q-.073-.591-.173-1.174c-.014-.081-.026-.162-.041-.243-.076-.417-.162-.83-.258-1.24-.029-.127-.06-.252-.091-.379-.095-.382-.195-.762-.307-1.139-.039-.132-.082-.263-.124-.4q-.135-.432-.286-.86c-.059-.167-.116-.333-.178-.5q-.186-.5-.392-.985c-.083-.2-.171-.393-.259-.589s-.168-.363-.254-.543c-.076-.158-.143-.319-.222-.475a27.621,27.621,0,0,0,12.694-4.645.355.355,0,0,1,.262,0l17.419,7.871a14.985,14.985,0,0,1,8.8,13.631v15.047h0A1.127,1.127,0,0,1,210.371,420.559Z" transform="translate(-11.592 -364.819)" fill="#ebebeb"/>
      </g>
    </g>
  </g>
</svg>
