<svg xmlns="http://www.w3.org/2000/svg" width="29.883" height="30" viewBox="0 0 29.883 30">
  <g id="user_Gear_free_icon" data-name="user Gear free icon" transform="translate(-0.059)">
    <g id="Group_21348" data-name="Group 21348">
      <path id="Path_18032" data-name="Path 18032" d="M27.312,23.926a3.809,3.809,0,1,0-5.874,0,4.42,4.42,0,0,0-1.75,1.389,4.42,4.42,0,0,0-1.75-1.389,3.809,3.809,0,1,0-5.874,0,4.42,4.42,0,0,0-1.75,1.389,4.42,4.42,0,0,0-1.75-1.389,3.809,3.809,0,1,0-5.874,0A4.4,4.4,0,0,0,.059,27.949v1.172A.879.879,0,0,0,.938,30H29.063a.879.879,0,0,0,.879-.879V27.949A4.4,4.4,0,0,0,27.312,23.926Zm-2.937-4.473A2.051,2.051,0,1,1,22.324,21.5a2.051,2.051,0,0,1,2.051-2.051Zm-9.375,0A2.051,2.051,0,1,1,12.949,21.5,2.051,2.051,0,0,1,15,19.453Zm-9.375,0A2.051,2.051,0,1,1,3.574,21.5a2.051,2.051,0,0,1,2.051-2.051Zm-3.809,8.5a2.64,2.64,0,0,1,2.637-2.637H6.8a2.64,2.64,0,0,1,2.637,2.637v.293H1.816Zm9.375,0a2.64,2.64,0,0,1,2.637-2.637h2.344a2.64,2.64,0,0,1,2.637,2.637v.293H11.191Zm16.992.293H20.566v-.293A2.64,2.64,0,0,1,23.2,25.312h2.344a2.64,2.64,0,0,1,2.637,2.637Z" fill="#0f6ec1"/>
      <path id="Path_18033" data-name="Path 18033" d="M29.063,10.547H27.427a13.163,13.163,0,0,0-.53-1.288l1.154-1.154a.879.879,0,0,0,0-1.243L23.079,1.89a.879.879,0,0,0-1.243,0L20.683,3.044a13.156,13.156,0,0,0-1.288-.53V.879A.879.879,0,0,0,18.516,0H11.484a.879.879,0,0,0-.879.879V2.514a13.164,13.164,0,0,0-1.288.53L8.164,1.89a.879.879,0,0,0-1.243,0L1.949,6.862a.879.879,0,0,0,0,1.243L3.1,9.259a13.157,13.157,0,0,0-.53,1.288H.938a.879.879,0,0,0-.879.879v3.516a.879.879,0,0,0,.879.879H9.727a.879.879,0,0,0,.879-.879,4.395,4.395,0,1,1,8.789,0,.879.879,0,0,0,.879.879h8.789a.879.879,0,0,0,.879-.879V11.426a.879.879,0,0,0-.879-.879ZM15,8.789a6.162,6.162,0,0,0-6.09,5.273H7.139a7.91,7.91,0,0,1,15.722,0H21.09A6.162,6.162,0,0,0,15,8.789Zm13.184,5.273H24.628a9.668,9.668,0,0,0-19.257,0H1.816V12.3h1.4a.879.879,0,0,0,.842-.628,11.375,11.375,0,0,1,.894-2.17A.879.879,0,0,0,4.8,8.467l-.983-.983L7.542,3.755l.983.983a.879.879,0,0,0,1.04.151A11.377,11.377,0,0,1,11.736,4a.879.879,0,0,0,.628-.842v-1.4h5.273v1.4A.879.879,0,0,0,18.265,4a11.379,11.379,0,0,1,2.17.894.879.879,0,0,0,1.04-.151l.983-.983,3.729,3.729-.983.983a.879.879,0,0,0-.151,1.04,11.375,11.375,0,0,1,.894,2.17.879.879,0,0,0,.842.628h1.4Z" fill="#0f6ec1"/>
    </g>
  </g>
</svg>
