<svg xmlns="http://www.w3.org/2000/svg" width="20.05" height="12.9" viewBox="0 0 20.05 12.9">
  <g id="view-1093019" transform="translate(-101.075 -114.1)">
    <path id="Path_19718" d="M101.3,121.2c1.1,1.4,5,5.8,9.8,5.8s8.7-4.4,9.8-5.8a1.051,1.051,0,0,0,0-1.3c-1.1-1.4-5-5.8-9.8-5.8s-8.7,4.4-9.8,5.8A1.049,1.049,0,0,0,101.3,121.2Zm9.8-5.8c4.1,0,7.6,4,8.6,5.1-1,1.2-4.5,5.1-8.6,5.1s-7.6-3.9-8.6-5.1c.9-1.2,4.5-5.1,8.6-5.1Z" fill="#219ebc"/>
    <path id="Path_19719" d="M115,120.5a4,4,0,1,0-4,4h0A4.078,4.078,0,0,0,115,120.5Zm-6.6,0a2.6,2.6,0,1,1,2.6,2.6h0a2.647,2.647,0,0,1-2.6-2.6Z" fill="#219ebc"/>
  </g>
</svg>
