<svg id="xlsx-file-format-extension" xmlns="http://www.w3.org/2000/svg" width="20.979" height="23.689" viewBox="0 0 20.979 23.689">
  <path id="Path_271" data-name="Path 271" d="M51.012,8.474h-.569V5.729a.454.454,0,0,0,0-.052.456.456,0,0,0-.11-.3L45.76.159l0,0a.457.457,0,0,0-.093-.078L45.634.06a.488.488,0,0,0-.092-.039L45.517.013A.462.462,0,0,0,45.411,0H34.186a.93.93,0,0,0-.929.929V8.473h-.569A1.328,1.328,0,0,0,31.36,9.8v6.9a1.328,1.328,0,0,0,1.328,1.328h.569V22.76a.93.93,0,0,0,.929.929H49.514a.93.93,0,0,0,.929-.929V18.034h.569a1.328,1.328,0,0,0,1.328-1.328V9.8A1.327,1.327,0,0,0,51.012,8.474ZM34.186.929H44.946V5.682a.465.465,0,0,0,.465.465h4.1V8.474H34.186ZM43.6,13.6c-.913-.318-1.508-.823-1.508-1.622,0-.937.782-1.655,2.079-1.655a3.362,3.362,0,0,1,1.4.277l-.277,1a2.614,2.614,0,0,0-1.149-.261c-.538,0-.8.245-.8.53,0,.351.31.505,1.019.774.97.359,1.426.864,1.426,1.638,0,.921-.709,1.7-2.217,1.7a3.591,3.591,0,0,1-1.557-.334l.252-1.027a3.174,3.174,0,0,0,1.378.342c.571,0,.872-.236.872-.6C44.518,14.028,44.257,13.832,43.6,13.6Zm-2.1,1.263V15.9H38.062V10.408H39.31v4.451ZM34.077,15.9H32.658l1.589-2.78-1.533-2.715h1.427l.481,1c.163.334.285.6.416.913h.016c.131-.351.237-.6.375-.913l.465-1h1.418l-1.549,2.682L37.394,15.9H35.959l-.5-.995c-.2-.383-.334-.668-.489-.986h-.016c-.114.318-.253.6-.424.986Zm15.437,6.607H34.186V18.034H49.514v4.475Zm.008-6.607-.5-.995c-.2-.383-.334-.668-.489-.986H48.52c-.114.318-.253.6-.425.986l-.456.995H46.221l1.589-2.78-1.533-2.715H47.7l.481,1c.163.334.285.6.416.913h.016c.13-.351.236-.6.375-.913l.465-1h1.419l-1.549,2.682,1.63,2.813H49.522Z" transform="translate(-31.36)" fill="#05afb2"/>
</svg>
